<?xml version="1.0" encoding="UTF-8"?>
<svg width="800px" height="220px" viewBox="0 0 800 220" version="1.1" xmlns="http://www.w3.org/2000/svg" xmlns:xlink="http://www.w3.org/1999/xlink">
    <title>5-chars</title>
    <g id="5-chars" stroke="none" stroke-width="1" fill="none" fill-rule="evenodd">
        <g id="Group-5-Copy-5" transform="translate(606, 109.849) scale(-1, 1) translate(-606, -109.849)translate(579.5, 34.1089)">
            <path d="M19,0.391097045 C35.303,-1.79790295 43.136,5.20209705 42.5,21.391097 C38.017,32.550097 29.85,36.717097 18,33.891097 C7.389,26.064097 5.556,16.564097 12.5,5.39109705 C14.826,3.82509705 16.992,2.15909705 19,0.391097045 Z" id="Path" fill="#050505"></path>
            <path d="M32,149.391097 C32.237,148.100097 31.904,147.100097 31,146.391097 C29.745,137.615097 27.911,128.948097 25.5,120.391097 C20.918,128.557097 16.085,136.557097 11,144.391097 C13.41,146.263097 16.077,147.596097 19,148.391097 C19,149.391097 19,150.391097 19,151.391097 C12.359,151.301097 6.026,150.968097 0,150.391097 C1.923,149.583097 3.923,149.083097 6,148.891097 C4.632,147.551097 3.299,146.217097 2,144.891097 C9.47,132.782097 15.47,119.948097 20,106.391097 C14.527,100.147097 11.694,92.814097 11.5,84.391097 C10.114,71.433097 11.448,58.766097 15.5,46.391097 C17.216,42.009097 20.216,39.009097 24.5,37.391097 C27.003,37.881097 29.003,39.214097 30.5,41.391097 C35.512,51.786097 37.845,62.786097 37.5,74.391097 C41.948,79.129097 45.782,84.296097 49,89.891097 C48.275,93.975097 45.942,95.309097 42,93.891097 C39.816,91.875097 37.816,89.708097 36,87.391097 C35.761,93.802097 34.095,99.802097 31,105.391097 C34.323,118.338097 37.323,131.338097 40,144.391097 C44.374,146.127097 48.707,147.960097 53,149.891097 C49.179,151.027097 45.179,151.527097 41,151.391097 C37.333,151.224097 33.667,151.058097 30,150.891097 C30.916,150.613097 31.582,150.113097 32,149.391097 Z" id="Path" fill="#060706"></path>
            <path d="M31,146.391097 C31.904,147.100097 32.237,148.100097 32,149.391097 C27.912,151.071097 23.579,151.738097 19,151.391097 C19,150.391097 19,149.391097 19,148.391097 C20.532,149.261097 22.032,148.927097 23.5,147.391097 C24.375,149.404097 25.709,149.404097 27.5,147.391097 C29.256,148.876097 30.423,148.543097 31,146.391097 Z" id="Path" fill="#515150"></path>
        </g>
        <g id="Group-5-Copy-4" transform="translate(503, 109.849) scale(-1, 1) translate(-503, -109.849)translate(476.5, 34.1089)">
            <path d="M19,0.391097045 C35.303,-1.79790295 43.136,5.20209705 42.5,21.391097 C38.017,32.550097 29.85,36.717097 18,33.891097 C7.389,26.064097 5.556,16.564097 12.5,5.39109705 C14.826,3.82509705 16.992,2.15909705 19,0.391097045 Z" id="Path" fill="#050505"></path>
            <path d="M32,149.391097 C32.237,148.100097 31.904,147.100097 31,146.391097 C29.745,137.615097 27.911,128.948097 25.5,120.391097 C20.918,128.557097 16.085,136.557097 11,144.391097 C13.41,146.263097 16.077,147.596097 19,148.391097 C19,149.391097 19,150.391097 19,151.391097 C12.359,151.301097 6.026,150.968097 0,150.391097 C1.923,149.583097 3.923,149.083097 6,148.891097 C4.632,147.551097 3.299,146.217097 2,144.891097 C9.47,132.782097 15.47,119.948097 20,106.391097 C14.527,100.147097 11.694,92.814097 11.5,84.391097 C10.114,71.433097 11.448,58.766097 15.5,46.391097 C17.216,42.009097 20.216,39.009097 24.5,37.391097 C27.003,37.881097 29.003,39.214097 30.5,41.391097 C35.512,51.786097 37.845,62.786097 37.5,74.391097 C41.948,79.129097 45.782,84.296097 49,89.891097 C48.275,93.975097 45.942,95.309097 42,93.891097 C39.816,91.875097 37.816,89.708097 36,87.391097 C35.761,93.802097 34.095,99.802097 31,105.391097 C34.323,118.338097 37.323,131.338097 40,144.391097 C44.374,146.127097 48.707,147.960097 53,149.891097 C49.179,151.027097 45.179,151.527097 41,151.391097 C37.333,151.224097 33.667,151.058097 30,150.891097 C30.916,150.613097 31.582,150.113097 32,149.391097 Z" id="Path" fill="#060706"></path>
            <path d="M31,146.391097 C31.904,147.100097 32.237,148.100097 32,149.391097 C27.912,151.071097 23.579,151.738097 19,151.391097 C19,150.391097 19,149.391097 19,148.391097 C20.532,149.261097 22.032,148.927097 23.5,147.391097 C24.375,149.404097 25.709,149.404097 27.5,147.391097 C29.256,148.876097 30.423,148.543097 31,146.391097 Z" id="Path" fill="#515150"></path>
        </g>
        <g id="Group-5-Copy-3" transform="translate(400, 109.849) scale(-1, 1) translate(-400, -109.849)translate(373.5, 34.1089)">
            <path d="M19,0.391097045 C35.303,-1.79790295 43.136,5.20209705 42.5,21.391097 C38.017,32.550097 29.85,36.717097 18,33.891097 C7.389,26.064097 5.556,16.564097 12.5,5.39109705 C14.826,3.82509705 16.992,2.15909705 19,0.391097045 Z" id="Path" fill="#050505"></path>
            <path d="M32,149.391097 C32.237,148.100097 31.904,147.100097 31,146.391097 C29.745,137.615097 27.911,128.948097 25.5,120.391097 C20.918,128.557097 16.085,136.557097 11,144.391097 C13.41,146.263097 16.077,147.596097 19,148.391097 C19,149.391097 19,150.391097 19,151.391097 C12.359,151.301097 6.026,150.968097 0,150.391097 C1.923,149.583097 3.923,149.083097 6,148.891097 C4.632,147.551097 3.299,146.217097 2,144.891097 C9.47,132.782097 15.47,119.948097 20,106.391097 C14.527,100.147097 11.694,92.814097 11.5,84.391097 C10.114,71.433097 11.448,58.766097 15.5,46.391097 C17.216,42.009097 20.216,39.009097 24.5,37.391097 C27.003,37.881097 29.003,39.214097 30.5,41.391097 C35.512,51.786097 37.845,62.786097 37.5,74.391097 C41.948,79.129097 45.782,84.296097 49,89.891097 C48.275,93.975097 45.942,95.309097 42,93.891097 C39.816,91.875097 37.816,89.708097 36,87.391097 C35.761,93.802097 34.095,99.802097 31,105.391097 C34.323,118.338097 37.323,131.338097 40,144.391097 C44.374,146.127097 48.707,147.960097 53,149.891097 C49.179,151.027097 45.179,151.527097 41,151.391097 C37.333,151.224097 33.667,151.058097 30,150.891097 C30.916,150.613097 31.582,150.113097 32,149.391097 Z" id="Path" fill="#060706"></path>
            <path d="M31,146.391097 C31.904,147.100097 32.237,148.100097 32,149.391097 C27.912,151.071097 23.579,151.738097 19,151.391097 C19,150.391097 19,149.391097 19,148.391097 C20.532,149.261097 22.032,148.927097 23.5,147.391097 C24.375,149.404097 25.709,149.404097 27.5,147.391097 C29.256,148.876097 30.423,148.543097 31,146.391097 Z" id="Path" fill="#515150"></path>
        </g>
        <g id="Group-5-Copy-2" transform="translate(297, 109.849) scale(-1, 1) translate(-297, -109.849)translate(270.5, 34.1089)">
            <path d="M19,0.391097045 C35.303,-1.79790295 43.136,5.20209705 42.5,21.391097 C38.017,32.550097 29.85,36.717097 18,33.891097 C7.389,26.064097 5.556,16.564097 12.5,5.39109705 C14.826,3.82509705 16.992,2.15909705 19,0.391097045 Z" id="Path" fill="#050505"></path>
            <path d="M32,149.391097 C32.237,148.100097 31.904,147.100097 31,146.391097 C29.745,137.615097 27.911,128.948097 25.5,120.391097 C20.918,128.557097 16.085,136.557097 11,144.391097 C13.41,146.263097 16.077,147.596097 19,148.391097 C19,149.391097 19,150.391097 19,151.391097 C12.359,151.301097 6.026,150.968097 0,150.391097 C1.923,149.583097 3.923,149.083097 6,148.891097 C4.632,147.551097 3.299,146.217097 2,144.891097 C9.47,132.782097 15.47,119.948097 20,106.391097 C14.527,100.147097 11.694,92.814097 11.5,84.391097 C10.114,71.433097 11.448,58.766097 15.5,46.391097 C17.216,42.009097 20.216,39.009097 24.5,37.391097 C27.003,37.881097 29.003,39.214097 30.5,41.391097 C35.512,51.786097 37.845,62.786097 37.5,74.391097 C41.948,79.129097 45.782,84.296097 49,89.891097 C48.275,93.975097 45.942,95.309097 42,93.891097 C39.816,91.875097 37.816,89.708097 36,87.391097 C35.761,93.802097 34.095,99.802097 31,105.391097 C34.323,118.338097 37.323,131.338097 40,144.391097 C44.374,146.127097 48.707,147.960097 53,149.891097 C49.179,151.027097 45.179,151.527097 41,151.391097 C37.333,151.224097 33.667,151.058097 30,150.891097 C30.916,150.613097 31.582,150.113097 32,149.391097 Z" id="Path" fill="#060706"></path>
            <path d="M31,146.391097 C31.904,147.100097 32.237,148.100097 32,149.391097 C27.912,151.071097 23.579,151.738097 19,151.391097 C19,150.391097 19,149.391097 19,148.391097 C20.532,149.261097 22.032,148.927097 23.5,147.391097 C24.375,149.404097 25.709,149.404097 27.5,147.391097 C29.256,148.876097 30.423,148.543097 31,146.391097 Z" id="Path" fill="#515150"></path>
        </g>
        <g id="Group-5-Copy" transform="translate(194, 109.849) scale(-1, 1) translate(-194, -109.849)translate(167.5, 34.1089)">
            <path d="M19,0.391097045 C35.303,-1.79790295 43.136,5.20209705 42.5,21.391097 C38.017,32.550097 29.85,36.717097 18,33.891097 C7.389,26.064097 5.556,16.564097 12.5,5.39109705 C14.826,3.82509705 16.992,2.15909705 19,0.391097045 Z" id="Path" fill="#050505"></path>
            <path d="M32,149.391097 C32.237,148.100097 31.904,147.100097 31,146.391097 C29.745,137.615097 27.911,128.948097 25.5,120.391097 C20.918,128.557097 16.085,136.557097 11,144.391097 C13.41,146.263097 16.077,147.596097 19,148.391097 C19,149.391097 19,150.391097 19,151.391097 C12.359,151.301097 6.026,150.968097 0,150.391097 C1.923,149.583097 3.923,149.083097 6,148.891097 C4.632,147.551097 3.299,146.217097 2,144.891097 C9.47,132.782097 15.47,119.948097 20,106.391097 C14.527,100.147097 11.694,92.814097 11.5,84.391097 C10.114,71.433097 11.448,58.766097 15.5,46.391097 C17.216,42.009097 20.216,39.009097 24.5,37.391097 C27.003,37.881097 29.003,39.214097 30.5,41.391097 C35.512,51.786097 37.845,62.786097 37.5,74.391097 C41.948,79.129097 45.782,84.296097 49,89.891097 C48.275,93.975097 45.942,95.309097 42,93.891097 C39.816,91.875097 37.816,89.708097 36,87.391097 C35.761,93.802097 34.095,99.802097 31,105.391097 C34.323,118.338097 37.323,131.338097 40,144.391097 C44.374,146.127097 48.707,147.960097 53,149.891097 C49.179,151.027097 45.179,151.527097 41,151.391097 C37.333,151.224097 33.667,151.058097 30,150.891097 C30.916,150.613097 31.582,150.113097 32,149.391097 Z" id="Path" fill="#060706"></path>
            <path d="M31,146.391097 C31.904,147.100097 32.237,148.100097 32,149.391097 C27.912,151.071097 23.579,151.738097 19,151.391097 C19,150.391097 19,149.391097 19,148.391097 C20.532,149.261097 22.032,148.927097 23.5,147.391097 C24.375,149.404097 25.709,149.404097 27.5,147.391097 C29.256,148.876097 30.423,148.543097 31,146.391097 Z" id="Path" fill="#515150"></path>
        </g>
    </g>
</svg>