<?xml version="1.0" encoding="UTF-8"?>
<svg width="800px" height="475px" viewBox="0 0 800 475" version="1.1" xmlns="http://www.w3.org/2000/svg" xmlns:xlink="http://www.w3.org/1999/xlink">
    <title>5-syllables-individual</title>
    <g id="5-syllables-individual" stroke="none" stroke-width="1" fill="none" fill-rule="evenodd">
        <g id="Group-8" transform="translate(625.4848, 367.9857) scale(-1, 1) translate(-625.4848, -367.9857)translate(604, 316)">
            <path d="M16.0892988,31.971556 C18.5132988,31.663556 20.8462988,31.997556 23.0892988,32.971556 C22.9652988,33.578556 22.6322988,33.911556 22.0892988,33.971556 C20.0892988,33.304556 18.0892988,32.638556 16.0892988,31.971556 Z" id="Path" fill="#6A6A6A"></path>
            <g id="Group-7">
                <g id="Group-6">
                    <g id="Path-3" fill="#070707">
                        <path d="M23.0892988,102.971556 C22.4222988,102.971556 22.0892988,102.638556 22.0892988,101.971556 C20.8672988,100.185556 20.2002988,98.185556 20.0892988,95.971556 C21.0562988,92.412556 22.2222988,89.079556 23.5892988,85.971556 C20.1922988,89.254556 16.3592988,91.920556 12.0892988,93.971556 C10.9712988,97.073556 11.3052988,100.073556 13.0892988,102.971556 C14.9982988,102.123556 16.9982988,101.789556 19.0892988,101.971556 C19.0892988,102.638556 18.7562988,102.971556 18.0892988,102.971556 C14.4772988,103.982556 10.8102988,104.149556 7.08929882,103.471556 C5.66429882,99.362556 4.33129882,95.196556 3.08929882,90.971556 C6.93529882,88.114556 10.7692988,85.114556 14.5892988,81.971556 C14.7562988,81.138556 14.9222988,80.304556 15.0892988,79.471556 C11.6022988,75.321556 9.60229882,70.487556 9.08929882,64.971556 C9.87629882,59.883556 10.7092988,54.883556 11.5892988,49.971556 C9.22829882,54.066556 7.06229882,58.233556 5.08929882,62.471556 C1.24729882,62.791556 -0.41970118,60.958556 0.0892988196,56.971556 C2.60929882,44.783556 9.94229882,37.116556 22.0892988,33.971556 C22.6322988,33.911556 22.9652988,33.578556 23.0892988,32.971556 C20.8462988,31.997556 18.5132988,31.663556 16.0892988,31.971556 C6.09929882,27.321556 2.59929882,19.654556 5.58929882,8.97155599 C13.1302988,-1.46144401 22.1302988,-2.79544401 32.5892988,4.97155599 C38.1232988,12.051556 38.4562988,19.384556 33.5892988,26.971556 C30.6362988,29.197556 27.4692988,31.030556 24.0892988,32.471556 C26.5892988,33.638556 28.4222988,35.471556 29.5892988,37.971556 C31.4002988,42.459556 32.4002988,47.125556 32.5892988,51.971556 C35.3922988,54.290556 38.5592988,55.956556 42.0892988,56.971556 C43.9082988,60.580556 42.9082988,62.913556 39.0892988,63.971556 C36.2342988,63.354556 33.5672988,62.354556 31.0892988,60.971556 C29.9422988,61.289556 29.1082988,61.955556 28.5892988,62.971556 C28.3202988,65.823556 27.4862988,68.489556 26.0892988,70.971556 C28.0722988,73.455556 30.2392988,75.788556 32.5892988,77.971556 C34.6752988,82.138556 34.3422988,86.138556 31.5892988,89.971556 C29.7132988,91.893556 28.2132988,94.060556 27.0892988,96.471556 C28.4912988,98.351556 30.1582988,100.018556 32.0892988,101.471556 C31.9442988,102.243556 31.6112988,102.910556 31.0892988,103.471556 C28.3682988,104.073556 25.7022988,103.906556 23.0892988,102.971556 Z" id="Path"></path>
                    </g>
                    <path d="M22.0892988,101.971556 C21.0892988,101.971556 20.0892988,101.971556 19.0892988,101.971556 C16.9982988,101.789556 14.9982988,102.123556 13.0892988,102.971556 C11.3052988,100.073556 10.9712988,97.073556 12.0892988,93.971556 C16.3592988,91.920556 20.1922988,89.254556 23.5892988,85.971556 C22.2222988,89.079556 21.0562988,92.412556 20.0892988,95.971556 C20.2002988,98.185556 20.8672988,100.185556 22.0892988,101.971556 Z" id="Path" fill="#F1F1F1"></path>
                </g>
                <path d="M19.0892988,101.971556 C20.0892988,101.971556 21.0892988,101.971556 22.0892988,101.971556 C22.0892988,102.638556 22.4222988,102.971556 23.0892988,102.971556 C21.4222988,104.304556 19.7562988,104.304556 18.0892988,102.971556 C18.7562988,102.971556 19.0892988,102.638556 19.0892988,101.971556 Z" id="Path" fill="#787877"></path>
            </g>
        </g>
        <g id="Group-5-Copy-4" transform="translate(526.5, 344.7401) scale(-1, 1) translate(-526.5, -344.7401)translate(500, 269)">
            <path d="M19,0.391097045 C35.303,-1.79790295 43.136,5.20209705 42.5,21.391097 C38.017,32.550097 29.85,36.717097 18,33.891097 C7.389,26.064097 5.556,16.564097 12.5,5.39109705 C14.826,3.82509705 16.992,2.15909705 19,0.391097045 Z" id="Path" fill="#050505"></path>
            <path d="M32,149.391097 C32.237,148.100097 31.904,147.100097 31,146.391097 C29.745,137.615097 27.911,128.948097 25.5,120.391097 C20.918,128.557097 16.085,136.557097 11,144.391097 C13.41,146.263097 16.077,147.596097 19,148.391097 C19,149.391097 19,150.391097 19,151.391097 C12.359,151.301097 6.026,150.968097 0,150.391097 C1.923,149.583097 3.923,149.083097 6,148.891097 C4.632,147.551097 3.299,146.217097 2,144.891097 C9.47,132.782097 15.47,119.948097 20,106.391097 C14.527,100.147097 11.694,92.814097 11.5,84.391097 C10.114,71.433097 11.448,58.766097 15.5,46.391097 C17.216,42.009097 20.216,39.009097 24.5,37.391097 C27.003,37.881097 29.003,39.214097 30.5,41.391097 C35.512,51.786097 37.845,62.786097 37.5,74.391097 C41.948,79.129097 45.782,84.296097 49,89.891097 C48.275,93.975097 45.942,95.309097 42,93.891097 C39.816,91.875097 37.816,89.708097 36,87.391097 C35.761,93.802097 34.095,99.802097 31,105.391097 C34.323,118.338097 37.323,131.338097 40,144.391097 C44.374,146.127097 48.707,147.960097 53,149.891097 C49.179,151.027097 45.179,151.527097 41,151.391097 C37.333,151.224097 33.667,151.058097 30,150.891097 C30.916,150.613097 31.582,150.113097 32,149.391097 Z" id="Path" fill="#060706"></path>
            <path d="M31,146.391097 C31.904,147.100097 32.237,148.100097 32,149.391097 C27.912,151.071097 23.579,151.738097 19,151.391097 C19,150.391097 19,149.391097 19,148.391097 C20.532,149.261097 22.032,148.927097 23.5,147.391097 C24.375,149.404097 25.709,149.404097 27.5,147.391097 C29.256,148.876097 30.423,148.543097 31,146.391097 Z" id="Path" fill="#515150"></path>
        </g>
        <g id="Group-9" transform="translate(405.5, 227.1677) scale(-1, 1) translate(-405.5, -227.1677)translate(362, 34)">
            <path d="M19,0.211124378 C36.841,-1.43687562 46.008,6.56312438 46.5,24.2111244 C41.462,39.6461244 31.296,44.8131244 16,39.7111244 C5.238,31.5681244 2.738,21.4011244 8.5,9.21112438 C11.603,5.59712438 15.103,2.59712438 19,0.211124378 Z" id="Path" fill="#050505"></path>
            <path d="M65,173.211124 C65.06,173.754124 65.393,174.087124 66,174.211124 C66.999,162.897124 67.332,151.564124 67,140.211124 C68.384,138.910124 69.884,138.910124 71.5,140.211124 C71.833,153.544124 72.167,166.878124 72.5,180.211124 C78.403,184.038124 79.236,188.538124 75,193.711124 C74.052,194.194124 73.052,194.360124 72,194.211124 C71.833,255.879124 72,317.545124 72.5,379.211124 C77.321,381.316124 82.154,383.316124 87,385.211124 C74.017,386.210124 61.017,386.543124 48,386.211124 C48.667,385.544124 49.333,384.878124 50,384.211124 C49.83,328.001124 42.83,272.667124 29,218.211124 C27.171,230.827124 25.671,243.493124 24.5,256.211124 C21.92,295.574124 19.087,334.907124 16,374.211124 C16.689,376.064124 18.022,377.230124 20,377.711124 C26.394,379.787124 32.727,381.953124 39,384.211124 C38.667,384.878124 38.333,385.544124 38,386.211124 C25.04,385.923124 12.373,385.589124 0,385.211124 C1.841,384.481124 3.675,383.814124 5.5,383.211124 C9.68,322.080124 13.18,260.913124 16,199.711124 C16.448,194.700124 14.948,190.533124 11.5,187.211124 C7.724,179.669124 5.724,171.669124 5.5,163.211124 C4.293,132.429124 5.626,101.762124 9.5,71.2111244 C10.591,63.2701244 13.257,55.9361244 17.5,49.2111244 C22.338,43.6751244 26.671,44.0081244 30.5,50.2111244 C37.269,65.8131244 40.936,82.1461244 41.5,99.2111244 C41.833,114.878124 42.167,130.544124 42.5,146.211124 C50.211,155.084124 57.711,164.084124 65,173.211124 Z" id="Path" fill="#060605"></path>
            <path d="M66,189.211124 C66,251.878124 66,314.544124 66,377.211124 C65,377.211124 64,377.211124 63,377.211124 C61.678,377.381124 60.511,377.048124 59.5,376.211124 C58.557,343.807124 56.557,311.473124 53.5,279.211124 C47.816,248.936124 41.649,218.769124 35,188.711124 C39.514,180.161124 42.014,170.995124 42.5,161.211124 C51.063,170.051124 58.896,179.384124 66,189.211124 Z" id="Path" fill="#FAFAF9"></path>
            <path d="M50,384.211124 C46.333,382.878124 42.667,382.878124 39,384.211124 C32.727,381.953124 26.394,379.787124 20,377.711124 C18.022,377.230124 16.689,376.064124 16,374.211124 C19.087,334.907124 21.92,295.574124 24.5,256.211124 C25.671,243.493124 27.171,230.827124 29,218.211124 C42.83,272.667124 49.83,328.001124 50,384.211124 Z" id="Path" fill="#F8F8F6"></path>
            <path d="M50,384.211124 C49.333,384.878124 48.667,385.544124 48,386.211124 C44.667,386.211124 41.333,386.211124 38,386.211124 C38.333,385.544124 38.667,384.878124 39,384.211124 C42.667,382.878124 46.333,382.878124 50,384.211124 Z" id="Path" fill="#5E5E5C"></path>
        </g>
        <g id="Group-8-Copy" transform="translate(289.4848, 367.9857) scale(-1, 1) translate(-289.4848, -367.9857)translate(268, 316)">
            <path d="M16.0892988,31.971556 C18.5132988,31.663556 20.8462988,31.997556 23.0892988,32.971556 C22.9652988,33.578556 22.6322988,33.911556 22.0892988,33.971556 C20.0892988,33.304556 18.0892988,32.638556 16.0892988,31.971556 Z" id="Path" fill="#6A6A6A"></path>
            <g id="Group-7">
                <g id="Group-6">
                    <g id="Path-3" fill="#070707">
                        <path d="M23.0892988,102.971556 C22.4222988,102.971556 22.0892988,102.638556 22.0892988,101.971556 C20.8672988,100.185556 20.2002988,98.185556 20.0892988,95.971556 C21.0562988,92.412556 22.2222988,89.079556 23.5892988,85.971556 C20.1922988,89.254556 16.3592988,91.920556 12.0892988,93.971556 C10.9712988,97.073556 11.3052988,100.073556 13.0892988,102.971556 C14.9982988,102.123556 16.9982988,101.789556 19.0892988,101.971556 C19.0892988,102.638556 18.7562988,102.971556 18.0892988,102.971556 C14.4772988,103.982556 10.8102988,104.149556 7.08929882,103.471556 C5.66429882,99.362556 4.33129882,95.196556 3.08929882,90.971556 C6.93529882,88.114556 10.7692988,85.114556 14.5892988,81.971556 C14.7562988,81.138556 14.9222988,80.304556 15.0892988,79.471556 C11.6022988,75.321556 9.60229882,70.487556 9.08929882,64.971556 C9.87629882,59.883556 10.7092988,54.883556 11.5892988,49.971556 C9.22829882,54.066556 7.06229882,58.233556 5.08929882,62.471556 C1.24729882,62.791556 -0.41970118,60.958556 0.0892988196,56.971556 C2.60929882,44.783556 9.94229882,37.116556 22.0892988,33.971556 C22.6322988,33.911556 22.9652988,33.578556 23.0892988,32.971556 C20.8462988,31.997556 18.5132988,31.663556 16.0892988,31.971556 C6.09929882,27.321556 2.59929882,19.654556 5.58929882,8.97155599 C13.1302988,-1.46144401 22.1302988,-2.79544401 32.5892988,4.97155599 C38.1232988,12.051556 38.4562988,19.384556 33.5892988,26.971556 C30.6362988,29.197556 27.4692988,31.030556 24.0892988,32.471556 C26.5892988,33.638556 28.4222988,35.471556 29.5892988,37.971556 C31.4002988,42.459556 32.4002988,47.125556 32.5892988,51.971556 C35.3922988,54.290556 38.5592988,55.956556 42.0892988,56.971556 C43.9082988,60.580556 42.9082988,62.913556 39.0892988,63.971556 C36.2342988,63.354556 33.5672988,62.354556 31.0892988,60.971556 C29.9422988,61.289556 29.1082988,61.955556 28.5892988,62.971556 C28.3202988,65.823556 27.4862988,68.489556 26.0892988,70.971556 C28.0722988,73.455556 30.2392988,75.788556 32.5892988,77.971556 C34.6752988,82.138556 34.3422988,86.138556 31.5892988,89.971556 C29.7132988,91.893556 28.2132988,94.060556 27.0892988,96.471556 C28.4912988,98.351556 30.1582988,100.018556 32.0892988,101.471556 C31.9442988,102.243556 31.6112988,102.910556 31.0892988,103.471556 C28.3682988,104.073556 25.7022988,103.906556 23.0892988,102.971556 Z" id="Path"></path>
                    </g>
                    <path d="M22.0892988,101.971556 C21.0892988,101.971556 20.0892988,101.971556 19.0892988,101.971556 C16.9982988,101.789556 14.9982988,102.123556 13.0892988,102.971556 C11.3052988,100.073556 10.9712988,97.073556 12.0892988,93.971556 C16.3592988,91.920556 20.1922988,89.254556 23.5892988,85.971556 C22.2222988,89.079556 21.0562988,92.412556 20.0892988,95.971556 C20.2002988,98.185556 20.8672988,100.185556 22.0892988,101.971556 Z" id="Path" fill="#F1F1F1"></path>
                </g>
                <path d="M19.0892988,101.971556 C20.0892988,101.971556 21.0892988,101.971556 22.0892988,101.971556 C22.0892988,102.638556 22.4222988,102.971556 23.0892988,102.971556 C21.4222988,104.304556 19.7562988,104.304556 18.0892988,102.971556 C18.7562988,102.971556 19.0892988,102.638556 19.0892988,101.971556 Z" id="Path" fill="#787877"></path>
            </g>
        </g>
        <g id="Group-4" transform="translate(176, 294.2291) scale(-1, 1) translate(-176, -294.2291)translate(135, 168)">
            <path d="M36,0.321678632 C51.402,-1.59732137 60.068,5.06967863 62,20.3216786 C60.531,32.1236786 53.864,38.4576786 42,39.3216786 C36.46,38.9766786 31.626,36.9766786 27.5,33.3216786 C27.724,42.6516786 24.558,50.4856786 18,56.8216786 C11.723,60.4506786 5.723,60.1176786 0,55.8216786 C4.552,54.2336786 7.385,51.0666786 8.5,46.3216786 C8.546,35.5566786 9.213,24.8906786 10.5,14.3216786 C14.652,9.93467863 19.819,8.10067863 26,8.82167863 C28.844,5.25867863 32.178,2.42567863 36,0.321678632 Z" id="Path" fill="#060606"></path>
            <path d="M57,252.321679 C55.949,251.599679 55.282,250.599679 55,249.321679 C52.053,226.419679 47.886,203.752679 42.5,181.321679 C34.333,201.154679 26.167,220.988679 18,240.821679 C18.145,241.593679 18.478,242.260679 19,242.821679 C24.693,245.336679 30.359,247.836679 36,250.321679 C37,250.654679 37.667,251.321679 38,252.321679 C27.386,252.084679 17.052,251.751679 7,251.321679 C9.667,250.654679 12.333,249.988679 15,249.321679 C12.917,247.862679 10.75,246.529679 8.5,245.321679 C18.195,218.750679 28.028,192.083679 38,165.321679 C34.393,164.332679 30.726,163.998679 27,164.321679 C28.195,130.647679 29.695,96.9806786 31.5,63.3216786 C32.211,56.7116786 33.877,50.3786786 36.5,44.3216786 C39.167,41.6546786 41.833,41.6546786 44.5,44.3216786 C47.935,49.9536786 50.602,55.9536786 52.5,62.3216786 C62.941,69.2656786 63.608,76.9326786 54.5,85.3216786 C53.982,95.6746786 54.316,106.007679 55.5,116.321679 C59.067,119.798679 62.4,123.465679 65.5,127.321679 C65.833,118.654679 66.167,109.988679 66.5,101.321679 C68.438,99.9616786 70.104,100.294679 71.5,102.321679 C71.833,112.654679 72.167,122.988679 72.5,133.321679 C78.233,137.632679 78.399,141.965679 73,146.321679 C71.667,179.654679 71.667,212.988679 73,246.321679 C76.228,247.764679 79.228,249.431679 82,251.321679 C73.693,252.319679 65.36,252.652679 57,252.321679 Z" id="Path" fill="#0C0C0B"></path>
            <path d="M57,133.321679 C59.63,135.449679 62.13,137.782679 64.5,140.321679 C64.687,175.017679 65.187,209.684679 66,244.321679 C65,244.321679 64,244.321679 63,244.321679 C58.422,218.028679 54.088,191.694679 50,165.321679 C53,165.321679 56,165.321679 59,165.321679 C58.333,154.654679 57.667,143.988679 57,133.321679 Z" id="Path" fill="#FBFBFB"></path>
            <path d="M55,249.321679 C51.13,249.861679 47.797,249.861679 45,249.321679 C44.765,248.724679 44.265,248.391679 43.5,248.321679 C40.831,248.837679 38.331,249.504679 36,250.321679 C30.359,247.836679 24.693,245.336679 19,242.821679 C18.478,242.260679 18.145,241.593679 18,240.821679 C26.167,220.988679 34.333,201.154679 42.5,181.321679 C47.886,203.752679 52.053,226.419679 55,249.321679 Z" id="Path" fill="#F7F7F6"></path>
            <path d="M55,249.321679 C55.282,250.599679 55.949,251.599679 57,252.321679 C51.847,252.503679 46.514,252.503679 41,252.321679 C41.711,250.620679 43.045,249.620679 45,249.321679 C47.797,249.861679 51.13,249.861679 55,249.321679 Z" id="Path" fill="#454544"></path>
        </g>
        <text id="wəl" font-family="CharisSIL, SauceCodePro Nerd Font" font-size="18" font-weight="normal" fill="#000000">
            <tspan x="614" y="447">wəl</tspan>
        </text>
        <text id="dʒə" font-family="CharisSIL, SauceCodePro Nerd Font" font-size="18" font-weight="normal" fill="#000000">
            <tspan x="510" y="447">dʒə</tspan>
        </text>
        <text id="ˈvɪ" font-family="CharisSIL, SauceCodePro Nerd Font" font-size="18" font-weight="normal" fill="#000000">
            <tspan x="392" y="447">ˈvɪ</tspan>
        </text>
        <text id="də" font-family="CharisSIL, SauceCodePro Nerd Font" font-size="18" font-weight="normal" fill="#000000">
            <tspan x="278" y="447">də</tspan>
        </text>
        <text id="ˌɪn" font-family="CharisSIL, SauceCodePro Nerd Font" font-size="18" font-weight="normal" fill="#000000">
            <tspan x="159" y="447">ˌɪn</tspan>
        </text>
    </g>
</svg>