<?xml version="1.0" encoding="UTF-8"?>
<svg width="1280px" height="800px" viewBox="0 0 1280 800" version="1.1" xmlns="http://www.w3.org/2000/svg" xmlns:xlink="http://www.w3.org/1999/xlink">
    <title>Speech-Tract(zh-CN)</title>
    <g id="Page-1" stroke="none" stroke-width="1" fill="none" fill-rule="evenodd">
        <g id="Speech-Tract(zh-CN)">
            <rect id="Rectangle" x="0" y="0" width="1280" height="800"></rect>
            <g id="speech-tract" transform="translate(353, 30)">
                <path d="M41.0086634,364.016671 C34.1286634,365.166671 31.0086634,378.016671 31.0086634,378.016671 C31.0086634,378.016671 28.4686634,386.406671 31.0086634,394.016671 C33.4686634,401.406671 37.8486634,405.566671 40.0086634,408.016671 C42.1686634,410.466671 44.6986634,414.656671 51.0086634,423.016671 C55.7886634,429.346671 62.7086634,435.526671 67.0086634,447.016671 C73.3986634,464.096671 75.2286634,485.166671 78.0086634,501.016671 C80.1986634,513.516671 83.4386634,522.786671 85.0086634,525.016671 C86.5786634,527.246671 86.6986634,530.286671 104.008663,534.016671 C118.738663,537.186671 146.268663,536.896671 168.008663,537.016671 C188.348663,537.126671 215.518663,535.016671 234.008663,532.016671 C255.598663,528.506671 260.918663,524.866671 267.008663,524.016671 C273.098663,523.166671 288.588663,518.226671 307.008663,533.016671 C324.028663,546.686671 327.008663,552.016671 327.008663,552.016671 C327.008663,552.016671 330.208663,557.676671 334.008663,568.016671 C341.168663,587.596671 332.248663,592.876671 337.008663,606.016671 C341.678663,618.896671 349.858663,611.696671 361.158663,642.916671 C376.358663,685.126671 391.008663,726.016671 391.008663,726.016671 C391.008663,726.016671 394.068663,737.266671 403.008663,740.016671 C406.358663,741.046671 409.148663,739.266671 413.008663,739.016671 C421.188663,738.486671 430.008663,738.016671 430.008663,738.016671 L467.008663,736.016671 L433.008663,702.016671 L393.008663,613.016671 L373.008663,526.016671 L419.008663,462.016671 L440.008663,430.016671 C440.008663,430.016671 461.778663,402.416671 426.008663,374.016671 C408.128663,360.686671 403.508663,354.936671 386.008663,350.016671 C302.378663,326.506671 256.308663,351.196671 242.008663,353.016671 C213.688663,356.616671 178.008663,356.016671 178.008663,356.016671 C178.008663,356.016671 165.638663,357.676671 164.008663,372.016671 C162.378663,386.356671 169.558663,389.916671 172.008663,392.016671 C174.458663,394.116671 176.268663,396.046671 181.008663,401.016671 C186.118663,406.376671 192.848663,412.946671 196.008663,420.016671 C199.918663,428.756671 195.808663,437.336671 194.008663,439.016671 C189.278663,443.426671 176.068663,432.266671 174.008663,430.016671 C166.548663,421.856671 160.248663,411.046671 155.008663,405.016671 C151.728663,401.236671 149.008663,401.016671 149.008663,401.016671 L129.008663,415.016671 L129.008663,449.016671 L116.008663,452.016671 L106.008663,447.016671 C106.008663,447.016671 103.348663,433.536671 99.0086634,419.016671 C93.4886634,400.526671 88.9786634,384.166671 86.0086634,380.016671 C83.0386634,375.866671 70.9786634,361.686671 41.0086634,364.016671 Z" id="Path" stroke="#000000" stroke-width="2" fill="#8A8A89"></path>
                <text id="舌背" font-family="PingFangSC-Regular, PingFang SC" font-size="18" font-weight="normal" fill="#000000">
                    <tspan x="303" y="361">舌背</tspan>
                </text>
                <text id="舌尖" font-family="PingFangSC-Regular, PingFang SC" font-size="18" font-weight="normal" fill="#000000">
                    <tspan x="176" y="378">舌尖</tspan>
                </text>
                <path d="M478.008663,738.016671 C477.578663,738.406671 462.198663,736.246671 446.008663,731.016671 C434.768663,727.386671 423.298663,720.946671 417.008663,717.016671 C401.648663,707.416671 389.008663,663.016671 389.008663,663.016671 C389.008663,663.016671 373.608663,623.786671 362.008663,591.016671 C354.558663,569.956671 349.008663,550.016671 349.008663,550.016671 C349.008663,550.016671 346.308663,537.876671 335.008663,528.016671 C322.848663,517.406671 309.488663,513.476671 306.008663,512.016671 C302.528663,510.556671 297.718663,507.606671 299.008663,505.016671 C300.208663,502.616671 310.008663,503.016671 310.008663,503.016671 C310.008663,503.016671 318.488663,503.706671 328.008663,499.016671 C333.358663,496.376671 339.048663,489.466671 345.008663,486.016671 C361.118663,476.676671 377.008663,470.016671 377.008663,470.016671 L436.008663,447.016671 C436.008663,447.016671 451.908663,441.286671 464.008663,432.016671 C475.378663,423.306671 481.628663,410.976671 483.008663,411.016574 C484.388663,411.056671 486.818663,414.386671 486.750143,418.136671 C486.658663,423.466671 485.008663,430.016671 485.008663,430.016671 C485.008663,430.016671 481.348663,443.426671 478.008663,449.016671 C469.208663,463.766671 457.008663,475.016671 457.008663,475.016671 C457.008663,475.016671 442.268663,494.396671 428.008663,516.016671 C411.448663,541.126671 396.818663,564.756671 396.008663,566.016671 C395.198663,567.276671 390.938663,574.986671 394.008663,583.016671 C399.298663,596.836671 409.788663,609.036671 413.008663,616.016671 C416.228663,622.996671 416.408663,623.446671 421.298663,634.136671 C427.298663,647.246671 434.068663,665.836671 441.008663,681.016671 C448.538663,697.466671 453.998663,706.926671 456.008663,710.016671 C456.798663,711.226671 460.368663,715.816671 464.408663,720.936671 C467.568663,724.946671 471.368663,727.716671 474.008663,731.016671 C476.568663,734.216671 478.438663,737.626671 478.008663,738.016671 Z" id="Path" stroke="#000000" stroke-width="2" fill="#BFC0BF"></path>
                <path d="M87.0086634,517.016671 C87.0086634,517.016671 93.9486634,507.896671 98.0086634,484.016671 C102.428663,457.986671 103.008663,424.016671 103.008663,424.016671 C103.008663,424.016671 106.548663,397.556671 119.008663,398.016671 C123.728663,398.186671 139.468663,384.976671 145.008663,389.016671 C149.158663,392.046671 149.228663,397.936671 151.008663,404.016671 C154.108663,414.586671 158.008663,426.016671 158.008663,426.016671 C158.008663,426.016671 161.508663,437.276671 165.008663,448.016671 C168.508663,458.776671 171.008663,469.016671 171.008663,469.016671 C171.008663,469.016671 174.928663,487.626671 164.008663,499.016671 C151.528663,512.026671 128.598663,516.066671 125.008663,518.016671 C121.418663,519.966671 108.438663,527.506671 107.008663,528.016671 C105.578663,528.526671 94.1486634,529.846671 89.0086634,527.016671 C84.1486634,524.346671 87.0086634,517.016671 87.0086634,517.016671 Z" id="Path" stroke="#000000" stroke-width="2" fill="#BFC0BF"></path>
                <path d="M114.008663,356.016671 C114.008663,356.016671 111.778663,366.456671 112.008663,376.016671 C112.278663,387.306671 115.008663,398.016671 115.008663,398.016671 C115.008663,398.016671 115.838663,400.336671 118.008663,402.016671 C121.438663,404.686671 125.908663,406.016671 132.008663,406.016671 C135.738663,406.016671 146.608663,406.016671 149.008663,398.016671 C150.518663,392.996671 147.008663,385.016671 147.008663,385.016671 L123.008663,354.016671 C123.008663,354.016671 120.178663,350.536671 118.008663,351.016671 C115.678663,351.536671 114.008663,356.016671 114.008663,356.016671 Z" id="Path" stroke="#000000" stroke-width="2" fill="#F2F1F0"></path>
                <path d="M542.008663,715.016671 C542.008663,715.016671 534.938663,691.276671 528.008663,663.016671 C524.038663,646.836671 521.198663,630.376671 517.008663,613.016671 C514.578663,602.956671 513.218663,592.876671 511.008663,584.016671 C505.158663,560.606671 499.008663,545.016671 499.008663,545.016671 C499.008663,545.016671 495.458663,530.166671 498.008663,520.016671 C499.778663,512.986671 506.958663,507.726671 510.008663,507.016671 C513.418663,506.226671 519.418663,506.376671 523.008663,513.016671 C527.368663,521.086671 528.428663,533.286671 530.008663,539.016671 C531.588663,544.746671 535.668663,556.496671 542.008663,582.016671 C547.118663,602.556671 545.948663,626.386671 551.008663,648.016671 C558.288663,679.096671 569.178663,699.396671 571.008663,705.016671 C572.838663,710.636671 567.028663,729.286671 557.008663,730.016671 C546.988663,730.746671 542.008663,715.016671 542.008663,715.016671 Z" id="Path" stroke="#000000" stroke-width="2" fill="#BFC0BF"></path>
                <path d="M114.008663,191.016671 L108.008663,287.016671 L133.008663,289.016671 C133.008663,289.016671 151.188663,291.316671 167.008663,285.016671 C183.168663,278.576671 202.858663,254.866671 220.008663,246.016671 C232.738663,237.326671 251.028663,238.246671 261.008663,238.016671 C270.988663,237.786671 285.188663,234.676671 310.008663,239.016671 C318.928663,240.576671 325.458663,246.346671 335.008663,248.016671 C348.558663,250.386671 358.768663,254.516671 370.008663,257.016671 C388.128663,261.036671 404.008663,263.016671 404.008663,263.016671 C404.008663,263.016671 418.598663,260.446671 421.008663,253.016671 C423.418663,245.586671 421.008663,240.016671 421.008663,240.016671 C421.008663,240.016671 408.498663,236.266671 397.008663,234.016671 C385.498663,231.766671 375.008663,231.016671 375.008663,231.016671 C375.008663,231.016671 359.118663,227.176671 337.008663,222.016671 C328.398663,220.006671 320.498663,216.976671 312.008663,215.016671 C297.928663,211.766671 294.818663,210.906671 285.008663,210.016671 C275.198663,209.126671 275.498663,210.206671 246.008663,208.016671 C227.248663,206.626671 192.068663,203.696671 173.008663,201.016671 C157.488663,198.836671 144.678663,189.206671 134.008663,188.016671 C122.518663,186.736671 114.008663,191.016671 114.008663,191.016671 Z" id="Path" stroke="#000000" stroke-width="2" fill="#BFC0BF"></path>
                <path d="M491.008663,344.016671 C490.288663,343.836671 478.958663,318.916671 476.008663,313.016671 C473.058663,307.116671 469.268663,301.826671 462.008663,293.016671 C455.288663,284.846671 450.678663,281.046671 448.008663,279.016671 C445.338663,276.986671 443.038663,273.796671 436.008663,271.016671 C423.308663,265.996671 405.008663,262.016671 405.008663,262.016671 C405.008663,262.016671 400.978663,261.736671 399.008663,260.016671 C396.978663,258.236671 397.008639,256.836671 397.008639,255.016671 C397.008639,253.196671 399.528663,247.196671 405.008663,243.016671 C409.998663,239.206671 415.578663,238.756671 418.008663,239.016671 C420.438663,239.276671 432.458663,246.376671 446.008663,258.016671 C466.488663,275.606671 486.028663,296.216671 489.008663,300.016671 C491.988663,303.816671 495.148663,308.486671 497.008663,318.016671 C497.308663,319.566671 496.938663,322.536671 497.008663,324.016671 C497.518663,335.376671 491.728663,344.196671 491.008663,344.016671 Z" id="Path" stroke="#000000" stroke-width="2" fill="#8A8A89"></path>
                <path d="M84.0086634,203.016671 C81.1386634,205.366671 71.5086634,218.016671 62.0086634,237.016671 C49.8386634,261.346671 41.6486634,284.806671 41.0086634,288.016671 C40.3686634,291.226671 39.9686634,299.026671 42.0086634,304.016671 C44.4386634,309.946671 49.0086634,312.016671 49.0086634,312.016671 C49.0086634,312.016671 55.6186634,316.056671 63.0086634,319.016671 C70.6086634,322.056671 75.7486634,323.716671 79.0086634,324.016671 C82.2686634,324.316671 84.7686634,324.086671 89.0086634,322.016671 C93.2486634,319.946671 97.5386634,311.886671 104.008663,301.016671 C110.028663,290.906671 110.378663,284.546671 111.008663,282.016671 C111.638663,279.486671 110.378663,272.586671 111.008663,269.016671 C111.638663,265.446671 119.728663,256.646671 125.008663,243.016671 C129.058663,232.576671 130.138663,227.266671 130.008663,222.016671 C129.878663,216.766671 128.568663,213.826671 125.008663,206.016671 C121.898663,199.206671 116.748663,192.686671 115.008663,192.016671 C111.268663,190.576671 106.618663,192.566671 99.0086634,195.016671 C91.1186634,197.556671 86.8786634,200.666671 84.0086634,203.016671 Z" id="Path" stroke="#000000" stroke-width="2" fill="#8A8A89"></path>
                <path d="M101.008663,329.016671 C100.368663,327.896671 96.8986634,304.746671 102.008663,291.016671 C106.328663,279.426671 116.108663,279.276671 117.008663,279.016671 C117.908663,278.756671 122.598663,276.716671 124.008663,277.016671 C125.418663,277.316671 128.478663,279.386671 130.008663,287.016671 C131.478663,294.376671 131.968663,303.896671 131.008663,307.016671 C130.528663,308.566671 122.848663,316.406671 117.008663,323.016671 C111.078663,329.726671 106.048663,334.176671 105.008663,334.016671 C102.928663,333.696671 101.648663,330.136671 101.008663,329.016671 Z" id="Path" stroke="#000000" stroke-width="2" fill="#F2F1F0"></path>
                <path d="M9.00866338,137.016671 C9.00866338,137.016671 47.7586634,102.376671 76.0086634,71.0166709 C87.6986634,58.0466709 96.9386634,44.7166709 104.008663,35.0166709 C112.778663,22.9966709 118.008663,16.0166709 118.008663,16.0166709 C118.008663,16.0166709 124.568663,9.04667089 131.008663,5.01667089 C136.488663,1.58667089 138.688663,-0.193329112 145.008663,0.0166708883 C151.328663,0.226670888 154.578663,4.57667089 174.008663,7.01667089 C187.998663,8.77667089 208.378663,8.83667089 227.008663,11.0166709 C256.998663,14.5266709 289.148663,16.5566709 315.008663,20.0166709 C343.998663,23.8966709 365.008663,29.0166709 365.008663,29.0166709 C365.008663,29.0166709 422.648663,46.3766709 461.008663,64.0166709 C497.608663,80.8566709 515.008663,98.0166709 515.008663,98.0166709 C515.008663,98.0166709 535.628663,109.906671 550.008663,156.016671 C553.578663,167.466671 557.888663,181.946671 562.008663,196.016671 C565.638663,208.436671 569.188663,220.376671 571.008663,232.016671 C575.558663,261.176671 574.008663,280.016671 574.008663,280.016671 C574.008663,280.016671 573.258663,284.276671 572.008663,287.016671 C570.758663,289.776671 569.658663,291.756671 567.008663,290.016671 C564.358663,288.276671 544.588663,262.636671 523.008663,248.016671 C496.048663,229.746671 460.998663,213.726671 427.008663,180.016671 C404.938663,158.126671 386.788663,133.736671 371.008663,113.016671 C343.658663,77.1166709 326.008663,50.0166709 326.008663,50.0166709 C326.008663,50.0166709 320.818663,43.8066709 315.008663,40.0166709 C309.328663,36.3066709 305.498663,35.5866709 303.008663,35.0166709 C300.518663,34.4466709 242.178663,35.4766709 199.008663,40.0166709 C168.378663,43.2366709 158.358663,48.1366709 151.008663,51.0166709 C143.658663,53.8966709 131.688663,66.5266709 110.008663,86.0166709 C78.9186634,113.966671 43.4986634,147.646671 42.0086634,149.016671 C40.5186634,150.386671 39.7886634,152.636671 39.0086634,156.016671 C38.2886634,159.126671 39.0086634,162.016671 39.0086634,162.016671 C39.0086634,162.016671 42.9486634,170.346671 43.0086634,173.016671 C43.0686634,175.686671 42.8786634,178.606671 40.0086634,183.016671 C36.4486634,188.486671 33.1486634,191.806671 31.0086634,193.016671 C28.8686634,194.226671 19.4386634,195.956671 13.0086634,190.016671 C5.94866338,183.496671 2.97866338,171.146671 2.00866338,168.016671 C1.03866338,164.886671 -0.11133662,156.326671 0.00866337995,152.016671 C0.12866338,147.706671 1.69866338,143.746671 3.00866338,142.016671 C4.31866338,140.286671 9.00866338,137.016671 9.00866338,137.016671 Z" id="Path" stroke="#000000" stroke-width="2" fill="#BFC0BF"></path>
                <path d="M409.008663,76.0166709 C408.828663,77.4166709 411.968663,102.826671 420.008663,129.016671 C427.448663,153.256671 434.388663,168.946671 435.008663,170.016671 C435.628663,171.086671 437.348663,173.926671 441.008663,176.016671 C444.338663,177.916671 447.178663,177.946671 449.008663,178.016671 C450.838663,178.086671 456.028663,178.706671 465.008663,176.016671 C478.158663,172.066671 495.208663,164.686671 498.458663,163.256671 C493.418663,165.466671 502.778663,162.146671 505.008663,158.016671 C506.738663,154.806671 506.008663,150.016671 506.008663,150.016671 C506.008663,150.016671 505.538663,143.616671 504.008663,138.016671 C502.538663,132.616671 500.008663,128.016671 500.008663,128.016671 C500.008663,128.016671 496.188663,122.606671 488.008663,117.016671 C481.548663,112.606671 471.268663,108.666671 463.008663,103.016671 C452.428663,95.7866709 443.098663,88.5466709 435.008663,83.0166709 C427.288663,77.7366709 421.008663,74.0166709 421.008663,74.0166709 C421.008663,74.0166709 417.638663,71.7866709 415.008663,72.0166709 C412.378663,72.2466709 409.188663,74.6166709 409.008663,76.0166709 Z" id="Path" stroke="#000000" stroke-width="2" fill="#FFFFFF"></path>
                <path d="M457.008663,587.016671 C457.008663,587.016671 431.008663,588.756671 415.008663,592.016671 C406.898663,593.666671 403.008663,598.016671 403.008663,598.016671 C403.008663,598.016671 419.958663,594.786671 425.008663,595.016671 C430.058663,595.246671 450.188663,599.786671 455.008663,600.016671 C459.828663,600.246671 466.218663,599.466671 477.008663,598.016671 C491.628663,596.046671 507.008663,593.016671 507.008663,593.016671 C507.008663,593.016671 501.808663,591.806671 494.008663,590.016671 C490.678663,589.256671 480.788663,587.146671 474.408663,586.586671 C461.318663,585.436671 457.008663,587.016671 457.008663,587.016671 Z" id="Path" stroke="#000000" stroke-width="2"></path>
            </g>
            <text id="舌尾" transform="translate(770, 429.5) rotate(30) translate(-770, -429.5)" font-family="PingFangSC-Regular, PingFang SC" font-size="18" font-weight="normal" fill="#000000">
                <tspan x="752" y="436">舌尾</tspan>
            </text>
            <line x1="502.5" y1="306.5" x2="384.5" y2="278.5" id="Line-8" stroke="#575757" stroke-width="2" stroke-linecap="square"></line>
            <line x1="807" y1="307" x2="771" y2="238" id="Line-8-Copy" stroke="#575757" stroke-width="2" stroke-linecap="square"></line>
            <polyline id="Line-16" stroke="#575757" stroke-width="2" stroke-linecap="square" points="371.639949 442.5 362.447646 518.880597 416.447646 557.5"></polyline>
            <text id="下巴" font-family="PingFangSC-Regular, PingFang SC" font-size="18" font-weight="normal" fill="#000000">
                <tspan x="312" y="528">下巴</tspan>
            </text>
            <polyline id="Line-7" stroke="#575757" stroke-width="2" stroke-linecap="square" points="461.5 354.5 393.490655 374.019377 473.5 399.5"></polyline>
            <text id="牙齿" font-family="PingFangSC-Regular, PingFang SC" font-size="18" font-weight="normal" fill="#000000">
                <tspan x="312" y="383">牙齿</tspan>
            </text>
            <text id="龈脊" font-family="PingFangSC-Regular, PingFang SC" font-size="18" font-weight="normal" fill="#000000">
                <tspan x="312" y="273">龈脊</tspan>
            </text>
            <text id="上唇" font-family="PingFangSC-Regular, PingFang SC" font-size="18" font-weight="normal" fill="#000000">
                <tspan x="408" y="326">上唇</tspan>
            </text>
            <text id="下唇" font-family="PingFangSC-Regular, PingFang SC" font-size="18" font-weight="normal" fill="#000000">
                <tspan x="396" y="428">下唇</tspan>
            </text>
            <text id="舌" font-family="PingFangSC-Regular, PingFang SC" font-size="18" font-weight="normal" fill="#000000">
                <tspan x="630" y="458">舌</tspan>
            </text>
            <path d="M810.5,616.5 L914.172822,575.398346 C847.596007,611.837095 814.3076,630.05647 814.3076,630.05647" id="Line-9" stroke="#575757" stroke-width="2" stroke-linecap="square"></path>
            <text id="声带" font-family="PingFangSC-Regular, PingFang SC" font-size="18" font-weight="normal" fill="#000000">
                <tspan x="934" y="575">声带</tspan>
            </text>
            <line x1="846" y1="400" x2="914.5" y2="447.5" id="Line-10" stroke="#575757" stroke-width="2" stroke-linecap="square"></line>
            <text id="咽" font-family="PingFangSC-Regular, PingFang SC" font-size="18" font-weight="normal" fill="#000000">
                <tspan x="934" y="461">咽</tspan>
            </text>
            <line x1="782.5" y1="588.5" x2="639.5" y2="630.5" id="Line-11" stroke="#575757" stroke-width="2" stroke-linecap="square"></line>
            <text id="喉" font-family="PingFangSC-Regular, PingFang SC" font-size="18" font-weight="normal" fill="#000000">
                <tspan x="604" y="642">喉</tspan>
            </text>
            <path id="Line-14" d="M874.466742,742.877951 L874.829271,743.809924 C876.045978,746.937786 877.247456,750.048463 878.433705,753.141956 L878.791749,754.075661 L876.924339,754.791749 L876.566295,753.858044 C875.381198,750.767553 874.180874,747.659865 872.965325,744.534981 L872.602797,743.603008 L874.466742,742.877951 Z M867.118151,724.265415 L867.489131,725.194056 C868.734438,728.311318 869.96525,731.412225 871.181568,734.496776 L871.548404,735.427062 L869.687832,736.160733 L869.320997,735.230447 C868.105773,732.14867 866.876057,729.050526 865.63185,725.936016 L865.26087,725.007375 L867.118151,724.265415 Z M859.607708,705.718416 L859.986517,706.643891 C861.257202,709.748328 862.514085,712.83719 863.757168,715.910479 L864.132136,716.837517 L862.27806,717.587452 L861.903092,716.660415 C860.661049,713.589696 859.405207,710.503394 858.135567,707.401509 L857.756758,706.476033 L859.607708,705.718416 Z M851.950317,687.241413 L852.336398,688.163878 C853.630841,691.256698 854.912111,694.334651 856.180206,697.397737 L856.562715,698.321689 L854.714812,699.086708 L854.332303,698.162756 C853.065197,695.102059 851.784918,692.026487 850.491468,688.93604 L850.105387,688.013575 L851.950317,687.241413 Z M844.148598,668.812761 L844.541462,669.732358 C845.858448,672.815092 847.162827,675.883599 848.4546,678.937879 L848.844132,679.858892 L847.002106,680.637956 L846.612574,679.716943 C845.321744,676.664892 844.018309,673.598606 842.702269,670.518086 L842.309405,669.59849 L844.148598,668.812761 Z M836.215556,650.438853 L836.614762,651.355714 C837.952984,654.429223 839.279118,657.489089 840.593164,660.535313 L840.989252,661.453525 L839.152827,662.245702 L838.756739,661.327489 C837.443593,658.283351 836.11836,655.225563 834.78104,652.154127 L834.381833,651.237266 L836.215556,650.438853 Z M828.163027,632.12507 L828.568176,633.039321 C829.926057,636.103486 831.272332,639.154553 832.607001,642.192522 L833.009226,643.108064 L831.178143,643.912512 L830.775919,642.996971 C829.442109,639.960957 828.096694,636.91184 826.739675,633.849618 L826.334526,632.935368 L828.163027,632.12507 Z M819.995246,613.86141 L820.40598,614.773165 C821.782161,617.828045 823.147186,620.870334 824.501054,623.900031 L824.909038,624.813021 L823.08306,625.628988 L822.675076,624.715999 C821.322029,621.68814 819.957827,618.647684 818.582469,615.594632 L818.171735,614.682876 L819.995246,613.86141 Z M811.723345,595.655161 L812.139335,596.56453 C813.532772,599.610632 814.915468,602.644611 816.287424,605.666468 L816.700824,606.577018 L814.879724,607.403817 L814.466325,606.493267 C813.095155,603.473142 811.713246,600.44089 810.320597,597.396511 L809.904607,596.487142 L811.723345,595.655161 Z M808.879055,576.138588 L810.846441,576.498301 L810.666584,577.481994 C810.01685,581.035598 809.751942,584.280834 809.886129,587.22193 L809.931706,588.220891 L807.933784,588.312045 L807.888207,587.313084 C807.746664,584.210757 808.023723,580.816676 808.699199,577.122281 L808.879055,576.138588 Z M814.958479,556.941812 L816.815739,557.683825 L816.444732,558.612456 C815.130386,561.902267 814.009994,565.009922 813.084165,567.952841 L812.784069,568.90675 L810.876251,568.306559 L811.176347,567.352649 C812.118021,564.359363 813.255291,561.204892 814.587472,557.870442 L814.958479,556.941812 Z M823.325087,538.684453 L825.116992,539.572754 L824.672842,540.468706 C823.107092,543.627182 821.681316,546.60995 820.377835,549.463428 L819.96233,550.373018 L818.143148,549.542009 L818.558653,548.632418 C819.871386,545.758687 821.306199,542.757014 822.880937,539.580406 L823.325087,538.684453 Z M832.586585,520.91378 L834.34986,521.857633 L833.877933,522.739271 C832.126366,526.011489 830.619679,528.856981 829.206889,531.568082 L828.744759,532.454894 L826.971135,531.530635 L827.433264,530.643823 C828.849836,527.925465 830.359856,525.073679 832.114658,521.795417 L832.586585,520.91378 Z M842.055432,503.288806 L843.820847,504.22865 L843.350925,505.111358 C843.297837,505.211078 843.244835,505.310603 843.191861,505.410042 L842.87388,506.006512 C841.705733,508.196173 840.49441,510.449714 838.618446,513.92915 L838.143872,514.809365 L836.383441,513.860216 L836.858016,512.980001 C838.988227,509.028999 840.26041,506.660595 841.585509,504.171513 L842.055432,503.288806 Z M851.100887,485.463472 L852.905963,486.324692 L852.475353,487.22723 C851.144271,490.017114 849.670167,492.981553 848.013473,496.210833 L847.557014,497.100578 L845.777525,496.18766 L846.233984,495.297915 C847.882384,492.084801 849.348072,489.137288 850.670277,486.36601 L851.100887,485.463472 Z M858.433635,467.090589 L860.344896,467.679726 L860.050327,468.635356 C859.156028,471.536615 857.996571,474.683471 856.570001,478.111472 L856.18579,479.034717 L854.339299,478.266296 L854.72351,477.343051 C856.127029,473.970441 857.264888,470.882205 858.139067,468.04622 L858.433635,467.090589 Z M860.497454,447.443901 L860.803041,448.396065 C861.082516,449.266871 861.349309,450.139142 861.603416,451.012876 C862.243791,453.214771 862.422259,455.756044 862.168485,458.642539 L862.080905,459.638696 L860.08859,459.463536 L860.17617,458.467379 C860.409592,455.812374 860.248256,453.51505 859.682984,451.571394 C859.43401,450.715308 859.172586,449.86059 858.898712,449.007238 L858.593125,448.055074 L860.497454,447.443901 Z M852.345794,428.98913 L852.823089,429.867874 C854.455389,432.87309 855.929213,435.896852 857.244473,438.939127 L857.641303,439.857019 L855.805519,440.650679 L855.408689,439.732787 C854.117304,436.745739 852.669638,433.775642 851.065602,430.822463 L850.588307,429.943719 L852.345794,428.98913 Z M841.228471,412.183591 L841.833945,412.979456 C843.907314,415.704797 845.844152,418.446139 847.644409,421.203497 L848.191098,422.040833 L846.516427,423.134211 L845.969738,422.296876 C844.195974,419.580095 842.286817,416.877932 840.242214,414.190404 L839.636741,413.394538 L841.228471,412.183591 Z M827.986994,397.050869 L828.683477,397.768442 C831.067045,400.224188 833.334743,402.693447 835.486546,405.176241 L836.141485,405.931923 L834.630121,407.241801 L833.975182,406.486119 C831.848257,404.03203 829.605981,401.590451 827.24833,399.161408 L826.551847,398.443834 L827.986994,397.050869 Z M813.22633,383.391331 L813.987192,384.040246 C816.585797,386.256513 819.085997,388.484183 821.487782,390.723275 L822.219228,391.405175 L820.85543,392.868067 L820.123984,392.186168 C817.74397,389.967372 815.265766,387.759299 812.689363,385.561969 L811.928502,384.913054 L813.22633,383.391331 Z M797.444912,371.044432 L798.251858,371.635057 C801.00123,373.647395 803.666219,375.669456 806.246823,377.701253 L807.032523,378.319861 L805.795306,379.891261 L805.009607,379.272653 C802.44758,377.255483 799.801248,375.247577 797.070608,373.248949 L796.263662,372.658324 L797.444912,371.044432 Z M780.855351,359.747836 L781.696248,360.289033 C784.554529,362.128607 787.339619,363.976577 790.05152,365.832951 L790.876705,366.397814 L789.746979,368.048183 L788.921794,367.483321 C786.225656,365.637737 783.456343,363.800235 780.613855,361.970825 L779.772959,361.429629 L780.855351,359.747836 Z M763.696799,349.367337 L764.563257,349.866586 C767.502871,351.56038 770.378203,353.261521 773.189255,354.970015 L774.043802,355.489389 L773.005053,357.198483 L772.150506,356.679109 C769.352882,354.978776 766.490965,353.285572 763.564758,351.599503 L762.6983,351.100253 L763.696799,349.367337 Z M737.5,336.5 L753.151446,336.679578 L750.399,342.028 L751.608168,342.672161 C753.023302,343.430249 754.425233,344.189842 755.813959,344.950942 L756.690894,345.431551 L755.729675,347.185421 L754.85274,346.704812 C753.085706,345.736378 751.297113,344.770341 749.486962,343.806703 L746.747205,349.128903 L737.5,336.5 Z" fill="#575757" fill-rule="nonzero"></path>
            <path id="Line-15" d="M864.466521,446.874171 L866.345144,447.560302 L866.002078,448.499614 C864.87831,451.576483 863.687436,454.699582 862.42946,457.868922 L862.060539,458.798382 L860.201618,458.060539 L860.57054,457.131078 C861.821777,453.978715 863.006081,450.872846 864.123456,447.813482 L864.466521,446.874171 Z M870.635365,427.924817 L872.555797,428.483335 L872.276538,429.443551 C871.363612,432.582598 870.370958,435.776489 869.298586,439.025238 L868.985134,439.974842 L867.085926,439.347938 L867.399378,438.398334 C868.464351,435.171998 869.449924,432.000893 870.356106,428.885033 L870.635365,427.924817 Z M875.294489,408.563462 L877.257072,408.948517 L877.064545,409.929809 C876.436151,413.13266 875.710702,416.402126 874.888223,419.738233 L874.648852,420.709161 L872.706996,420.230419 L872.946367,419.259491 C873.761285,415.954052 874.479808,412.715798 875.101962,409.544754 L875.294489,408.563462 Z M877.861159,388.862326 L879.856147,389.00382 L879.7854,390.001314 C879.554584,393.255694 879.202625,396.592977 878.729585,400.013188 L878.592581,401.003758 L876.61144,400.729752 L876.748443,399.739181 C877.215482,396.362364 877.562785,393.069236 877.790412,389.85982 L877.861159,388.862326 Z M879.456776,368.834172 L879.559845,369.828846 C879.897135,373.083871 880.080735,376.443783 880.110773,379.908546 L880.119443,380.908508 L878.119518,380.925847 L878.110848,379.925885 C878.081349,376.523298 877.901189,373.226343 877.570497,370.034985 L877.467427,369.04031 L879.456776,368.834172 Z M875.186198,349.148776 L875.474945,350.106181 C876.486109,353.458917 877.324929,356.714514 877.991277,359.873076 L878.197699,360.851539 L876.240773,361.264383 L876.034351,360.28592 C875.379953,357.184004 874.555256,353.983221 873.560135,350.683676 L873.271387,349.72627 L875.186198,349.148776 Z M868.028455,330.346616 L868.430614,331.262186 C869.824976,334.436639 871.092479,337.539209 872.233093,340.569957 L872.585321,341.505871 L870.713494,342.210328 L870.361265,341.274414 C869.233539,338.277912 867.979619,335.208589 866.599475,332.066504 L866.197316,331.150935 L868.028455,330.346616 Z M859.099301,312.367468 L859.574428,313.247385 C861.209457,316.275406 862.745941,319.247419 864.183873,322.163454 L864.626138,323.060339 L862.832369,323.944868 L862.390104,323.047983 C860.963237,320.154387 859.438069,317.204262 857.814592,314.197638 L857.339466,313.31772 L859.099301,312.367468 Z M848.976277,295.038171 L849.501966,295.888847 C851.3013,298.800551 853.020784,301.666793 854.660417,304.487589 L855.162954,305.352145 L853.433842,306.357219 L852.931305,305.492663 C851.300828,302.687617 849.590597,299.8368 847.800613,296.940226 L847.274924,296.089549 L848.976277,295.038171 Z M833.5,273.5 L847.178465,281.109178 L842.212,284.503 L842.461268,284.879614 C843.020742,285.726938 843.573946,286.570689 844.12088,287.410867 L844.666442,288.248937 L842.990301,289.340061 L842.444739,288.501991 C841.825012,287.549991 841.197171,286.593339 840.561214,285.632036 L835.619736,289.008279 L833.5,273.5 Z" fill="#575757" fill-rule="nonzero"></path>
            <text id="气流" font-family="PingFangSC-Regular, PingFang SC" font-size="18" font-weight="normal" fill="#000000">
                <tspan x="863" y="507">气流</tspan>
            </text>
            <text id="软腭" transform="translate(738.5, 221) rotate(15) translate(-738.5, -221)" font-family="PingFangSC-Regular, PingFang SC" font-size="24" font-weight="normal" fill="#000000">
                <tspan x="717.5" y="228.5">软腭</tspan>
            </text>
        </g>
    </g>
</svg>