<?xml version="1.0" encoding="UTF-8"?>
<svg width="1280px" height="800px" viewBox="0 0 1280 800" version="1.1" xmlns="http://www.w3.org/2000/svg" xmlns:xlink="http://www.w3.org/1999/xlink">
    <title>articulator-tongue-tip-sz</title>
    <g id="Page-1" stroke="none" stroke-width="1" fill="none" fill-rule="evenodd">
        <g id="articulator-tongue-tip-sz">
            <rect id="Rectangle" x="0" y="0" width="1280" height="800"></rect>
            <g id="speech-tract-copy-8" transform="translate(374, 17)" stroke="#000000" stroke-width="2">
                <path d="M40.9473941,357.705848 C34.1795962,358.83744 31.1104785,371.481745 31.1104785,371.481745 C31.1104785,371.481745 28.6119019,379.737444 31.1104785,387.225628 C33.5303597,394.497334 37.8389288,398.590743 39.9637025,401.001525 C42.0884763,403.412307 44.577216,407.535236 50.7843097,415.761415 C55.4863554,421.990088 62.293501,428.071163 66.5233747,439.377238 C72.8091638,456.183833 74.6093194,476.916558 77.3439819,492.512841 C79.4982665,504.812749 82.6854271,513.934361 84.2298229,516.128665 C85.7742186,518.322969 85.8922616,521.314306 102.919963,524.984599 C117.409739,528.103856 144.490768,527.818498 165.876223,527.936577 C185.884509,528.044816 212.611409,525.968591 230.799866,523.016614 C252.037767,519.562799 257.271006,515.981066 263.261687,515.144672 C269.252369,514.308279 284.489751,509.447355 302.60935,524.000606 C319.35178,537.451786 322.283181,542.696467 322.283181,542.696467 C322.283181,542.696467 325.430994,548.265865 329.169022,558.440349 C336.212254,577.706925 327.437725,582.902406 332.120097,595.83207 C336.713936,608.505895 344.760533,601.421148 355.876248,632.141398 C370.82836,673.675728 385.239441,713.911188 385.239441,713.911188 C385.239441,713.911188 388.249537,724.981105 397.04374,727.687085 C400.339107,728.700597 403.083606,726.94909 406.880656,726.703092 C414.927253,726.181576 423.603412,725.719099 423.603412,725.719099 L460,723.751114 L426.554487,690.295364 L387.206824,602.720018 L367.532993,517.112658 L412.782805,454.137128 L433.440328,422.649363 C433.440328,422.649363 454.855293,395.491166 419.668646,367.545775 C402.080241,354.429153 396.033421,351.120292 381.430264,341.303528 C366.827106,331.486763 357.160197,327.007076 346.451764,320.17187 C335.743331,313.336663 328.423563,311.673516 322.283181,309.044313 C298.59849,298.902946 292.676533,298.902946 273.784264,294.184433 C235.784713,284.693706 195.752822,285 195.752822,285 C195.752822,285 143.691668,279.579016 136.107943,300 C133.31377,307.523975 147.819893,320.807201 160.022227,329.826024 C168.088465,335.787832 172.797714,338.8647 178.745394,345 C184.693074,351.1353 186.474234,353.129352 189.726457,359.882609 C192.97868,366.635867 194.182499,376.607159 195.752822,382 C197.323144,387.392841 198.190891,391.916482 198.190891,399 C198.190891,406.083518 197.911593,409.129728 197.000969,414.963625 C196.090345,420.797522 193.188338,422.566894 191.417694,424.220002 C186.764833,428.55941 173.804777,424.863347 171.778372,422.649363 C164.440033,414.619983 158.242776,403.983023 153.088232,398.049547 C149.861724,394.330055 147.186083,394.113576 147.186083,394.113576 L127.512252,407.889473 L127.512252,441.345224 L114.724261,444.297202 L104.887346,439.377238 C104.887346,439.377238 102.270726,426.113017 98.0015048,411.825444 C92.5715273,393.63142 88.1350784,377.5333 85.2135144,373.449731 C82.2919505,369.366161 70.4286303,355.413145 40.9473941,357.705848 Z" id="Path" fill="#8A8A89"></path>
                <path d="M470.395991,725.956181 C469.972753,726.340165 454.834623,724.213483 438.899231,719.064155 C427.835995,715.490147 416.546375,709.149483 410.355293,705.280102 C395.236849,695.82818 382.795629,652.113042 382.795629,652.113042 C382.795629,652.113042 367.637813,613.488158 356.220238,581.223629 C348.887398,560.488475 343.424679,540.856046 343.424679,540.856046 C343.424679,540.856046 340.76714,528.903304 329.644847,519.195392 C317.676078,508.74905 304.526181,504.879669 301.100909,503.442189 C297.675636,502.004709 292.941279,499.100213 294.210992,496.550163 C295.392121,494.187183 305.038004,494.581013 305.038004,494.581013 C305.038004,494.581013 313.384645,495.260369 322.754931,490.642712 C328.020795,488.043433 333.621313,481.240019 339.487584,477.843234 C355.344234,468.647302 370.984344,462.090031 370.984344,462.090031 L429.056494,439.444802 C429.056494,439.444802 444.706446,433.803186 456.616159,424.676174 C467.807351,416.100525 473.959062,403.960713 475.31736,404 C476.675657,404.039479 479.067443,407.318114 479,411.010271 C478.909959,416.258057 477.285907,422.707024 477.285907,422.707024 C477.285907,422.707024 473.683465,435.910177 470.395991,441.413953 C461.734382,455.936437 449.726243,467.012907 449.726243,467.012907 C449.726243,467.012907 435.218048,486.093974 421.182304,507.38049 C404.882731,532.103173 390.482806,555.368685 389.685545,556.609249 C388.888283,557.849814 384.695277,565.440889 387.716997,573.347027 C392.923805,586.953856 403.248837,598.965674 406.418198,605.838008 C409.58756,612.710343 409.764729,613.153402 414.577827,623.678511 C420.48347,636.586292 427.147003,654.889544 433.977863,669.835396 C441.389444,686.031657 446.763579,695.345739 448.741969,698.388076 C449.519545,699.579412 453.033402,704.098612 457.009868,709.139637 C460.120173,713.087783 463.860413,715.815057 466.458896,719.064155 C468.978637,722.214795 470.819229,725.572197 470.395991,725.956181 Z" id="Path" fill="#BFC0BF"></path>
                <path d="M85.8210987,508.455826 C85.8210987,508.455826 92.637703,499.499629 96.6255147,476.048533 C100.966926,450.486054 101.536613,417.126184 101.536613,417.126184 C101.536613,417.126184 105.01367,391.141427 117.252127,391.593165 C121.888204,391.760112 137.348341,378.787375 142.789838,382.754813 C146.866049,385.730392 146.934805,391.514602 148.683155,397.4854 C151.728036,407.865554 155.558693,419.090262 155.558693,419.090262 C155.558693,419.090262 158.996462,430.148023 162.43423,440.695124 C165.871999,451.261865 168.327548,461.317946 168.327548,461.317946 C168.327548,461.317946 172.177849,479.593695 161.452011,490.779121 C149.19391,503.55545 126.671613,507.522889 123.145445,509.437865 C119.619276,511.352841 106.870066,518.757417 105.465491,519.258257 C104.060917,519.759096 92.8341469,521.055388 87.785538,518.276217 C83.0119505,515.654173 85.8210987,508.455826 85.8210987,508.455826 Z" id="Path" fill="#BFC0BF"></path>
                <path d="M111.995397,349.949627 C111.995397,349.949627 109.78889,360.191345 110.016467,369.569776 C110.283623,380.64535 112.984863,391.15194 112.984863,391.15194 C112.984863,391.15194 113.806119,393.427878 115.953258,395.07597 C119.347124,397.69526 123.770033,399 129.805771,399 C133.496476,399 144.251962,399 146.626679,391.15194 C148.120771,386.227283 144.647748,378.398843 144.647748,378.398843 L120.900584,347.987612 C120.900584,347.987612 118.100398,344.573706 115.953258,345.044589 C113.647804,345.554713 111.995397,349.949627 111.995397,349.949627 Z" id="Path" fill="#F2F1F0"></path>
                <path d="M534.161527,703.201 C534.161527,703.201 527.21117,679.817536 520.398444,651.981954 C516.495627,636.04495 513.703687,619.832152 509.584593,602.73287 C507.195715,592.823954 505.85873,582.895339 503.686129,574.168401 C497.935127,551.10998 491.889201,535.754116 491.889201,535.754116 C491.889201,535.754116 488.399276,521.127138 490.906123,511.129574 C492.64617,504.205153 499.704666,499.02415 502.703052,498.324813 C506.055346,497.546677 511.95381,497.694424 515.483057,504.234703 C519.769275,512.183505 520.811337,524.200281 522.364599,529.844226 C523.917861,535.488171 527.928817,547.061706 534.161527,572.198438 C539.185053,592.429962 538.034852,615.902075 543.009223,637.207228 C550.166027,667.820459 560.871739,687.815587 562.670771,693.351184 C564.469802,698.886781 558.758123,717.256689 548.907688,717.975726 C539.057252,718.694762 534.161527,703.201 534.161527,703.201 Z" id="Path" fill="#BFC0BF"></path>
                <path d="M111.903122,188.186397 L106,282.629451 L130.596341,284.597015 C130.596341,284.597015 148.482799,286.859713 164.047364,280.661887 C179.946438,274.326333 199.318516,251.000866 216.191606,242.294397 C228.716062,233.745333 246.710745,234.650412 256.529604,234.424142 C266.348463,234.197872 280.319185,231.138311 304.738431,235.407924 C313.514406,236.942624 319.93897,242.619045 329.334772,244.26196 C342.665989,246.593523 352.711134,250.656542 363.769649,253.115997 C381.597076,257.0708 397.220672,259.018688 397.220672,259.018688 C397.220672,259.018688 411.575096,256.490368 413.946183,249.180869 C416.317271,241.871371 413.946183,236.391706 413.946183,236.391706 C413.946183,236.391706 401.638175,232.702524 390.333697,230.489015 C379.009541,228.275506 368.688917,227.53767 368.688917,227.53767 C368.688917,227.53767 353.055483,223.759947 331.302479,218.683633 C322.8315,216.706232 315.059056,213.725373 306.706139,211.797161 C292.85348,208.59987 289.793695,207.753817 280.142091,206.878251 C270.490487,206.002686 270.785643,207.06517 241.7718,204.910688 C223.314706,203.543231 188.702735,200.66075 169.950485,198.024215 C154.681077,195.879571 142.077912,186.405752 131.580194,185.235052 C120.275716,183.975811 111.903122,188.186397 111.903122,188.186397 Z" id="Path" fill="#BFC0BF"></path>
                <path d="M483.949318,337.997347 C483.237366,337.820881 472.034009,313.390194 469.116984,307.606042 C466.199958,301.821891 462.452322,296.635761 455.273472,287.998749 C448.628586,279.989169 444.070116,276.263784 441.42996,274.273643 C438.789805,272.283503 436.515513,269.15614 429.564093,266.430726 C417.00605,261.509296 398.910603,257.607444 398.910603,257.607444 C398.910603,257.607444 394.925649,257.332942 392.977669,255.646715 C390.97036,253.901666 391,252.529155 391,250.744891 C391,248.960628 393.491857,243.07844 398.910603,238.980516 C403.844826,235.245326 409.362454,234.804162 411.765292,235.059057 C414.16813,235.313952 426.053774,242.274541 439.452316,253.685985 C459.703396,270.9306 479.024983,291.135916 481.971673,294.861301 C484.918363,298.586687 488.043042,303.16499 489.882251,312.507865 C490.178898,314.027431 489.813034,316.939114 489.882251,318.390053 C490.386551,329.526996 484.66127,338.173812 483.949318,337.997347 Z" id="Path" fill="#8A8A89"></path>
                <path d="M82.7751663,199.347542 C79.9541565,201.669315 70.4885383,214.167373 61.1507011,232.939159 C49.1884401,256.976926 41.1382414,280.155142 40.5091661,283.326586 C39.8800907,286.49803 39.4869186,294.204342 41.4920963,299.134406 C43.8806168,304.993179 48.372608,307.038316 48.372608,307.038316 C48.372608,307.038316 54.8697768,311.02979 62.1336313,313.954237 C69.6039011,316.957723 74.6561625,318.597784 77.8605151,318.894181 C81.0648677,319.190577 83.5221933,318.96334 87.6898175,316.918203 C91.8574417,314.873067 96.0742124,306.909877 102.433771,296.170439 C108.351011,286.181873 108.695037,279.898265 109.314283,277.398653 C109.933529,274.899042 108.695037,268.081919 109.314283,264.554799 C109.933529,261.02768 117.885434,252.333379 123.075306,238.867092 C127.056173,228.552489 128.117738,223.306269 127.989957,218.119328 C127.862176,212.932387 126.574538,210.0277 123.075306,202.311508 C120.018393,195.583305 114.956302,189.141618 113.246004,188.479666 C109.569845,187.056962 104.999219,189.023059 97.5191198,191.443632 C89.7638003,193.953123 85.5961761,197.025768 82.7751663,199.347542 Z" id="Path" fill="#8A8A89"></path>
                <path d="M99.7318124,323.086564 C99.0965784,321.986874 95.6524188,299.256657 100.724366,285.775626 C105.012195,274.39579 114.719366,274.24851 115.612663,273.993224 C116.505961,273.737939 121.161036,271.734931 122.560536,272.029491 C123.960036,272.324051 126.997249,274.356515 128.515855,281.848159 C129.974908,289.074698 130.461259,298.42207 129.508408,301.485495 C129.031983,303.007388 121.409174,310.705224 115.612663,317.195364 C109.726823,323.78369 104.73428,328.152997 103.702025,327.995899 C101.637515,327.681701 100.367046,324.186255 99.7318124,323.086564 Z" id="Path" fill="#F2F1F0"></path>
                <path d="M8.86334855,134.81479 C8.86334855,134.81479 46.9882892,100.731461 74.7826007,69.8754213 C86.2840344,57.1138513 95.374988,43.9980666 102.330945,34.4539472 C110.95948,22.6271106 116.105117,15.7592803 116.105117,15.7592803 C116.105117,15.7592803 122.559301,8.90128939 128.89542,4.93605216 C134.287024,1.56117283 136.451537,-0.190222281 142.669592,0.0164029843 C148.887647,0.22302825 152.085222,4.50312303 171.201805,6.90391183 C184.966139,8.63562834 205.017398,8.69466413 223.346885,10.8396312 C252.85313,14.2932249 284.484532,16.2906025 309.927396,19.6949997 C338.449771,23.5126474 359.120868,28.5503682 359.120868,28.5503682 C359.120868,28.5503682 415.831102,45.6313901 453.572333,62.9879124 C489.581955,79.5572908 506.701283,96.4415268 506.701283,96.4415268 C506.701283,96.4415268 526.988671,108.140453 541.136713,153.509457 C544.649127,164.775454 548.889604,179.022758 552.943146,192.866651 C556.514592,205.087059 560.007329,216.835181 561.797971,228.288125 C566.274577,256.979519 564.74958,275.516757 564.74958,275.516757 C564.74958,275.516757 564.011678,279.708298 562.781841,282.404266 C561.552004,285.119912 560.469748,287.068093 557.862494,285.356055 C555.25524,283.644017 535.804141,258.416056 514.572238,244.031002 C488.047118,226.054604 453.562495,210.292048 420.120773,177.123773 C398.406774,155.585549 380.549544,131.5875 365.024084,111.200474 C338.115255,75.8773933 320.74996,49.2128947 320.74996,49.2128947 C320.74996,49.2128947 315.643677,43.1026905 309.927396,39.3735964 C304.339017,35.7232167 300.570797,35.0147872 298.120963,34.4539472 C295.671128,33.8931072 238.272185,34.9065549 195.798541,39.3735964 C165.66262,42.5418504 155.804249,47.3631066 148.572808,50.1968246 C141.341368,53.0305425 129.564451,65.4575763 108.234162,84.6343688 C77.6456608,112.135208 42.7970054,145.273965 41.3310399,146.621948 C39.8650745,147.969932 39.1468498,150.183774 38.3794316,153.509457 C37.6710456,156.569479 38.3794316,159.413036 38.3794316,159.413036 C38.3794316,159.413036 42.2558772,167.609172 42.3149094,170.236264 C42.3739415,172.863357 42.1870063,175.736432 39.3633011,180.075563 C35.8607259,185.457659 32.6139567,188.724306 30.5084761,189.914861 C28.4029955,191.105416 19.1251068,192.807615 12.7988263,186.963072 C5.85270808,180.547849 2.93061586,168.396316 1.97626251,165.316615 C1.02190915,162.236915 -0.109540698,153.814475 0.00852363474,149.573738 C0.126587967,145.333 1.67126298,141.436638 2.96013194,139.73444 C4.2490009,138.032241 8.86334855,134.81479 8.86334855,134.81479 Z" id="Path" fill="#BFC0BF"></path>
                <path d="M403.007201,73.9739855 C402.82935,75.3591174 405.931855,100.499262 413.875849,126.411123 C421.227007,150.393694 428.084135,165.917065 428.696732,166.975702 C429.309328,168.034338 431.00879,170.844177 434.625085,172.911981 C437.915321,174.791803 440.721408,174.821485 442.529556,174.890741 C444.337704,174.959998 449.465729,175.573414 458.338498,172.911981 C471.331472,169.003931 488.177876,161.702307 491.389067,160.287493 C486.409251,162.474023 495.657482,159.189281 497.860853,155.103142 C499.570195,151.927233 498.848912,147.188103 498.848912,147.188103 C498.848912,147.188103 498.384524,140.856071 496.872794,135.315543 C495.420348,129.972891 492.920559,125.421743 492.920559,125.421743 C492.920559,125.421743 489.146174,120.069198 481.063852,114.538564 C474.680992,110.175398 464.523747,106.277241 456.36238,100.687244 C445.908717,93.5340273 436.690128,86.3709164 428.696732,80.8996452 C421.068917,75.675719 414.863908,71.9952256 414.863908,71.9952256 C414.863908,71.9952256 411.534149,69.7889083 408.935554,70.0164657 C406.336959,70.2440231 403.185052,72.5888536 403.007201,73.9739855 Z" id="Path" fill="#FFFFFF"></path>
                <path d="M449.961538,577.85611 C449.961538,577.85611 424.461538,579.61 408.769231,582.896023 C400.815192,584.559194 397,588.943918 397,588.943918 C397,588.943918 413.624038,585.688135 418.576923,585.919971 C423.529808,586.151807 443.272692,590.728047 448,590.959883 C452.727308,591.191719 458.994423,590.405493 469.576923,588.943918 C483.915769,586.958193 499,583.904005 499,583.904005 C499,583.904005 493.9,582.684347 486.25,580.880058 C482.984038,580.113991 473.284231,577.987148 467.026923,577.422678 C454.188654,576.263498 449.961538,577.85611 449.961538,577.85611 Z" id="Path"></path>
            </g>
        </g>
    </g>
</svg>