<?xml version="1.0" standalone="no"?>
<!DOCTYPE svg PUBLIC "-//W3C//DTD SVG 20010904//EN"
 "http://www.w3.org/TR/2001/REC-SVG-20010904/DTD/svg10.dtd">
<svg version="1.0" xmlns="http://www.w3.org/2000/svg"
 width="1280.000000pt" height="1016.000000pt" viewBox="0 0 1280.000000 1016.000000"
 preserveAspectRatio="xMidYMid meet">
<metadata>
Created by potrace 1.15, written by Peter Selinger 2001-2017
</metadata>
<g transform="translate(0.000000,1016.000000) scale(0.100000,-0.100000)"
fill="#000000" stroke="none">
<path d="M5510 10154 c-14 -2 -63 -9 -110 -15 -55 -7 -112 -23 -160 -44 -81
-36 -127 -49 -205 -60 -63 -9 -214 -64 -327 -121 -106 -53 -308 -139 -482
-206 -149 -57 -181 -68 -581 -206 -468 -161 -630 -220 -753 -273 -255 -109
-609 -312 -760 -436 -183 -150 -297 -233 -458 -332 -325 -202 -455 -292 -607
-426 -122 -106 -179 -183 -305 -405 -60 -107 -178 -312 -262 -455 -336 -578
-451 -873 -490 -1264 -27 -279 8 -575 94 -786 139 -343 434 -569 853 -654 54
-11 199 -30 321 -41 422 -39 442 -59 102 -100 -233 -29 -345 -48 -386 -65
l-35 -14 16 -31 c25 -47 130 -124 260 -190 161 -81 204 -91 415 -97 149 -4
248 1 673 37 275 23 500 40 501 38 1 -2 12 -57 25 -123 26 -136 56 -206 119
-276 91 -102 352 -310 471 -377 86 -48 165 -76 319 -112 128 -31 246 -70 292
-99 14 -8 48 -33 75 -56 74 -61 112 -81 211 -114 241 -78 621 -65 874 32 36
13 160 72 275 130 222 112 372 177 405 177 15 0 38 -28 84 -99 80 -124 177
-233 312 -356 160 -144 305 -249 431 -311 147 -71 168 -91 216 -194 107 -231
409 -610 952 -1195 339 -365 418 -459 585 -689 203 -281 336 -365 534 -338 45
7 102 14 129 17 82 11 274 120 313 180 67 102 21 280 -173 664 -114 226 -134
279 -115 307 4 5 60 38 126 73 227 120 433 257 511 340 62 67 77 81 122 112
69 48 262 141 496 238 248 104 313 135 412 198 104 67 148 114 251 272 52 79
152 220 222 315 231 309 260 356 303 488 33 101 71 291 94 465 18 145 22 405
6 482 -17 81 -14 233 5 280 21 53 56 65 150 51 250 -36 458 44 620 240 120
145 260 541 308 871 21 142 20 195 -6 298 -17 71 -21 113 -20 235 2 141 0 154
-29 240 -63 189 -370 747 -515 938 -123 160 -213 232 -310 248 -70 12 -84 24
-95 85 -27 144 -193 353 -409 515 -129 96 -223 183 -318 293 -47 55 -106 118
-130 141 -112 104 -276 195 -395 220 -78 16 -83 20 -138 133 -55 111 -143 195
-273 258 -96 47 -162 64 -337 85 -179 21 -397 118 -664 294 -306 202 -438 234
-705 171 -146 -35 -218 -31 -435 23 -288 73 -347 79 -810 92 -502 13 -791 37
-879 74 -21 9 -45 31 -61 56 -52 83 -171 132 -360 150 -103 9 -329 12 -385 4z
m465 -59 c105 -20 198 -65 230 -113 51 -74 26 -162 -134 -472 -165 -320 -237
-471 -279 -585 -85 -227 -101 -321 -112 -675 -15 -442 -18 -456 -220 -1000
-98 -265 -129 -399 -144 -630 -14 -204 -27 -259 -64 -279 -29 -15 -106 -14
-145 3 -59 25 -75 53 -113 202 -19 76 -54 186 -76 244 -61 158 -80 235 -75
306 8 113 72 196 190 249 72 32 80 45 25 45 -92 0 -202 -95 -267 -230 -31 -64
-36 -85 -36 -146 0 -77 -5 -65 139 -341 51 -98 59 -121 64 -183 8 -123 -33
-191 -227 -373 -211 -199 -442 -383 -555 -442 -87 -45 -171 -49 -253 -11 -59
28 -81 63 -126 201 -93 282 -149 679 -127 891 8 81 8 119 1 133 -11 20 -11 20
-58 -1 -38 -17 -53 -19 -75 -10 -35 13 -36 4 -7 -80 11 -34 34 -142 50 -240
27 -164 40 -227 114 -548 29 -126 29 -188 -1 -222 -37 -42 -116 -98 -138 -98
-12 0 -54 15 -93 34 -153 74 -360 110 -628 110 -124 1 -189 -3 -209 -12 -59
-26 -13 -35 219 -43 124 -4 261 -13 303 -19 198 -29 328 -86 420 -185 58 -61
112 -152 112 -187 0 -27 -53 -82 -211 -214 l-147 -123 -1101 -12 -1101 -11
-63 50 c-97 78 -146 136 -187 225 -46 101 -64 187 -58 272 5 61 31 124 53 132
6 2 34 -19 63 -47 84 -80 103 -63 44 40 -100 174 -118 246 -109 420 13 241
129 482 273 566 95 56 269 91 355 73 52 -11 73 -30 83 -73 18 -75 177 -363
322 -583 89 -134 110 -161 120 -151 7 7 -85 189 -176 348 -162 286 -225 463
-218 620 3 74 9 97 43 168 42 89 40 113 -7 91 -51 -23 -88 -132 -88 -260 0
-91 -13 -101 -149 -110 -211 -14 -305 -51 -422 -168 -102 -102 -155 -209 -207
-420 -47 -188 -55 -198 -164 -210 -86 -10 -158 -40 -188 -78 -27 -35 -25 -43
10 -43 21 0 36 8 52 30 12 17 37 34 57 40 75 21 194 6 219 -27 30 -39 -7 -454
-49 -534 -10 -21 -34 -50 -53 -64 -37 -28 -202 -105 -226 -105 -17 0 -70 52
-116 114 -16 21 -58 95 -94 165 -62 121 -88 148 -82 88 3 -38 51 -129 119
-229 155 -226 168 -251 182 -339 24 -149 134 -202 525 -254 228 -31 299 -47
342 -80 30 -23 142 -220 131 -231 -11 -11 -404 18 -502 37 -419 80 -684 314
-820 722 -85 256 -97 579 -34 932 32 178 81 307 224 590 144 286 260 486 356
615 71 97 125 194 163 296 85 228 226 361 701 661 314 199 433 284 560 403
108 101 205 159 540 325 391 194 498 236 1175 469 353 121 584 210 787 302
241 110 397 144 554 123 285 -40 346 -230 136 -431 -129 -125 -179 -136 -767
-173 -730 -46 -904 -69 -1093 -147 -114 -46 -204 -114 -397 -303 -283 -275
-343 -321 -815 -620 -632 -400 -732 -471 -880 -619 -115 -117 -159 -190 -198
-332 -14 -51 -33 -109 -43 -130 -28 -59 -131 -155 -319 -298 -214 -163 -231
-177 -282 -240 -28 -33 -43 -61 -43 -78 0 -16 4 -28 9 -28 5 0 38 33 73 73 92
106 160 160 279 222 137 72 223 144 287 238 50 75 57 93 106 257 34 112 85
197 176 290 105 108 226 195 622 446 796 505 927 601 1098 804 122 145 170
187 268 238 159 83 320 110 972 167 620 53 673 54 722 4 25 -24 28 -35 28 -89
0 -96 -29 -337 -52 -430 -57 -234 -177 -439 -400 -687 -58 -65 -137 -147 -175
-183 -37 -36 -202 -193 -366 -350 -288 -275 -327 -309 -355 -310 -28 0 -69 56
-90 126 -53 173 -142 720 -157 964 -10 148 6 246 71 439 60 177 63 216 21 246
-38 27 -97 14 -97 -20 0 -7 11 -17 25 -23 36 -16 33 -67 -9 -184 -19 -52 -40
-132 -47 -179 -19 -128 -5 -406 45 -889 24 -234 42 -428 40 -431 -2 -3 -45 -9
-96 -13 -120 -9 -169 -30 -207 -90 -34 -55 -77 -180 -125 -369 -21 -83 -49
-164 -71 -205 -74 -141 -192 -268 -290 -313 -49 -23 -68 -23 -109 -4 -41 20
-173 136 -231 204 l-46 54 21 22 c12 13 56 37 98 55 136 57 230 136 357 300
67 86 143 175 265 309 91 102 90 104 -10 28 -97 -74 -202 -179 -295 -297 -121
-154 -211 -232 -328 -285 -156 -71 -213 -38 -307 178 -45 104 -71 132 -90 97
-20 -37 15 -128 93 -245 71 -106 171 -217 317 -349 l141 -130 -105 -37 c-127
-44 -174 -68 -245 -122 -71 -55 -126 -124 -170 -217 -34 -71 -36 -80 -39 -202
-3 -86 -8 -128 -16 -128 -6 0 -72 18 -146 41 -160 48 -307 116 -408 188 -81
57 -158 98 -168 88 -20 -20 113 -138 226 -200 171 -94 451 -173 746 -211 113
-15 573 -41 581 -33 2 2 -59 9 -134 16 -301 26 -519 63 -570 97 -70 46 -84
195 -28 307 39 79 131 177 223 237 42 28 135 73 207 101 337 133 446 229 545
478 10 28 40 130 65 228 54 210 87 289 141 329 35 27 44 29 123 28 155 -1 350
-69 414 -145 19 -22 62 -93 96 -159 84 -163 164 -281 250 -370 77 -79 76 -75
-13 62 -31 48 -93 162 -138 255 -76 158 -86 173 -160 246 -43 43 -78 84 -78
92 0 30 105 137 381 390 516 474 683 661 806 910 68 137 104 264 128 460 32
261 56 340 125 419 99 113 240 331 240 371 0 13 -36 61 -96 126 -112 122 -130
152 -116 184 14 29 60 45 170 55 122 12 402 4 497 -15z m600 -235 c255 -18
450 -62 756 -171 311 -110 361 -123 372 -95 11 28 -29 47 -179 87 -122 32
-189 61 -208 91 -48 78 233 60 654 -40 149 -36 180 -47 180 -64 0 -31 -251
-313 -315 -354 -27 -18 -49 -19 -287 -17 -142 1 -258 0 -258 -3 0 -8 79 -43
144 -63 54 -17 94 -21 192 -21 116 0 124 -1 124 -20 0 -45 -156 -168 -300
-236 -244 -115 -302 -153 -401 -263 -34 -39 -67 -71 -71 -71 -4 0 -50 29 -101
64 -50 35 -115 75 -143 89 -68 34 -142 53 -156 39 -6 -6 30 -30 116 -72 157
-78 196 -115 196 -190 0 -38 -9 -69 -36 -124 -69 -140 -183 -276 -230 -276 -7
0 -29 14 -47 30 -50 44 -107 42 -153 -4 -26 -26 -34 -42 -34 -70 0 -44 12 -46
40 -6 32 45 54 54 90 35 36 -18 54 -49 46 -79 -3 -13 -33 -58 -67 -102 -136
-175 -229 -339 -229 -405 0 -27 12 -54 44 -100 78 -115 121 -218 147 -357 6
-34 13 -61 16 -59 7 8 -19 201 -37 273 -11 40 -35 110 -55 154 -41 94 -44 139
-12 195 13 22 90 130 172 240 82 110 204 278 272 374 230 322 389 502 479 543
77 34 220 30 341 -10 227 -76 412 -211 496 -363 20 -36 46 -74 57 -84 19 -18
20 -17 20 6 0 13 -14 53 -30 88 -22 46 -28 67 -20 75 26 26 544 13 810 -19
474 -59 695 -174 829 -432 59 -113 84 -144 104 -124 9 9 6 29 -17 93 -28 79
-28 82 -10 96 41 31 235 -14 407 -93 122 -56 167 -107 167 -187 0 -51 15 -65
29 -29 21 48 45 65 88 58 49 -8 190 -77 356 -173 286 -166 460 -297 544 -409
63 -83 83 -137 83 -220 0 -50 -5 -69 -28 -106 -49 -76 -201 -236 -427 -449
-209 -197 -365 -359 -365 -380 0 -30 52 9 151 114 46 49 183 180 304 291 311
285 425 412 425 472 0 13 12 35 26 50 22 22 32 25 79 21 114 -10 281 -121 337
-225 15 -26 49 -124 77 -218 66 -224 70 -234 69 -170 0 28 -5 111 -12 185 -7
74 -10 141 -8 148 8 23 29 12 80 -41 58 -62 98 -136 137 -257 38 -118 100
-244 190 -385 137 -216 172 -317 161 -460 -18 -213 -166 -705 -264 -871 -71
-122 -149 -186 -274 -228 -114 -39 -237 -46 -634 -39 -395 6 -568 -2 -939 -43
-306 -34 -375 -31 -608 30 -213 55 -351 70 -507 56 -260 -23 -463 -81 -1026
-294 -455 -171 -509 -181 -957 -173 -215 4 -310 9 -361 21 -169 38 -511 250
-597 369 -46 63 -39 100 31 154 70 54 180 108 250 123 30 6 120 14 200 16 179
6 250 13 250 24 0 22 -68 43 -151 48 -152 8 -344 -32 -505 -108 -86 -39 -164
-106 -164 -139 0 -10 -7 -24 -15 -31 -18 -15 -59 -8 -250 46 -66 18 -165 41
-220 49 -124 19 -426 30 -520 18 l-70 -9 125 -8 c254 -15 467 -49 674 -107
180 -51 294 -98 329 -137 18 -19 18 -21 -10 -47 -101 -98 -530 -334 -896 -494
-230 -100 -318 -157 -333 -215 -8 -34 21 -68 89 -103 61 -30 188 -64 216 -56
21 5 21 7 5 24 -10 11 -61 33 -114 49 -54 17 -103 37 -110 45 -39 47 33 102
261 201 189 82 441 207 745 370 127 68 235 124 241 124 11 0 369 -214 387
-231 6 -5 -7 -15 -30 -25 -252 -104 -420 -216 -678 -450 -303 -275 -441 -376
-604 -443 -306 -126 -742 -70 -1004 128 -102 77 -166 171 -204 296 -25 85 -34
89 -34 15 0 -102 -20 -241 -41 -290 -39 -88 -101 -133 -244 -176 -74 -22 -110
-27 -205 -28 -100 0 -130 4 -232 32 -186 52 -307 108 -463 213 -178 120 -307
259 -344 372 -53 160 -66 446 -23 489 16 16 51 2 106 -39 85 -66 138 -103 147
-103 24 0 1 30 -85 114 -99 95 -116 119 -116 159 0 74 140 377 238 512 42 58
84 100 157 158 248 193 948 637 971 615 2 -3 -5 -27 -17 -54 -52 -120 -64
-204 -30 -204 31 0 62 54 71 123 14 118 93 230 301 432 160 155 249 227 344
276 90 46 140 51 180 16 22 -18 28 -35 35 -94 11 -87 50 -175 117 -269 56 -77
93 -145 93 -170 0 -10 -9 -37 -21 -61 -12 -26 -25 -84 -33 -150 -7 -59 -20
-122 -29 -140 -37 -69 -140 -101 -432 -133 -239 -25 -287 -37 -292 -68 -8 -57
-143 -215 -240 -283 -23 -16 -65 -34 -92 -39 -184 -35 -569 -311 -632 -455
-34 -76 -51 -190 -51 -345 -1 -174 23 -320 53 -320 5 0 7 118 6 263 -2 256 -1
263 22 322 68 169 211 299 478 431 120 60 201 75 269 50 71 -26 146 -110 223
-247 91 -160 141 -237 190 -289 52 -56 57 -74 42 -169 -6 -42 -11 -82 -11 -88
0 -52 76 67 86 134 3 23 14 49 23 57 19 17 100 35 165 37 40 1 40 1 11 9 -16
5 -68 15 -114 24 -148 26 -151 30 -354 344 -31 49 -84 120 -117 157 -77 88
-80 116 -17 201 72 98 169 172 262 200 28 8 109 23 182 34 220 33 309 60 369
113 51 44 65 80 74 181 10 126 17 131 170 122 64 -3 190 -15 280 -26 235 -28
292 -25 277 13 -8 22 -64 35 -177 42 -235 16 -446 107 -591 255 -94 97 -150
223 -135 305 14 75 85 193 164 274 110 112 164 142 370 201 309 89 1006 206
1562 262 168 17 538 17 567 1 59 -34 38 -75 -120 -230 -63 -62 -122 -128 -131
-147 -44 -93 6 -264 124 -426 95 -130 101 -164 39 -209 -86 -63 -350 -186
-507 -236 -209 -68 -408 -52 -475 36 -13 19 -48 81 -77 139 -29 58 -68 129
-87 159 -42 66 -138 168 -175 187 -32 17 -68 18 -68 3 0 -5 33 -45 73 -87 89
-93 147 -178 198 -286 76 -163 77 -233 7 -378 -84 -172 -197 -313 -398 -491
-185 -165 -207 -197 -102 -143 71 36 228 172 331 287 159 177 209 252 267 404
21 52 64 89 83 70 6 -6 17 -46 26 -90 19 -103 64 -172 143 -222 125 -80 444
-217 595 -255 83 -21 138 -49 247 -126 90 -64 150 -121 150 -143 0 -33 -150
-116 -272 -149 -84 -22 -310 -56 -448 -66 -52 -4 -104 -11 -115 -15 -35 -16
373 -2 455 15 190 38 344 98 419 163 47 39 67 41 188 12 76 -18 108 -21 238
-16 360 13 752 161 862 326 39 58 54 111 30 111 -16 0 -55 -41 -103 -111 -62
-90 -206 -160 -422 -206 -121 -26 -141 -27 -412 -28 -273 0 -287 1 -341 23
-46 18 -182 119 -295 217 l-23 20 29 115 c57 227 86 408 65 411 -11 1 -60
-141 -101 -296 -38 -142 -67 -205 -95 -205 -88 0 -442 144 -606 246 -77 48
-119 101 -125 158 -4 41 38 68 154 96 163 40 335 111 634 261 407 205 461 215
561 110 l53 -55 0 32 c0 84 52 138 233 240 170 96 271 176 447 352 227 227
348 392 467 640 90 185 123 216 312 296 40 17 42 19 22 28 -30 13 -146 -9
-196 -39 -92 -53 -169 -161 -225 -314 -107 -292 -536 -751 -860 -920 -140 -73
-336 -132 -503 -152 -129 -15 -169 -1 -233 80 -68 86 -106 194 -112 319 -8
170 22 215 214 322 106 60 152 81 283 132 150 59 107 78 -72 32 -120 -30 -149
-28 -227 20 -57 35 -150 66 -200 66 -74 0 -82 51 -70 446 9 313 3 454 -23 516
-15 36 -83 118 -97 118 -4 0 5 -37 21 -82 67 -198 78 -484 19 -503 -28 -9 -44
-3 -225 86 -88 42 -173 80 -190 84 -28 6 -29 6 -12 -12 9 -11 65 -45 125 -76
162 -86 221 -139 273 -245 33 -66 44 -101 47 -148 4 -59 3 -63 -33 -102 -62
-69 -131 -89 -465 -133 -267 -35 -388 -55 -695 -114 -126 -24 -294 -55 -371
-69 -290 -53 -448 -108 -590 -208 -44 -30 -85 -58 -93 -63 -12 -7 -13 12 -8
121 8 183 55 353 218 789 115 311 133 411 154 858 15 333 29 442 71 559 15 40
99 219 188 398 89 179 194 394 234 478 l72 152 63 0 c34 0 125 -5 202 -10z
m2316 -167 c47 -22 168 -96 271 -166 307 -208 393 -242 773 -308 87 -15 130
-31 225 -85 122 -69 230 -177 230 -228 0 -24 -69 -37 -249 -46 -91 -4 -174
-11 -183 -15 -67 -27 54 -55 327 -75 252 -19 366 -45 507 -116 90 -45 191
-144 263 -258 l57 -89 -34 7 c-75 14 -428 66 -490 72 -38 4 -68 4 -68 0 0 -4
19 -15 43 -26 41 -18 126 -36 368 -79 138 -25 245 -59 354 -113 239 -120 379
-289 480 -579 40 -115 81 -197 107 -213 28 -17 32 0 16 60 -19 67 -12 73 61
49 65 -21 131 -66 183 -124 81 -90 500 -867 552 -1023 36 -107 32 -218 -8
-218 -45 0 -145 174 -223 385 -55 150 -91 206 -208 321 -100 99 -199 176 -310
242 -82 49 -130 66 -204 76 -82 11 -107 28 -142 99 -62 123 -286 306 -628 510
-384 231 -710 378 -931 422 -170 33 -241 65 -340 150 -181 157 -390 207 -1025
245 -480 29 -484 30 -858 217 l-248 123 297 315 c162 173 317 330 342 349 95
69 249 133 379 156 26 5 89 8 138 6 82 -3 99 -7 176 -43z m-5046 -4028 c31
-20 86 -50 122 -66 l66 -30 -24 -25 c-13 -14 -62 -49 -109 -77 -47 -28 -94
-57 -106 -64 -20 -13 -25 -8 -86 84 -36 54 -68 107 -72 117 -9 26 17 61 62 86
47 25 75 20 147 -25z m-3054 -388 c9 -7 32 -37 52 -67 94 -147 221 -204 527
-241 155 -19 815 -15 1105 6 339 25 591 30 639 13 52 -17 66 -40 46 -75 -23
-40 -59 -61 -125 -73 -157 -28 -2002 -29 -2205 0 -165 23 -232 60 -276 155
-29 62 -30 117 -4 160 19 30 97 97 145 123 27 15 76 14 96 -1z m956 -527 c99
-11 163 -37 251 -103 82 -60 132 -86 245 -126 144 -51 313 -86 464 -96 134 -9
151 -13 169 -41 14 -20 14 -29 4 -54 -17 -42 -72 -87 -122 -101 -100 -27 -354
13 -831 131 -290 71 -350 93 -398 141 -42 42 -99 151 -99 189 0 38 20 51 88
60 84 11 137 11 229 0z m984 0 c135 -5 253 -12 262 -16 24 -9 21 -47 -9 -107
-37 -73 -70 -114 -107 -134 -43 -22 -162 -20 -344 6 -244 36 -405 96 -488 181
-56 57 -44 64 128 71 233 9 301 9 558 -1z m6895 -234 c-16 -13 -90 -59 -165
-102 -569 -324 -848 -521 -1019 -718 -128 -146 -232 -383 -288 -651 -14 -71
-29 -132 -31 -135 -3 -3 -3 65 -1 150 4 139 8 163 33 230 55 150 163 338 259
455 22 28 99 111 171 185 72 74 152 164 179 200 70 92 152 175 219 222 91 62
237 125 237 102 0 -5 -33 -31 -72 -59 -39 -27 -73 -56 -76 -62 -12 -38 148 11
318 97 110 56 231 109 250 109 9 0 4 -9 -14 -23z m234 -26 c0 -22 -87 -103
-166 -156 -45 -30 -149 -86 -230 -125 -409 -193 -587 -309 -764 -496 -108
-114 -216 -300 -194 -335 10 -16 73 52 111 122 54 97 237 274 390 377 67 45
215 128 330 186 234 117 295 153 473 277 146 103 193 126 211 104 48 -58 -154
-221 -445 -359 -221 -105 -260 -126 -376 -202 -168 -112 -286 -208 -426 -348
-147 -147 -237 -263 -295 -380 -46 -93 -59 -154 -52 -236 7 -70 -5 -89 -53
-89 -23 0 -44 9 -64 28 -26 23 -33 38 -42 101 -20 135 22 318 114 491 102 193
196 298 391 435 246 173 739 473 941 571 85 42 146 56 146 34z m1400 -4 c0
-47 -270 -336 -410 -438 -110 -80 -266 -168 -473 -264 -222 -104 -408 -201
-587 -307 -148 -88 -219 -137 -385 -267 -60 -47 -116 -90 -123 -94 -21 -13
115 248 179 343 67 100 166 202 259 267 36 25 159 93 274 151 240 120 388 207
536 314 58 41 146 105 196 141 159 116 238 150 252 111 6 -19 -101 -120 -200
-191 -48 -34 -167 -111 -264 -172 -265 -166 -364 -246 -364 -293 0 -9 4 -18 8
-21 34 -21 392 217 742 493 171 135 227 176 293 212 59 33 67 34 67 15z m195
-14 c14 -64 -42 -140 -274 -374 -167 -170 -198 -204 -189 -214 8 -7 129 75
245 167 123 97 229 169 250 169 67 0 -123 -202 -327 -347 -149 -106 -375 -241
-573 -343 -194 -100 -294 -144 -507 -222 -194 -71 -350 -147 -475 -231 -122
-83 -270 -231 -325 -327 -44 -75 -89 -130 -109 -130 -25 0 -41 33 -41 85 0 47
6 62 51 129 97 146 339 377 561 534 105 75 335 196 663 347 231 107 260 122
388 208 113 75 248 192 467 406 96 93 178 170 182 170 3 1 9 -12 13 -27z m146
-35 c0 -63 -21 -112 -52 -122 -37 -12 -42 8 -18 66 28 66 60 121 66 115 2 -2
4 -29 4 -59z m-892 -21 c-2 -1 -61 -46 -130 -99 -190 -145 -310 -217 -568
-344 -285 -140 -397 -208 -477 -288 -78 -79 -212 -279 -278 -415 -43 -87 -51
-114 -53 -167 -3 -71 -17 -105 -80 -182 -59 -73 -88 -133 -102 -211 -16 -93
-49 -114 -95 -59 -20 23 -26 42 -26 78 0 132 144 476 299 711 64 97 228 272
346 367 111 90 618 426 740 489 142 75 196 94 315 113 95 16 121 17 109 7z
m-474 -26 c0 -31 -76 -93 -238 -196 -93 -58 -114 -68 -99 -47 34 46 224 230
262 252 45 28 75 24 75 -9z m-8407 -81 c53 -6 180 -28 282 -50 254 -53 402
-78 517 -84 156 -10 213 -28 213 -69 0 -15 -55 -37 -125 -51 -186 -35 -883
-80 -1113 -72 -181 6 -260 21 -345 63 -84 43 -223 163 -205 179 18 15 60 26
149 39 146 21 380 47 502 54 15 1 71 -3 125 -9z m6922 -32 c0 -34 -72 -127
-294 -377 -210 -236 -284 -340 -377 -528 -45 -89 -85 -165 -90 -168 -13 -7 -2
64 22 151 43 155 98 258 227 425 147 190 363 428 436 482 41 30 76 37 76 15z
m2900 -97 c0 -22 -33 -60 -103 -117 -99 -81 -106 -84 -58 -22 87 111 161 175
161 139z m-3260 -38 c0 -28 -56 -115 -156 -242 -107 -137 -194 -260 -222 -315
-38 -76 -80 -221 -102 -349 -12 -71 -24 -135 -27 -143 -18 -46 -56 53 -68 174
-26 265 134 589 391 794 111 88 184 120 184 81z m-315 -104 c-20 -24 -71 -83
-113 -133 -144 -171 -202 -223 -202 -179 0 32 75 159 128 215 56 61 100 93
167 121 59 25 60 22 20 -24z m1530 -70 c-183 -167 -380 -372 -461 -481 -152
-202 -252 -405 -300 -605 -29 -125 -45 -164 -78 -197 -59 -59 -139 -17 -200
106 -44 88 -53 156 -32 240 28 110 162 354 195 354 7 0 23 -26 35 -59 26 -73
47 -89 77 -60 15 16 23 41 29 91 12 117 60 200 177 316 106 104 221 181 393
264 85 40 178 85 205 98 28 13 52 24 55 24 3 0 -40 -41 -95 -91z m-1788 25
c-84 -110 -142 -253 -217 -543 -42 -157 -45 -155 -30 20 14 165 39 316 62 378
11 29 17 56 14 59 -3 3 -19 0 -36 -7 -39 -16 -45 -9 -27 27 21 40 94 119 102
111 4 -4 -1 -27 -10 -53 -10 -25 -15 -48 -12 -51 7 -8 74 32 137 80 25 19 49
35 53 35 5 1 -12 -25 -36 -56z m-479 24 c2 -10 -19 -66 -46 -125 -68 -144 -86
-232 -86 -407 -1 -153 9 -207 56 -332 17 -46 28 -86 25 -90 -22 -22 -168 187
-224 321 -49 115 -63 185 -63 315 0 201 26 286 100 324 51 25 233 21 238 -6z
m168 -19 c-3 -18 -29 -80 -57 -137 -71 -146 -92 -229 -92 -371 -1 -168 29
-269 134 -460 72 -129 114 -229 101 -242 -32 -32 -218 300 -292 520 -36 108
-38 165 -10 303 43 212 143 419 202 419 18 0 20 -4 14 -32z m-586 -60 c0 -24
-5 -109 -12 -191 -20 -240 -17 -247 264 -693 229 -363 235 -373 216 -385 -23
-15 -37 -10 -79 28 -50 46 -209 242 -306 379 -137 194 -175 287 -194 482 -13
136 -7 264 16 318 16 38 71 104 87 104 4 0 8 -19 8 -42z m4463 -64 c11 -11
-20 -59 -59 -94 -60 -52 -133 -95 -240 -141 -100 -42 -167 -79 -179 -99 -14
-23 88 -7 215 35 73 24 135 43 137 41 2 -2 -38 -36 -89 -75 -156 -123 -240
-157 -558 -227 -439 -96 -670 -176 -670 -230 0 -24 49 -16 190 32 286 97 848
220 1095 238 60 5 65 4 35 -5 -81 -25 -181 -60 -269 -94 -95 -37 -189 -63
-471 -130 -210 -50 -353 -100 -495 -174 -287 -148 -642 -321 -665 -323 -41 -5
-35 29 21 122 127 206 368 367 754 501 281 97 531 220 895 439 188 112 326
190 341 190 3 0 8 -3 12 -6z m266 -46 c-7 -12 -33 -45 -59 -73 -54 -57 -74
-91 -66 -111 9 -24 44 -15 85 21 39 35 62 34 42 -2 -21 -40 -133 -135 -192
-163 -81 -38 -161 -55 -189 -40 -19 10 -19 13 -5 46 52 124 290 340 378 343
15 1 16 -2 6 -21z m-4133 -140 c-4 -79 -13 -204 -21 -278 -8 -74 -15 -138 -15
-142 0 -5 -4 -8 -10 -8 -18 0 -40 103 -40 186 0 91 32 295 54 349 8 19 20 35
27 35 9 0 10 -34 5 -142z m-1022 -83 c9 -20 18 -51 22 -71 l6 -35 -78 29 c-90
33 -98 47 -45 87 50 36 77 33 95 -10z m-80 -132 c178 -54 328 -175 526 -423
215 -270 317 -453 318 -569 1 -50 45 -131 129 -233 102 -125 137 -181 163
-261 53 -163 221 -342 489 -519 101 -67 261 -150 451 -236 206 -92 283 -181
456 -526 114 -229 159 -303 241 -405 98 -121 108 -191 28 -191 -54 0 -115 80
-220 289 -162 324 -378 673 -406 655 -17 -10 4 -60 109 -249 119 -216 372
-706 372 -723 0 -17 -52 -19 -80 -4 -14 7 -44 39 -67 70 -41 55 -70 105 -237
407 -178 321 -406 618 -406 530 0 -23 26 -69 74 -133 95 -125 265 -415 373
-637 104 -212 117 -291 39 -231 -43 33 -135 142 -285 341 -189 249 -299 378
-566 660 -281 297 -447 488 -647 745 -181 233 -268 371 -268 426 0 41 19 56
59 48 24 -5 31 -3 31 8 0 19 -79 58 -270 135 -240 97 -434 226 -600 399 -95
98 -132 149 -177 239 -41 81 -48 117 -30 152 23 43 240 251 268 255 32 6 73 0
133 -19z m5178 -81 c-16 -39 -46 -93 -66 -121 -78 -105 -244 -227 -371 -272
-115 -40 -255 -57 -255 -30 0 10 76 54 216 125 158 80 207 114 229 160 9 19
33 48 53 63 50 39 216 151 220 148 1 -1 -11 -34 -26 -73z m-6728 -213 c164
-80 208 -90 411 -98 l170 -6 -85 -57 c-196 -130 -418 -186 -694 -175 -223 9
-377 58 -488 157 -57 50 -61 75 -15 94 182 79 238 116 319 210 l48 55 107 -61
c59 -33 161 -87 227 -119z m6316 52 c0 -18 -117 -84 -388 -217 -150 -74 -277
-134 -283 -134 -26 0 1 22 94 78 166 99 533 280 570 282 4 0 7 -4 7 -9z
m-3430 -73 c0 -24 -18 -58 -30 -58 -11 0 -14 83 -3 93 10 11 33 -13 33 -35z
m3750 -72 c0 -29 -121 -126 -213 -170 -113 -55 -299 -117 -438 -147 -113 -24
-341 -36 -418 -22 l-43 8 133 52 c174 68 209 76 299 73 236 -9 336 16 510 128
67 44 152 92 163 92 4 0 7 -6 7 -14z m-880 -20 c-56 -53 -166 -134 -223 -163
-149 -74 -420 -144 -449 -115 -19 19 14 45 127 101 148 73 323 139 439 166
122 28 124 29 106 11z m-2797 -89 c10 -20 16 -45 13 -54 -6 -14 -10 -13 -32 8
-29 27 -47 66 -38 80 11 19 37 4 57 -34z m3391 -203 c33 -13 14 -24 -38 -24
-79 0 -87 27 -9 29 17 1 38 -2 47 -5z m-2813 -24 c113 -25 155 -45 139 -66
-30 -35 -245 -70 -358 -58 -46 5 -71 13 -93 31 -63 53 -21 86 83 64 66 -14 83
-9 68 19 -5 10 -10 21 -10 24 0 12 84 5 171 -14z m-522 -95 c34 -40 55 -77 65
-117 5 -23 3 -28 -13 -28 -11 0 -31 14 -46 31 -81 97 -87 206 -6 114z m-352
-12 c8 -20 -35 -103 -52 -103 -28 0 -33 63 -9 98 18 26 52 29 61 5z m3193 -24
c-121 -107 -253 -152 -537 -183 -248 -28 -436 -17 -717 40 -65 13 -120 24
-122 24 -2 0 -4 4 -4 9 0 21 301 70 710 115 295 33 284 32 515 34 l200 1 -45
-40z m250 27 c0 -39 -222 -201 -317 -230 -68 -21 25 95 140 173 89 61 177 89
177 57z m-3240 -55 c78 -56 97 -181 28 -181 -24 0 -45 -36 -53 -93 -13 -84
-33 -89 -135 -30 -101 59 -260 195 -260 222 0 34 107 -15 130 -60 16 -29 99
-79 132 -79 18 0 33 8 44 25 14 21 14 34 3 115 -11 79 -11 93 1 101 20 13 79
2 110 -20z m3420 17 c0 -11 -76 -88 -203 -206 -31 -29 -57 -57 -57 -62 0 -5 9
-12 21 -15 56 -18 -30 -88 -137 -110 -136 -28 -391 -45 -684 -45 -320 0 -520
12 -684 40 -109 19 -292 72 -310 91 -16 15 51 10 154 -11 180 -39 446 -49 780
-30 287 16 511 44 615 77 79 24 221 101 309 167 144 106 196 134 196 104z
m-2282 -58 c48 -10 145 -35 216 -55 268 -73 516 -106 1086 -144 86 -6 -21 -8
-350 -7 -540 3 -549 4 -810 92 -131 45 -300 117 -300 128 0 12 73 5 158 -14z
m-458 -63 c209 -73 578 -234 678 -296 79 -50 9 -76 -183 -68 -156 7 -270 28
-366 67 -206 84 -410 259 -372 319 12 19 57 30 98 23 17 -3 82 -23 145 -45z
m367 -41 c118 -42 228 -90 237 -105 14 -22 -47 -10 -148 29 -92 36 -196 92
-196 105 0 8 1 7 107 -29z m-687 -104 c0 -15 -44 -50 -65 -52 -77 -8 -84 15
-14 42 49 19 79 22 79 10z m178 -94 c26 -18 101 -74 167 -125 195 -152 270
-180 455 -170 117 7 200 26 242 57 35 25 42 25 28 -1 -17 -31 -4 -65 45 -118
25 -26 42 -51 38 -54 -12 -13 -238 -7 -322 8 -378 66 -781 273 -781 401 0 53
52 54 128 2z m-760 16 c28 -20 26 -58 -4 -62 -28 -4 -58 31 -49 57 8 25 23 26
53 5z m690 -198 c98 -83 171 -156 156 -156 -30 0 -276 185 -288 216 -9 24 3
35 25 24 10 -6 59 -44 107 -84z m1169 69 c117 -19 367 -41 703 -60 151 -8 298
-17 325 -18 28 -2 -152 -4 -400 -5 -563 -2 -728 11 -759 61 -8 13 -8 20 4 27
20 13 25 13 127 -5z m-1568 -64 c10 -10 29 -49 41 -87 12 -38 51 -140 87 -228
35 -87 62 -166 60 -175 -2 -11 -52 32 -159 139 -200 199 -252 286 -199 334 41
38 139 48 170 17z m190 -53 c51 -69 75 -189 55 -266 -10 -37 -27 -20 -57 59
-79 204 -77 315 2 207z m797 27 c128 -22 184 -36 184 -46 0 -13 -83 -11 -180
5 -86 14 -140 32 -140 48 0 12 36 10 136 -7z m1014 -90 c284 -18 360 -25 360
-35 0 -4 -143 -10 -317 -13 -175 -4 -351 -11 -392 -17 -63 -10 -81 -9 -116 5
-55 20 -86 52 -65 65 22 14 265 12 530 -5z m-1550 -175 c81 -138 120 -299 91
-374 -14 -35 -28 -26 -70 49 -77 137 -111 263 -91 344 7 28 16 51 21 51 4 0
27 -32 49 -70z m1603 34 c20 -4 37 -11 37 -15 0 -12 -167 -11 -175 0 -10 17
73 25 138 15z m-1228 -58 c28 -9 61 -25 75 -37 l25 -20 -65 6 c-77 7 -281 53
-295 67 -16 15 204 1 260 -16z m1138 -32 c35 -13 13 -39 -53 -61 -89 -30 -276
-45 -505 -41 l-190 3 170 42 c94 23 206 47 250 52 44 6 94 13 110 15 41 6 196
-1 218 -10z m-850 -170 c165 -41 317 -64 437 -64 107 1 163 13 219 51 63 42
118 38 75 -6 -51 -50 -148 -74 -334 -82 -148 -6 -315 12 -412 46 -64 22 -154
67 -163 81 -11 17 31 11 178 -26z m-320 -184 c189 -113 254 -118 152 -11 -32
34 -55 61 -51 61 4 0 76 -27 161 -60 84 -33 181 -66 215 -74 75 -18 81 -22 44
-36 -99 -38 -326 -46 -447 -17 -82 20 -160 59 -181 89 -19 27 -22 108 -3 108
6 0 56 -27 110 -60z m676 -16 c56 -11 33 -24 -44 -24 -41 0 -75 4 -75 9 0 16
68 25 119 15z m-249 -219 c47 -24 102 -107 204 -305 108 -211 168 -347 164
-369 -5 -22 -50 42 -151 209 -163 272 -268 430 -288 430 -22 0 59 -169 213
-443 141 -252 222 -427 204 -444 -25 -25 -304 407 -468 724 -43 84 -78 159
-78 167 0 41 140 62 200 31z"/>
<path d="M4548 8839 c-51 -53 -124 -139 -161 -190 -81 -112 -169 -288 -191
-381 -21 -87 -21 -243 0 -327 30 -123 33 -117 64 164 11 99 27 208 35 242 31
130 94 240 230 398 93 108 129 159 122 177 -3 8 -41 -23 -99 -83z"/>
<path d="M2391 7907 c-1 -96 20 -176 66 -256 28 -49 91 -121 104 -121 17 0 9
48 -17 96 -65 119 -90 175 -120 269 l-33 100 0 -88z"/>
<path d="M4440 7132 c0 -22 189 -102 238 -102 l27 1 -34 29 c-61 52 -231 105
-231 72z"/>
<path d="M8605 8364 c-110 -74 -110 -155 0 -359 174 -321 201 -553 85 -728
-46 -68 -50 -90 -18 -85 52 7 116 139 139 290 22 144 -11 276 -140 556 -69
148 -74 195 -32 275 43 81 32 96 -34 51z"/>
<path d="M10876 7427 c-29 -21 -35 -157 -7 -157 12 0 51 94 51 123 0 34 -21
50 -44 34z"/>
<path d="M10752 7123 c-109 -109 -246 -266 -304 -348 -101 -142 -146 -256
-253 -641 -37 -132 -67 -240 -68 -240 -1 -1 -93 -10 -205 -19 -233 -20 -509
-16 -632 9 -185 39 -270 39 -270 2 0 -40 122 -54 573 -66 383 -10 564 -22 596
-39 36 -20 44 -64 38 -214 -6 -153 -2 -197 18 -197 28 0 39 65 43 273 4 200 5
208 25 220 16 9 151 13 522 17 480 5 502 6 557 27 79 29 163 88 203 141 35 44
41 62 90 242 14 52 46 132 71 178 24 45 41 82 38 82 -4 0 -26 -15 -49 -34 -54
-45 -99 -131 -131 -252 -14 -54 -37 -120 -52 -148 -50 -91 -178 -167 -316
-185 -48 -7 -247 -11 -496 -10 -451 1 -494 -3 -510 -47 -12 -31 -30 -31 -30 0
0 41 29 185 70 341 93 361 209 621 295 662 41 19 58 10 81 -46 12 -28 17 -33
24 -21 5 8 10 31 10 51 0 67 38 165 89 231 100 131 88 144 -27 31z"/>
<path d="M12104 6129 c-34 -4 -78 -15 -100 -24 -45 -18 -137 -76 -131 -81 2
-2 55 9 118 26 201 53 300 39 393 -54 73 -72 81 -114 81 -401 0 -294 -7 -328
-86 -399 -77 -69 -146 -99 -217 -94 -69 5 -100 24 -143 91 -17 26 -34 47 -38
47 -4 0 -2 -28 5 -62 34 -162 -59 -306 -241 -378 -81 -32 -87 -40 -32 -40 63
0 135 34 237 111 131 100 170 124 297 189 66 33 137 75 159 94 57 49 91 129
105 250 13 115 7 472 -10 527 -42 138 -211 222 -397 198z"/>
<path d="M12273 5902 c-43 -34 -76 -155 -87 -322 -4 -52 -9 -117 -12 -145 -10
-84 3 -46 30 85 20 102 69 281 102 383 8 22 -5 22 -33 -1z"/>
<path d="M11406 5529 c-36 -65 -123 -158 -216 -232 -80 -64 -218 -137 -258
-137 -13 0 -63 18 -110 40 -181 85 -229 53 -53 -35 88 -44 154 -108 202 -194
34 -62 62 -92 74 -79 3 3 -1 37 -10 75 -25 108 -10 131 198 300 151 124 217
204 217 264 0 21 -4 40 -8 43 -4 2 -20 -18 -36 -45z"/>
<path d="M8534 5460 c3 -25 9 -61 12 -81 8 -46 -17 -74 -80 -90 -64 -16 -87
-45 -93 -117 -3 -33 -2 -86 2 -118 l8 -59 22 91 c26 104 37 129 64 144 30 16
196 38 456 60 306 26 486 47 601 70 92 18 194 61 194 81 0 14 -46 7 -205 -31
-66 -16 -154 -33 -195 -39 -132 -19 -371 -29 -511 -22 -160 9 -184 19 -243
102 l-38 54 6 -45z"/>
<path d="M4110 4204 c0 -74 95 -202 223 -296 39 -30 146 -96 237 -147 91 -51
249 -150 353 -219 249 -167 270 -149 32 28 -119 89 -241 169 -405 268 -171
102 -283 192 -340 273 -25 34 -57 76 -72 93 l-27 31 -1 -31z"/>
<path d="M8332 9272 c-11 -7 -11 -10 2 -15 37 -14 244 -38 531 -61 171 -14
341 -28 378 -31 63 -6 68 -5 65 12 -7 36 -77 53 -338 79 -180 18 -620 29 -638
16z"/>
<path d="M8493 9190 c-16 -6 -23 -18 -23 -35 0 -33 34 -34 75 -1 l30 24 -28
11 c-16 6 -29 11 -30 10 -1 0 -12 -4 -24 -9z"/>
</g>
</svg>
