<?xml version="1.0" encoding="UTF-8"?>
<svg width="300px" height="416px" viewBox="0 0 300 416" version="1.1" xmlns="http://www.w3.org/2000/svg" xmlns:xlink="http://www.w3.org/1999/xlink">
    <title>Shape</title>
    <defs>
        <linearGradient x1="100%" y1="0%" x2="6.68798058e-15%" y2="100%" id="linearGradient-1">
            <stop stop-color="#353535" offset="0%"></stop>
            <stop stop-color="#363635" offset="82.937825%"></stop>
            <stop stop-color="#E0A060" offset="100%"></stop>
        </linearGradient>
    </defs>
    <g id="Page-1" stroke="none" stroke-width="1" fill="none" fill-rule="evenodd" opacity="0.744559152">
        <g id="INBlockchain-logo-colored" fill="url(#linearGradient-1)" fill-rule="nonzero">
            <path d="M289.64164,350.947898 L222.18411,318.895591 L222.217248,153.862028 C219.563562,98.479905 170.612943,54.0771831 111.108624,54.0771831 C108.57005,54.0771831 106.056765,54.1875946 103.559178,54.3466915 C121.425997,27.6645455 153.042627,9.85877077 188.892248,9.85877077 C244.087707,9.85877077 289.283222,52.0410958 289.64164,103.890058 L289.64164,350.947898 Z M222.167541,400.533864 L222.182365,328.36488 L284.066544,357.769055 L222.167541,400.533864 Z M211.858017,403.693191 L103.036813,353.084835 L171.337628,304.205675 L211.858017,323.458098 L211.858017,403.693191 Z M77.7661823,256.425412 L66.7075569,264.339378 L10.2833619,303.371939 L10.3609754,157.967241 C10.6592215,114.572131 42.37701,77.9660112 85.0662185,67.1778727 C80.8829342,77.3861342 78.3330231,88.3446715 77.7853685,99.784845 L77.7661823,256.425412 Z M90.5096331,55.9046204 C40.6825927,64.7523023 2.34235962,105.028077 0,153.862028 L0,313.321125 C0.0296503846,314.041842 0.237200769,314.713873 0.562480385,315.31983 C0.956652692,316.403948 1.79208808,317.311581 2.92664192,317.798433 L54.29985,339.877212 C54.8972135,340.135417 55.5355627,340.260608 56.1712962,340.260608 C57.1296935,340.260608 58.0802412,339.972843 58.8729462,339.413832 L134.767682,285.850452 C136.022581,284.966293 136.694941,283.530946 136.544946,282.063432 C136.391463,280.595918 135.434811,279.310105 134.022942,278.669372 L88.0626254,257.812942 L88.1445992,103.890058 C88.2405265,89.9565023 91.5997119,76.7340992 97.4957273,64.8279381 C101.952839,64.2567554 106.491924,63.9368238 111.108624,63.9368238 C166.304083,63.9368238 211.499598,106.118279 211.858017,157.967241 L211.858017,313.98881 L172.882922,295.470143 C171.344604,294.738995 169.499319,294.89896 168.125821,295.878752 L91.8168554,350.488866 C90.5802704,351.374763 89.9192469,352.799678 90.0657531,354.253282 C90.2157485,355.708623 91.1540873,356.988351 92.5485162,357.636909 L213.682372,413.971873 C214.352987,414.507411 215.159646,414.889068 216.060486,415.04208 C216.612502,415.255948 217.189807,415.384615 217.771473,415.384615 C218.728126,415.384615 219.680418,415.096851 220.473123,414.537839 L260.24441,386.469032 L297.828564,360.497169 C299.134042,359.591275 299.858725,358.219394 299.963373,356.804042 L300,99.784845 C297.347185,44.4027219 248.39744,0 188.892248,0 C146.340825,0 109.195319,22.7125562 90.5096331,55.9046204 Z" id="Shape"></path>
        </g>
    </g>
</svg>