<?xml version="1.0" encoding="UTF-8" standalone="no"?>
<svg xmlns="http://www.w3.org/2000/svg" xml:space="preserve" id="svg2652" width="1024" height="731" fill-rule="evenodd" image-rendering="optimizeQuality" shape-rendering="geometricPrecision" text-rendering="geometricPrecision" viewBox="0 0 1024 732">
  <defs id="defs2654">
    <style id="style2656" type="text/css">
      .str0,.str2,.str3{stroke:#000;stroke-width:2}.str3{stroke-dasharray:5 7}.fil5{fill:none}.fil6{fill:#000}.fil2{fill:#fff}
    </style>
  </defs>
  <path fill="#fcfb98" d="M564 54c13-2 26-1 38 6 38-7 66-1 83 18 14-3 29 1 43 11 39 17 67 39 89 64 36 15 50 33 52 53 19 14 31 31 39 50L798 413l-343-43-103-161L564 54z"/>
  <path fill="#b4d8ec" d="m573 52-15 38c-64 5-78 25-58 57 12 14-10 26-16 42-6 20-13 41-23 62 0 54-31 50-28 69l22 29-191 199c-95 15-146 7-160-20-29-10-47-42-53-96-15-16-16-31-11-47-2-6-3-12 1-18-8-26-4-40 1-53 2-20 12-37 27-52-1-25 14-38 34-46 16-51 88-86 117-94 19-17 45-27 77-31 16-7 31-12 46-14 28-18 60-21 92-21 26-9 53-12 81-6l57 2z"/>
  <path fill="#fff" stroke="#000" stroke-width="2" d="M518 579c7 28 20 47 41 55 30 14 53 48 77 78 13-7 27-13 38-23L560 553l-42 26z" class="fil2 str0"/>
  <path fill="#fff" stroke="#000" stroke-width="2" d="M551 571c0 6 1 12 7 18 2 34 15 45 33 45 80 51 141 54 187 24 19-11 49-22 51-33 22-11 35-22 47-33 19-16 19-44 11-79-190-6-286 19-336 58z" class="fil2 str0"/>
  <path fill="#b6cf9d" d="m564 312 266 42c39 46 78 92 116 138-28 27-66 31-107 25-17 9-43 14-82 0-15 9-30 15-45 20-24 13-49 17-75 17-24 4-45 7-54 0-15 12-28 17-39 20-17 10-31 13-45 16-12 29-41 41-81 41-27 12-54 13-82-12-20-10-39-22-49-46-7-8-13-15-19-23-3-28 4-53 25-74 20-11 23-40 35-60 23-27 60-38 99-46 17-17 37-29 67-27 17-17 37-32 70-31z"/>
  <path fill="#f7a6b6" d="M905.55813 255.40242c-30.54457 25.82838-48 42-73 72-7 25-3 50 7 75-7.82326 9.7227-21.46081 18.0795-26.87713 27.47625-3.07324 5.33175-17.41927 44.70616-23.98828 48.24916-6.00733 3.24006-11.61249 3.68966-13.44478 9.80025-.22505.75054-11.43717 11.00398-12.9275 12.00546-9.45919 6.35645-13.84 6.04707-12.23856 8.5322 2.32615 3.60974 3.16585 5.9875 6.58798 7.41601 3.42214 1.42852 30.32142 8.8332 34.30371 8.3266 4.06809-.51753 19.74199 1.27118 23.67569 1.02461 3.86003-.24194 9.1993-2.09306 12.35817-2.92937 4.00987-1.06161 9.69306-5.98194 11.91162-5.8475 16.51772 1.00093 35.6613 1.33924 58.00849-1.45406 34.3121-8.8544 19.59419-4.1938 50.63059-21.59961 10-12 18-28 26-56 7-11 6-29 3-46 6-24-5-33-20-50-4-15-9-34-27-49 1-10-4-26-24-37z"/>
  <path fill="none" stroke="#000" stroke-width="4" d="M436 56c-31-2-66 4-96 21-15 1-31 9-44 15-29 2-54 12-76 29-19 6-39 13-56 28-32 19-53 41-63 68-21 7-32 23-32 45-15 13-25 30-27 52-8 17-7 34-2 51-1 6-5 13 0 19-5 11-3 22 2 33 3 0 4 13 8 15 2 29 9 48 18 62 10 16 20 30 36 34 16 32 82 30 162 19 7 11 14 19 21 27 11 23 29 37 51 46 18 16 40 27 81 11 39-2 70-11 80-41 10-1 23-6 44-16 15-3 27-11 38-20 11 8 34 4 57 0 36-2 61-7 73-17 17-5 34-10 47-20 30 10 58 14 81 0 67 7 120-7 134-79 11-12 8-30 3-48 11-18-4-33-19-49-2-21-12-36-27-49 2-14-3-26-23-36-8-24-22-39-39-50 0-25-21-41-52-53-24-29-54-50-89-65-14-11-28-12-42-10-16-20-44-25-82-18-10-7-21-7-31-7-23-2-43-3-60-3-29-6-53-2-76 6z" class="fil5"/>
  <path fill="none" stroke="#000" stroke-width="2" d="M149 168c-11 10-11 17-4 21m33-34c49-34 85-37 110-20" class="fil5 str0"/>
  <path fill="none" stroke="#000" stroke-width="2" d="M254 184c19-14 27-41 42-60 20-30 58-5 82-7m-249 98c-12 14 3 26 3 39" class="fil5 str0"/>
  <path fill="none" stroke="#000" stroke-width="2" d="M91 256c17-9 13-29 29-43 11-14 47-15 60-34 14-21 32-28 53-24" class="fil5 str0"/>
  <path fill="none" stroke="#000" stroke-width="2" d="M217 174c11-11 19-22 26-33m42 35c11-8 16-18 15-29m-26-39c8 3 19 1 36-11" class="fil5 str0"/>
  <path fill="none" stroke="#000" stroke-width="2" d="M297 93c-4 5-7 10-7 14m51-30c2 4 5.84515 7 8.84515 7M369 65c-4 5-7 9-9 13m97-14c-8 1-16-1-24-8" class="fil5 str0"/>
  <path fill="none" stroke="#000" stroke-width="2" d="M471 124c-10-2-18-6-14-29 1-20-15-26-43-24-26 2-50 4-61 10-9 9-19 18-31 28" class="fil5 str0"/>
  <path fill="none" stroke="#000" stroke-width="2" d="M357 89c-7 7-8.73987 15.78038-6.73987 23.78038M431 82c-10 17-24 32-34 41-21 22-33.94356 46.84515-11.94356 72.84515" class="fil5 str0"/>
  <path fill="none" stroke="#000" stroke-width="2" d="M373.05644 169c-11 1-20.05644-6-27.05644-16-5-10-19-10-25-29m133 5c-49 2-48 33-72 44m104 7.081c4.26013-18.34113-7-24.081-32-23.081-12 1-24 1-33-4m40 29c-26 9-51 12-77 14-12-1-29 38-31 51M48 324c7-11 14-17 23-20" class="fil5 str0"/>
  <path fill="none" stroke="#000" stroke-width="2" d="M71 311c-4-17 27-22 36-32 6-5 11-24 42-31 17-6 31-24 51-42 8-9 24.05644-13 41.05644-14" class="fil5 str0"/>
  <path fill="none" stroke="#000" stroke-width="2" d="M211 167c-9 12-16 27-6 34m-36 34.15485c-2 12-2 24.84515-1 35.84515m31-14c-7 11-19 24-14 39" class="fil5 str0"/>
  <path fill="none" stroke="#000" stroke-width="2" d="M175 292c18 5 28 23 41 28m-31.47975-36.69937C178.52025 273.30063 169 267 157 276c-17 10-33 21-50 31-16 14-20.788713 28.84515-13.788713 42.84515" class="fil5 str0"/>
  <path fill="none" stroke="#000" stroke-width="2" d="M49 352c13-15 27-22 41-21" class="fil5 str0"/>
  <path fill="none" stroke="#000" stroke-width="2" d="M71 335c-3-3-8-4-14-5m46-11c24-13 36-10 40 3 10 54 23.13862 61.13862 38.13862 75.13862" class="fil5 str0"/>
  <path fill="none" stroke="#000" stroke-width="2" d="M156 299c-4 4-10 10-16 17m66-48c18-16 43-33-4-49" class="fil5 str0"/>
  <path fill="none" stroke="#000" stroke-width="2" d="M229 242c29-1 45 5 46 21 1 11-6 22-5 34" class="fil5 str0"/>
  <path fill="none" stroke="#000" stroke-width="2" d="M350 386c25-24 40-46 23-84-6-19-13-37-20-55-31 0-58 5-78 15" class="fil5 str0"/>
  <path fill="none" stroke="#000" stroke-width="2" d="M323 276c-15 14-47 23-45 48 1 47 18 57 29 68 4 3 8 15 18 27m-69-270c-5 19-26 39-7 61 7-5 26-5 35-7 16-10 59 7 76-5m76 71c8-30-7-48-36-57m53 134c-14-2-44-23-40-44-3-25-18-34-19-44-2-5 5-17-1-24" class="fil5 str0"/>
  <path fill="none" stroke="#000" stroke-width="2" d="M308 393c8-13 8-25-12-39m-53-79c1 14 2.26013 27.78038 8.26013 41.78038" class="fil5 str0"/>
  <path fill="none" stroke="#000" stroke-width="2" d="M278 324c-16-5-29-12-34-2-5 4-19 10-15 28-1 8-30 12-41 17m21 2c-9 7-6 21-10 31 2 21 26 25 51 28M96 366c6 6 17 11 41 14 10 2 9 9 32 16 9 1 20 2 30 4" class="fil5 str0"/>
  <path fill="none" stroke="#000" stroke-width="2" d="M111 336c-6 6-19 11-20 19-2 8-8 16-13 24-8 15-13 27-12 37 1 21 24 32 36 45m-55-90c-3-2-5-4-7-6m30-3c-7 7-14 14-19 23-4 11-3 20-5 39m4.739874-38.56076C50.739874 382.43924 49 382 47 380m4 52c2-6 11-12 6-19m13 82c2-4 1-9 3-11m31 44c6-10 7-16 3-17m7 4-6.0405-3.52025" class="fil5 str0"/>
  <path fill="none" stroke="#000" stroke-width="2" d="M87 449c-10 20 1 34 28 43m-31-98c22 12 45 37 65 44 22 8 53.21962 36 72.21962 23" class="fil5 str0"/>
  <path fill="none" stroke="#000" stroke-width="2" d="M250 446c-15 3-33 15-33 23 1 14 47.34113 23.47975 65.34113 19.47975M104 471c7 6 17 8 36-1 20-6 28.26772 1 42.26772 5" class="fil5 str0"/>
  <path fill="none" stroke="#000" stroke-width="2" d="M219 473c-24-2-36-1-44 7-14 9-28 7-33 8-6 2-23 19-47 7m59 52c33 2 68 1 104-4m-66-36c-8-2-12-6-12-13-1 14-9 17-15 23-7 5-6 13-12 20" class="fil5 str0"/>
  <path fill="none" stroke="#000" stroke-width="2" d="M228 488c-20 0-39-1-53-8m42 8c3 17 26 19 38 25" class="fil5 str0"/>
  <path fill="none" stroke="#000" stroke-width="2" d="M209 503c2-4 8-4 12-7m16 4c5-4 11.78038-7.0405 15.78038-12.0405M266 501c-9-15 19-20 26-36m-28-59c16 13 30.67599 17.39875 44.67599 21.39875" class="fil5 str0"/>
  <path fill="none" stroke="#000" stroke-width="2" d="M249 468c29 0 55-19 60-41 1-2 8-3 12-4M498 63c5-5 12-10 23-13m-5 23c-26 0-48 4-59 23m32-5c6 4 9.73987 9.30063 9.73987 14.30063M776 364c4-46-85-59-129 17-6 16-60 10-88 18-25 10-50 24-75 39-10 16-45-10-65-8-65 7-66 104-2 120" class="fil5 str0"/>
  <path fill="none" stroke="#000" stroke-width="2" d="M536 327c1 20-21 59 12 77m-73-35c11-4 14-21 21-30m-43 55c-5 11 1 15 12 16m30 171c39-35 33-98-28-94-21 2-36-3-46-13m104-1c14 25 28 19 45 19 30-1 47-31 26-63" class="fil5 str0"/>
  <path fill="none" stroke="#000" stroke-width="2" d="M546 492c-13 4-23 10-30 18m-23 4c-12 4-24 17-38 26-12 18-29 25-38 35-10 15-15 46-72 29m149-13c-28 16-73 2-79 9m152-148c-10-3-16-17-21-24m-154-17c22 12 41 9 60-6" class="fil5 str0"/>
  <path fill="none" stroke="#000" stroke-width="2" d="M418 418c-8 12-17 17-28 16-12-2-29 11-49 27-16 13-22 27-26 42-3 18-6 26-10 33" class="fil5 str0"/>
  <path fill="none" stroke="#000" stroke-width="2" d="M327 442c-2 12 2 20 10 23m-23 122c-10-3-22-13-30-16m72-29c-38 18-46 46-17 79" class="fil5 str0"/>
  <path fill="none" stroke="#000" stroke-width="2" d="M333 503c-2 13 7 22 16 30 8 4 8 15 10 18 12 17 14 28 15 38m237-231c14-16 39-3 58-5m-107 20c13.94164-13.64059 19.42706-27.126 8.87401-46.33953" class="fil5 str0"/>
  <path fill="none" stroke="#000" stroke-width="2" d="M586 365c-4-3-8-6-11-10m6 199c-4-10-1-20 9-29" class="fil5 str0"/>
  <path fill="none" stroke="#000" stroke-width="2" d="M562 548c3-5 11.9595-5.73987 17.9595-8.73987M639 509c-3 19 10 28 38 29m-47 2c5-20-8-39-34-58m35 46 9-6m43-55c-15-3-27-9-27-25-3-14-21-28-13-56m-31 94c12 12 36-3 58-3 54-2 68 27 42 59" class="fil5 str0"/>
  <path fill="none" stroke="#000" stroke-width="2" d="M724 512c26-1 44-11 55-32m-21 38-9-10m49-2c16 0 30 3 41 12" class="fil5 str0"/>
  <path fill="none" stroke="#000" stroke-width="2" d="M830 500c-5 3-11.0405 5.26013-16.0405 7.26013M856 507c-3-17 8-25 9-35m-190-69c8 7 18 13 16 21 3 17 24 19 36 21 24 10 46 21 33 41M549 310c-13-4-26.0405-14.081-38.0405-28.081" class="fil5 str0"/>
  <path fill="none" stroke="#000" stroke-width="2" d="M588 152c-9 6-19 18-33 27-14 8-29 15-36 40-2 22 0 37-5 51-4 13-6 25 0 34" class="fil5 str0"/>
  <path fill="none" stroke="#000" stroke-width="2" d="M524 140c33 8 44 18.52025 41 31.52025M727 434c6-10 6-19 6-29 10-16 64 6 71-39m-76-2c5 11 6 25 5 41M512 183c6 9 9 18 11 26m268 269c16-24 16-58.6903 45-68.6903m-83.26013 48.7308C754.73987 452.0405 758 446 761 442m42-113c-7-4-10-11-7-23" class="fil5 str0"/>
  <path fill="none" stroke="#000" stroke-width="2" d="M773 346c8-5 15-15 22-28m20-49c1 25 22.2427 28.69894 18.2427 56.69894M762 322c1-27 15-43 32-57 10-11 22-17 15-52 4-21 29-44 7-59-26-12-48-36-88-37M546 288c12-21 47-33 50-41 8-21 2-42 3-62 6-17 22-24 40-29 28-32 59.18283-35.21145 90.18283-11.21145" class="fil5 str0"/>
  <path fill="none" stroke="#000" stroke-width="2" d="M600 220c-4-5-9-8-14-11m7.69937 41c9-5 18.30063-7 27.30063-6M505 116c51 5 115 13 119 45m5-38c-7-10-24-15-32-22" class="fil5 str0"/>
  <path fill="none" stroke="#000" stroke-width="2" d="M597 77c7 12 11 23 18 35m-12-52c12 17 35.78855 17.211448 36 41.57711" class="fil5 str0"/>
  <path fill="none" stroke="#000" stroke-width="2" d="M634 85c2-3 4-5 6-8m34 54c-12-29-38-28-51-35m36 4c16 6 24 16 24 29m-48-62c20 5 37 13 51 27" class="fil5 str0"/>
  <path fill="none" stroke="#000" stroke-width="2" d="M671 106c5-13 28-16 57-17m-9 66c9-23 60-13 89 9m-183 16c16-8 35.63386-9.78871 54.63386 1.21129" class="fil5 str0"/>
  <path fill="none" stroke="#000" stroke-width="2" d="M695 140c-15 15-29 30-10 47 35 34 56 53 26 83m71-108c9 13 9 28 3 42" class="fil5 str0"/>
  <path fill="none" stroke="#000" stroke-width="2" d="M727 201c14 9 22 23 24 42 10 47-3 58-17 68m-93-18c30 7 52 8 57-8" class="fil5 str0"/>
  <path fill="none" stroke="#000" stroke-width="2" d="M673.36614 297.78872C680.36614 298.78872 688 302 693 306m39 21c11-15 .63387-23-45.36613-31M740 213c17-13 20-34 30-51m39 52c21-2 37 6 50 23m-18-38c6 2 16 5 28 8m43 83c-14 5-23 16-28 31-13 10-20 25-24 41m102 60c7 3 11 8 11 16m-32-110c-4 5-9 7-16 8-9 8-15 17-15 28 7 17 8 30 4 41" class="fil5 str0"/>
  <path fill="none" stroke="#000" stroke-width="2" d="M913 351.0405c0-6-2-14.0405-7-20.0405m31 72c6-9 10-19 10-34 1-12 4-22 9-28" class="fil5 str0"/>
  <path fill="none" stroke="#000" stroke-width="2" d="M947 378c10 1 13 7 12 15 7 6 10 15 13 23M677 197c-9 18-25 35-27 54-16 35-71 32-84 59" class="fil5 str0"/>
  <path fill="none" stroke="#000" stroke-width="2" d="M771 522c-38 14-81.0405 30-114.0405 61M663 571l36-27m89-18c-34 11-70 25-104 43m127-42c-52 17-110.30063 41-161.30063 65M889 523c-44 14-223 77-242 77m-2.56075-4C719.43925 565 801 541 877 519m14 25c-46 17-195.13862 55.21962-231.13862 59.21962C738.86138 577.21962 813 557 890 533" class="fil5 str2"/>
  <path fill="none" stroke="#000" stroke-width="2" d="M669 552c-12 52-40 56-72 47-13-10-26-10-39-10" class="fil5 str2"/>
  <path fill="none" stroke="#000" stroke-width="2" d="M644.78038 595.919C653.78038 580.919 657 569 659 554m-24 47c9-12 14-28 16-47m-28 49c14-12 19-28 18-49m-25 48c10-13 17-28 18-46m-27 46c10-13 18-28 22-45m-29 43 23-42m-29 40c6-13 11.30063-30.081 19.30063-40.081M590 594c5-11 7-24 11-34m-16 33c1-12 4-23 7-34m-13 32 4-35m-8 34c-2-9-3-19.82088-3-28.82088M567 589c-4-7-4-15.56075-3-22.56075M561 589l-4-18m31 22c-2 11 3 20 12 28m-22-30c-2 14 3.0405 28.52025 15.0405 37.52025M564 590c3 19 12 34 26 43" class="fil5 str2"/>
  <path fill="none" stroke="#000" stroke-width="2" d="M590 633c9-10 17-22 26-30m253-52c-28 29-65 53-111 72-39-3-79.0405-16.26013-118.0405-24.26013" class="fil5 str2"/>
  <path fill="none" stroke="#000" stroke-width="2" d="M675.69937 600.73987C707.69937 605.73987 740 611 772 617m14-7c-29-5-58.56075-10.26013-86.56075-14.26013m26.52025-6C750.9595 593.73987 773 597 797 604m-51-19c22 0 43 5 62 13m-34-20c15 2 31 6 46 13" class="fil5 str2"/>
  <path fill="none" stroke="#000" stroke-width="2" d="M832 583c-9-1-23.38163 0-33.38163 0M843 574c-20 4-38 4-53 0m14-4c9 2 28 0 47-3 14-4 27.78038-9.52025 40.78038-15.52025m-298.56076 78c34 24 80.838 41 139.838 46" class="fil5 str2"/>
  <path fill="none" stroke="#000" stroke-width="2" d="M597 624c41 31 95.17912 41.73987 157.17912 45.73987" class="fil5 str2"/>
  <path fill="none" stroke="#000" stroke-width="2" d="M601 621c66 39 123.82088 46.47975 175.82088 37.47975" class="fil5 str2"/>
  <path fill="none" stroke="#000" stroke-width="2" d="M604 616c65 36 127.60125 44.47975 184.60125 36.47975" class="fil5 str2"/>
  <path fill="none" stroke="#000" stroke-width="2" d="M608 611c70 34 130.919 43 190.919 36" class="fil5 str2"/>
  <path fill="none" stroke="#000" stroke-width="2" d="M613 607c63 31 129 41 198 34" class="fil5 str2"/>
  <path fill="none" stroke="#000" stroke-width="2" d="M624 603c67 32 132.78038 33 197.78038 31" class="fil5 str2"/>
  <path fill="none" stroke="#000" stroke-width="2" d="M758 623c7 9 32 9 71 3" class="fil5 str2"/>
  <path fill="none" stroke="#000" stroke-width="2" d="M770 618c6 9 35.30063 5.73987 70.30063.73987M788 610c13 4 46-4 83-14" class="fil5 str2"/>
  <path fill="none" stroke="#000" stroke-width="2" d="M777 615c9 6 43 1 80-7m29.30063-29.52025C845.30063 596.47975 813 607 797 605m11-7c22-1 52.0405-13.78038 81.0405-25.78038M822 590c22-5 45-14 68-24m1-8c-18 9-36 16-55 22m-202 21c45 16 93 25.47975 140 28.47975" class="fil5 str2"/>
  <path d="M884 320c-2-30-49-77-77-68 23-16 83 23 77 68zM264 547c-4-28 9-53 30-74 23-18 18-44 28-52 14-27 51-44 103-53 16-19 37-29 66-28 20-17 38-33 75-33 2 9 5 18 9 26-4-5-10-11-14-18-33-3-56 16-69 32-23-5-43 2-62 24-53 10-91 26-104 53-7 24-15 44-30 52-17 18-32 44-22 82-3-3-6-8-10-11zM567 54c-9 6-5 21-11 32-48 3-75 21-66 54 11 13 13 22 6 28-14 8-19 29-24 52-10 13-16 34-16 56-1 19-29 30-25 46h4c0-7 4-14 11-20 9-5 13-17 16-33-1-14 3-28 14-43 5-19 7-47 27-56 12-5 5-18-6-34-13-32 22-40 59-45 15-4 11-28 21-36-3-1-7-1-10-1z" class="fil6"/>
  <path fill="none" stroke="#000" stroke-width="2" d="M530 160c-9-3-17-2-24 4" class="fil5 str0"/>
  <path d="M903 251c-7 8-15 17-23 25 7 0 16-5 28-20l-5-5zm-22 26c-17 14-34 29-46 44-9 12-10 29-7 48 2 14 4 28 7 41 4 0 7 0 11 1 16 16 56 13 68 19 7 10 13 17 17 15 7 7 12 15 15 23-3-10 3-10-18-34-9-9-30-14-63-19-23-8-28-22-30-40-4-17-6-33 0-50 13-16 29-32 46-48z" class="fil6"/>
  <path fill="none" stroke="#000" stroke-dasharray="5 7" stroke-width="2" d="m567 312 263 41" class="fil5 str3"/>
  <path d="M838 407c3 23 11 44 28 60 34 1 55 20 85 21l-7 7c-14 1-27-11-40-13-11-4-33-5-43-10-15-21-24-43-23-65z" class="fil6"/>
  <path fill="none" stroke="#000" stroke-dasharray="5 7" stroke-width="2" d="m432 319 23 30" class="fil5 str3"/>
</svg>