<?xml version="1.0" encoding="UTF-8"?>
<svg width="970px" height="534px" viewBox="0 0 970 534" version="1.1" xmlns="http://www.w3.org/2000/svg" xmlns:xlink="http://www.w3.org/1999/xlink">
    <title>retroflex-bunched-r</title>
    <g id="retroflex-bunched-r" stroke="none" stroke-width="1" fill="none" fill-rule="evenodd">
        <g transform="translate(85.3373, 67.1521)" fill="#000000">
            <g id="Bunched-R" transform="translate(624.8025, 171.7969) scale(-1, 1) rotate(-180) translate(-624.8025, -171.7969)translate(449.605, 1.8007)" fill-rule="nonzero">
                <path d="M128.104045,335.729993 C119.288078,332.521973 114.679732,331.519467 108.067757,331.218715 C100.253604,330.717462 98.7508826,331.018213 89.1334643,334.326484 C76.7109656,338.637261 69.3977203,338.938013 57.6764917,335.930494 C49.0608878,333.62473 30.2267768,326.607186 24.9171605,323.599667 C23.0137131,322.49691 19.4071812,320.491898 16.9026452,319.088389 C3.27796915,311.369091 -3.23382453,298.236259 1.57488465,288.110945 C3.67869492,283.699918 10.3908515,279.28889 17.5037338,277.68488 L22.9135316,276.481873 L22.9135316,262.747537 L22.9135316,249.013201 L28.223148,244.00067 C44.6529044,228.562073 68.6964503,218.43676 93.5414477,216.83275 L103.559592,216.130995 L106.264491,210.617211 C107.767212,207.609692 109.67066,202.39666 110.572293,199.088389 C112.47574,191.569592 112.47574,176.933 110.572293,168.612198 C108.568664,160.391647 102.557777,148.762574 95.5450765,139.940519 C89.2336457,131.920469 73.3047966,117.384128 71.0006234,117.384128 C70.1991719,117.384128 67.5944544,117.885381 65.1900998,118.386635 C57.8768546,120.090895 42.6492755,121.394153 37.1392963,120.692399 C30.727684,119.990645 25.8187934,116.882875 24.4162532,112.87285 C23.915346,111.168589 21.0100842,106.958063 18.1048225,103.549542 C-6.84035641,73.5746044 4.17960212,40.391647 46.9570775,16.9330004 C55.1719557,12.4217222 66.2920957,8.41169717 79.0151387,5.20367712 C107.967575,-1.91411737 133.814387,-1.71361611 162.967186,5.70493025 C183.203838,10.8177122 199.33305,18.5370105 216.163532,30.9680881 C225.881132,38.0858826 246.819053,58.5370105 260.644092,74.2763588 C271.964594,87.2086897 291.399794,112.672349 297.310499,122.39666 C316.14461,152.973101 322.856767,165.70493 331.772915,187.659817 C341.791059,212.321472 351.909385,247.609692 350.2063,252.12097 C349.705393,253.223727 348.302853,253.72498 345.297409,253.72498 C339.687249,253.825231 325.86221,256.933 316.445154,260.241271 C299.714854,266.256309 274.970038,279.28889 234.697098,303.449291 C223.576958,310.065833 213.658996,315.780118 201.537041,322.49691 C192.42053,327.709943 174.488052,335.128489 165.672085,337.534504 C151.746865,341.243777 142.630354,340.842775 128.104045,335.729993 Z M164.670271,336.130995 C179.797669,332.02072 200.03432,322.296409 227.18349,305.955557 C235.198006,301.143527 245.015787,295.32899 248.822682,293.123477 C252.729758,290.917963 259.84264,286.807687 264.651349,283.900419 C297.510862,264.752549 322.355859,254.727487 343.293781,252.12097 C348.10249,251.519467 348.503216,251.218715 348.503216,248.8127 C348.503216,241.995657 341.18997,216.732499 332.774729,194.577111 C320.051686,160.8929 294.104693,116.782624 270.461873,88.3114465 C245.91742,58.938013 223.67714,37.183627 207.047021,26.5570606 C189.114543,15.0282385 169.979887,7.70994278 147.138519,3.69991772 C137.320737,1.99565707 119.288078,1.29390268 108.468482,2.19615832 C73.404978,5.00317587 44.7530858,16.1309954 25.3178862,34.4768601 C11.9937545,47.0081884 6.88450104,57.1335017 6.88450104,70.8678375 C6.88450104,83.3991658 12.6950246,96.4317473 22.0118987,105.053301 L24.4162532,107.258815 L27.4216965,101.64478 C34.7349417,87.6096922 58.6783061,76.6823739 92.5396333,71.8703438 C131.610395,66.3565593 170.280432,71.7700932 201.737404,87.3089403 C222.474963,97.5345042 238.203449,110.366584 249.924677,126.506935 C253.130484,131.018213 257.438285,136.632249 259.441914,138.837762 C263.549353,143.449291 270.361691,152.672349 284.888,173.323978 C290.39798,181.143527 303.121023,198.887888 313.139167,212.822725 C323.157311,226.757562 331.171826,238.386635 330.871282,238.787637 C330.670919,239.18864 327.865839,239.790143 324.760214,240.191146 C301.317757,242.998163 277.975481,250.51696 250.82631,263.950544 C226.48222,275.980619 211.15446,280.79265 197.229239,280.79265 C188.413272,280.79265 174.988959,277.785131 155.253215,271.26884 C129.606767,262.948038 115.881909,259.639767 103.559592,259.038264 C90.3356416,258.336509 84.9258437,259.539517 69.998809,266.857812 C55.9734072,273.775106 46.7567146,276.281371 32.4307685,277.283878 C19.0064554,278.286384 10.4910329,280.993151 5.68232374,285.805181 C2.27615474,289.213702 1.87542898,290.115958 1.87542898,294.727487 C1.87542898,304.953051 6.58395671,311.26884 20.1084513,318.988138 C25.0173419,321.795156 33.7331273,325.905432 39.343288,328.010695 C63.9879225,337.434254 73.7055223,338.43676 88.0314684,332.922975 C95.4448951,330.015707 97.7490682,329.614705 106.064128,329.514454 C114.679732,329.514454 116.683361,329.915457 127.603138,333.62473 C134.215113,335.930494 140.526544,338.035757 141.628539,338.336509 C145.13489,339.238765 157.457207,338.136008 164.670271,336.130995 Z M210.152645,277.68488 C215.562443,276.882875 226.882946,273.574604 227.88476,272.572098 C228.085123,272.271346 225.580587,264.752549 221.673511,253.825231 C221.372967,252.822725 219.770064,254.727487 217.265528,258.938013 C212.857544,266.156058 206.846658,272.271346 201.637223,274.376609 C196.928695,276.381622 186.610007,276.08087 181.701116,273.875356 C174.688415,270.667336 169.779524,263.750043 165.97263,251.820218 C165.772267,251.018213 164.570089,252.02072 162.867005,254.627236 C160.061925,258.837762 154.251401,263.148539 149.743236,264.351547 C148.240515,264.652299 146.938156,265.354053 146.637612,265.755056 C145.936341,266.857812 172.584605,275.679868 181.500753,277.283878 C190.517083,278.887888 201.737404,279.088389 210.152645,277.68488 Z M50.463428,273.173602 C54.9715928,271.970594 77.6125985,261.945532 79.8165902,260.14102 C80.0169531,260.04077 78.1135057,257.835256 75.6089697,255.32899 L71.0006234,250.817712 L69.1973575,255.028239 C68.1955431,257.334003 65.691007,260.742524 63.5871968,262.547036 C60.3813906,265.354053 59.1792133,265.755056 54.3705042,265.755056 C51.3650609,265.755056 47.2576218,265.053301 45.253993,264.251296 C41.6474611,262.747537 40.0445581,263.349041 39.9443766,266.156058 C39.9443766,266.757562 38.9425622,268.161071 37.7403849,269.464329 C35.2358489,272.070845 31.2285912,272.471848 28.3233295,270.266334 C25.4180677,268.06082 24.9171605,268.461822 24.9171605,272.471848 L24.9171605,276.08087 L34.7349417,275.479366 C40.0445581,275.078364 47.1574404,274.075858 50.463428,273.173602 Z M203.741033,271.26884 C206.245569,269.865331 209.751919,266.657311 211.755548,264.050795 C216.263713,258.136008 221.272785,248.010695 221.57333,244.201171 L221.773692,241.193652 L195.425973,234.577111 L169.078254,227.860319 L168.07644,230.366584 C166.6739,234.176108 166.974444,247.609692 168.677529,254.226234 C170.380613,260.642274 174.087326,266.958063 178.294947,269.965582 C185.508011,275.379116 195.926881,275.880369 203.741033,271.26884 Z M249.824496,262.647286 C258.139556,258.53701 266.454615,254.627236 268.358063,253.925482 C272.766046,252.321472 271.263324,251.218715 263.348991,250.316459 C260.343547,250.015707 250.926492,248.110945 242.411069,246.206183 C233.895647,244.301421 226.181676,242.697411 225.179861,242.697411 C221.974055,242.697411 221.873874,248.91295 224.879317,258.035757 C226.382039,262.547036 228.185305,267.459316 228.886575,268.963076 C230.589659,272.271346 229.487663,272.572098 249.824496,262.647286 Z M36.4380262,268.261321 C38.7421993,266.055807 38.9425622,265.053301 38.9425622,257.534504 C38.9425622,248.010695 37.9407478,238.687386 37.0391148,238.687386 C36.6383891,238.687386 33.7331273,240.993151 30.6275026,243.800168 L24.816979,248.91295 L25.1175233,257.534504 C25.4180677,266.156058 25.4180677,266.156058 28.8242367,268.461822 C33.0318572,271.369091 33.432583,271.369091 36.4380262,268.261321 Z M61.8841123,262.045782 C63.2866524,260.943025 65.4906441,258.136008 66.7930029,255.729993 C68.7966317,251.719968 68.9969946,249.815206 68.9969946,237.384128 L68.9969946,223.349041 L65.5908256,223.950544 C61.8841123,224.552048 51.0645166,229.66483 43.9516343,234.176108 L39.6438323,236.882875 L40.244921,248.010695 C40.946191,260.241271 41.3469168,261.043276 47.5581662,263.349041 C52.3668753,265.053301 58.4779433,264.552048 61.8841123,262.045782 Z M148.240515,263.24879 C160.262288,258.938013 164.870634,251.920469 165.371541,236.782624 L165.672085,227.359066 L160.663013,225.955557 C154.752308,224.451797 128.204226,220.04077 119.38826,219.138514 L113.17701,218.43676 L112.876466,228.862825 C112.47574,240.8929 113.17701,244.602173 116.683361,252.221221 C119.688804,258.53701 120.490255,259.038264 131.009307,262.246284 C140.326181,265.053301 142.630354,265.153552 148.240515,263.24879 Z M114.880095,252.02072 C113.17701,248.211196 111.674289,245.103426 111.574107,244.902925 C111.373744,244.602173 107.065942,256.130995 107.065942,257.033251 C107.065942,257.534504 108.769027,257.835256 116.282635,258.53701 C117.685175,258.737512 117.484812,257.735005 114.880095,252.02072 Z M95.8456208,257.133502 C104.861951,256.431747 104.962132,256.431747 106.464854,253.223727 C109.370115,247.20869 111.0732,238.186133 111.173381,228.762574 C111.273563,217.935507 111.0732,217.634755 103.359229,217.634755 C96.8474352,217.634755 76.0096955,220.341522 72.6035265,221.64478 L69.998809,222.547036 L70.5998976,233.374103 C71.3011677,246.707437 72.2028007,249.915457 76.6107841,254.326484 C80.4176789,258.136008 80.8184046,258.136008 95.8456208,257.133502 Z M284.988182,247.709943 C293.403423,244.802675 308.631002,241.093401 317.947876,239.589642 C322.355859,238.988138 326.56348,238.085883 327.26475,237.785131 C328.166383,237.283878 325.261121,232.572098 317.747513,222.045782 C311.736627,213.825231 296.909773,193.073351 284.687637,176.030745 C261.24518,143.048289 256.436471,137.534504 244.214335,130.316459 C230.289115,121.995657 197.429602,109.364078 189.815813,109.364078 C188.012547,109.364078 174.187508,121.795156 174.187508,123.399166 C174.187508,123.699918 178.996217,123.699918 184.906922,123.599667 C225.580587,122.196158 259.642277,143.750043 283.886186,185.855306 C285.388908,188.461822 286.090178,190.567086 285.58927,190.567086 C284.988182,190.567086 282.984553,187.659817 280.980924,184.151046 C265.452801,156.381622 241.008529,136.130995 213.25827,128.110945 C206.846658,126.206183 203.240126,125.905432 188.713817,125.905432 C173.886964,125.905432 170.681157,126.206183 163.668457,128.211196 C148.440877,132.622223 137.020193,140.842775 133.614024,149.965582 C131.710577,154.777612 131.810758,156.08087 134.916383,167.709943 C137.220556,176.030745 139.324366,199.890394 139.023822,212.221221 C138.923641,216.331497 139.023822,219.840269 139.224185,219.940519 C139.424548,220.14102 145.034708,221.344028 151.646684,222.547036 C158.258659,223.850294 181.30039,229.263827 202.739219,234.677361 C224.278228,240.090895 246.518508,245.504429 252.329032,246.607186 C258.139556,247.709943 263.749716,248.8127 264.851712,249.013201 C270.26151,250.216208 279.478203,249.614705 284.988182,247.709943 Z M137.120375,206.607186 C137.120375,190.667336 135.717834,176.431747 133.113117,166.707437 C130.608581,157.384128 130.608581,152.171096 133.213298,146.757562 C137.120375,138.637261 149.34251,130.51696 163.167549,126.807687 C169.078254,125.303928 170.480795,124.301421 177.894221,116.983126 C182.502567,112.572098 185.808555,108.562073 185.407829,108.161071 C185.007103,107.760068 179.497124,106.45681 173.185693,105.253802 C156.755937,102.146033 125.198783,101.444279 110.872837,103.850294 C99.8528785,105.654805 85.7272953,109.965582 78.4140501,113.674855 L74.0060666,115.880369 L83.2227592,124.401672 C112.47574,151.369091 121.191525,181.344028 108.468482,210.51696 C107.166124,213.424228 106.064128,216.030745 106.064128,216.231246 C106.064128,216.431747 107.967575,216.632249 110.37193,216.732499 C112.676103,216.732499 118.686989,217.334003 123.59588,218.035757 C138.823459,220.241271 137.120375,221.64478 137.120375,206.607186 Z M251.627762,131.218715 C242.210706,118.787637 228.185305,104.151046 226.882946,105.454304 C226.582402,105.654805 226.281857,108.762574 226.181676,112.271346 L225.881132,118.687386 L235.398368,123.699918 C240.607803,126.406685 245.91742,129.514454 247.31996,130.51696 C250.225222,132.622223 253.130484,133.123477 251.627762,131.218715 Z M50.1628836,108.06082 C50.5636094,102.045782 51.6656053,94.2262335 52.5672382,90.7174616 C53.4688712,87.108439 53.9697784,84.0006696 53.7694155,83.6999177 C53.4688712,83.4994165 50.463428,84.702424 46.9570775,86.5069353 C35.035486,92.7224741 25.9189749,103.24879 25.9189749,111.068339 C25.9189749,116.582123 31.8296799,119.389141 42.9498199,119.088389 L49.4616135,118.887888 L50.1628836,108.06082 Z M63.6873782,116.983126 C67.3940915,116.181121 73.5051594,114.075858 77.3120542,112.371597 C83.1225778,109.765081 84.0242108,108.963076 84.1243922,106.557061 C84.1243922,105.053301 84.3247551,103.148539 84.4249365,102.346534 C85.3265695,97.9355067 86.0278396,75.3791157 85.3265695,74.9781132 C84.4249365,74.4768601 67.8949987,78.1861333 61.5835679,80.2913964 C55.6728629,82.1961583 53.6692341,88.4116972 51.4652424,111.669843 L50.7639723,118.386635 L53.869597,118.386635 C55.4725,118.386635 59.8804834,117.785131 63.6873782,116.983126 Z M224.278514,109.865331 L224.278514,102.246284 L216.564257,97.2337523 C204.141759,89.2137022 178.395128,77.6848801 176.692044,79.3891408 C176.3915,79.6898927 176.792225,81.8954064 177.693858,84.2011709 C178.49531,86.5069353 179.797669,92.0207197 180.699302,96.5319979 C181.500753,101.043276 182.402386,104.8528 182.502567,105.053301 C182.70293,105.253802 188.513454,106.857812 195.325792,108.762574 C202.13813,110.667336 210.653552,113.374103 214.260084,114.677361 C224.478591,118.587136 224.278514,118.587136 224.278514,109.865331 Z M95.8456208,105.454304 C103.158866,103.24879 120.890981,100.341522 127.402775,100.341522 C129.406404,100.341522 131.109488,99.8402686 131.109488,99.2387648 C131.109488,98.0357573 127.703319,84.5019227 125.499327,76.5821232 L123.996606,71.26884 L118.085901,71.26884 C111.77447,71.26884 92.6398147,73.0733513 89.8347344,73.8753563 C87.6307426,74.4768601 87.3301983,76.8828751 86.5287468,94.2262335 C85.9276581,106.657311 86.0278396,108.562073 87.3301983,108.06082 C88.1316499,107.760068 91.9385446,106.557061 95.8456208,105.454304 Z M180.198394,102.847787 C180.198394,100.842775 176.491681,85.3039277 175.289504,81.9956571 C174.588234,80.2913964 172.885149,78.5871358 170.781339,77.7851308 C163.568275,74.777612 126.100416,69.8653313 126.100416,71.8703438 C126.100416,73.2738526 132.912754,98.1360079 133.513843,99.1385142 C133.814387,99.6397673 140.025636,100.341522 147.338882,100.742524 C154.652127,101.143527 164.069182,102.045782 168.176621,102.847787 C178.395128,104.652299 180.198394,104.652299 180.198394,102.847787 Z" id="Shape"></path>
                <path d="M138.623096,330.41671 C130.107674,328.612198 121.49207,325.103426 118.286264,322.39666 C115.982091,320.391647 116.583179,320.491898 122.393703,323.298915 C131.20967,327.609692 143.431805,330.216208 154.652127,330.316459 C159.961743,330.316459 162.466279,330.617211 160.663013,331.018213 C155.653941,332.12097 144.934527,331.820218 138.623096,330.41671 Z" id="Path"></path>
                <path d="M13.8972019,63.9505443 C13.8972019,61.344028 17.8042781,51.5194666 19.4071812,50.2162084 C20.1084513,49.6147047 19.4071812,52.4217222 17.7040967,56.9330004 C14.3981091,65.4543037 13.8972019,66.45681 13.8972019,63.9505443 Z" id="Path"></path>
                <path d="M168.176621,18.0357573 C163.267731,15.8302435 151.245958,11.8202185 144.43362,10.1159578 C139.124003,8.81269968 138.823459,8.01069466 143.932713,8.81269968 C150.544688,9.71495532 160.46265,13.023226 167.675714,16.5319979 C175.189322,20.2412711 175.590048,21.2437774 168.176621,18.0357573 Z" id="Path"></path>
                <path d="M216.06335,226.958063 C211.755548,218.637261 210.653552,215.32899 208.850287,204.902925 C208.048835,200.491898 206.045206,193.875356 204.342122,190.166083 C200.535227,181.745031 201.937767,181.444279 206.045206,189.865331 C209.050649,195.880369 209.751919,198.286384 212.256456,211.018213 C212.957726,214.326484 214.961354,220.642274 216.864802,225.053301 C218.768249,229.464329 220.070608,233.173602 219.870245,233.374103 C219.669882,233.574604 217.966798,230.667336 216.06335,226.958063 Z" id="Path"></path>
                <path d="M171.682972,176.431747 C184.205652,174.827737 192.019804,171.318965 200.635408,163.399166 C208.149016,156.481873 208.850287,157.58463 201.43686,164.702424 C192.220167,173.524479 182.302205,177.634755 170.681157,177.434254 L164.670271,177.233752 L171.682972,176.431747 Z" id="Path"></path>
            </g>
            <text id="Bunched-R" font-family="CharisSIL, Charis SIL" font-size="20" font-weight="normal">
                <tspan x="517.254774" y="390.958647">Bunched R</tspan>
            </text>
            <g id="RetroflexR" transform="translate(174.4925, 170.827) scale(-1, 1) rotate(-180) translate(-174.4925, -170.827)translate(0, 0)" fill-rule="nonzero">
                <path d="M137.91248,340.904164 C136.50994,340.40291 132.602864,338.598399 129.196695,336.793888 C124.187623,334.187372 121.582905,333.485617 114.670386,333.084615 C105.25333,332.483111 91.0275657,334.087121 84.6159535,336.493136 C77.9037969,338.999402 57.7673272,339.400404 48.2500903,337.295141 C37.8312204,334.989377 24.7074516,328.172334 15.490759,320.352785 C-5.2467993,302.708675 -5.14661786,288.272585 15.6911219,282.057046 L21.7020084,280.252534 L21.7020084,269.726219 C21.7020084,263.911682 22.2029156,257.295141 22.8040042,255.189878 C25.0079959,247.169828 41.5379337,234.437998 59.1698674,227.320204 C72.2936362,221.90667 80.20797,220.40291 95.3353677,220.102158 C103.049339,219.901657 109.260588,219.500655 109.160407,219.099652 C106.355326,207.671081 106.355326,188.122209 109.160407,179.099652 C110.663128,174.588374 110.562947,173.88662 108.459136,167.57083 C103.750609,153.635993 95.635912,140.904164 84.9164978,130.177346 C73.8965392,119.250028 73.5959949,119.049527 66.2827497,120.854038 C58.8693231,122.658549 39.8348492,123.761306 33.3230556,122.859051 C27.8130763,121.956795 23.7056372,118.648524 23.6054558,115.039502 C23.6054558,113.535742 22.1027341,111.731231 19.3978352,109.726219 C10.5818684,103.310179 5.27225202,90.3778477 5.27225202,75.1397525 C5.37243347,40.1522838 33.3230556,13.5858678 79.6068814,4.06205824 C142.921552,-8.77002196 195.817353,8.67358706 243.603901,58.1973966 C249.11388,63.9116823 257.028214,72.7337374 261.235834,77.6460181 C265.443455,82.6585495 273.558152,92.0821084 279.268494,98.6986497 C292.392263,114.137246 299.605326,125.064565 308.721837,143.811432 C320.342885,167.57083 329.05867,189.826469 339.277177,221.004414 C347.191511,245.666068 349.495684,253.485617 348.894595,254.488123 C348.49387,254.989377 346.690604,254.989377 344.586793,254.488123 C336.67246,252.783863 315.333813,257.896645 304.414035,264.212434 C301.809318,265.716194 296.599883,269.224966 292.692807,272.132234 C284.678292,278.047021 243.904445,302.608424 210.644206,321.656043 C186.901205,335.189878 181.892133,337.19489 163.959655,340.40291 C155.844958,341.806419 141.919738,342.107171 137.91248,340.904164 Z M159.45149,339.300153 C162.757478,338.999402 170.57163,337.395392 176.782879,335.791382 C187.903019,332.884113 190.808281,331.480605 209.742574,320.052033 C213.749831,317.746269 217.256182,315.741256 217.456544,315.741256 C217.757089,315.741256 226.372693,310.728725 236.691381,304.613437 C278.967949,279.651031 285.780287,275.340254 294.896799,268.523211 C307.319297,259.099652 327.255404,252.182359 340.579536,252.783863 L347.391874,253.084615 L346.790785,250.578349 C345.688789,245.96682 335.169738,213.084615 331.563206,202.959301 C315.634357,158.448023 296.700064,120.453036 282.774844,105.415442 C280.470671,102.808925 272.255793,93.2851159 264.541822,84.1623089 C234.988297,49.0745896 213.749831,30.7287249 187.402112,17.6961435 C166.063465,7.06957703 149.633709,3.05955197 124.287804,2.25754696 C90.6268399,1.15479007 63.3774879,7.06957703 40.7364822,20.4029104 C11.6838643,37.4455169 -1.03917877,70.5282237 11.3833199,96.7938878 C13.9880374,102.407923 20.8003754,110.227472 22.9041857,110.227472 C23.6054558,110.227472 25.5089031,107.219953 27.1118062,103.711181 C33.1226927,90.2775971 49.7528119,78.6485244 69.3883744,74.0369956 C76.100531,72.4329856 83.0130504,71.8314818 97.3389965,71.4304793 C153.140059,69.9267199 204.232594,87.069577 241.199546,119.651031 C252.62023,129.776344 256.527307,134.588374 274.459785,159.951783 C282.875026,172.082108 292.89317,186.217447 296.599883,191.430479 C324.249961,230.528224 329.259033,237.746269 329.259033,239.049527 C329.259033,239.851532 327.65613,240.854038 325.55232,241.355291 C313.129821,244.36281 287.583553,250.77885 281.171941,252.583361 C270.252164,255.691131 247.510977,264.914189 232.784305,272.332735 C216.855456,280.252534 211.646021,281.656043 197.520438,281.656043 C182.793766,281.656043 168.968727,278.648524 142.420645,269.726219 C112.86712,259.901657 105.9546,258.197397 95.8362749,258.097146 L87.3208524,258.097146 L76.9019825,264.011933 C59.770956,273.836494 44.3430141,279.049527 21.8021898,282.558299 C4.9717077,285.164815 -1.94081174,293.686118 3.66934897,304.813938 C7.77678806,312.733737 22.7038228,325.365316 34.7255957,330.979351 C49.552449,337.996895 67.3847456,339.199903 85.8181308,334.488123 C105.854419,329.475592 119.679458,329.876595 131.300505,335.891632 C137.712117,339.300153 144.424274,340.803913 149.934253,340.30266 C151.837701,340.102158 156.145502,339.600905 159.45149,339.300153 Z M210.544025,279.149778 C218.358177,277.545768 224.569427,275.240003 225.47106,273.736244 C225.771604,273.234991 225.47106,271.129727 224.669608,269.024464 C223.968338,266.81895 222.766161,261.806419 222.064891,257.796394 L220.862713,250.478098 L216.955637,257.19489 C214.851827,260.803913 211.245295,266.016945 209.041303,268.623462 C205.034046,273.435492 196.518623,278.648524 192.711729,278.648524 C191.709914,278.648524 191.209007,279.149778 191.509551,279.651031 C192.411184,281.15479 202.128784,280.854038 210.544025,279.149778 Z M36.5288617,278.147271 C46.3466429,276.142259 57.9676901,272.031983 67.2845641,267.420454 C71.6925475,265.21494 75.5996238,263.109677 76.0003495,262.808925 C76.4010753,262.407923 75.5996238,260.102158 74.1970836,257.796394 L71.5923661,253.385367 L68.2863785,258.297647 C66.4831126,261.004414 63.177125,264.112184 60.7727705,265.515692 C56.9658757,267.620955 55.663517,267.821457 48.7509975,267.320204 L41.0370265,266.81895 L39.8348492,270.327722 C37.731039,276.042008 33.9241442,276.743762 25.0079959,273.034489 C24.106363,272.633487 23.7056372,273.535742 23.7056372,276.042008 C23.7056372,279.350279 23.9060001,279.651031 26.610899,279.651031 C28.2138021,279.651031 32.7219669,278.949276 36.5288617,278.147271 Z M179.487778,276.743762 C172.575259,272.533236 168.768364,265.615943 166.864917,253.786369 L165.662739,246.568324 L162.857659,251.480605 C159.45149,257.495642 153.841329,263.109677 148.631894,265.716194 C146.528084,266.81895 145.125544,268.122209 145.426088,268.523211 C146.327721,270.127221 175.580702,278.448023 180.489593,278.548274 C182.092496,278.648524 181.892133,278.247522 179.487778,276.743762 Z M195.817353,276.142259 C202.128784,273.435492 206.636949,269.726219 210.844569,263.811432 C215.953823,256.392885 220.361806,247.671081 219.660536,246.067071 C219.460173,245.365316 217.456544,244.463061 215.352734,244.062058 C213.248924,243.761306 202.429328,241.15479 191.309188,238.448023 C180.189048,235.741256 170.371267,233.535742 169.469634,233.535742 C168.267457,233.535742 167.966913,235.139752 167.966913,242.357798 C167.966913,253.98687 169.569816,261.505667 173.37671,267.921707 C178.485964,276.443011 187.201749,279.651031 195.817353,276.142259 Z M37.1299503,271.430479 C38.2319462,269.826469 38.7328534,267.019452 38.6326719,262.107171 C38.5324905,253.686118 37.4304947,243.861557 36.4286802,242.959301 C35.2265029,241.756294 28.4141649,247.971833 26.0098104,252.583361 C24.3067259,255.791382 23.7056372,258.598399 23.7056372,263.310179 C23.7056372,269.425467 23.8058186,269.726219 27.0116248,271.630981 C31.3194267,274.337747 35.2265029,274.237497 37.1299503,271.430479 Z M237.192288,268.222459 C242.401723,265.716194 251.017327,261.90667 256.427125,259.801407 C261.836923,257.595893 266.345088,255.390379 266.345088,254.989377 C266.445269,254.488123 262.438012,253.585868 257.529121,252.984364 C252.62023,252.38286 243.303356,250.6786 236.891744,249.17484 C230.37995,247.771331 224.569427,246.568324 223.968338,246.568324 C222.365435,246.568324 223.267068,258.297647 225.571241,266.417948 C226.573056,269.826469 227.474689,272.633487 227.57487,272.633487 C227.675051,272.633487 232.083035,270.628474 237.192288,268.222459 Z M148.531713,264.112184 C157.147317,259.099652 164.160018,248.272585 165.562558,237.846519 L166.163647,232.633487 L162.356752,231.630981 C155.143688,229.726219 123.486353,223.61093 117.475466,222.909176 L111.564761,222.207422 L112.16585,233.736244 C112.86712,246.568324 115.171293,254.688625 119.479095,258.69865 C122.484538,261.505667 139.515383,267.620955 142.420645,266.919201 C143.522641,266.618449 146.22754,265.315191 148.531713,264.112184 Z M56.8656942,265.515692 C61.1734962,264.011933 66.3829312,259.199903 68.8874672,254.387873 C70.4903702,251.280103 70.5905517,249.976845 69.7891002,245.465567 C69.1880115,242.658549 68.7872857,236.944264 68.7872857,232.934239 L68.7872857,225.515692 L62.1753106,228.021958 C55.4631541,230.528224 43.7419254,236.443011 40.3357564,239.049527 C38.4323091,240.453036 38.4323091,240.954289 39.8348492,252.28261 L41.2373894,264.112184 L44.7437399,265.315191 C49.2519047,266.81895 52.6580737,266.919201 56.8656942,265.515692 Z M83.7143205,258.397898 C87.2206709,256.693637 89.9255698,256.292635 95.9364563,256.292635 C103.650427,256.392885 103.85079,256.392885 106.856233,252.984364 C110.863491,248.372835 111.063854,246.869076 110.162221,233.535742 L109.360769,222.00692 L103.349883,221.204915 C96.7379078,220.40291 76.4010753,222.608424 72.694362,224.513186 C70.6907331,225.615943 70.5905517,226.217447 70.9912775,236.944264 C71.4921847,247.771331 73.395632,255.089627 77.0021639,259.300153 C78.4047041,261.004414 78.4047041,261.004414 83.7143205,258.397898 Z M116.674015,258.899151 C116.473652,258.397898 115.371656,256.192384 114.26966,253.88662 C113.267846,251.480605 112.16585,249.575843 111.865305,249.575843 C111.164035,249.575843 106.455508,256.593387 106.956415,256.994389 C107.557503,257.495642 114.26966,259.400404 115.6722,259.500655 C116.473652,259.600905 116.874378,259.300153 116.674015,258.899151 Z M287.683735,249.07459 C296.700064,246.367823 310.525103,243.059552 325.051412,239.951783 C326.25359,239.751281 327.255404,239.049527 327.255404,238.448023 C327.255404,237.846519 323.248146,231.831482 318.439437,225.11469 C313.530547,218.498148 306.918571,209.17484 303.712765,204.463061 C300.506959,199.751281 293.494258,189.826469 288.184642,182.407923 C282.875026,174.989377 275.361418,164.36281 271.35416,158.748775 C258.83148,140.904164 241.700453,128.673587 214.050375,117.746269 C202.028603,113.034489 198.522252,113.234991 179.387597,119.751281 C143.823185,131.681106 120.480909,150.929226 112.16585,175.089627 C109.961858,181.605918 109.460951,185.014439 109.160407,195.941757 C108.960044,204.36281 109.260588,210.879101 110.06204,214.488123 L111.364398,220.001908 L118.377099,220.603412 C134.40613,221.90667 147.63008,218.899151 158.950583,211.280103 C164.961469,207.270078 173.476892,197.94677 175.981428,192.633487 C179.187234,185.716194 180.589774,183.61093 184.396669,179.600905 C205.33459,157.445517 255.625674,165.86657 280.871397,195.741256 C285.98065,201.856544 291.590811,213.084615 293.093533,220.30266 C294.395891,226.7187 294.496073,236.844013 293.293895,236.142259 C292.792988,235.841507 292.592625,234.638499 292.89317,233.635993 C293.894984,229.625968 290.989722,216.894138 287.182828,208.974339 C279.268494,192.533236 263.840552,179.901657 242.702268,172.683612 C221.263439,165.465567 198.522252,168.172334 186.901205,179.300153 C184.196306,181.90667 181.992314,184.513186 181.992314,185.11469 C181.992314,185.716194 183.895762,186.518199 186.300116,186.919201 C195.717172,188.523211 204.332776,195.340254 211.545839,206.869076 C216.054004,214.187372 222.365435,231.430479 223.567612,239.751281 C224.06852,242.859051 224.869971,244.663562 225.971967,244.964314 C231.481946,246.668575 257.829665,251.881607 264.141096,252.483111 C272.957063,253.385367 273.357789,253.285116 287.683735,249.07459 Z M221.764346,239.049527 C220.061262,227.019452 211.145114,206.668575 204.132413,199.149778 C200.125155,194.73875 193.51318,190.528224 188.303745,188.924214 C180.890318,186.618449 180.189048,186.81895 177.484149,192.733737 C176.081609,195.641006 172.975985,200.352785 170.471449,203.159803 L165.963284,208.272585 L168.668183,214.187372 C170.371267,217.796394 171.573444,222.307672 171.773807,226.217447 L172.174533,232.432986 L183.895762,235.039502 C190.307374,236.543261 200.525881,239.049527 206.536767,240.553286 C212.647835,242.157296 218.658722,243.460554 219.961081,243.460554 C222.165072,243.560805 222.265254,243.360304 221.764346,239.049527 Z M169.87036,226.317697 C169.87036,220.40291 167.265642,212.683612 164.961469,211.280103 C163.859473,210.578349 161.956026,211.280103 158.04895,213.88662 C152.939696,217.395392 144.023548,220.603412 135.407944,222.00692 C132.101957,222.608424 131.701231,222.909176 133.404315,223.61093 C135.207581,224.312685 165.762921,231.129727 168.768364,231.430479 C169.569816,231.53073 169.970541,229.92672 169.87036,226.317697 Z M115.271474,164.262559 C120.781454,153.034489 136.810484,137.996895 152.939696,128.974339 C160.753849,124.663562 176.382154,118.548274 187.802838,115.240003 C192.411184,114.036996 195.717172,112.533236 195.316446,112.132234 C193.713543,110.528224 174.07798,107.219953 160.052579,106.217447 C135.508126,104.312685 111.063854,107.320204 87.3208524,114.939251 C81.3099659,116.844013 76.2007124,118.548274 76.0003495,118.748775 C75.9001681,118.849026 80.20797,123.360304 85.6177679,128.874088 C96.537545,139.901657 104.251516,151.229978 108.659499,163.159803 C110.06204,167.069577 111.564761,170.377848 111.865305,170.277597 C112.16585,170.277597 113.668571,167.57083 115.271474,164.262559 Z M257.228577,138.498148 C254.223133,132.884113 226.573056,108.222459 223.267068,108.222459 C222.465617,108.222459 222.064891,110.227472 222.064891,113.736244 L222.064891,119.350279 L229.778862,122.859051 C236.791563,126.067071 248.512791,133.285116 255.024585,138.397898 C258.030028,140.803913 258.430754,140.803913 257.228577,138.498148 Z M49.3520862,108.723712 C49.9531748,101.605918 51.2555335,92.5833615 52.2573479,88.8740883 C53.1589809,85.0645645 53.6598881,81.7562938 53.3593438,81.4555419 C52.3575294,80.3527851 39.7346678,89.3753414 35.2265029,94.3878728 C30.918701,99.1999028 26.610899,107.019452 25.3085403,112.432986 C24.3067259,116.743762 28.0134392,120.252534 34.7255957,121.255041 C37.731039,121.656043 42.0388409,121.956795 44.2428327,121.856544 L48.2500903,121.756294 L49.3520862,108.723712 Z M64.980391,119.350279 C80.9092401,116.042008 83.2134133,115.039502 83.9146834,111.731231 C84.9164978,107.219953 84.9164978,73.1347399 84.0148648,73.1347399 C78.2043412,73.1347399 59.8711375,77.94677 57.5669643,80.0520332 C54.8620654,82.5582988 51.8566222,96.4931359 51.1553521,109.525717 L50.454082,121.255041 L52.958618,121.255041 C54.4613397,121.255041 59.770956,120.352785 64.980391,119.350279 Z M221.063076,111.630981 L221.063076,106.217447 L215.352734,102.508174 C205.935679,96.4931359 178.986871,84.1623089 175.280158,84.1623089 C174.679069,84.1623089 174.779251,86.267572 175.580702,89.4755921 C176.281972,92.2826096 177.083424,97.2951409 177.484149,100.40291 C178.085238,105.716194 178.385782,106.317697 180.790137,106.81895 C190.7081,108.924214 207.538582,113.535742 213.048561,115.540755 C216.655093,116.944264 219.860899,117.846519 220.361806,117.545768 C220.762532,117.345266 221.063076,114.638499 221.063076,111.630981 Z M99.7433511,109.726219 C104.852605,108.32271 114.26966,106.518199 120.681272,105.716194 C127.092885,104.813938 132.302319,104.112184 132.402501,103.911682 C132.602864,103.711181 125.790526,78.8490257 124.387986,74.5382487 C123.786897,72.4329856 89.0239369,71.4304793 87.2206709,73.4354918 C87.1204895,73.5357424 86.7197637,82.6585495 86.319038,93.5858678 L85.5175864,113.535742 L87.921941,112.833988 C89.2242998,112.533236 94.5339161,111.029477 99.7433511,109.726219 Z M176.382154,105.415442 C177.083424,104.212434 174.478706,90.1773465 172.775622,86.0670708 C171.373082,82.7588001 170.671811,82.4580482 162.857659,80.2525344 C152.538971,77.5457675 131.701231,73.936745 128.495425,74.3377475 L126.191252,74.6384993 L130.198509,89.4755921 L134.305948,104.212434 L147.830443,104.312685 C155.344051,104.412935 164.160018,104.813938 167.466005,105.21494 C170.771993,105.615943 173.977799,106.016945 174.679069,106.117196 C175.280158,106.117196 176.081609,105.816444 176.382154,105.415442 Z" id="Shape"></path>
                <path d="M138.61375,334.187372 C131.801412,332.583361 117.675829,325.86657 113.368027,322.257547 C111.063854,320.352785 112.466394,320.753788 119.479095,324.162309 C135.608307,332.082108 139.815928,333.184865 153.841329,333.285116 C164.861288,333.285116 165.863102,333.385367 162.356752,334.488123 C157.047135,336.092133 145.726633,335.891632 138.61375,334.187372 Z" id="Path"></path>
                <path d="M83.1132318,314.137246 C84.515772,311.430479 89.3244812,307.821457 90.2261142,308.823963 C90.426477,309.024464 88.6232111,311.029477 86.1186751,313.13474 C81.7106917,316.944264 81.6105102,317.044514 83.1132318,314.137246 Z" id="Path"></path>
                <path d="M10.7822313,66.6184492 C10.7822313,61.5056673 15.8914848,49.8765946 17.3942064,51.4806046 C17.6947507,51.7813565 17.3942064,52.6836121 16.6929363,53.4856171 C16.0918477,54.3878728 14.3887632,58.2976472 13.0864044,62.3076723 C11.4835014,67.5207049 10.7822313,68.7237124 10.7822313,66.6184492 Z" id="Path"></path>
                <path d="M175.881246,22.5081735 C171.573444,20.2024091 158.04895,15.8916322 148.932439,13.9868703 C144.223911,12.984364 141.619194,12.0821084 143.021734,12.0821084 C150.43516,11.7813565 169.469634,17.1948903 176.482335,21.5056673 C180.790137,24.1121836 180.28923,24.9141886 175.881246,22.5081735 Z" id="Path"></path>
                <path d="M135.407944,157.846519 C137.010847,150.427973 147.830443,132.884113 149.73389,134.688625 C149.934253,134.989377 148.832257,136.793888 147.129173,138.7989 C145.426088,140.703662 141.919738,146.518199 139.31502,151.630981 C136.810484,156.643512 135.007218,159.55078 135.407944,157.846519 Z" id="Path"></path>
            </g>
            <text id="Retroflex-R" font-family="CharisSIL, Charis SIL" font-size="20" font-weight="normal">
                <tspan x="58.4059174" y="390.958647">Retroflex R</tspan>
            </text>
        </g>
    </g>
</svg>