<?xml version="1.0" encoding="UTF-8"?>
<svg width="799px" height="400px" viewBox="0 0 799 400" version="1.1" xmlns="http://www.w3.org/2000/svg" xmlns:xlink="http://www.w3.org/1999/xlink">
    <title>retroflex-bunched-r</title>
    <g id="Page-1" stroke="none" stroke-width="1" fill="none" fill-rule="evenodd">
        <g id="retroflex-bunched-r" transform="translate(0.3373, 0.1521)" fill="#000000">
            <g id="Bunched-R" transform="translate(623.6709, 171.3674) scale(-1, 1) rotate(-180) translate(-623.6709, -171.3674)translate(448.7907, 1.7962)" fill-rule="nonzero">
                <path d="M127.872032,334.890668 C119.072032,331.690668 114.472032,330.690668 107.872032,330.390668 C100.072032,329.890668 98.5720323,330.190668 88.9720323,333.490668 C76.5720323,337.790668 69.2720323,338.090668 57.5720323,335.090668 C48.9720323,332.790668 30.1720323,325.790668 24.8720323,322.790668 C22.9720323,321.690668 19.3720323,319.690668 16.8720323,318.290668 C3.27203234,310.590668 -3.22796766,297.490668 1.57203234,287.390668 C3.67203234,282.990668 10.3720323,278.590668 17.4720323,276.990668 L22.8720323,275.790668 L22.8720323,262.090668 L22.8720323,248.390668 L28.1720323,243.390668 C44.5720323,227.990668 68.5720323,217.890668 93.3720323,216.290668 L103.372032,215.590668 L106.072032,210.090668 C107.572032,207.090668 109.472032,201.890668 110.372032,198.590668 C112.272032,191.090668 112.272032,176.490668 110.372032,168.190668 C108.372032,159.990668 102.372032,148.390668 95.3720323,139.590668 C89.0720323,131.590668 73.1720323,117.090668 70.8720323,117.090668 C70.0720323,117.090668 67.4720323,117.590668 65.0720323,118.090668 C57.7720323,119.790668 42.5720323,121.090668 37.0720323,120.390668 C30.6720323,119.690668 25.7720323,116.590668 24.3720323,112.590668 C23.8720323,110.890668 20.9720323,106.690668 18.0720323,103.290668 C-6.82796766,73.3906679 4.17203234,40.2906679 46.8720323,16.8906679 C55.0720323,12.3906679 66.1720323,8.39066793 78.8720323,5.19066793 C107.772032,-1.90933207 133.572032,-1.70933207 162.672032,5.69066793 C182.872032,10.7906679 198.972032,18.4906679 215.772032,30.8906679 C225.472032,37.9906679 246.372032,58.3906679 260.172032,74.0906679 C271.472032,86.9906679 290.872032,112.390668 296.772032,122.090668 C315.572032,152.590668 322.272032,165.290668 331.172032,187.190668 C341.172032,211.790668 351.272032,246.990668 349.572032,251.490668 C349.072032,252.590668 347.672032,253.090668 344.672032,253.090668 C339.072032,253.190668 325.272032,256.290668 315.872032,259.590668 C299.172032,265.590668 274.472032,278.590668 234.272032,302.690668 C223.172032,309.290668 213.272032,314.990668 201.172032,321.690668 C192.072032,326.890668 174.172032,334.290668 165.372032,336.690668 C151.472032,340.390668 142.372032,339.990668 127.872032,334.890668 Z M164.372032,335.290668 C179.472032,331.190668 199.672032,321.490668 226.772032,305.190668 C234.772032,300.390668 244.572032,294.590668 248.372032,292.390668 C252.272032,290.190668 259.372032,286.090668 264.172032,283.190668 C296.972032,264.090668 321.772032,254.090668 342.672032,251.490668 C347.472032,250.890668 347.872032,250.590668 347.872032,248.190668 C347.872032,241.390668 340.572032,216.190668 332.172032,194.090668 C319.472032,160.490668 293.572032,116.490668 269.972032,88.0906679 C245.472032,58.7906679 223.272032,37.0906679 206.672032,26.4906679 C188.772032,14.9906679 169.672032,7.69066793 146.872032,3.69066793 C137.072032,1.99066793 119.072032,1.29066793 108.272032,2.19066793 C73.2720323,4.99066793 44.6720323,16.0906679 25.2720323,34.3906679 C11.9720323,46.8906679 6.87203234,56.9906679 6.87203234,70.6906679 C6.87203234,83.1906679 12.6720323,96.1906679 21.9720323,104.790668 L24.3720323,106.990668 L27.3720323,101.390668 C34.6720323,87.3906679 58.5720323,76.4906679 92.3720323,71.6906679 C131.372032,66.1906679 169.972032,71.5906679 201.372032,87.0906679 C222.072032,97.2906679 237.772032,110.090668 249.472032,126.190668 C252.672032,130.690668 256.972032,136.290668 258.972032,138.490668 C263.072032,143.090668 269.872032,152.290668 284.372032,172.890668 C289.872032,180.690668 302.572032,198.390668 312.572032,212.290668 C322.572032,226.190668 330.572032,237.790668 330.272032,238.190668 C330.072032,238.590668 327.272032,239.190668 324.172032,239.590668 C300.772032,242.390668 277.472032,249.890668 250.372032,263.290668 C226.072032,275.290668 210.772032,280.090668 196.872032,280.090668 C188.072032,280.090668 174.672032,277.090668 154.972032,270.590668 C129.372032,262.290668 115.672032,258.990668 103.372032,258.390668 C90.1720323,257.690668 84.7720323,258.890668 69.8720323,266.190668 C55.8720323,273.090668 46.6720323,275.590668 32.3720323,276.590668 C18.9720323,277.590668 10.4720323,280.290668 5.67203234,285.090668 C2.27203234,288.490668 1.87203234,289.390668 1.87203234,293.990668 C1.87203234,304.190668 6.57203234,310.490668 20.0720323,318.190668 C24.9720323,320.990668 33.6720323,325.090668 39.2720323,327.190668 C63.8720323,336.590668 73.5720323,337.590668 87.8720323,332.090668 C95.2720323,329.190668 97.5720323,328.790668 105.872032,328.690668 C114.472032,328.690668 116.472032,329.090668 127.372032,332.790668 C133.972032,335.090668 140.272032,337.190668 141.372032,337.490668 C144.872032,338.390668 157.172032,337.290668 164.372032,335.290668 Z M209.772032,276.990668 C215.172032,276.190668 226.472032,272.890668 227.472032,271.890668 C227.672032,271.590668 225.172032,264.090668 221.272032,253.190668 C220.972032,252.190668 219.372032,254.090668 216.872032,258.290668 C212.472032,265.490668 206.472032,271.590668 201.272032,273.690668 C196.572032,275.690668 186.272032,275.390668 181.372032,273.190668 C174.372032,269.990668 169.472032,263.090668 165.672032,251.190668 C165.472032,250.390668 164.272032,251.390668 162.572032,253.990668 C159.772032,258.190668 153.972032,262.490668 149.472032,263.690668 C147.972032,263.990668 146.672032,264.690668 146.372032,265.090668 C145.672032,266.190668 172.272032,274.990668 181.172032,276.590668 C190.172032,278.190668 201.372032,278.390668 209.772032,276.990668 Z M50.3720323,272.490668 C54.8720323,271.290668 77.4720323,261.290668 79.6720323,259.490668 C79.8720323,259.390668 77.9720323,257.190668 75.4720323,254.690668 L70.8720323,250.190668 L69.0720323,254.390668 C68.0720323,256.690668 65.5720323,260.090668 63.4720323,261.890668 C60.2720323,264.690668 59.0720323,265.090668 54.2720323,265.090668 C51.2720323,265.090668 47.1720323,264.390668 45.1720323,263.590668 C41.5720323,262.090668 39.9720323,262.690668 39.8720323,265.490668 C39.8720323,266.090668 38.8720323,267.490668 37.6720323,268.790668 C35.1720323,271.390668 31.1720323,271.790668 28.2720323,269.590668 C25.3720323,267.390668 24.8720323,267.790668 24.8720323,271.790668 L24.8720323,275.390668 L34.6720323,274.790668 C39.9720323,274.390668 47.0720323,273.390668 50.3720323,272.490668 Z M203.372032,270.590668 C205.872032,269.190668 209.372032,265.990668 211.372032,263.390668 C215.872032,257.490668 220.872032,247.390668 221.172032,243.590668 L221.372032,240.590668 L195.072032,233.990668 L168.772032,227.290668 L167.772032,229.790668 C166.372032,233.590668 166.672032,246.990668 168.372032,253.590668 C170.072032,259.990668 173.772032,266.290668 177.972032,269.290668 C185.172032,274.690668 195.572032,275.190668 203.372032,270.590668 Z M249.372032,261.990668 C257.672032,257.890668 265.972032,253.990668 267.872032,253.290668 C272.272032,251.690668 270.772032,250.590668 262.872032,249.690668 C259.872032,249.390668 250.472032,247.490668 241.972032,245.590668 C233.472032,243.690668 225.772032,242.090668 224.772032,242.090668 C221.572032,242.090668 221.472032,248.290668 224.472032,257.390668 C225.972032,261.890668 227.772032,266.790668 228.472032,268.290668 C230.172032,271.590668 229.072032,271.890668 249.372032,261.990668 Z M36.3720323,267.590668 C38.6720323,265.390668 38.8720323,264.390668 38.8720323,256.890668 C38.8720323,247.390668 37.8720323,238.090668 36.9720323,238.090668 C36.5720323,238.090668 33.6720323,240.390668 30.5720323,243.190668 L24.7720323,248.290668 L25.0720323,256.890668 C25.3720323,265.490668 25.3720323,265.490668 28.7720323,267.790668 C32.9720323,270.690668 33.3720323,270.690668 36.3720323,267.590668 Z M61.7720323,261.390668 C63.1720323,260.290668 65.3720323,257.490668 66.6720323,255.090668 C68.6720323,251.090668 68.8720323,249.190668 68.8720323,236.790668 L68.8720323,222.790668 L65.4720323,223.390668 C61.7720323,223.990668 50.9720323,229.090668 43.8720323,233.590668 L39.5720323,236.290668 L40.1720323,247.390668 C40.8720323,259.590668 41.2720323,260.390668 47.4720323,262.690668 C52.2720323,264.390668 58.3720323,263.890668 61.7720323,261.390668 Z M147.972032,262.590668 C159.972032,258.290668 164.572032,251.290668 165.072032,236.190668 L165.372032,226.790668 L160.372032,225.390668 C154.472032,223.890668 127.972032,219.490668 119.172032,218.590668 L112.972032,217.890668 L112.672032,228.290668 C112.272032,240.290668 112.972032,243.990668 116.472032,251.590668 C119.472032,257.890668 120.272032,258.390668 130.772032,261.590668 C140.072032,264.390668 142.372032,264.490668 147.972032,262.590668 Z M114.672032,251.390668 C112.972032,247.590668 111.472032,244.490668 111.372032,244.290668 C111.172032,243.990668 106.872032,255.490668 106.872032,256.390668 C106.872032,256.890668 108.572032,257.190668 116.072032,257.890668 C117.472032,258.090668 117.272032,257.090668 114.672032,251.390668 Z M95.6720323,256.490668 C104.672032,255.790668 104.772032,255.790668 106.272032,252.590668 C109.172032,246.590668 110.872032,237.590668 110.972032,228.190668 C111.072032,217.390668 110.872032,217.090668 103.172032,217.090668 C96.6720323,217.090668 75.8720323,219.790668 72.4720323,221.090668 L69.8720323,221.990668 L70.4720323,232.790668 C71.1720323,246.090668 72.0720323,249.290668 76.4720323,253.690668 C80.2720323,257.490668 80.6720323,257.490668 95.6720323,256.490668 Z M284.472032,247.090668 C292.872032,244.190668 308.072032,240.490668 317.372032,238.990668 C321.772032,238.390668 325.972032,237.490668 326.672032,237.190668 C327.572032,236.690668 324.672032,231.990668 317.172032,221.490668 C311.172032,213.290668 296.372032,192.590668 284.172032,175.590668 C260.772032,142.690668 255.972032,137.190668 243.772032,129.990668 C229.872032,121.690668 197.072032,109.090668 189.472032,109.090668 C187.672032,109.090668 173.872032,121.490668 173.872032,123.090668 C173.872032,123.390668 178.672032,123.390668 184.572032,123.290668 C225.172032,121.890668 259.172032,143.390668 283.372032,185.390668 C284.872032,187.990668 285.572032,190.090668 285.072032,190.090668 C284.472032,190.090668 282.472032,187.190668 280.472032,183.690668 C264.972032,155.990668 240.572032,135.790668 212.872032,127.790668 C206.472032,125.890668 202.872032,125.590668 188.372032,125.590668 C173.572032,125.590668 170.372032,125.890668 163.372032,127.890668 C148.172032,132.290668 136.772032,140.490668 133.372032,149.590668 C131.472032,154.390668 131.572032,155.690668 134.672032,167.290668 C136.972032,175.590668 139.072032,199.390668 138.772032,211.690668 C138.672032,215.790668 138.772032,219.290668 138.972032,219.390668 C139.172032,219.590668 144.772032,220.790668 151.372032,221.990668 C157.972032,223.290668 180.972032,228.690668 202.372032,234.090668 C223.872032,239.490668 246.072032,244.890668 251.872032,245.990668 C257.672032,247.090668 263.272032,248.190668 264.372032,248.390668 C269.772032,249.590668 278.972032,248.990668 284.472032,247.090668 Z M136.872032,206.090668 C136.872032,190.190668 135.472032,175.990668 132.872032,166.290668 C130.372032,156.990668 130.372032,151.790668 132.972032,146.390668 C136.872032,138.290668 149.072032,130.190668 162.872032,126.490668 C168.772032,124.990668 170.172032,123.990668 177.572032,116.690668 C182.172032,112.290668 185.472032,108.290668 185.072032,107.890668 C184.672032,107.490668 179.172032,106.190668 172.872032,104.990668 C156.472032,101.890668 124.972032,101.190668 110.672032,103.590668 C99.6720323,105.390668 85.5720323,109.690668 78.2720323,113.390668 L73.8720323,115.590668 L83.0720323,124.090668 C112.272032,150.990668 120.972032,180.890668 108.272032,209.990668 C106.972032,212.890668 105.872032,215.490668 105.872032,215.690668 C105.872032,215.890668 107.772032,216.090668 110.172032,216.190668 C112.472032,216.190668 118.472032,216.790668 123.372032,217.490668 C138.572032,219.690668 136.872032,221.090668 136.872032,206.090668 Z M251.172032,130.890668 C241.772032,118.490668 227.772032,103.890668 226.472032,105.190668 C226.172032,105.390668 225.872032,108.490668 225.772032,111.990668 L225.472032,118.390668 L234.972032,123.390668 C240.172032,126.090668 245.472032,129.190668 246.872032,130.190668 C249.772032,132.290668 252.672032,132.790668 251.172032,130.890668 Z M50.0720323,107.790668 C50.4720323,101.790668 51.5720323,93.9906679 52.4720323,90.4906679 C53.3720323,86.8906679 53.8720323,83.7906679 53.6720323,83.4906679 C53.3720323,83.2906679 50.3720323,84.4906679 46.8720323,86.2906679 C34.9720323,92.4906679 25.8720323,102.990668 25.8720323,110.790668 C25.8720323,116.290668 31.7720323,119.090668 42.8720323,118.790668 L49.3720323,118.590668 L50.0720323,107.790668 Z M63.5720323,116.690668 C67.2720323,115.890668 73.3720323,113.790668 77.1720323,112.090668 C82.9720323,109.490668 83.8720323,108.690668 83.9720323,106.290668 C83.9720323,104.790668 84.1720323,102.890668 84.2720323,102.090668 C85.1720323,97.6906679 85.8720323,75.1906679 85.1720323,74.7906679 C84.2720323,74.2906679 67.7720323,77.9906679 61.4720323,80.0906679 C55.5720323,81.9906679 53.5720323,88.1906679 51.3720323,111.390668 L50.6720323,118.090668 L53.7720323,118.090668 C55.3720323,118.090668 59.7720323,117.490668 63.5720323,116.690668 Z M223.872317,109.590668 L223.872317,101.990668 L216.172032,96.9906679 C203.772032,88.9906679 178.072032,77.4906679 176.372032,79.1906679 C176.072032,79.4906679 176.472032,81.6906679 177.372032,83.9906679 C178.172032,86.2906679 179.472032,91.7906679 180.372032,96.2906679 C181.172032,100.790668 182.072032,104.590668 182.172032,104.790668 C182.372032,104.990668 188.172032,106.590668 194.972032,108.490668 C201.772032,110.390668 210.272032,113.090668 213.872032,114.390668 C224.072032,118.290668 223.872317,118.290668 223.872317,109.590668 Z M95.6720323,105.190668 C102.972032,102.990668 120.672032,100.090668 127.172032,100.090668 C129.172032,100.090668 130.872032,99.5906679 130.872032,98.9906679 C130.872032,97.7906679 127.472032,84.2906679 125.272032,76.3906679 L123.772032,71.0906679 L117.872032,71.0906679 C111.572032,71.0906679 92.4720323,72.8906679 89.6720323,73.6906679 C87.4720323,74.2906679 87.1720323,76.6906679 86.3720323,93.9906679 C85.7720323,106.390668 85.8720323,108.290668 87.1720323,107.790668 C87.9720323,107.490668 91.7720323,106.290668 95.6720323,105.190668 Z M179.872032,102.590668 C179.872032,100.590668 176.172032,85.0906679 174.972032,81.7906679 C174.272032,80.0906679 172.572032,78.3906679 170.472032,77.5906679 C163.272032,74.5906679 125.872032,69.6906679 125.872032,71.6906679 C125.872032,73.0906679 132.672032,97.8906679 133.272032,98.8906679 C133.572032,99.3906679 139.772032,100.090668 147.072032,100.490668 C154.372032,100.890668 163.772032,101.790668 167.872032,102.590668 C178.072032,104.390668 179.872032,104.390668 179.872032,102.590668 Z" id="Shape"></path>
                <path d="M138.372032,329.590668 C129.872032,327.790668 121.272032,324.290668 118.072032,321.590668 C115.772032,319.590668 116.372032,319.690668 122.172032,322.490668 C130.972032,326.790668 143.172032,329.390668 154.372032,329.490668 C159.672032,329.490668 162.172032,329.790668 160.372032,330.190668 C155.372032,331.290668 144.672032,330.990668 138.372032,329.590668 Z" id="Path"></path>
                <path d="M13.8720323,63.7906679 C13.8720323,61.1906679 17.7720323,51.3906679 19.3720323,50.0906679 C20.0720323,49.4906679 19.3720323,52.2906679 17.6720323,56.7906679 C14.3720323,65.2906679 13.8720323,66.2906679 13.8720323,63.7906679 Z" id="Path"></path>
                <path d="M167.872032,17.9906679 C162.972032,15.7906679 150.972032,11.7906679 144.172032,10.0906679 C138.872032,8.79066793 138.572032,7.99066793 143.672032,8.79066793 C150.272032,9.69066793 160.172032,12.9906679 167.372032,16.4906679 C174.872032,20.1906679 175.272032,21.1906679 167.872032,17.9906679 Z" id="Path"></path>
                <path d="M215.672032,226.390668 C211.372032,218.090668 210.272032,214.790668 208.472032,204.390668 C207.672032,199.990668 205.672032,193.390668 203.972032,189.690668 C200.172032,181.290668 201.572032,180.990668 205.672032,189.390668 C208.672032,195.390668 209.372032,197.790668 211.872032,210.490668 C212.572032,213.790668 214.572032,220.090668 216.472032,224.490668 C218.372032,228.890668 219.672032,232.590668 219.472032,232.790668 C219.272032,232.990668 217.572032,230.090668 215.672032,226.390668 Z" id="Path"></path>
                <path d="M171.372032,175.990668 C183.872032,174.390668 191.672032,170.890668 200.272032,162.990668 C207.772032,156.090668 208.472032,157.190668 201.072032,164.290668 C191.872032,173.090668 181.972032,177.190668 170.372032,176.990668 L164.372032,176.790668 L171.372032,175.990668 Z" id="Path"></path>
            </g>
            <text id="Bunched-R" font-family="CharisSIL, Charis SIL" font-size="20" font-weight="normal">
                <tspan x="516.231445" y="390">Bunched R</tspan>
            </text>
            <g id="RetroflexR" transform="translate(174.1765, 170.3999) scale(-1, 1) rotate(-180) translate(-174.1765, -170.3999)translate(-0, 0)" fill-rule="nonzero">
                <path d="M137.662703,340.051903 C136.262703,339.551903 132.362703,337.751903 128.962703,335.951903 C123.962703,333.351903 121.362703,332.651903 114.462703,332.251903 C105.062703,331.651903 90.8627033,333.251903 84.4627033,335.651903 C77.7627033,338.151903 57.6627033,338.551903 48.1627033,336.451903 C37.7627033,334.151903 24.6627033,327.351903 15.4627033,319.551903 C-5.23729669,301.951903 -5.13729669,287.551903 15.6627033,281.351903 L21.6627033,279.551903 L21.6627033,269.051903 C21.6627033,263.251903 22.1627033,256.651903 22.7627033,254.551903 C24.9627033,246.551903 41.4627033,233.851903 59.0627033,226.751903 C72.1627033,221.351903 80.0627033,219.851903 95.1627033,219.551903 C102.862703,219.351903 109.062703,218.951903 108.962703,218.551903 C106.162703,207.151903 106.162703,187.651903 108.962703,178.651903 C110.462703,174.151903 110.362703,173.451903 108.262703,167.151903 C103.562703,153.251903 95.4627033,140.551903 84.7627033,129.851903 C73.7627033,118.951903 73.4627033,118.751903 66.1627033,120.551903 C58.7627033,122.351903 39.7627033,123.451903 33.2627033,122.551903 C27.7627033,121.651903 23.6627033,118.351903 23.5627033,114.751903 C23.5627033,113.251903 22.0627033,111.451903 19.3627033,109.451903 C10.5627033,103.051903 5.26270331,90.1519031 5.26270331,74.9519031 C5.36270331,40.0519031 33.2627033,13.5519031 79.4627033,4.05190309 C142.662703,-8.74809691 195.462703,8.65190309 243.162703,58.0519031 C248.662703,63.7519031 256.562703,72.5519031 260.762703,77.4519031 C264.962703,82.4519031 273.062703,91.8519031 278.762703,98.4519031 C291.862703,113.851903 299.062703,124.751903 308.162703,143.451903 C319.762703,167.151903 328.462703,189.351903 338.662703,220.451903 C346.562703,245.051903 348.862703,252.851903 348.262703,253.851903 C347.862703,254.351903 346.062703,254.351903 343.962703,253.851903 C336.062703,252.151903 314.762703,257.251903 303.862703,263.551903 C301.262703,265.051903 296.062703,268.551903 292.162703,271.451903 C284.162703,277.351903 243.462703,301.851903 210.262703,320.851903 C186.562703,334.351903 181.562703,336.351903 163.662703,339.551903 C155.562703,340.951903 141.662703,341.251903 137.662703,340.051903 Z M159.162703,338.451903 C162.462703,338.151903 170.262703,336.551903 176.462703,334.951903 C187.562703,332.051903 190.462703,330.651903 209.362703,319.251903 C213.362703,316.951903 216.862703,314.951903 217.062703,314.951903 C217.362703,314.951903 225.962703,309.951903 236.262703,303.851903 C278.462703,278.951903 285.262703,274.651903 294.362703,267.851903 C306.762703,258.451903 326.662703,251.551903 339.962703,252.151903 L346.762703,252.451903 L346.162703,249.951903 C345.062703,245.351903 334.562703,212.551903 330.962703,202.451903 C315.062703,158.051903 296.162703,120.151903 282.262703,105.151903 C279.962703,102.551903 271.762703,93.0519031 264.062703,83.9519031 C234.562703,48.9519031 213.362703,30.6519031 187.062703,17.6519031 C165.762703,7.05190309 149.362703,3.05190309 124.062703,2.25190309 C90.4627033,1.15190309 63.2627033,7.05190309 40.6627033,20.3519031 C11.6627033,37.3519031 -1.03729669,70.3519031 11.3627033,96.5519031 C13.9627033,102.151903 20.7627033,109.951903 22.8627033,109.951903 C23.5627033,109.951903 25.4627033,106.951903 27.0627033,103.451903 C33.0627033,90.0519031 49.6627033,78.4519031 69.2627033,73.8519031 C75.9627033,72.2519031 82.8627033,71.6519031 97.1627033,71.2519031 C152.862703,69.7519031 203.862703,86.8519031 240.762703,119.351903 C252.162703,129.451903 256.062703,134.251903 273.962703,159.551903 C282.362703,171.651903 292.362703,185.751903 296.062703,190.951903 C323.662703,229.951903 328.662703,237.151903 328.662703,238.451903 C328.662703,239.251903 327.062703,240.251903 324.962703,240.751903 C312.562703,243.751903 287.062703,250.151903 280.662703,251.951903 C269.762703,255.051903 247.062703,264.251903 232.362703,271.651903 C216.462703,279.551903 211.262703,280.951903 197.162703,280.951903 C182.462703,280.951903 168.662703,277.951903 142.162703,269.051903 C112.662703,259.251903 105.762703,257.551903 95.6627033,257.451903 L87.1627033,257.451903 L76.7627033,263.351903 C59.6627033,273.151903 44.2627033,278.351903 21.7627033,281.851903 C4.96270331,284.451903 -1.93729669,292.951903 3.66270331,304.051903 C7.76270331,311.951903 22.6627033,324.551903 34.6627033,330.151903 C49.4627033,337.151903 67.2627033,338.351903 85.6627033,333.651903 C105.662703,328.651903 119.462703,329.051903 131.062703,335.051903 C137.462703,338.451903 144.162703,339.951903 149.662703,339.451903 C151.562703,339.251903 155.862703,338.751903 159.162703,338.451903 Z M210.162703,278.451903 C217.962703,276.851903 224.162703,274.551903 225.062703,273.051903 C225.362703,272.551903 225.062703,270.451903 224.262703,268.351903 C223.562703,266.151903 222.362703,261.151903 221.662703,257.151903 L220.462703,249.851903 L216.562703,256.551903 C214.462703,260.151903 210.862703,265.351903 208.662703,267.951903 C204.662703,272.751903 196.162703,277.951903 192.362703,277.951903 C191.362703,277.951903 190.862703,278.451903 191.162703,278.951903 C192.062703,280.451903 201.762703,280.151903 210.162703,278.451903 Z M36.4627033,277.451903 C46.2627033,275.451903 57.8627033,271.351903 67.1627033,266.751903 C71.5627033,264.551903 75.4627033,262.451903 75.8627033,262.151903 C76.2627033,261.751903 75.4627033,259.451903 74.0627033,257.151903 L71.4627033,252.751903 L68.1627033,257.651903 C66.3627033,260.351903 63.0627033,263.451903 60.6627033,264.851903 C56.8627033,266.951903 55.5627033,267.151903 48.6627033,266.651903 L40.9627033,266.151903 L39.7627033,269.651903 C37.6627033,275.351903 33.8627033,276.051903 24.9627033,272.351903 C24.0627033,271.951903 23.6627033,272.851903 23.6627033,275.351903 C23.6627033,278.651903 23.8627033,278.951903 26.5627033,278.951903 C28.1627033,278.951903 32.6627033,278.251903 36.4627033,277.451903 Z M179.162703,276.051903 C172.262703,271.851903 168.462703,264.951903 166.562703,253.151903 L165.362703,245.951903 L162.562703,250.851903 C159.162703,256.851903 153.562703,262.451903 148.362703,265.051903 C146.262703,266.151903 144.862703,267.451903 145.162703,267.851903 C146.062703,269.451903 175.262703,277.751903 180.162703,277.851903 C181.762703,277.951903 181.562703,277.551903 179.162703,276.051903 Z M195.462703,275.451903 C201.762703,272.751903 206.262703,269.051903 210.462703,263.151903 C215.562703,255.751903 219.962703,247.051903 219.262703,245.451903 C219.062703,244.751903 217.062703,243.851903 214.962703,243.451903 C212.862703,243.151903 202.062703,240.551903 190.962703,237.851903 C179.862703,235.151903 170.062703,232.951903 169.162703,232.951903 C167.962703,232.951903 167.662703,234.551903 167.662703,241.751903 C167.662703,253.351903 169.262703,260.851903 173.062703,267.251903 C178.162703,275.751903 186.862703,278.951903 195.462703,275.451903 Z M37.0627033,270.751903 C38.1627033,269.151903 38.6627033,266.351903 38.5627033,261.451903 C38.4627033,253.051903 37.3627033,243.251903 36.3627033,242.351903 C35.1627033,241.151903 28.3627033,247.351903 25.9627033,251.951903 C24.2627033,255.151903 23.6627033,257.951903 23.6627033,262.651903 C23.6627033,268.751903 23.7627033,269.051903 26.9627033,270.951903 C31.2627033,273.651903 35.1627033,273.551903 37.0627033,270.751903 Z M236.762703,267.551903 C241.962703,265.051903 250.562703,261.251903 255.962703,259.151903 C261.362703,256.951903 265.862703,254.751903 265.862703,254.351903 C265.962703,253.851903 261.962703,252.951903 257.062703,252.351903 C252.162703,251.751903 242.862703,250.051903 236.462703,248.551903 C229.962703,247.151903 224.162703,245.951903 223.562703,245.951903 C221.962703,245.951903 222.862703,257.651903 225.162703,265.751903 C226.162703,269.151903 227.062703,271.951903 227.162703,271.951903 C227.262703,271.951903 231.662703,269.951903 236.762703,267.551903 Z M148.262703,263.451903 C156.862703,258.451903 163.862703,247.651903 165.262703,237.251903 L165.862703,232.051903 L162.062703,231.051903 C154.862703,229.151903 123.262703,223.051903 117.262703,222.351903 L111.362703,221.651903 L111.962703,233.151903 C112.662703,245.951903 114.962703,254.051903 119.262703,258.051903 C122.262703,260.851903 139.262703,266.951903 142.162703,266.251903 C143.262703,265.951903 145.962703,264.651903 148.262703,263.451903 Z M56.7627033,264.851903 C61.0627033,263.351903 66.2627033,258.551903 68.7627033,253.751903 C70.3627033,250.651903 70.4627033,249.351903 69.6627033,244.851903 C69.0627033,242.051903 68.6627033,236.351903 68.6627033,232.351903 L68.6627033,224.951903 L62.0627033,227.451903 C55.3627033,229.951903 43.6627033,235.851903 40.2627033,238.451903 C38.3627033,239.851903 38.3627033,240.351903 39.7627033,251.651903 L41.1627033,263.451903 L44.6627033,264.651903 C49.1627033,266.151903 52.5627033,266.251903 56.7627033,264.851903 Z M83.5627033,257.751903 C87.0627033,256.051903 89.7627033,255.651903 95.7627033,255.651903 C103.462703,255.751903 103.662703,255.751903 106.662703,252.351903 C110.662703,247.751903 110.862703,246.251903 109.962703,232.951903 L109.162703,221.451903 L103.162703,220.651903 C96.5627033,219.851903 76.2627033,222.051903 72.5627033,223.951903 C70.5627033,225.051903 70.4627033,225.651903 70.8627033,236.351903 C71.3627033,247.151903 73.2627033,254.451903 76.8627033,258.651903 C78.2627033,260.351903 78.2627033,260.351903 83.5627033,257.751903 Z M116.462703,258.251903 C116.262703,257.751903 115.162703,255.551903 114.062703,253.251903 C113.062703,250.851903 111.962703,248.951903 111.662703,248.951903 C110.962703,248.951903 106.262703,255.951903 106.762703,256.351903 C107.362703,256.851903 114.062703,258.751903 115.462703,258.851903 C116.262703,258.951903 116.662703,258.651903 116.462703,258.251903 Z M287.162703,248.451903 C296.162703,245.751903 309.962703,242.451903 324.462703,239.351903 C325.662703,239.151903 326.662703,238.451903 326.662703,237.851903 C326.662703,237.251903 322.662703,231.251903 317.862703,224.551903 C312.962703,217.951903 306.362703,208.651903 303.162703,203.951903 C299.962703,199.251903 292.962703,189.351903 287.662703,181.951903 C282.362703,174.551903 274.862703,163.951903 270.862703,158.351903 C258.362703,140.551903 241.262703,128.351903 213.662703,117.451903 C201.662703,112.751903 198.162703,112.951903 179.062703,119.451903 C143.562703,131.351903 120.262703,150.551903 111.962703,174.651903 C109.762703,181.151903 109.262703,184.551903 108.962703,195.451903 C108.762703,203.851903 109.062703,210.351903 109.862703,213.951903 L111.162703,219.451903 L118.162703,220.051903 C134.162703,221.351903 147.362703,218.351903 158.662703,210.751903 C164.662703,206.751903 173.162703,197.451903 175.662703,192.151903 C178.862703,185.251903 180.262703,183.151903 184.062703,179.151903 C204.962703,157.051903 255.162703,165.451903 280.362703,195.251903 C285.462703,201.351903 291.062703,212.551903 292.562703,219.751903 C293.862703,226.151903 293.962703,236.251903 292.762703,235.551903 C292.262703,235.251903 292.062703,234.051903 292.362703,233.051903 C293.362703,229.051903 290.462703,216.351903 286.662703,208.451903 C278.762703,192.051903 263.362703,179.451903 242.262703,172.251903 C220.862703,165.051903 198.162703,167.751903 186.562703,178.851903 C183.862703,181.451903 181.662703,184.051903 181.662703,184.651903 C181.662703,185.251903 183.562703,186.051903 185.962703,186.451903 C195.362703,188.051903 203.962703,194.851903 211.162703,206.351903 C215.662703,213.651903 221.962703,230.851903 223.162703,239.151903 C223.662703,242.251903 224.462703,244.051903 225.562703,244.351903 C231.062703,246.051903 257.362703,251.251903 263.662703,251.851903 C272.462703,252.751903 272.862703,252.651903 287.162703,248.451903 Z M221.362703,238.451903 C219.662703,226.451903 210.762703,206.151903 203.762703,198.651903 C199.762703,194.251903 193.162703,190.051903 187.962703,188.451903 C180.562703,186.151903 179.862703,186.351903 177.162703,192.251903 C175.762703,195.151903 172.662703,199.851903 170.162703,202.651903 L165.662703,207.751903 L168.362703,213.651903 C170.062703,217.251903 171.262703,221.751903 171.462703,225.651903 L171.862703,231.851903 L183.562703,234.451903 C189.962703,235.951903 200.162703,238.451903 206.162703,239.951903 C212.262703,241.551903 218.262703,242.851903 219.562703,242.851903 C221.762703,242.951903 221.862703,242.751903 221.362703,238.451903 Z M169.562703,225.751903 C169.562703,219.851903 166.962703,212.151903 164.662703,210.751903 C163.562703,210.051903 161.662703,210.751903 157.762703,213.351903 C152.662703,216.851903 143.762703,220.051903 135.162703,221.451903 C131.862703,222.051903 131.462703,222.351903 133.162703,223.051903 C134.962703,223.751903 165.462703,230.551903 168.462703,230.851903 C169.262703,230.951903 169.662703,229.351903 169.562703,225.751903 Z M115.062703,163.851903 C120.562703,152.651903 136.562703,137.651903 152.662703,128.651903 C160.462703,124.351903 176.062703,118.251903 187.462703,114.951903 C192.062703,113.751903 195.362703,112.251903 194.962703,111.851903 C193.362703,110.251903 173.762703,106.951903 159.762703,105.951903 C135.262703,104.051903 110.862703,107.051903 87.1627033,114.651903 C81.1627033,116.551903 76.0627033,118.251903 75.8627033,118.451903 C75.7627033,118.551903 80.0627033,123.051903 85.4627033,128.551903 C96.3627033,139.551903 104.062703,150.851903 108.462703,162.751903 C109.862703,166.651903 111.362703,169.951903 111.662703,169.851903 C111.962703,169.851903 113.462703,167.151903 115.062703,163.851903 Z M256.762703,138.151903 C253.762703,132.551903 226.162703,107.951903 222.862703,107.951903 C222.062703,107.951903 221.662703,109.951903 221.662703,113.451903 L221.662703,119.051903 L229.362703,122.551903 C236.362703,125.751903 248.062703,132.951903 254.562703,138.051903 C257.562703,140.451903 257.962703,140.451903 256.762703,138.151903 Z M49.2627033,108.451903 C49.8627033,101.351903 51.1627033,92.3519031 52.1627033,88.6519031 C53.0627033,84.8519031 53.5627033,81.5519031 53.2627033,81.2519031 C52.2627033,80.1519031 39.6627033,89.1519031 35.1627033,94.1519031 C30.8627033,98.9519031 26.5627033,106.751903 25.2627033,112.151903 C24.2627033,116.451903 27.9627033,119.951903 34.6627033,120.951903 C37.6627033,121.351903 41.9627033,121.651903 44.1627033,121.551903 L48.1627033,121.451903 L49.2627033,108.451903 Z M64.8627033,119.051903 C80.7627033,115.751903 83.0627033,114.751903 83.7627033,111.451903 C84.7627033,106.951903 84.7627033,72.9519031 83.8627033,72.9519031 C78.0627033,72.9519031 59.7627033,77.7519031 57.4627033,79.8519031 C54.7627033,82.3519031 51.7627033,96.2519031 51.0627033,109.251903 L50.3627033,120.951903 L52.8627033,120.951903 C54.3627033,120.951903 59.6627033,120.051903 64.8627033,119.051903 Z M220.662703,111.351903 L220.662703,105.951903 L214.962703,102.251903 C205.562703,96.2519031 178.662703,83.9519031 174.962703,83.9519031 C174.362703,83.9519031 174.462703,86.0519031 175.262703,89.2519031 C175.962703,92.0519031 176.762703,97.0519031 177.162703,100.151903 C177.762703,105.451903 178.062703,106.051903 180.462703,106.551903 C190.362703,108.651903 207.162703,113.251903 212.662703,115.251903 C216.262703,116.651903 219.462703,117.551903 219.962703,117.251903 C220.362703,117.051903 220.662703,114.351903 220.662703,111.351903 Z M99.5627033,109.451903 C104.662703,108.051903 114.062703,106.251903 120.462703,105.451903 C126.862703,104.551903 132.062703,103.851903 132.162703,103.651903 C132.362703,103.451903 125.562703,78.6519031 124.162703,74.3519031 C123.562703,72.2519031 88.8627033,71.2519031 87.0627033,73.2519031 C86.9627033,73.3519031 86.5627033,82.4519031 86.1627033,93.3519031 L85.3627033,113.251903 L87.7627033,112.551903 C89.0627033,112.251903 94.3627033,110.751903 99.5627033,109.451903 Z M176.062703,105.151903 C176.762703,103.951903 174.162703,89.9519031 172.462703,85.8519031 C171.062703,82.5519031 170.362703,82.2519031 162.562703,80.0519031 C152.262703,77.3519031 131.462703,73.7519031 128.262703,74.1519031 L125.962703,74.4519031 L129.962703,89.2519031 L134.062703,103.951903 L147.562703,104.051903 C155.062703,104.151903 163.862703,104.551903 167.162703,104.951903 C170.462703,105.351903 173.662703,105.751903 174.362703,105.851903 C174.962703,105.851903 175.762703,105.551903 176.062703,105.151903 Z" id="Shape"></path>
                <path d="M138.362703,333.351903 C131.562703,331.751903 117.462703,325.051903 113.162703,321.451903 C110.862703,319.551903 112.262703,319.951903 119.262703,323.351903 C135.362703,331.251903 139.562703,332.351903 153.562703,332.451903 C164.562703,332.451903 165.562703,332.551903 162.062703,333.651903 C156.762703,335.251903 145.462703,335.051903 138.362703,333.351903 Z" id="Path"></path>
                <path d="M82.9627033,313.351903 C84.3627033,310.651903 89.1627033,307.051903 90.0627033,308.051903 C90.2627033,308.251903 88.4627033,310.251903 85.9627033,312.351903 C81.5627033,316.151903 81.4627033,316.251903 82.9627033,313.351903 Z" id="Path"></path>
                <path d="M10.7627033,66.4519031 C10.7627033,61.3519031 15.8627033,49.7519031 17.3627033,51.3519031 C17.6627033,51.6519031 17.3627033,52.5519031 16.6627033,53.3519031 C16.0627033,54.2519031 14.3627033,58.1519031 13.0627033,62.1519031 C11.4627033,67.3519031 10.7627033,68.5519031 10.7627033,66.4519031 Z" id="Path"></path>
                <path d="M175.562703,22.4519031 C171.262703,20.1519031 157.762703,15.8519031 148.662703,13.9519031 C143.962703,12.9519031 141.362703,12.0519031 142.762703,12.0519031 C150.162703,11.7519031 169.162703,17.1519031 176.162703,21.4519031 C180.462703,24.0519031 179.962703,24.8519031 175.562703,22.4519031 Z" id="Path"></path>
                <path d="M135.162703,157.451903 C136.762703,150.051903 147.562703,132.551903 149.462703,134.351903 C149.662703,134.651903 148.562703,136.451903 146.862703,138.451903 C145.162703,140.351903 141.662703,146.151903 139.062703,151.251903 C136.562703,156.251903 134.762703,159.151903 135.162703,157.451903 Z" id="Path"></path>
            </g>
            <text id="Retroflex-R" font-family="CharisSIL, Charis SIL" font-size="20" font-weight="normal">
                <tspan x="58.2099609" y="390">Retroflex R</tspan>
            </text>
        </g>
    </g>
</svg>