<?xml version="1.0" encoding="UTF-8"?>
<svg width="1280px" height="800px" viewBox="0 0 1280 800" version="1.1" xmlns="http://www.w3.org/2000/svg" xmlns:xlink="http://www.w3.org/1999/xlink">
    <title>speech-tract-lr</title>
    <g id="Page-1" stroke="none" stroke-width="1" fill="none" fill-rule="evenodd">
        <g id="speech-tract-lr">
            <rect id="Rectangle" x="0" y="0" width="1280" height="800"></rect>
            <g id="speech-tract" transform="translate(690, 78)">
                <path d="M35.7054606,316.942369 C29.7151759,317.943652 26.9986514,329.131901 26.9986514,329.131901 C26.9986514,329.131901 24.7871219,336.436914 26.9986514,343.062796 C29.1405265,349.497128 32.9541089,353.119161 34.8347797,355.252329 C36.7154505,357.385497 38.9182732,361.03365 44.4122698,368.312543 C48.5741246,373.823953 54.5992365,379.204761 58.3431644,389.208885 C63.9068155,404.080115 65.5001616,422.425362 67.9206545,436.225654 C69.8274457,447.109166 72.6484519,455.180378 74.0154209,457.121996 C75.38239,459.063615 75.4868717,461.710485 90.5583583,464.958124 C103.383488,467.718183 127.353334,467.465685 146.281937,467.570167 C163.991587,467.665942 187.647987,465.828805 203.746877,463.216763 C222.544878,460.160673 227.176901,456.991394 232.479348,456.251315 C237.781794,455.511236 251.268642,451.210073 267.306584,464.087443 C282.125574,475.989652 284.720203,480.630381 284.720203,480.630381 C284.720203,480.630381 287.506382,485.558435 290.814969,494.561276 C297.049044,511.609208 289.282571,516.206403 293.427012,527.64715 C297.493092,538.861521 304.615262,532.592618 314.453956,559.775276 C327.688306,596.526718 340.443781,632.12886 340.443781,632.12886 C340.443781,632.12886 343.108065,641.924021 350.891952,644.318393 C353.808733,645.215194 356.237933,643.665382 359.598762,643.447712 C366.720931,642.986251 374.400337,642.577031 374.400337,642.577031 L406.615531,640.835669 L377.01238,611.232518 L342.185143,533.741917 L324.771525,457.992677 L364.822847,402.269098 L383.107146,374.407309 C383.107146,374.407309 402.06187,350.376516 370.917613,325.649178 C355.349839,314.043001 351.327293,309.036586 336.090377,304.752836 C263.275332,284.283127 223.163062,305.780239 210.712325,307.364879 C186.054641,310.49933 154.988746,309.976921 154.988746,309.976921 C154.988746,309.976921 144.218423,311.422252 142.799213,323.907816 C141.380003,336.39338 147.631492,339.493004 149.764661,341.321434 C151.897829,343.149864 153.473761,344.830278 157.600789,349.157562 C162.049968,353.824412 167.909651,359.544786 170.661003,365.7005 C174.065365,373.310251 170.486866,380.780693 168.919641,382.243437 C164.80132,386.08314 153.299625,376.366341 151.506022,374.407309 C145.010743,367.302553 139.525453,357.890492 134.963085,352.640286 C132.107252,349.349112 129.739,349.157562 129.739,349.157562 L112.325381,361.347095 L112.325381,390.950246 L101.006529,393.562289 L92.2997202,389.208885 C92.2997202,389.208885 89.9837089,377.472106 86.2049538,364.829819 C81.3987951,348.730929 77.4720242,334.486589 74.8861018,330.873263 C72.3001795,327.259937 61.7997677,314.913682 35.7054606,316.942369 Z" id="Path" stroke="#000000" stroke-width="2" fill="#8A8A89"></path>
                <path d="M416.193021,642.577031 C415.818628,642.916597 402.427556,641.035926 388.331232,636.482265 C378.544778,633.321693 368.558068,627.714508 363.081485,624.292732 C349.707826,615.934195 338.70242,577.275963 338.70242,577.275963 C338.70242,577.275963 325.293933,543.11915 315.194035,514.586937 C308.707462,496.250397 303.875183,478.889019 303.875183,478.889019 C303.875183,478.889019 301.524344,468.318953 291.68565,459.734039 C281.09817,450.496114 269.465873,447.074338 266.435903,445.803144 C263.405934,444.53195 259.217959,441.963441 260.341137,439.708378 C261.385954,437.618744 269.918627,437.967016 269.918627,437.967016 C269.918627,437.967016 277.302001,438.567786 285.590884,434.484292 C290.249027,432.185695 295.203201,426.16929 300.392459,423.16544 C314.419129,415.033281 328.254249,409.234546 328.254249,409.234546 L379.624423,389.208885 C379.624423,389.208885 393.468249,384.219883 404.003488,376.148671 C413.90313,368.56504 419.344886,357.829544 420.546426,357.864287 C421.747965,357.899199 423.86372,360.798566 423.804061,364.06362 C423.724411,368.704349 422.287787,374.407309 422.287787,374.407309 C422.287787,374.407309 419.101095,386.08314 416.193021,390.950246 C408.531029,403.79279 397.908722,413.58795 397.908722,413.58795 C397.908722,413.58795 385.074885,430.461746 372.658975,449.285868 C358.240499,471.148666 345.502437,491.722856 344.797186,492.819914 C344.091934,493.916972 340.382834,500.629922 343.055824,507.621489 C347.661726,519.6543 356.795169,530.276607 359.598762,536.35396 C362.402354,542.431312 362.559077,542.823119 366.816706,552.130698 C372.040792,563.545325 377.935302,579.731283 383.977827,592.948219 C390.534054,607.27092 395.287972,615.507562 397.038041,618.197966 C397.725879,619.25149 400.83421,623.247915 404.351761,627.705801 C407.103112,631.197232 410.4117,633.609018 412.710297,636.482265 C414.939241,639.268444 416.567414,642.237466 416.193021,642.577031 Z" id="Path" stroke="#000000" stroke-width="2" fill="#BFC0BF"></path>
                <path d="M75.7567828,450.156549 C75.7567828,450.156549 81.7993083,442.215939 85.3342728,421.424079 C89.1826825,398.760254 89.6876774,369.183224 89.6876774,369.183224 C89.6876774,369.183224 92.7698879,346.145007 103.618572,346.54552 C107.728186,346.693535 121.432704,335.191841 126.256276,338.709391 C129.869602,341.347555 129.930549,346.475865 131.480361,351.769605 C134.179472,360.972703 137.575128,370.924585 137.575128,370.924585 C137.575128,370.924585 140.622511,380.728453 143.669894,390.079566 C146.717277,399.448092 148.89398,408.363865 148.89398,408.363865 C148.89398,408.363865 152.307049,424.567237 142.799213,434.484292 C131.933115,445.811851 111.968402,449.329402 108.842658,451.02723 C105.716913,452.725057 94.4154748,459.289992 93.1704011,459.734039 C91.9253274,460.178086 81.9734445,461.327385 77.4981446,458.863358 C73.2666353,456.53864 75.7567828,450.156549 75.7567828,450.156549 Z" id="Path" stroke="#000000" stroke-width="2" fill="#BFC0BF"></path>
                <path d="M99.2651675,309.976921 C99.2651675,309.976921 97.3235491,319.06683 97.5238057,327.39054 C97.7588895,337.220527 100.135848,346.54552 100.135848,346.54552 C100.135848,346.54552 100.858514,348.565499 102.747891,350.028243 C105.734327,352.352961 109.62627,353.510967 114.937424,353.510967 C118.185064,353.510967 127.649365,353.510967 129.739,346.54552 C131.053728,342.174702 127.997638,335.226668 127.997638,335.226668 L107.101296,308.235559 C107.101296,308.235559 104.637269,305.20559 102.747891,305.623517 C100.719205,306.076271 99.2651675,309.976921 99.2651675,309.976921 Z" id="Path" stroke="#000000" stroke-width="2" fill="#F2F1F0"></path>
                <path d="M471.9166,622.55137 C471.9166,622.55137 465.760886,601.881405 459.727067,577.275963 C456.270464,563.188345 453.79773,548.856937 450.149577,533.741917 C448.033822,524.982867 446.849696,516.206403 444.925491,508.49217 C439.832008,488.10953 434.47732,474.535614 434.47732,474.535614 C434.47732,474.535614 431.386403,461.606003 433.606639,452.768592 C435.147745,446.647705 441.399234,442.067923 444.05481,441.44974 C447.023832,440.761902 452.247918,440.892504 455.373662,446.673825 C459.169831,453.70022 460.092753,464.322527 461.468429,469.311529 C462.844105,474.300531 466.396483,484.531031 471.9166,506.750808 C476.365779,524.634594 475.347083,545.382921 479.752728,564.215749 C486.091285,591.276512 495.573,608.951334 497.166346,613.844561 C498.759692,618.737788 493.701036,634.975987 484.976813,635.611584 C476.252591,636.247181 471.9166,622.55137 471.9166,622.55137 Z" id="Path" stroke="#000000" stroke-width="2" fill="#BFC0BF"></path>
                <path d="M99.2651675,166.31457 L94.041082,249.899938 L115.808105,251.6413 C115.808105,251.6413 131.637084,253.643866 145.411256,248.158576 C159.48146,242.551391 176.625167,221.907547 191.557345,214.20202 C202.641113,206.635803 218.565867,207.43683 227.255262,207.236573 C235.944658,207.036317 248.308327,204.328499 269.918627,208.107254 C277.685101,209.465516 283.370647,214.489345 291.68565,215.943382 C303.483376,218.006896 312.373029,221.602808 322.159482,223.779511 C337.93622,227.279648 351.762633,229.003596 351.762633,229.003596 C351.762633,229.003596 364.465868,226.765946 366.564209,220.296787 C368.66255,213.827628 366.564209,208.977935 366.564209,208.977935 C366.564209,208.977935 355.671991,205.712882 345.667867,203.753849 C335.646329,201.794817 326.512887,201.141807 326.512887,201.141807 C326.512887,201.141807 312.677767,197.798392 293.427012,193.305678 C285.930449,191.55561 279.05207,188.917447 271.659989,187.210912 C259.400802,184.381199 256.692984,183.632413 248.151604,182.857507 C239.610224,182.082601 239.871429,183.022937 214.195048,181.116146 C197.861074,179.905899 167.23052,177.354804 150.635342,175.021379 C137.122374,173.123295 125.968951,164.738638 116.678786,163.702527 C106.674662,162.588056 99.2651675,166.31457 99.2651675,166.31457 Z" id="Path" stroke="#000000" stroke-width="2" fill="#BFC0BF"></path>
                <path d="M427.511873,299.52875 C426.884983,299.372028 417.020168,277.674659 414.451659,272.537642 C411.883151,267.400624 408.58327,262.794722 402.262126,255.124024 C396.411151,248.01056 392.397312,244.701973 390.072594,242.934491 C387.747876,241.167008 385.745309,238.389536 379.624423,235.969043 C368.566775,231.598225 352.633314,228.132915 352.633314,228.132915 C352.633314,228.132915 349.12447,227.889124 347.409229,226.391553 C345.641746,224.841741 345.667845,223.622788 345.667845,222.038149 C345.667845,220.453509 347.861983,215.229424 352.633314,211.589978 C356.978012,208.272683 361.836411,207.880877 363.952166,208.107254 C366.067921,208.333631 376.533505,214.515466 388.331232,224.650191 C406.162777,239.965469 423.175882,257.910202 425.770511,261.21879 C428.36514,264.527377 431.116492,268.593457 432.735958,276.891046 C432.997163,278.240602 432.675011,280.826524 432.735958,282.115132 C433.180006,292.006067 428.138763,299.685473 427.511873,299.52875 Z" id="Path" stroke="#000000" stroke-width="2" fill="#8A8A89"></path>
                <path d="M73.14474,176.762741 C70.6458858,178.808841 62.2612286,189.822955 53.9897599,206.365892 C43.3935731,227.549559 36.2626964,247.975733 35.7054606,250.770619 C35.1482248,253.565505 34.7999525,260.356816 36.5761415,264.701514 C38.6918962,269.864651 42.6709079,271.666961 42.6709079,271.666961 C42.6709079,271.666961 48.4261088,275.184512 54.8604408,277.761727 C61.4776157,280.408597 65.9529156,281.853928 68.7913354,282.115132 C71.6297552,282.376336 73.8064575,282.17608 77.4981446,280.37377 C81.1898317,278.571461 84.9250528,271.553772 90.5583583,262.089471 C95.7998575,253.286887 96.1045958,247.749356 96.6531248,245.546533 C97.2016537,243.343711 96.1045958,237.336012 96.6531248,234.227682 C97.2016537,231.119351 104.245462,223.457359 108.842658,211.589978 C112.368915,202.500069 113.309251,197.876753 113.196062,193.305678 C113.082874,188.734604 111.942282,186.174802 108.842658,179.374784 C106.13484,173.445447 101.650833,167.768607 100.135848,167.185251 C96.8795018,165.93147 92.8308355,167.664125 86.2049538,169.797294 C79.3352813,172.008823 75.6435942,174.716641 73.14474,176.762741 Z" id="Path" stroke="#000000" stroke-width="2" fill="#8A8A89"></path>
                <path d="M87.9463156,286.468537 C87.3890798,285.493374 84.367817,265.337111 88.8169965,253.382662 C92.5783381,243.29147 101.093597,243.160868 101.87721,242.934491 C102.660823,242.708114 106.744317,240.931925 107.971977,241.193129 C109.199637,241.454333 111.86392,243.256643 113.196062,249.899938 C114.475963,256.30815 114.902597,264.597032 114.066743,267.313556 C113.648816,268.663112 106.961987,275.48925 101.87721,281.244451 C96.7140724,287.08672 92.3345474,290.96125 91.4290393,290.821941 C89.618023,290.543323 88.5035514,287.443699 87.9463156,286.468537 Z" id="Path" stroke="#000000" stroke-width="2" fill="#F2F1F0"></path>
                <path d="M7.84367129,119.297801 C7.84367129,119.297801 41.5825568,89.1374136 66.1792927,61.8328601 C76.3575526,50.5401286 84.4026443,38.933952 90.5583583,30.4883471 C98.19423,20.0227625 102.747891,13.9454097 102.747891,13.9454097 C102.747891,13.9454097 108.459558,7.8767637 114.066743,4.36791961 C118.838075,1.38148406 120.753573,-0.168327968 126.256276,0.0145150243 C131.758979,0.197358017 134.588692,3.98482 151.506022,6.10928144 C163.686849,7.64167985 181.431326,7.69392071 197.652111,9.5920051 C223.763832,12.6480951 251.756223,14.4155774 274.272032,17.4281334 C299.513071,20.8063753 317.806078,25.2642616 317.806078,25.2642616 C317.806078,25.2642616 367.992126,40.3792823 401.391445,55.7380937 C433.258367,70.4003603 448.408215,85.3412448 448.408215,85.3412448 C448.408215,85.3412448 466.361655,95.6936409 478.882047,135.840738 C481.990378,145.810034 485.743013,158.417494 489.330218,170.667975 C492.49079,181.481832 495.581707,191.877762 497.166346,202.012488 C501.127944,227.401543 499.778389,243.805172 499.778389,243.805172 C499.778389,243.805172 499.125378,247.514272 498.037027,249.899938 C496.948676,252.303017 495.990927,254.026966 493.683623,252.511981 C491.376318,250.996996 474.162956,228.672737 455.373662,215.943382 C431.900105,200.036042 401.382739,186.087734 371.788294,156.73708 C352.572367,137.677875 336.769508,116.441967 323.030163,98.4014586 C299.21704,67.1440137 283.849522,43.5485608 283.849522,43.5485608 C283.849522,43.5485608 279.330688,38.1416324 274.272032,34.8417517 C269.326564,31.6115255 265.991856,30.9846352 263.823861,30.4883471 C261.655865,29.992059 210.860341,30.8888603 173.273045,34.8417517 C146.604089,37.6453442 137.879866,41.9116807 131.480361,44.4192418 C125.080857,46.9268028 114.658806,57.9235028 95.7824438,74.8930738 C68.7129742,99.2286054 37.8734561,128.553139 36.5761415,129.745972 C35.278827,130.938804 34.6432299,132.897836 33.9640988,135.840738 C33.3372085,138.548556 33.9640988,141.064823 33.9640988,141.064823 C33.9640988,141.064823 37.3945816,148.317596 37.4468224,150.642314 C37.4990633,152.967032 37.3336339,155.50942 34.8347797,159.349123 C31.7351556,164.111747 28.8619086,167.002408 26.9986514,168.055932 C25.1353943,169.109456 16.9248732,170.615734 11.326395,165.443889 C5.17938768,159.76705 2.59346536,149.01414 1.74890487,146.288909 C0.904344383,143.563678 -0.0969386704,136.110649 0.00754303959,132.358014 C0.11202475,128.60538 1.47899379,125.157483 2.61958579,123.651205 C3.76017779,122.144927 7.84367129,119.297801 7.84367129,119.297801 Z" id="Path" stroke="#000000" stroke-width="2" fill="#BFC0BF"></path>
                <path d="M356.116038,66.1862647 C355.959315,67.405218 358.693253,89.52922 365.693528,112.332353 C372.171394,133.437659 378.213919,147.098642 378.753742,148.030271 C379.293564,148.961899 380.791135,151.434633 383.977827,153.254356 C386.877195,154.90865 389.349928,154.93477 390.943274,154.995718 C392.536621,155.056666 397.055455,155.596488 404.874169,153.254356 C416.323623,149.815167 431.168733,143.389542 433.998446,142.144468 C429.610214,144.068673 437.759787,141.178012 439.701406,137.5821 C441.207684,134.787214 440.572087,130.616652 440.572087,130.616652 C440.572087,130.616652 440.162867,125.044295 438.830725,120.168481 C437.550824,115.466805 435.348001,111.461672 435.348001,111.461672 C435.348001,111.461672 432.022,106.751289 424.89983,101.884182 C419.275232,98.0444794 410.324632,94.6139966 403.132807,89.6946494 C393.921003,83.3996264 385.79755,77.0958966 378.753742,72.2810311 C372.032085,67.6838358 366.564209,64.4449028 366.564209,64.4449028 C366.564209,64.4449028 363.630014,62.5032844 361.340123,62.703541 C359.050233,62.9037976 356.27276,64.9673114 356.116038,66.1862647 Z" id="Path" stroke="#000000" stroke-width="2" fill="#FFFFFF"></path>
                <path d="M397.908722,511.104213 C397.908722,511.104213 375.271018,512.619198 361.340123,515.457618 C354.278901,516.894241 350.891952,520.681703 350.891952,520.681703 C350.891952,520.681703 365.649994,517.869404 370.046932,518.06966 C374.443871,518.269917 391.970678,522.222808 396.16736,522.423065 C400.364042,522.623321 405.927693,521.94419 415.32234,520.681703 C428.051695,518.966462 441.442768,516.328298 441.442768,516.328298 C441.442768,516.328298 436.915227,515.274775 430.123916,513.716256 C427.224548,513.054538 418.613514,511.217401 413.05857,510.72982 C401.661357,509.728537 397.908722,511.104213 397.908722,511.104213 Z" id="Path" stroke="#000000" stroke-width="2"></path>
                <path d="M147.580415,259.027573 C146.64648,263.778232 149.898949,269.872998 157.337822,277.311872 C164.776695,284.750745 173.713759,290.845512 184.149014,295.596171" id="Line-6-Copy" stroke="#0E568D" stroke-width="5" stroke-linecap="square"></path>
                <path d="M130.580415,262.027573 C129.64648,266.778232 132.898949,272.872998 140.337822,280.311872 C147.776695,287.750745 156.713759,293.845512 167.149014,298.596171" id="Line-6-Copy-3" stroke="#7D4417" stroke-width="5" stroke-linecap="square"></path>
                <text id="r" font-family="Sauce Code Pro" font-size="24" font-weight="normal" fill="#FFFFFF">
                    <tspan x="207.635676" y="290.553234">r</tspan>
                </text>
                <text id="l" font-family="Sauce Code Pro" font-size="24" font-weight="normal" fill="#FFFFFF">
                    <tspan x="117.635676" y="309.553234">l</tspan>
                </text>
            </g>
            <g id="speech-tract" transform="translate(90, 78)">
                <path d="M35.7054606,316.942369 C29.7151759,317.943652 26.9986514,329.131901 26.9986514,329.131901 C26.9986514,329.131901 24.7871219,336.436914 26.9986514,343.062796 C29.1405265,349.497128 32.9541089,353.119161 34.8347797,355.252329 C36.7154505,357.385497 38.9182732,361.03365 44.4122698,368.312543 C48.5741246,373.823953 54.5992365,379.204761 58.3431644,389.208885 C63.9068155,404.080115 65.5001616,422.425362 67.9206545,436.225654 C69.8274457,447.109166 72.6484519,455.180378 74.0154209,457.121996 C75.38239,459.063615 75.4868717,461.710485 90.5583583,464.958124 C103.383488,467.718183 127.353334,467.465685 146.281937,467.570167 C163.991587,467.665942 187.647987,465.828805 203.746877,463.216763 C222.544878,460.160673 227.176901,456.991394 232.479348,456.251315 C237.781794,455.511236 251.268642,451.210073 267.306584,464.087443 C282.125574,475.989652 284.720203,480.630381 284.720203,480.630381 C284.720203,480.630381 287.506382,485.558435 290.814969,494.561276 C297.049044,511.609208 289.282571,516.206403 293.427012,527.64715 C297.493092,538.861521 304.615262,532.592618 314.453956,559.775276 C327.688306,596.526718 340.443781,632.12886 340.443781,632.12886 C340.443781,632.12886 343.108065,641.924021 350.891952,644.318393 C353.808733,645.215194 356.237933,643.665382 359.598762,643.447712 C366.720931,642.986251 374.400337,642.577031 374.400337,642.577031 L406.615531,640.835669 L377.01238,611.232518 L342.185143,533.741917 L324.771525,457.992677 L364.822847,402.269098 L383.107146,374.407309 C383.107146,374.407309 402.06187,350.376516 370.917613,325.649178 C355.349839,314.043001 351.327293,309.036586 336.090377,304.752836 C263.275332,284.283127 223.163062,305.780239 210.712325,307.364879 C186.054641,310.49933 154.988746,309.976921 154.988746,309.976921 C154.988746,309.976921 144.218423,311.422252 142.799213,323.907816 C141.380003,336.39338 147.631492,339.493004 149.764661,341.321434 C151.897829,343.149864 153.473761,344.830278 157.600789,349.157562 C162.049968,353.824412 167.909651,359.544786 170.661003,365.7005 C174.065365,373.310251 170.486866,380.780693 168.919641,382.243437 C164.80132,386.08314 153.299625,376.366341 151.506022,374.407309 C145.010743,367.302553 139.525453,357.890492 134.963085,352.640286 C132.107252,349.349112 129.739,349.157562 129.739,349.157562 L112.325381,361.347095 L112.325381,390.950246 L101.006529,393.562289 L92.2997202,389.208885 C92.2997202,389.208885 89.9837089,377.472106 86.2049538,364.829819 C81.3987951,348.730929 77.4720242,334.486589 74.8861018,330.873263 C72.3001795,327.259937 61.7997677,314.913682 35.7054606,316.942369 Z" id="Path" stroke="#000000" stroke-width="2" fill="#8A8A89"></path>
                <path d="M416.193021,642.577031 C415.818628,642.916597 402.427556,641.035926 388.331232,636.482265 C378.544778,633.321693 368.558068,627.714508 363.081485,624.292732 C349.707826,615.934195 338.70242,577.275963 338.70242,577.275963 C338.70242,577.275963 325.293933,543.11915 315.194035,514.586937 C308.707462,496.250397 303.875183,478.889019 303.875183,478.889019 C303.875183,478.889019 301.524344,468.318953 291.68565,459.734039 C281.09817,450.496114 269.465873,447.074338 266.435903,445.803144 C263.405934,444.53195 259.217959,441.963441 260.341137,439.708378 C261.385954,437.618744 269.918627,437.967016 269.918627,437.967016 C269.918627,437.967016 277.302001,438.567786 285.590884,434.484292 C290.249027,432.185695 295.203201,426.16929 300.392459,423.16544 C314.419129,415.033281 328.254249,409.234546 328.254249,409.234546 L379.624423,389.208885 C379.624423,389.208885 393.468249,384.219883 404.003488,376.148671 C413.90313,368.56504 419.344886,357.829544 420.546426,357.864287 C421.747965,357.899199 423.86372,360.798566 423.804061,364.06362 C423.724411,368.704349 422.287787,374.407309 422.287787,374.407309 C422.287787,374.407309 419.101095,386.08314 416.193021,390.950246 C408.531029,403.79279 397.908722,413.58795 397.908722,413.58795 C397.908722,413.58795 385.074885,430.461746 372.658975,449.285868 C358.240499,471.148666 345.502437,491.722856 344.797186,492.819914 C344.091934,493.916972 340.382834,500.629922 343.055824,507.621489 C347.661726,519.6543 356.795169,530.276607 359.598762,536.35396 C362.402354,542.431312 362.559077,542.823119 366.816706,552.130698 C372.040792,563.545325 377.935302,579.731283 383.977827,592.948219 C390.534054,607.27092 395.287972,615.507562 397.038041,618.197966 C397.725879,619.25149 400.83421,623.247915 404.351761,627.705801 C407.103112,631.197232 410.4117,633.609018 412.710297,636.482265 C414.939241,639.268444 416.567414,642.237466 416.193021,642.577031 Z" id="Path" stroke="#000000" stroke-width="2" fill="#BFC0BF"></path>
                <path d="M75.7567828,450.156549 C75.7567828,450.156549 81.7993083,442.215939 85.3342728,421.424079 C89.1826825,398.760254 89.6876774,369.183224 89.6876774,369.183224 C89.6876774,369.183224 92.7698879,346.145007 103.618572,346.54552 C107.728186,346.693535 121.432704,335.191841 126.256276,338.709391 C129.869602,341.347555 129.930549,346.475865 131.480361,351.769605 C134.179472,360.972703 137.575128,370.924585 137.575128,370.924585 C137.575128,370.924585 140.622511,380.728453 143.669894,390.079566 C146.717277,399.448092 148.89398,408.363865 148.89398,408.363865 C148.89398,408.363865 152.307049,424.567237 142.799213,434.484292 C131.933115,445.811851 111.968402,449.329402 108.842658,451.02723 C105.716913,452.725057 94.4154748,459.289992 93.1704011,459.734039 C91.9253274,460.178086 81.9734445,461.327385 77.4981446,458.863358 C73.2666353,456.53864 75.7567828,450.156549 75.7567828,450.156549 Z" id="Path" stroke="#000000" stroke-width="2" fill="#BFC0BF"></path>
                <path d="M99.2651675,309.976921 C99.2651675,309.976921 97.3235491,319.06683 97.5238057,327.39054 C97.7588895,337.220527 100.135848,346.54552 100.135848,346.54552 C100.135848,346.54552 100.858514,348.565499 102.747891,350.028243 C105.734327,352.352961 109.62627,353.510967 114.937424,353.510967 C118.185064,353.510967 127.649365,353.510967 129.739,346.54552 C131.053728,342.174702 127.997638,335.226668 127.997638,335.226668 L107.101296,308.235559 C107.101296,308.235559 104.637269,305.20559 102.747891,305.623517 C100.719205,306.076271 99.2651675,309.976921 99.2651675,309.976921 Z" id="Path" stroke="#000000" stroke-width="2" fill="#F2F1F0"></path>
                <path d="M471.9166,622.55137 C471.9166,622.55137 465.760886,601.881405 459.727067,577.275963 C456.270464,563.188345 453.79773,548.856937 450.149577,533.741917 C448.033822,524.982867 446.849696,516.206403 444.925491,508.49217 C439.832008,488.10953 434.47732,474.535614 434.47732,474.535614 C434.47732,474.535614 431.386403,461.606003 433.606639,452.768592 C435.147745,446.647705 441.399234,442.067923 444.05481,441.44974 C447.023832,440.761902 452.247918,440.892504 455.373662,446.673825 C459.169831,453.70022 460.092753,464.322527 461.468429,469.311529 C462.844105,474.300531 466.396483,484.531031 471.9166,506.750808 C476.365779,524.634594 475.347083,545.382921 479.752728,564.215749 C486.091285,591.276512 495.573,608.951334 497.166346,613.844561 C498.759692,618.737788 493.701036,634.975987 484.976813,635.611584 C476.252591,636.247181 471.9166,622.55137 471.9166,622.55137 Z" id="Path" stroke="#000000" stroke-width="2" fill="#BFC0BF"></path>
                <path d="M99.2651675,166.31457 L94.041082,249.899938 L115.808105,251.6413 C115.808105,251.6413 131.637084,253.643866 145.411256,248.158576 C159.48146,242.551391 176.625167,221.907547 191.557345,214.20202 C202.641113,206.635803 218.565867,207.43683 227.255262,207.236573 C235.944658,207.036317 248.308327,204.328499 269.918627,208.107254 C277.685101,209.465516 283.370647,214.489345 291.68565,215.943382 C303.483376,218.006896 312.373029,221.602808 322.159482,223.779511 C337.93622,227.279648 351.762633,229.003596 351.762633,229.003596 C351.762633,229.003596 364.465868,226.765946 366.564209,220.296787 C368.66255,213.827628 366.564209,208.977935 366.564209,208.977935 C366.564209,208.977935 355.671991,205.712882 345.667867,203.753849 C335.646329,201.794817 326.512887,201.141807 326.512887,201.141807 C326.512887,201.141807 312.677767,197.798392 293.427012,193.305678 C285.930449,191.55561 279.05207,188.917447 271.659989,187.210912 C259.400802,184.381199 256.692984,183.632413 248.151604,182.857507 C239.610224,182.082601 239.871429,183.022937 214.195048,181.116146 C197.861074,179.905899 167.23052,177.354804 150.635342,175.021379 C137.122374,173.123295 125.968951,164.738638 116.678786,163.702527 C106.674662,162.588056 99.2651675,166.31457 99.2651675,166.31457 Z" id="Path" stroke="#000000" stroke-width="2" fill="#BFC0BF"></path>
                <path d="M427.511873,299.52875 C426.884983,299.372028 417.020168,277.674659 414.451659,272.537642 C411.883151,267.400624 408.58327,262.794722 402.262126,255.124024 C396.411151,248.01056 392.397312,244.701973 390.072594,242.934491 C387.747876,241.167008 385.745309,238.389536 379.624423,235.969043 C368.566775,231.598225 352.633314,228.132915 352.633314,228.132915 C352.633314,228.132915 349.12447,227.889124 347.409229,226.391553 C345.641746,224.841741 345.667845,223.622788 345.667845,222.038149 C345.667845,220.453509 347.861983,215.229424 352.633314,211.589978 C356.978012,208.272683 361.836411,207.880877 363.952166,208.107254 C366.067921,208.333631 376.533505,214.515466 388.331232,224.650191 C406.162777,239.965469 423.175882,257.910202 425.770511,261.21879 C428.36514,264.527377 431.116492,268.593457 432.735958,276.891046 C432.997163,278.240602 432.675011,280.826524 432.735958,282.115132 C433.180006,292.006067 428.138763,299.685473 427.511873,299.52875 Z" id="Path" stroke="#000000" stroke-width="2" fill="#8A8A89"></path>
                <path d="M73.14474,176.762741 C70.6458858,178.808841 62.2612286,189.822955 53.9897599,206.365892 C43.3935731,227.549559 36.2626964,247.975733 35.7054606,250.770619 C35.1482248,253.565505 34.7999525,260.356816 36.5761415,264.701514 C38.6918962,269.864651 42.6709079,271.666961 42.6709079,271.666961 C42.6709079,271.666961 48.4261088,275.184512 54.8604408,277.761727 C61.4776157,280.408597 65.9529156,281.853928 68.7913354,282.115132 C71.6297552,282.376336 73.8064575,282.17608 77.4981446,280.37377 C81.1898317,278.571461 84.9250528,271.553772 90.5583583,262.089471 C95.7998575,253.286887 96.1045958,247.749356 96.6531248,245.546533 C97.2016537,243.343711 96.1045958,237.336012 96.6531248,234.227682 C97.2016537,231.119351 104.245462,223.457359 108.842658,211.589978 C112.368915,202.500069 113.309251,197.876753 113.196062,193.305678 C113.082874,188.734604 111.942282,186.174802 108.842658,179.374784 C106.13484,173.445447 101.650833,167.768607 100.135848,167.185251 C96.8795018,165.93147 92.8308355,167.664125 86.2049538,169.797294 C79.3352813,172.008823 75.6435942,174.716641 73.14474,176.762741 Z" id="Path" stroke="#000000" stroke-width="2" fill="#8A8A89"></path>
                <path d="M87.9463156,286.468537 C87.3890798,285.493374 84.367817,265.337111 88.8169965,253.382662 C92.5783381,243.29147 101.093597,243.160868 101.87721,242.934491 C102.660823,242.708114 106.744317,240.931925 107.971977,241.193129 C109.199637,241.454333 111.86392,243.256643 113.196062,249.899938 C114.475963,256.30815 114.902597,264.597032 114.066743,267.313556 C113.648816,268.663112 106.961987,275.48925 101.87721,281.244451 C96.7140724,287.08672 92.3345474,290.96125 91.4290393,290.821941 C89.618023,290.543323 88.5035514,287.443699 87.9463156,286.468537 Z" id="Path" stroke="#000000" stroke-width="2" fill="#F2F1F0"></path>
                <path d="M7.84367129,119.297801 C7.84367129,119.297801 41.5825568,89.1374136 66.1792927,61.8328601 C76.3575526,50.5401286 84.4026443,38.933952 90.5583583,30.4883471 C98.19423,20.0227625 102.747891,13.9454097 102.747891,13.9454097 C102.747891,13.9454097 108.459558,7.8767637 114.066743,4.36791961 C118.838075,1.38148406 120.753573,-0.168327968 126.256276,0.0145150243 C131.758979,0.197358017 134.588692,3.98482 151.506022,6.10928144 C163.686849,7.64167985 181.431326,7.69392071 197.652111,9.5920051 C223.763832,12.6480951 251.756223,14.4155774 274.272032,17.4281334 C299.513071,20.8063753 317.806078,25.2642616 317.806078,25.2642616 C317.806078,25.2642616 367.992126,40.3792823 401.391445,55.7380937 C433.258367,70.4003603 448.408215,85.3412448 448.408215,85.3412448 C448.408215,85.3412448 466.361655,95.6936409 478.882047,135.840738 C481.990378,145.810034 485.743013,158.417494 489.330218,170.667975 C492.49079,181.481832 495.581707,191.877762 497.166346,202.012488 C501.127944,227.401543 499.778389,243.805172 499.778389,243.805172 C499.778389,243.805172 499.125378,247.514272 498.037027,249.899938 C496.948676,252.303017 495.990927,254.026966 493.683623,252.511981 C491.376318,250.996996 474.162956,228.672737 455.373662,215.943382 C431.900105,200.036042 401.382739,186.087734 371.788294,156.73708 C352.572367,137.677875 336.769508,116.441967 323.030163,98.4014586 C299.21704,67.1440137 283.849522,43.5485608 283.849522,43.5485608 C283.849522,43.5485608 279.330688,38.1416324 274.272032,34.8417517 C269.326564,31.6115255 265.991856,30.9846352 263.823861,30.4883471 C261.655865,29.992059 210.860341,30.8888603 173.273045,34.8417517 C146.604089,37.6453442 137.879866,41.9116807 131.480361,44.4192418 C125.080857,46.9268028 114.658806,57.9235028 95.7824438,74.8930738 C68.7129742,99.2286054 37.8734561,128.553139 36.5761415,129.745972 C35.278827,130.938804 34.6432299,132.897836 33.9640988,135.840738 C33.3372085,138.548556 33.9640988,141.064823 33.9640988,141.064823 C33.9640988,141.064823 37.3945816,148.317596 37.4468224,150.642314 C37.4990633,152.967032 37.3336339,155.50942 34.8347797,159.349123 C31.7351556,164.111747 28.8619086,167.002408 26.9986514,168.055932 C25.1353943,169.109456 16.9248732,170.615734 11.326395,165.443889 C5.17938768,159.76705 2.59346536,149.01414 1.74890487,146.288909 C0.904344383,143.563678 -0.0969386704,136.110649 0.00754303959,132.358014 C0.11202475,128.60538 1.47899379,125.157483 2.61958579,123.651205 C3.76017779,122.144927 7.84367129,119.297801 7.84367129,119.297801 Z" id="Path" stroke="#000000" stroke-width="2" fill="#BFC0BF"></path>
                <path d="M356.116038,66.1862647 C355.959315,67.405218 358.693253,89.52922 365.693528,112.332353 C372.171394,133.437659 378.213919,147.098642 378.753742,148.030271 C379.293564,148.961899 380.791135,151.434633 383.977827,153.254356 C386.877195,154.90865 389.349928,154.93477 390.943274,154.995718 C392.536621,155.056666 397.055455,155.596488 404.874169,153.254356 C416.323623,149.815167 431.168733,143.389542 433.998446,142.144468 C429.610214,144.068673 437.759787,141.178012 439.701406,137.5821 C441.207684,134.787214 440.572087,130.616652 440.572087,130.616652 C440.572087,130.616652 440.162867,125.044295 438.830725,120.168481 C437.550824,115.466805 435.348001,111.461672 435.348001,111.461672 C435.348001,111.461672 432.022,106.751289 424.89983,101.884182 C419.275232,98.0444794 410.324632,94.6139966 403.132807,89.6946494 C393.921003,83.3996264 385.79755,77.0958966 378.753742,72.2810311 C372.032085,67.6838358 366.564209,64.4449028 366.564209,64.4449028 C366.564209,64.4449028 363.630014,62.5032844 361.340123,62.703541 C359.050233,62.9037976 356.27276,64.9673114 356.116038,66.1862647 Z" id="Path" stroke="#000000" stroke-width="2" fill="#FFFFFF"></path>
                <path d="M397.908722,511.104213 C397.908722,511.104213 375.271018,512.619198 361.340123,515.457618 C354.278901,516.894241 350.891952,520.681703 350.891952,520.681703 C350.891952,520.681703 365.649994,517.869404 370.046932,518.06966 C374.443871,518.269917 391.970678,522.222808 396.16736,522.423065 C400.364042,522.623321 405.927693,521.94419 415.32234,520.681703 C428.051695,518.966462 441.442768,516.328298 441.442768,516.328298 C441.442768,516.328298 436.915227,515.274775 430.123916,513.716256 C427.224548,513.054538 418.613514,511.217401 413.05857,510.72982 C401.661357,509.728537 397.908722,511.104213 397.908722,511.104213 Z" id="Path" stroke="#000000" stroke-width="2"></path>
                <path d="M147.580415,259.027573 C152.020694,256.212177 158.11546,258.679106 165.864715,266.42836 C173.613969,274.177615 179.708736,283.900219 184.149014,295.596171" id="Line-6-Copy" stroke="#0E568D" stroke-width="5" stroke-linecap="square"></path>
                <path d="M130.580415,262.027573 C135.020694,259.212177 141.11546,261.679106 148.864715,269.42836 C156.613969,277.177615 162.708736,286.900219 167.149014,298.596171" id="Line-6-Copy-2" stroke="#7D4417" stroke-width="5" stroke-linecap="square"></path>
                <text id="r" font-family="Sauce Code Pro" font-size="24" font-weight="normal" fill="#0E568D">
                    <tspan x="207.635676" y="290.553234">r</tspan>
                </text>
                <text id="l" font-family="Sauce Code Pro" font-size="24" font-weight="normal" fill="#7D4417">
                    <tspan x="117.635676" y="309.553234">l</tspan>
                </text>
            </g>
        </g>
    </g>
</svg>