<?xml version="1.0" encoding="UTF-8"?>
<svg width="1280px" height="550px" viewBox="0 0 1280 550" version="1.1" xmlns="http://www.w3.org/2000/svg" xmlns:xlink="http://www.w3.org/1999/xlink">
    <title>vowels-mouth-shape-aʊ</title>
    <g id="vowels-mouth-shape-aʊ" stroke="none" stroke-width="1" fill="none" fill-rule="evenodd">
        <text id="ʊ" font-family="CharisSIL, SauceCodePro Nerd Font" font-size="24" font-weight="normal" fill="#000000">
            <tspan x="865" y="251">ʊ</tspan>
        </text>
        <text id="ʊ" font-family="CharisSIL, SauceCodePro Nerd Font" font-size="24" font-weight="normal" fill="#000000">
            <tspan x="865" y="481">ʊ</tspan>
        </text>
        <text id="ɑ" font-family="CharisSIL, SauceCodePro Nerd Font" font-size="24" font-weight="normal" fill="#000000">
            <tspan x="407" y="251">ɑ</tspan>
        </text>
        <text id="ə" font-family="CharisSIL, SauceCodePro Nerd Font" font-size="24" font-weight="normal" fill="#000000">
            <tspan x="407" y="481">ə</tspan>
        </text>
        <path id="Line-17" d="M682.640179,124.51306 L696.472652,131.838542 L682.312783,138.509231 L682.453,132.511 L596.476615,130.499727 L595.476888,130.476341 L595.523659,128.476888 L596.523385,128.500273 L682.499,130.511 L682.640179,124.51306 Z" transform="translate(646.4863, 130.6693) rotate(-1.34) translate(-646.4863, -130.6693)" fill="#656464" fill-rule="nonzero"></path>
        <path id="Line-17-Copy" d="M690.640179,360.51306 L704.472652,367.838542 L690.312783,374.509231 L690.453,368.511 L604.476615,366.499727 L603.476888,366.476341 L603.523659,364.476888 L604.523385,364.500273 L690.499,366.511 L690.640179,360.51306 Z" transform="translate(654.4863, 366.6693) rotate(-1.34) translate(-654.4863, -366.6693)" fill="#656464" fill-rule="nonzero"></path>
        <path d="M433,197.917197 C430,197.417197 415,197.117197 399.8,197.017197 L372.1,196.917197 L364.8,193.117197 C356.1,188.617197 347.5,182.517197 327.8,166.717197 C311.7,154.017197 306.8,150.717197 300.3,148.817197 C297.9,148.117197 296,147.217197 296,146.817197 C296,145.917197 302.8,137.617197 313.9,124.917197 C337.6,97.8171968 356.4,79.8171968 366.2,74.8171968 C379.5,68.0171968 392.3,63.6171968 400.1,63.1171968 C415.5,62.2171968 441.7,66.6171968 453.5,72.3171968 C463,76.8171968 470.5,83.4171968 486.9,101.817197 C505,122.117197 516.5,133.117197 523.2,136.517197 C526.1,137.917197 529.3,139.817197 530.3,140.717197 C532.8,142.917197 532.4,145.817197 529.5,146.917197 C528.2,147.417197 522.9,151.617197 517.9,156.117197 C495,176.717197 486.6,183.117197 468.4,193.317197 L458.5,198.917197 L448.5,198.817197 C443,198.717197 436,198.317197 433,197.917197 Z M457.2,193.517197 C472.6,187.717197 490.3,176.517197 502.5,164.817197 C506.4,161.117197 512,155.817197 515,153.017197 C518,150.317197 520.2,147.717197 519.8,147.417197 C518.7,146.317197 508.8,150.517197 502.1,154.917197 C495.6,159.217197 480.7,166.517197 468.7,171.317197 C460.9,174.417197 454.4,174.817197 442,173.017197 C435.7,172.117197 431.6,172.117197 426,172.817197 C413.8,174.517197 408.8,175.617197 404.2,177.417197 C397.4,180.217197 387.1,177.717197 369.2,168.917197 C364.7,166.717197 360.4,164.917197 359.7,164.917197 C359,164.917197 358,164.517197 357.5,164.017197 C356.2,162.817197 338.9,155.617197 332.5,153.617197 C326.1,151.617197 315.1,149.517197 314.5,150.117197 C313.5,151.117197 356.4,184.217197 364,188.317197 C366.7,189.817197 372.2,191.717197 376.1,192.517197 C382.7,193.917197 385.6,193.817197 398.5,192.317197 C407.6,191.317197 426,192.117197 433.5,193.817197 C444.4,196.417197 449.8,196.317197 457.2,193.517197 Z M324.5,145.017197 C324.2,144.417197 325,143.517197 326.2,142.817197 C327.5,142.217197 330.3,140.217197 332.5,138.417197 C336.8,135.017197 344,131.117197 351.7,128.017197 C356.3,126.217197 367.1,119.917197 377.3,112.917197 C383.4,108.817197 401.2,103.717197 409.5,103.717197 C415.4,103.717197 428.8,106.017197 443.5,109.417197 C451,111.217197 460,115.417197 474.5,124.017197 C488.2,132.117197 504.5,139.717197 509,140.317197 C511.3,140.517197 513.6,141.217197 514.3,141.717197 C515.4,142.617197 520,141.617197 520,140.617197 C520,140.417197 516.9,137.917197 513.2,135.117197 C509.5,132.317197 504.5,127.917197 502.1,125.217197 C499.8,122.617197 494.8,117.017197 491.1,112.917197 C487.3,108.817197 480.9,101.317197 476.7,96.3171968 C472.6,91.3171968 467.3,85.6171968 465.1,83.6171968 C457.6,76.8171968 441.1,69.9171968 432.6,69.9171968 C430.3,69.9171968 422.7,68.9171968 415.6,67.7171968 C405.1,66.0171968 401.9,65.8171968 398.1,66.6171968 C391.7,68.1171968 384.6,70.7171968 377.5,74.0171968 C374.2,75.5171968 370.2,77.1171968 368.7,77.5171968 C362.7,78.9171968 322.9,118.217197 312.1,133.317197 C305,143.117197 305.1,143.417197 313,144.417197 C315.5,144.817197 318,145.217197 318.5,145.417197 C320.7,146.217197 325.1,145.817197 324.5,145.017197 Z" id="shape-a" fill="#000000" fill-rule="nonzero" transform="translate(413.975, 130.9586) scale(1, -1) translate(-413.975, -130.9586)"></path>
        <path d="M810.550068,198.207321 C804.850068,194.907321 799.150068,189.507321 789.350068,178.507321 C784.050068,172.407321 775.250068,162.807321 769.850068,157.007321 C764.450068,151.307321 758.850068,144.807321 757.350068,142.707321 L754.750068,138.707321 L759.250068,134.507321 C761.750068,132.307321 769.150068,125.807321 775.750068,120.207321 C782.250068,114.507321 793.050068,104.907321 799.650068,98.8073212 C812.650068,86.7073212 817.850068,83.0073212 838.150068,71.3073212 C851.050068,63.8073212 851.950068,63.5073212 859.050068,63.1073212 C868.750068,62.5073212 888.650068,64.5073212 899.150068,67.0073212 C914.650068,70.7073212 918.850068,73.3073212 936.150068,90.8073212 C944.650068,99.4073212 957.250068,113.407321 964.150068,121.907321 C975.350068,135.707321 977.350068,137.707321 982.550068,140.207321 L988.450068,143.007321 L985.450068,144.907321 C983.750068,145.907321 974.550068,154.607321 964.950068,164.107321 C945.850068,183.307321 944.350068,184.307321 926.150068,190.007321 L915.650068,193.307321 L891.650068,193.507321 C868.450068,193.607321 867.350068,193.707321 858.650068,196.407321 C850.550068,198.907321 847.850068,199.207321 831.650068,199.507321 C815.850068,199.907321 813.250068,199.707321 810.550068,198.207321 Z M846.750068,194.607321 C850.550068,193.807321 858.150068,191.707321 863.550068,189.907321 C872.950068,186.707321 873.650068,186.607321 879.050068,187.807321 C882.150068,188.507321 889.450068,189.307321 895.250068,189.607321 C904.250068,190.107321 907.250068,189.807321 914.750068,187.907321 C940.150068,181.507321 947.750068,177.807321 957.450068,166.607321 C960.350068,163.407321 966.150068,157.007321 970.450068,152.407321 C979.450068,142.907321 979.350068,142.507321 967.250068,143.407321 C948.650068,144.807321 936.650068,147.407321 925.550068,152.307321 C918.850068,155.407321 919.050068,155.307321 909.750068,160.407321 C899.650068,165.907321 893.850068,166.807321 882.250068,164.707321 C872.150068,162.807321 869.050068,162.907321 862.350068,165.307321 C855.350068,167.807321 849.250068,168.207321 843.150068,166.407321 C840.150068,165.607321 837.250068,164.707321 836.650068,164.607321 C836.150068,164.507321 835.150068,164.007321 834.550068,163.707321 C833.950068,163.307321 827.650068,160.907321 820.550068,158.307321 C813.450068,155.807321 805.550068,152.607321 803.050068,151.307321 C800.450068,150.007321 798.150068,149.307321 797.750068,149.607321 C797.450068,150.007321 797.150068,149.707321 797.150068,149.107321 C797.150068,146.307321 773.950068,141.207321 765.350068,142.107321 L761.950068,142.407321 L774.450068,154.907321 C781.250068,161.807321 790.350068,171.907321 794.550068,177.307321 C802.050068,186.907321 808.450068,192.907321 813.350068,194.907321 C816.850068,196.307321 838.750068,196.107321 846.750068,194.607321 Z M809.750068,139.307321 C817.850068,135.707321 824.050068,132.607321 830.250068,129.207321 C840.150068,123.607321 863.450068,117.007321 874.050068,116.807321 C882.450068,116.607321 905.550068,124.007321 922.650068,132.407321 C940.550068,141.207321 940.550068,141.207321 948.550068,140.607321 C962.750068,139.507321 971.150068,138.607321 971.150068,138.207321 C971.150068,137.407321 961.950068,124.307321 959.250068,121.407321 C957.850068,119.807321 954.550068,115.707321 952.050068,112.407321 C947.250068,106.207321 925.250068,84.3073212 919.150068,79.7073212 C908.350068,71.6073212 877.850068,65.3073212 858.950068,67.3073212 C853.650068,67.9073212 850.850068,68.9073212 844.550068,72.7073212 C840.150068,75.2073212 836.450068,77.6073212 836.150068,77.9073212 C835.850068,78.2073212 832.450068,80.1073212 828.450068,82.1073212 C816.750068,88.1073212 810.950068,92.2073212 805.150068,99.0073212 C796.350068,109.307321 789.950068,115.407321 780.050068,123.007321 C777.450068,124.907321 773.050068,128.607321 770.250068,131.107321 L765.050068,135.807321 L768.850068,136.407321 C777.250068,137.707321 788.950068,140.007321 793.650068,141.307321 C800.750068,143.307321 801.050068,143.307321 809.750068,139.307321 Z" id="shape-u" fill="#000000" fill-rule="nonzero" transform="translate(871.6001, 131.3435) scale(1, -1) translate(-871.6001, -131.3435)"></path>
        <path d="M810.550068,438.207321 C804.850068,434.907321 799.150068,429.507321 789.350068,418.507321 C784.050068,412.407321 775.250068,402.807321 769.850068,397.007321 C764.450068,391.307321 758.850068,384.807321 757.350068,382.707321 L754.750068,378.707321 L759.250068,374.507321 C761.750068,372.307321 769.150068,365.807321 775.750068,360.207321 C782.250068,354.507321 793.050068,344.907321 799.650068,338.807321 C812.650068,326.707321 817.850068,323.007321 838.150068,311.307321 C851.050068,303.807321 851.950068,303.507321 859.050068,303.107321 C868.750068,302.507321 888.650068,304.507321 899.150068,307.007321 C914.650068,310.707321 918.850068,313.307321 936.150068,330.807321 C944.650068,339.407321 957.250068,353.407321 964.150068,361.907321 C975.350068,375.707321 977.350068,377.707321 982.550068,380.207321 L988.450068,383.007321 L985.450068,384.907321 C983.750068,385.907321 974.550068,394.607321 964.950068,404.107321 C945.850068,423.307321 944.350068,424.307321 926.150068,430.007321 L915.650068,433.307321 L891.650068,433.507321 C868.450068,433.607321 867.350068,433.707321 858.650068,436.407321 C850.550068,438.907321 847.850068,439.207321 831.650068,439.507321 C815.850068,439.907321 813.250068,439.707321 810.550068,438.207321 Z M846.750068,434.607321 C850.550068,433.807321 858.150068,431.707321 863.550068,429.907321 C872.950068,426.707321 873.650068,426.607321 879.050068,427.807321 C882.150068,428.507321 889.450068,429.307321 895.250068,429.607321 C904.250068,430.107321 907.250068,429.807321 914.750068,427.907321 C940.150068,421.507321 947.750068,417.807321 957.450068,406.607321 C960.350068,403.407321 966.150068,397.007321 970.450068,392.407321 C979.450068,382.907321 979.350068,382.507321 967.250068,383.407321 C948.650068,384.807321 936.650068,387.407321 925.550068,392.307321 C918.850068,395.407321 919.050068,395.307321 909.750068,400.407321 C899.650068,405.907321 893.850068,406.807321 882.250068,404.707321 C872.150068,402.807321 869.050068,402.907321 862.350068,405.307321 C855.350068,407.807321 849.250068,408.207321 843.150068,406.407321 C840.150068,405.607321 837.250068,404.707321 836.650068,404.607321 C836.150068,404.507321 835.150068,404.007321 834.550068,403.707321 C833.950068,403.307321 827.650068,400.907321 820.550068,398.307321 C813.450068,395.807321 805.550068,392.607321 803.050068,391.307321 C800.450068,390.007321 798.150068,389.307321 797.750068,389.607321 C797.450068,390.007321 797.150068,389.707321 797.150068,389.107321 C797.150068,386.307321 773.950068,381.207321 765.350068,382.107321 L761.950068,382.407321 L774.450068,394.907321 C781.250068,401.807321 790.350068,411.907321 794.550068,417.307321 C802.050068,426.907321 808.450068,432.907321 813.350068,434.907321 C816.850068,436.307321 838.750068,436.107321 846.750068,434.607321 Z M809.750068,379.307321 C817.850068,375.707321 824.050068,372.607321 830.250068,369.207321 C840.150068,363.607321 863.450068,357.007321 874.050068,356.807321 C882.450068,356.607321 905.550068,364.007321 922.650068,372.407321 C940.550068,381.207321 940.550068,381.207321 948.550068,380.607321 C962.750068,379.507321 971.150068,378.607321 971.150068,378.207321 C971.150068,377.407321 961.950068,364.307321 959.250068,361.407321 C957.850068,359.807321 954.550068,355.707321 952.050068,352.407321 C947.250068,346.207321 925.250068,324.307321 919.150068,319.707321 C908.350068,311.607321 877.850068,305.307321 858.950068,307.307321 C853.650068,307.907321 850.850068,308.907321 844.550068,312.707321 C840.150068,315.207321 836.450068,317.607321 836.150068,317.907321 C835.850068,318.207321 832.450068,320.107321 828.450068,322.107321 C816.750068,328.107321 810.950068,332.207321 805.150068,339.007321 C796.350068,349.307321 789.950068,355.407321 780.050068,363.007321 C777.450068,364.907321 773.050068,368.607321 770.250068,371.107321 L765.050068,375.807321 L768.850068,376.407321 C777.250068,377.707321 788.950068,380.007321 793.650068,381.307321 C800.750068,383.307321 801.050068,383.307321 809.750068,379.307321 Z" id="shape-u" fill="#000000" fill-rule="nonzero" transform="translate(871.6001, 371.3435) scale(1, -1) translate(-871.6001, -371.3435)"></path>
        <path d="M359.465248,422.459945 C350.365248,420.559945 340.065248,414.459945 326.865248,403.159945 C319.365248,396.759945 292.865248,372.359945 292.465248,371.459945 C292.265248,371.159945 294.065248,369.859945 296.465248,368.559945 C303.465248,364.559945 315.965248,355.259945 330.165248,343.359945 C351.565248,325.459945 360.965248,318.559945 370.765248,313.859945 L379.965248,309.359945 L401.765248,310.459945 C433.765248,311.959945 448.965248,313.359945 454.865248,315.459945 C462.465248,318.159945 472.365248,325.359945 493.665248,343.959945 C513.565248,361.359945 519.465248,365.459945 527.565248,367.959945 C532.965248,369.559945 535.465248,371.259945 534.565248,372.559945 C534.265248,373.059945 533.265248,373.459945 532.165248,373.459945 C531.165248,373.459945 528.065248,376.159945 525.165248,379.459945 C522.365248,382.759945 516.965248,387.759945 513.365248,390.659945 C509.665248,393.559945 503.365248,398.959945 499.365248,402.659945 C479.065248,421.359945 457.965248,426.359945 418.265248,421.859945 C406.365248,420.459945 402.765248,420.459945 396.765248,421.459945 C387.565248,422.959945 364.865248,423.659945 359.465248,422.459945 Z M462.165248,417.759945 C470.065248,415.959945 480.265248,412.059945 485.665248,408.659945 C487.865248,407.259945 493.065248,402.759945 497.165248,398.559945 C501.365248,394.359945 508.265248,388.259945 512.665248,384.959945 C521.565248,378.159945 523.165248,376.659945 523.165248,375.359945 C523.165248,373.459945 503.665248,375.159945 502.365248,377.159945 C501.965248,377.659945 500.365248,378.159945 498.665248,378.259945 C494.865248,378.359945 478.765248,384.159945 469.665248,388.659945 C465.865248,390.659945 459.565248,393.459945 455.665248,394.959945 C448.165248,397.959945 445.065248,398.159945 418.665248,397.459945 C411.565248,397.159945 406.265248,397.559945 403.865248,398.359945 C401.765248,399.059945 396.765248,399.659945 392.765248,399.759945 C387.065248,399.859945 384.665248,399.359945 381.165248,397.559945 C375.565248,394.659945 365.965248,390.959945 364.765248,391.259945 C364.265248,391.459945 363.165248,390.859945 362.165248,389.959945 C358.965248,387.059945 341.665248,378.659945 333.465248,376.159945 C326.565248,373.959945 324.165248,373.659945 316.565248,374.059945 C304.665248,374.759945 304.165248,374.859945 304.165248,375.259945 C304.165248,376.859945 319.965248,392.159945 330.165248,400.459945 C344.765248,412.359945 348.265248,414.559945 357.565248,417.559945 C363.565248,419.459945 365.965248,419.659945 375.065248,419.159945 C380.965248,418.859945 388.965248,417.859945 392.965248,416.859945 C399.565248,415.259945 401.465248,415.259945 412.465248,416.359945 C419.165248,417.159945 427.565248,418.259945 431.165248,419.059945 C438.665248,420.559945 452.265248,420.059945 462.165248,417.759945 Z M502.765248,371.459945 C504.965248,370.959945 509.365248,370.459945 512.465248,370.359945 C515.665248,370.259945 518.165248,369.859945 518.165248,369.559945 C518.165248,369.259945 516.765248,368.359945 515.165248,367.559945 C513.465248,366.859945 509.265248,363.659945 505.865248,360.559945 C498.965248,354.159945 491.865248,347.859945 478.265248,335.959945 C457.665248,318.059945 450.965248,315.459945 426.065248,315.459945 C417.065248,315.459945 404.765248,314.959945 398.565248,314.359945 C377.365248,312.159945 370.165248,315.259945 341.565248,338.359945 C337.265248,341.859945 331.665248,346.459945 329.165248,348.659945 C326.665248,350.759945 320.665248,355.759945 315.865248,359.659945 C309.665248,364.659945 307.465248,367.059945 308.365248,367.659945 C309.065248,368.059945 312.865248,368.459945 316.665248,368.459945 C324.665248,368.459945 335.965248,365.659945 353.165248,359.459945 C374.965248,351.559945 395.265248,349.559945 418.665248,352.959945 C424.165248,353.759945 433.465248,354.459945 439.365248,354.459945 C460.265248,354.459945 466.965248,356.459945 491.165248,369.459945 C497.365248,372.759945 497.165248,372.759945 502.765248,371.459945 Z" id="shape-e" fill="#000000" fill-rule="nonzero" transform="translate(413.5976, 366.3834) scale(1, -1) translate(-413.5976, -366.3834)"></path>
    </g>
</svg>