<?xml version="1.0" encoding="UTF-8"?>
<svg width="1280px" height="275px" viewBox="0 0 1280 275" version="1.1" xmlns="http://www.w3.org/2000/svg" xmlns:xlink="http://www.w3.org/1999/xlink">
    <title>vowels-mouth-shape-ɪ-i</title>
    <g id="vowels-mouth-shape-ɪ-i" stroke="none" stroke-width="1" fill="none" fill-rule="evenodd">
        <text id="e-/-ɪ" font-family="SauceCodeProNF, SauceCodePro Nerd Font" font-size="21" font-weight="normal" fill="#000000">
            <tspan x="402" y="216">e / ɪ</tspan>
        </text>
        <text id="i-/-iː" font-family="SauceCodeProNF, SauceCodePro Nerd Font" font-size="21" font-weight="normal" fill="#000000">
            <tspan x="835" y="216">i / iː</tspan>
        </text>
        <path d="M370.465248,166.459945 C361.365248,164.559945 351.065248,158.459945 337.865248,147.159945 C330.365248,140.759945 303.865248,116.359945 303.465248,115.459945 C303.265248,115.159945 305.065248,113.859945 307.465248,112.559945 C314.465248,108.559945 326.965248,99.2599448 341.165248,87.3599448 C362.565248,69.4599448 371.965248,62.5599448 381.765248,57.8599448 L390.965248,53.3599448 L412.765248,54.4599448 C444.765248,55.9599448 459.965248,57.3599448 465.865248,59.4599448 C473.465248,62.1599448 483.365248,69.3599448 504.665248,87.9599448 C524.565248,105.359945 530.465248,109.459945 538.565248,111.959945 C543.965248,113.559945 546.465248,115.259945 545.565248,116.559945 C545.265248,117.059945 544.265248,117.459945 543.165248,117.459945 C542.165248,117.459945 539.065248,120.159945 536.165248,123.459945 C533.365248,126.759945 527.965248,131.759945 524.365248,134.659945 C520.665248,137.559945 514.365248,142.959945 510.365248,146.659945 C490.065248,165.359945 468.965248,170.359945 429.265248,165.859945 C417.365248,164.459945 413.765248,164.459945 407.765248,165.459945 C398.565248,166.959945 375.865248,167.659945 370.465248,166.459945 Z M473.165248,161.759945 C481.065248,159.959945 491.265248,156.059945 496.665248,152.659945 C498.865248,151.259945 504.065248,146.759945 508.165248,142.559945 C512.365248,138.359945 519.265248,132.259945 523.665248,128.959945 C532.565248,122.159945 534.165248,120.659945 534.165248,119.359945 C534.165248,117.459945 514.665248,119.159945 513.365248,121.159945 C512.965248,121.659945 511.365248,122.159945 509.665248,122.259945 C505.865248,122.359945 489.765248,128.159945 480.665248,132.659945 C476.865248,134.659945 470.565248,137.459945 466.665248,138.959945 C459.165248,141.959945 456.065248,142.159945 429.665248,141.459945 C422.565248,141.159945 417.265248,141.559945 414.865248,142.359945 C412.765248,143.059945 407.765248,143.659945 403.765248,143.759945 C398.065248,143.859945 395.665248,143.359945 392.165248,141.559945 C386.565248,138.659945 376.965248,134.959945 375.765248,135.259945 C375.265248,135.459945 374.165248,134.859945 373.165248,133.959945 C369.965248,131.059945 352.665248,122.659945 344.465248,120.159945 C337.565248,117.959945 335.165248,117.659945 327.565248,118.059945 C315.665248,118.759945 315.165248,118.859945 315.165248,119.259945 C315.165248,120.859945 330.965248,136.159945 341.165248,144.459945 C355.765248,156.359945 359.265248,158.559945 368.565248,161.559945 C374.565248,163.459945 376.965248,163.659945 386.065248,163.159945 C391.965248,162.859945 399.965248,161.859945 403.965248,160.859945 C410.565248,159.259945 412.465248,159.259945 423.465248,160.359945 C430.165248,161.159945 438.565248,162.259945 442.165248,163.059945 C449.665248,164.559945 463.265248,164.059945 473.165248,161.759945 Z M513.765248,115.459945 C515.965248,114.959945 520.365248,114.459945 523.465248,114.359945 C526.665248,114.259945 529.165248,113.859945 529.165248,113.559945 C529.165248,113.259945 527.765248,112.359945 526.165248,111.559945 C524.465248,110.859945 520.265248,107.659945 516.865248,104.559945 C509.965248,98.1599448 502.865248,91.8599448 489.265248,79.9599448 C468.665248,62.0599448 461.965248,59.4599448 437.065248,59.4599448 C428.065248,59.4599448 415.765248,58.9599448 409.565248,58.3599448 C388.365248,56.1599448 381.165248,59.2599448 352.565248,82.3599448 C348.265248,85.8599448 342.665248,90.4599448 340.165248,92.6599448 C337.665248,94.7599448 331.665248,99.7599448 326.865248,103.659945 C320.665248,108.659945 318.465248,111.059945 319.365248,111.659945 C320.065248,112.059945 323.865248,112.459945 327.665248,112.459945 C335.665248,112.459945 346.965248,109.659945 364.165248,103.459945 C385.965248,95.5599448 406.265248,93.5599448 429.665248,96.9599448 C435.165248,97.7599448 444.465248,98.4599448 450.365248,98.4599448 C471.265248,98.4599448 477.965248,100.459945 502.165248,113.459945 C508.365248,116.759945 508.165248,116.759945 513.765248,115.459945 Z" id="shape-e" fill="#000000" fill-rule="nonzero" transform="translate(424.5976, 110.3834) scale(1, -1) translate(-424.5976, -110.3834)"></path>
        <path d="M795.5,160.680546 C788.5,159.680546 784.3,157.380546 767.7,144.980546 C759.8,139.080546 750.3,132.080546 746.6,129.480546 C743,126.780546 740,124.280546 740,123.780546 C740,123.280546 741.1,122.980546 742.5,122.980546 C744.3,122.980546 747.6,120.380546 754.3,113.980546 C765,103.480546 768,100.880546 781.5,90.0805465 C804.2,71.8805465 815,65.2805465 828.7,61.5805465 C835.8,59.5805465 838.1,59.4805465 856,59.9805465 C868.6,60.3805465 877.7,61.0805465 881.8,62.0805465 C898.7,66.2805465 932.9,87.8805465 955.4,108.480546 C964.1,116.480546 965.7,117.480546 971.6,118.980546 C974.2,119.680546 976.5,120.680546 976.7,121.380546 C977,121.980546 975.1,124.080546 972.7,125.880546 C970.3,127.680546 965.5,131.480546 962.1,134.380546 C958.8,137.280546 953.9,140.880546 951.2,142.380546 C948.6,143.880546 942.5,147.780546 937.5,150.880546 C927.5,157.380546 920,160.080546 909.2,161.180546 C901.3,161.980546 873.8,160.880546 874.4,159.780546 C875.3,158.380546 845.6,158.180546 834,159.480546 C821.6,160.980546 801.8,161.480546 795.5,160.680546 Z M830.5,155.080546 C835.1,153.680546 839.2,153.380546 848.5,153.580546 C859.2,153.780546 878.5,155.080546 886.5,156.080546 C899.1,157.780546 906.9,157.680546 915.1,155.880546 C925.2,153.580546 930.5,150.780546 939.1,142.780546 C942.6,139.580546 948.8,134.880546 952.8,132.180546 C956.8,129.580546 960,127.280546 959.7,127.080546 C959,126.280546 942.5,128.880546 939,130.380546 C929.9,134.180546 911.5,139.680546 908,139.680546 C905.8,139.680546 900.8,139.180546 896.8,138.580546 C890,137.580546 886.8,136.880546 869,133.080546 C860,131.180546 854.4,131.380546 840.5,134.280546 C821.1,138.380546 818,138.780546 807,139.180546 C796.1,139.480546 790.7,138.380546 780.4,133.680546 C778.1,132.580546 774.9,131.480546 773.4,131.080546 C771.8,130.680546 770.1,130.080546 769.5,129.680546 C767.2,127.980546 753.3,125.380546 751.6,126.380546 C750.1,127.180546 750.6,127.880546 755.2,130.780546 C758.1,132.680546 763.9,136.880546 768,140.280546 C780.8,150.580546 788.5,155.380546 795.5,157.080546 C800.3,158.280546 824.6,156.880546 830.5,155.080546 Z M954.8,119.080546 C956,118.780546 957,118.080546 957,117.580546 C957,116.280546 945.1,103.880546 940.9,100.880546 C922.9,88.0805465 903.1,75.2805465 896.5,72.1805465 C892.1,70.0805465 887.7,67.9805465 886.7,67.4805465 C883.7,65.9805465 877,65.3805465 875.6,66.5805465 C874.7,67.3805465 871.9,67.1805465 865.4,65.7805465 C859.2,64.3805465 853.1,63.8805465 845,63.9805465 C832.6,64.1805465 834.2,63.6805465 814.5,73.1805465 C810.7,74.9805465 805.3,78.4805465 802.6,80.8805465 C797.8,85.1805465 790.1,90.9805465 776.5,100.580546 C772.7,103.280546 766.4,108.480546 762.5,112.080546 L755.5,118.580546 L760.3,118.680546 C763,118.680546 769.7,117.680546 775.3,116.580546 C786.1,114.280546 793.2,113.880546 801.7,114.780546 C807.8,115.480546 817.5,113.780546 828,110.180546 C838.6,106.580546 848.4,105.680546 860.5,107.380546 C866,108.080546 873.2,108.880546 876.5,109.180546 C884.2,109.680546 888.9,110.280546 903,112.780546 C909.3,113.880546 918.8,115.480546 924,116.380546 C929.2,117.280546 935.8,118.580546 938.5,119.280546 C943.3,120.580546 950,120.480546 954.8,119.080546 Z" id="shape-i" fill="#000000" fill-rule="nonzero" transform="translate(858.3656, 110.5909) scale(1, -1) translate(-858.3656, -110.5909)"></path>
    </g>
</svg>