<?xml version="1.0" encoding="UTF-8"?>
<svg width="1280px" height="275px" viewBox="0 0 1280 275" version="1.1" xmlns="http://www.w3.org/2000/svg" xmlns:xlink="http://www.w3.org/1999/xlink">
    <title>vowels-mouth-ɔ-u</title>
    <g id="vowels-mouth-ɔ-u" stroke="none" stroke-width="1" fill="none" fill-rule="evenodd">
        <text id="ɔ" font-family="CharisSIL, SauceCodePro Nerd Font" font-size="24" font-weight="normal" fill="#000000">
            <tspan x="409" y="228">ɔ</tspan>
        </text>
        <text id="u" font-family="CharisSIL, SauceCodePro Nerd Font" font-size="24" font-weight="normal" fill="#000000">
            <tspan x="861" y="228">u</tspan>
        </text>
        <path d="M360.850068,175.207321 C355.150068,171.907321 349.450068,166.507321 339.650068,155.507321 C334.350068,149.407321 325.550068,139.807321 320.150068,134.007321 C314.750068,128.307321 309.150068,121.807321 307.650068,119.707321 L305.050068,115.707321 L309.550068,111.507321 C312.050068,109.307321 319.450068,102.807321 326.050068,97.2073212 C332.550068,91.5073212 343.350068,81.9073212 349.950068,75.8073212 C362.950068,63.7073212 368.150068,60.0073212 388.450068,48.3073212 C401.350068,40.8073212 402.250068,40.5073212 409.350068,40.1073212 C419.050068,39.5073212 438.950068,41.5073212 449.450068,44.0073212 C464.950068,47.7073212 469.150068,50.3073212 486.450068,67.8073212 C494.950068,76.4073212 507.550068,90.4073212 514.450068,98.9073212 C525.650068,112.707321 527.650068,114.707321 532.850068,117.207321 L538.750068,120.007321 L535.750068,121.907321 C534.050068,122.907321 524.850068,131.607321 515.250068,141.107321 C496.150068,160.307321 494.650068,161.307321 476.450068,167.007321 L465.950068,170.307321 L441.950068,170.507321 C418.750068,170.607321 417.650068,170.707321 408.950068,173.407321 C400.850068,175.907321 398.150068,176.207321 381.950068,176.507321 C366.150068,176.907321 363.550068,176.707321 360.850068,175.207321 Z M397.050068,171.607321 C400.850068,170.807321 408.450068,168.707321 413.850068,166.907321 C423.250068,163.707321 423.950068,163.607321 429.350068,164.807321 C432.450068,165.507321 439.750068,166.307321 445.550068,166.607321 C454.550068,167.107321 457.550068,166.807321 465.050068,164.907321 C490.450068,158.507321 498.050068,154.807321 507.750068,143.607321 C510.650068,140.407321 516.450068,134.007321 520.750068,129.407321 C529.750068,119.907321 529.650068,119.507321 517.550068,120.407321 C498.950068,121.807321 486.950068,124.407321 475.850068,129.307321 C469.150068,132.407321 469.350068,132.307321 460.050068,137.407321 C449.950068,142.907321 444.150068,143.807321 432.550068,141.707321 C422.450068,139.807321 419.350068,139.907321 412.650068,142.307321 C405.650068,144.807321 399.550068,145.207321 393.450068,143.407321 C390.450068,142.607321 387.550068,141.707321 386.950068,141.607321 C386.450068,141.507321 385.450068,141.007321 384.850068,140.707321 C384.250068,140.307321 377.950068,137.907321 370.850068,135.307321 C363.750068,132.807321 355.850068,129.607321 353.350068,128.307321 C350.750068,127.007321 348.450068,126.307321 348.050068,126.607321 C347.750068,127.007321 347.450068,126.707321 347.450068,126.107321 C347.450068,123.307321 324.250068,118.207321 315.650068,119.107321 L312.250068,119.407321 L324.750068,131.907321 C331.550068,138.807321 340.650068,148.907321 344.850068,154.307321 C352.350068,163.907321 358.750068,169.907321 363.650068,171.907321 C367.150068,173.307321 389.050068,173.107321 397.050068,171.607321 Z M360.050068,116.307321 C368.150068,112.707321 374.350068,109.607321 380.550068,106.207321 C390.450068,100.607321 413.750068,94.0073212 424.350068,93.8073212 C432.750068,93.6073212 455.850068,101.007321 472.950068,109.407321 C490.850068,118.207321 490.850068,118.207321 498.850068,117.607321 C513.050068,116.507321 521.450068,115.607321 521.450068,115.207321 C521.450068,114.407321 512.250068,101.307321 509.550068,98.4073212 C508.150068,96.8073212 504.850068,92.7073212 502.350068,89.4073212 C497.550068,83.2073212 475.550068,61.3073212 469.450068,56.7073212 C458.650068,48.6073212 428.150068,42.3073212 409.250068,44.3073212 C403.950068,44.9073212 401.150068,45.9073212 394.850068,49.7073212 C390.450068,52.2073212 386.750068,54.6073212 386.450068,54.9073212 C386.150068,55.2073212 382.750068,57.1073212 378.750068,59.1073212 C367.050068,65.1073212 361.250068,69.2073212 355.450068,76.0073212 C346.650068,86.3073212 340.250068,92.4073212 330.350068,100.007321 C327.750068,101.907321 323.350068,105.607321 320.550068,108.107321 L315.350068,112.807321 L319.150068,113.407321 C327.550068,114.707321 339.250068,117.007321 343.950068,118.307321 C351.050068,120.307321 351.350068,120.307321 360.050068,116.307321 Z" id="shape-o" fill="#000000" fill-rule="nonzero" transform="translate(421.9001, 108.3435) scale(1, -1) translate(-421.9001, -108.3435)"></path>
        <path d="M799.550068,175.207321 C793.850068,171.907321 788.150068,166.507321 778.350068,155.507321 C773.050068,149.407321 764.250068,139.807321 758.850068,134.007321 C753.450068,128.307321 747.850068,121.807321 746.350068,119.707321 L743.750068,115.707321 L748.250068,111.507321 C750.750068,109.307321 758.150068,102.807321 764.750068,97.2073212 C771.250068,91.5073212 782.050068,81.9073212 788.650068,75.8073212 C801.650068,63.7073212 806.850068,60.0073212 827.150068,48.3073212 C840.050068,40.8073212 840.950068,40.5073212 848.050068,40.1073212 C857.750068,39.5073212 877.650068,41.5073212 888.150068,44.0073212 C903.650068,47.7073212 907.850068,50.3073212 925.150068,67.8073212 C933.650068,76.4073212 946.250068,90.4073212 953.150068,98.9073212 C964.350068,112.707321 966.350068,114.707321 971.550068,117.207321 L977.450068,120.007321 L974.450068,121.907321 C972.750068,122.907321 963.550068,131.607321 953.950068,141.107321 C934.850068,160.307321 933.350068,161.307321 915.150068,167.007321 L904.650068,170.307321 L880.650068,170.507321 C857.450068,170.607321 856.350068,170.707321 847.650068,173.407321 C839.550068,175.907321 836.850068,176.207321 820.650068,176.507321 C804.850068,176.907321 802.250068,176.707321 799.550068,175.207321 Z M835.750068,171.607321 C839.550068,170.807321 847.150068,168.707321 852.550068,166.907321 C861.950068,163.707321 862.650068,163.607321 868.050068,164.807321 C871.150068,165.507321 878.450068,166.307321 884.250068,166.607321 C893.250068,167.107321 896.250068,166.807321 903.750068,164.907321 C929.150068,158.507321 936.750068,154.807321 946.450068,143.607321 C949.350068,140.407321 955.150068,134.007321 959.450068,129.407321 C968.450068,119.907321 968.350068,119.507321 956.250068,120.407321 C937.650068,121.807321 925.650068,124.407321 914.550068,129.307321 C907.850068,132.407321 908.050068,132.307321 898.750068,137.407321 C888.650068,142.907321 882.850068,143.807321 871.250068,141.707321 C861.150068,139.807321 858.050068,139.907321 851.350068,142.307321 C844.350068,144.807321 838.250068,145.207321 832.150068,143.407321 C829.150068,142.607321 826.250068,141.707321 825.650068,141.607321 C825.150068,141.507321 824.150068,141.007321 823.550068,140.707321 C822.950068,140.307321 816.650068,137.907321 809.550068,135.307321 C802.450068,132.807321 794.550068,129.607321 792.050068,128.307321 C789.450068,127.007321 787.150068,126.307321 786.750068,126.607321 C786.450068,127.007321 786.150068,126.707321 786.150068,126.107321 C786.150068,123.307321 762.950068,118.207321 754.350068,119.107321 L750.950068,119.407321 L763.450068,131.907321 C770.250068,138.807321 779.350068,148.907321 783.550068,154.307321 C791.050068,163.907321 797.450068,169.907321 802.350068,171.907321 C805.850068,173.307321 827.750068,173.107321 835.750068,171.607321 Z M798.750068,116.307321 C806.850068,112.707321 813.050068,109.607321 819.250068,106.207321 C829.150068,100.607321 852.450068,94.0073212 863.050068,93.8073212 C871.450068,93.6073212 894.550068,101.007321 911.650068,109.407321 C929.550068,118.207321 929.550068,118.207321 937.550068,117.607321 C951.750068,116.507321 960.150068,115.607321 960.150068,115.207321 C960.150068,114.407321 950.950068,101.307321 948.250068,98.4073212 C946.850068,96.8073212 943.550068,92.7073212 941.050068,89.4073212 C936.250068,83.2073212 914.250068,61.3073212 908.150068,56.7073212 C897.350068,48.6073212 866.850068,42.3073212 847.950068,44.3073212 C842.650068,44.9073212 839.850068,45.9073212 833.550068,49.7073212 C829.150068,52.2073212 825.450068,54.6073212 825.150068,54.9073212 C824.850068,55.2073212 821.450068,57.1073212 817.450068,59.1073212 C805.750068,65.1073212 799.950068,69.2073212 794.150068,76.0073212 C785.350068,86.3073212 778.950068,92.4073212 769.050068,100.007321 C766.450068,101.907321 762.050068,105.607321 759.250068,108.107321 L754.050068,112.807321 L757.850068,113.407321 C766.250068,114.707321 777.950068,117.007321 782.650068,118.307321 C789.750068,120.307321 790.050068,120.307321 798.750068,116.307321 Z" id="shape-u" fill="#000000" fill-rule="nonzero" transform="translate(860.6001, 108.3435) scale(1, -1) translate(-860.6001, -108.3435)"></path>
    </g>
</svg>