<?xml version="1.0" encoding="UTF-8"?>
<svg width="1280px" height="275px" viewBox="0 0 1280 275" version="1.1" xmlns="http://www.w3.org/2000/svg" xmlns:xlink="http://www.w3.org/1999/xlink">
    <title>vowels-mouth-e-æ</title>
    <g id="vowels-mouth-e-æ" stroke="none" stroke-width="1" fill="none" fill-rule="evenodd">
        <text id="e" font-family="CharisSIL, SauceCodePro Nerd Font" font-size="24" font-weight="normal" fill="#000000">
            <tspan x="409" y="228">e</tspan>
        </text>
        <text id="æ" font-family="CharisSIL, SauceCodePro Nerd Font" font-size="24" font-weight="normal" fill="#000000">
            <tspan x="861" y="228">æ</tspan>
        </text>
        <path d="M361.465248,164.459945 C352.365248,162.559945 342.065248,156.459945 328.865248,145.159945 C321.365248,138.759945 294.865248,114.359945 294.465248,113.459945 C294.265248,113.159945 296.065248,111.859945 298.465248,110.559945 C305.465248,106.559945 317.965248,97.2599448 332.165248,85.3599448 C353.565248,67.4599448 362.965248,60.5599448 372.765248,55.8599448 L381.965248,51.3599448 L403.765248,52.4599448 C435.765248,53.9599448 450.965248,55.3599448 456.865248,57.4599448 C464.465248,60.1599448 474.365248,67.3599448 495.665248,85.9599448 C515.565248,103.359945 521.465248,107.459945 529.565248,109.959945 C534.965248,111.559945 537.465248,113.259945 536.565248,114.559945 C536.265248,115.059945 535.265248,115.459945 534.165248,115.459945 C533.165248,115.459945 530.065248,118.159945 527.165248,121.459945 C524.365248,124.759945 518.965248,129.759945 515.365248,132.659945 C511.665248,135.559945 505.365248,140.959945 501.365248,144.659945 C481.065248,163.359945 459.965248,168.359945 420.265248,163.859945 C408.365248,162.459945 404.765248,162.459945 398.765248,163.459945 C389.565248,164.959945 366.865248,165.659945 361.465248,164.459945 Z M464.165248,159.759945 C472.065248,157.959945 482.265248,154.059945 487.665248,150.659945 C489.865248,149.259945 495.065248,144.759945 499.165248,140.559945 C503.365248,136.359945 510.265248,130.259945 514.665248,126.959945 C523.565248,120.159945 525.165248,118.659945 525.165248,117.359945 C525.165248,115.459945 505.665248,117.159945 504.365248,119.159945 C503.965248,119.659945 502.365248,120.159945 500.665248,120.259945 C496.865248,120.359945 480.765248,126.159945 471.665248,130.659945 C467.865248,132.659945 461.565248,135.459945 457.665248,136.959945 C450.165248,139.959945 447.065248,140.159945 420.665248,139.459945 C413.565248,139.159945 408.265248,139.559945 405.865248,140.359945 C403.765248,141.059945 398.765248,141.659945 394.765248,141.759945 C389.065248,141.859945 386.665248,141.359945 383.165248,139.559945 C377.565248,136.659945 367.965248,132.959945 366.765248,133.259945 C366.265248,133.459945 365.165248,132.859945 364.165248,131.959945 C360.965248,129.059945 343.665248,120.659945 335.465248,118.159945 C328.565248,115.959945 326.165248,115.659945 318.565248,116.059945 C306.665248,116.759945 306.165248,116.859945 306.165248,117.259945 C306.165248,118.859945 321.965248,134.159945 332.165248,142.459945 C346.765248,154.359945 350.265248,156.559945 359.565248,159.559945 C365.565248,161.459945 367.965248,161.659945 377.065248,161.159945 C382.965248,160.859945 390.965248,159.859945 394.965248,158.859945 C401.565248,157.259945 403.465248,157.259945 414.465248,158.359945 C421.165248,159.159945 429.565248,160.259945 433.165248,161.059945 C440.665248,162.559945 454.265248,162.059945 464.165248,159.759945 Z M504.765248,113.459945 C506.965248,112.959945 511.365248,112.459945 514.465248,112.359945 C517.665248,112.259945 520.165248,111.859945 520.165248,111.559945 C520.165248,111.259945 518.765248,110.359945 517.165248,109.559945 C515.465248,108.859945 511.265248,105.659945 507.865248,102.559945 C500.965248,96.1599448 493.865248,89.8599448 480.265248,77.9599448 C459.665248,60.0599448 452.965248,57.4599448 428.065248,57.4599448 C419.065248,57.4599448 406.765248,56.9599448 400.565248,56.3599448 C379.365248,54.1599448 372.165248,57.2599448 343.565248,80.3599448 C339.265248,83.8599448 333.665248,88.4599448 331.165248,90.6599448 C328.665248,92.7599448 322.665248,97.7599448 317.865248,101.659945 C311.665248,106.659945 309.465248,109.059945 310.365248,109.659945 C311.065248,110.059945 314.865248,110.459945 318.665248,110.459945 C326.665248,110.459945 337.965248,107.659945 355.165248,101.459945 C376.965248,93.5599448 397.265248,91.5599448 420.665248,94.9599448 C426.165248,95.7599448 435.465248,96.4599448 441.365248,96.4599448 C462.265248,96.4599448 468.965248,98.4599448 493.165248,111.459945 C499.365248,114.759945 499.165248,114.759945 504.765248,113.459945 Z" id="shape-e" fill="#000000" fill-rule="nonzero" transform="translate(415.5976, 108.3834) scale(1, -1) translate(-415.5976, -108.3834)"></path>
        <path d="M886.050068,174.917197 C883.050068,174.417197 868.050068,174.117197 852.850068,174.017197 L825.150068,173.917197 L817.850068,170.117197 C809.150068,165.617197 800.550068,159.517197 780.850068,143.717197 C764.750068,131.017197 759.850068,127.717197 753.350068,125.817197 C750.950068,125.117197 749.050068,124.217197 749.050068,123.817197 C749.050068,122.917197 755.850068,114.617197 766.950068,101.917197 C790.650068,74.8171968 809.450068,56.8171968 819.250068,51.8171968 C832.550068,45.0171968 845.350068,40.6171968 853.150068,40.1171968 C868.550068,39.2171968 894.750068,43.6171968 906.550068,49.3171968 C916.050068,53.8171968 923.550068,60.4171968 939.950068,78.8171968 C958.050068,99.1171968 969.550068,110.117197 976.250068,113.517197 C979.150068,114.917197 982.350068,116.817197 983.350068,117.717197 C985.850068,119.917197 985.450068,122.817197 982.550068,123.917197 C981.250068,124.417197 975.950068,128.617197 970.950068,133.117197 C948.050068,153.717197 939.650068,160.117197 921.450068,170.317197 L911.550068,175.917197 L901.550068,175.817197 C896.050068,175.717197 889.050068,175.317197 886.050068,174.917197 Z M910.250068,170.517197 C925.650068,164.717197 943.350068,153.517197 955.550068,141.817197 C959.450068,138.117197 965.050068,132.817197 968.050068,130.017197 C971.050068,127.317197 973.250068,124.717197 972.850068,124.417197 C971.750068,123.317197 961.850068,127.517197 955.150068,131.917197 C948.650068,136.217197 933.750068,143.517197 921.750068,148.317197 C913.950068,151.417197 907.450068,151.817197 895.050068,150.017197 C888.750068,149.117197 884.650068,149.117197 879.050068,149.817197 C866.850068,151.517197 861.850068,152.617197 857.250068,154.417197 C850.450068,157.217197 840.150068,154.717197 822.250068,145.917197 C817.750068,143.717197 813.450068,141.917197 812.750068,141.917197 C812.050068,141.917197 811.050068,141.517197 810.550068,141.017197 C809.250068,139.817197 791.950068,132.617197 785.550068,130.617197 C779.150068,128.617197 768.150068,126.517197 767.550068,127.117197 C766.550068,128.117197 809.450068,161.217197 817.050068,165.317197 C819.750068,166.817197 825.250068,168.717197 829.150068,169.517197 C835.750068,170.917197 838.650068,170.817197 851.550068,169.317197 C860.650068,168.317197 879.050068,169.117197 886.550068,170.817197 C897.450068,173.417197 902.850068,173.317197 910.250068,170.517197 Z M777.550068,122.017197 C777.250068,121.417197 778.050068,120.517197 779.250068,119.817197 C780.550068,119.217197 783.350068,117.217197 785.550068,115.417197 C789.850068,112.017197 797.050068,108.117197 804.750068,105.017197 C809.350068,103.217197 820.150068,96.9171968 830.350068,89.9171968 C836.450068,85.8171968 854.250068,80.7171968 862.550068,80.7171968 C868.450068,80.7171968 881.850068,83.0171968 896.550068,86.4171968 C904.050068,88.2171968 913.050068,92.4171968 927.550068,101.017197 C941.250068,109.117197 957.550068,116.717197 962.050068,117.317197 C964.350068,117.517197 966.650068,118.217197 967.350068,118.717197 C968.450068,119.617197 973.050068,118.617197 973.050068,117.617197 C973.050068,117.417197 969.950068,114.917197 966.250068,112.117197 C962.550068,109.317197 957.550068,104.917197 955.150068,102.217197 C952.850068,99.6171968 947.850068,94.0171968 944.150068,89.9171968 C940.350068,85.8171968 933.950068,78.3171968 929.750068,73.3171968 C925.650068,68.3171968 920.350068,62.6171968 918.150068,60.6171968 C910.650068,53.8171968 894.150068,46.9171968 885.650068,46.9171968 C883.350068,46.9171968 875.750068,45.9171968 868.650068,44.7171968 C858.150068,43.0171968 854.950068,42.8171968 851.150068,43.6171968 C844.750068,45.1171968 837.650068,47.7171968 830.550068,51.0171968 C827.250068,52.5171968 823.250068,54.1171968 821.750068,54.5171968 C815.750068,55.9171968 775.950068,95.2171968 765.150068,110.317197 C758.050068,120.117197 758.150068,120.417197 766.050068,121.417197 C768.550068,121.817197 771.050068,122.217197 771.550068,122.417197 C773.750068,123.217197 778.150068,122.817197 777.550068,122.017197 Z" id="shape-a" fill="#000000" fill-rule="nonzero" transform="translate(867.025, 107.9586) scale(1, -1) translate(-867.025, -107.9586)"></path>
    </g>
</svg>