<?xml version="1.0" encoding="UTF-8"?>
<svg width="1280px" height="825px" viewBox="0 0 1280 825" version="1.1" xmlns="http://www.w3.org/2000/svg" xmlns:xlink="http://www.w3.org/1999/xlink">
    <title>vowels-mouth-shape-aɪ</title>
    <g id="vowels-mouth-shape-aɪ" stroke="none" stroke-width="1" fill="none" fill-rule="evenodd">
        <path d="M819.465248,437.459945 C810.365248,435.559945 800.065248,429.459945 786.865248,418.159945 C779.365248,411.759945 752.865248,387.359945 752.465248,386.459945 C752.265248,386.159945 754.065248,384.859945 756.465248,383.559945 C763.465248,379.559945 775.965248,370.259945 790.165248,358.359945 C811.565248,340.459945 820.965248,333.559945 830.765248,328.859945 L839.965248,324.359945 L861.765248,325.459945 C893.765248,326.959945 908.965248,328.359945 914.865248,330.459945 C922.465248,333.159945 932.365248,340.359945 953.665248,358.959945 C973.565248,376.359945 979.465248,380.459945 987.565248,382.959945 C992.965248,384.559945 995.465248,386.259945 994.565248,387.559945 C994.265248,388.059945 993.265248,388.459945 992.165248,388.459945 C991.165248,388.459945 988.065248,391.159945 985.165248,394.459945 C982.365248,397.759945 976.965248,402.759945 973.365248,405.659945 C969.665248,408.559945 963.365248,413.959945 959.365248,417.659945 C939.065248,436.359945 917.965248,441.359945 878.265248,436.859945 C866.365248,435.459945 862.765248,435.459945 856.765248,436.459945 C847.565248,437.959945 824.865248,438.659945 819.465248,437.459945 Z M922.165248,432.759945 C930.065248,430.959945 940.265248,427.059945 945.665248,423.659945 C947.865248,422.259945 953.065248,417.759945 957.165248,413.559945 C961.365248,409.359945 968.265248,403.259945 972.665248,399.959945 C981.565248,393.159945 983.165248,391.659945 983.165248,390.359945 C983.165248,388.459945 963.665248,390.159945 962.365248,392.159945 C961.965248,392.659945 960.365248,393.159945 958.665248,393.259945 C954.865248,393.359945 938.765248,399.159945 929.665248,403.659945 C925.865248,405.659945 919.565248,408.459945 915.665248,409.959945 C908.165248,412.959945 905.065248,413.159945 878.665248,412.459945 C871.565248,412.159945 866.265248,412.559945 863.865248,413.359945 C861.765248,414.059945 856.765248,414.659945 852.765248,414.759945 C847.065248,414.859945 844.665248,414.359945 841.165248,412.559945 C835.565248,409.659945 825.965248,405.959945 824.765248,406.259945 C824.265248,406.459945 823.165248,405.859945 822.165248,404.959945 C818.965248,402.059945 801.665248,393.659945 793.465248,391.159945 C786.565248,388.959945 784.165248,388.659945 776.565248,389.059945 C764.665248,389.759945 764.165248,389.859945 764.165248,390.259945 C764.165248,391.859945 779.965248,407.159945 790.165248,415.459945 C804.765248,427.359945 808.265248,429.559945 817.565248,432.559945 C823.565248,434.459945 825.965248,434.659945 835.065248,434.159945 C840.965248,433.859945 848.965248,432.859945 852.965248,431.859945 C859.565248,430.259945 861.465248,430.259945 872.465248,431.359945 C879.165248,432.159945 887.565248,433.259945 891.165248,434.059945 C898.665248,435.559945 912.265248,435.059945 922.165248,432.759945 Z M962.765248,386.459945 C964.965248,385.959945 969.365248,385.459945 972.465248,385.359945 C975.665248,385.259945 978.165248,384.859945 978.165248,384.559945 C978.165248,384.259945 976.765248,383.359945 975.165248,382.559945 C973.465248,381.859945 969.265248,378.659945 965.865248,375.559945 C958.965248,369.159945 951.865248,362.859945 938.265248,350.959945 C917.665248,333.059945 910.965248,330.459945 886.065248,330.459945 C877.065248,330.459945 864.765248,329.959945 858.565248,329.359945 C837.365248,327.159945 830.165248,330.259945 801.565248,353.359945 C797.265248,356.859945 791.665248,361.459945 789.165248,363.659945 C786.665248,365.759945 780.665248,370.759945 775.865248,374.659945 C769.665248,379.659945 767.465248,382.059945 768.365248,382.659945 C769.065248,383.059945 772.865248,383.459945 776.665248,383.459945 C784.665248,383.459945 795.965248,380.659945 813.165248,374.459945 C834.965248,366.559945 855.265248,364.559945 878.665248,367.959945 C884.165248,368.759945 893.465248,369.459945 899.365248,369.459945 C920.265248,369.459945 926.965248,371.459945 951.165248,384.459945 C957.365248,387.759945 957.165248,387.759945 962.765248,386.459945 Z" id="shape-e" fill="#000000" fill-rule="nonzero" transform="translate(873.5976, 381.3834) scale(1, -1) translate(-873.5976, -381.3834)"></path>
        <path d="M806.850068,711.207321 C801.150068,707.907321 795.450068,702.507321 785.650068,691.507321 C780.350068,685.407321 771.550068,675.807321 766.150068,670.007321 C760.750068,664.307321 755.150068,657.807321 753.650068,655.707321 L751.050068,651.707321 L755.550068,647.507321 C758.050068,645.307321 765.450068,638.807321 772.050068,633.207321 C778.550068,627.507321 789.350068,617.907321 795.950068,611.807321 C808.950068,599.707321 814.150068,596.007321 834.450068,584.307321 C847.350068,576.807321 848.250068,576.507321 855.350068,576.107321 C865.050068,575.507321 884.950068,577.507321 895.450068,580.007321 C910.950068,583.707321 915.150068,586.307321 932.450068,603.807321 C940.950068,612.407321 953.550068,626.407321 960.450068,634.907321 C971.650068,648.707321 973.650068,650.707321 978.850068,653.207321 L984.750068,656.007321 L981.750068,657.907321 C980.050068,658.907321 970.850068,667.607321 961.250068,677.107321 C942.150068,696.307321 940.650068,697.307321 922.450068,703.007321 L911.950068,706.307321 L887.950068,706.507321 C864.750068,706.607321 863.650068,706.707321 854.950068,709.407321 C846.850068,711.907321 844.150068,712.207321 827.950068,712.507321 C812.150068,712.907321 809.550068,712.707321 806.850068,711.207321 Z M843.050068,707.607321 C846.850068,706.807321 854.450068,704.707321 859.850068,702.907321 C869.250068,699.707321 869.950068,699.607321 875.350068,700.807321 C878.450068,701.507321 885.750068,702.307321 891.550068,702.607321 C900.550068,703.107321 903.550068,702.807321 911.050068,700.907321 C936.450068,694.507321 944.050068,690.807321 953.750068,679.607321 C956.650068,676.407321 962.450068,670.007321 966.750068,665.407321 C975.750068,655.907321 975.650068,655.507321 963.550068,656.407321 C944.950068,657.807321 932.950068,660.407321 921.850068,665.307321 C915.150068,668.407321 915.350068,668.307321 906.050068,673.407321 C895.950068,678.907321 890.150068,679.807321 878.550068,677.707321 C868.450068,675.807321 865.350068,675.907321 858.650068,678.307321 C851.650068,680.807321 845.550068,681.207321 839.450068,679.407321 C836.450068,678.607321 833.550068,677.707321 832.950068,677.607321 C832.450068,677.507321 831.450068,677.007321 830.850068,676.707321 C830.250068,676.307321 823.950068,673.907321 816.850068,671.307321 C809.750068,668.807321 801.850068,665.607321 799.350068,664.307321 C796.750068,663.007321 794.450068,662.307321 794.050068,662.607321 C793.750068,663.007321 793.450068,662.707321 793.450068,662.107321 C793.450068,659.307321 770.250068,654.207321 761.650068,655.107321 L758.250068,655.407321 L770.750068,667.907321 C777.550068,674.807321 786.650068,684.907321 790.850068,690.307321 C798.350068,699.907321 804.750068,705.907321 809.650068,707.907321 C813.150068,709.307321 835.050068,709.107321 843.050068,707.607321 Z M806.050068,652.307321 C814.150068,648.707321 820.350068,645.607321 826.550068,642.207321 C836.450068,636.607321 859.750068,630.007321 870.350068,629.807321 C878.750068,629.607321 901.850068,637.007321 918.950068,645.407321 C936.850068,654.207321 936.850068,654.207321 944.850068,653.607321 C959.050068,652.507321 967.450068,651.607321 967.450068,651.207321 C967.450068,650.407321 958.250068,637.307321 955.550068,634.407321 C954.150068,632.807321 950.850068,628.707321 948.350068,625.407321 C943.550068,619.207321 921.550068,597.307321 915.450068,592.707321 C904.650068,584.607321 874.150068,578.307321 855.250068,580.307321 C849.950068,580.907321 847.150068,581.907321 840.850068,585.707321 C836.450068,588.207321 832.750068,590.607321 832.450068,590.907321 C832.150068,591.207321 828.750068,593.107321 824.750068,595.107321 C813.050068,601.107321 807.250068,605.207321 801.450068,612.007321 C792.650068,622.307321 786.250068,628.407321 776.350068,636.007321 C773.750068,637.907321 769.350068,641.607321 766.550068,644.107321 L761.350068,648.807321 L765.150068,649.407321 C773.550068,650.707321 785.250068,653.007321 789.950068,654.307321 C797.050068,656.307321 797.350068,656.307321 806.050068,652.307321 Z" id="shape-o" fill="#000000" fill-rule="nonzero" transform="translate(867.9001, 644.3435) scale(1, -1) translate(-867.9001, -644.3435)"></path>
        <path d="M887.050068,187.834394 C884.050068,187.334394 869.050068,187.034394 853.850068,186.934394 L826.150068,186.834394 L818.850068,183.034394 C810.150068,178.534394 801.550068,172.434394 781.850068,156.634394 C765.750068,143.934394 760.850068,140.634394 754.350068,138.734394 C751.950068,138.034394 750.050068,137.134394 750.050068,136.734394 C750.050068,135.834394 756.850068,127.534394 767.950068,114.834394 C791.650068,87.7343936 810.450068,69.7343936 820.250068,64.7343936 C833.550068,57.9343936 846.350068,53.5343936 854.150068,53.0343936 C869.550068,52.1343936 895.750068,56.5343936 907.550068,62.2343936 C917.050068,66.7343936 924.550068,73.3343936 940.950068,91.7343936 C959.050068,112.034394 970.550068,123.034394 977.250068,126.434394 C980.150068,127.834394 983.350068,129.734394 984.350068,130.634394 C986.850068,132.834394 986.450068,135.734394 983.550068,136.834394 C982.250068,137.334394 976.950068,141.534394 971.950068,146.034394 C949.050068,166.634394 940.650068,173.034394 922.450068,183.234394 L912.550068,188.834394 L902.550068,188.734394 C897.050068,188.634394 890.050068,188.234394 887.050068,187.834394 Z M911.250068,183.434394 C926.650068,177.634394 944.350068,166.434394 956.550068,154.734394 C960.450068,151.034394 966.050068,145.734394 969.050068,142.934394 C972.050068,140.234394 974.250068,137.634394 973.850068,137.334394 C972.750068,136.234394 962.850068,140.434394 956.150068,144.834394 C949.650068,149.134394 934.750068,156.434394 922.750068,161.234394 C914.950068,164.334394 908.450068,164.734394 896.050068,162.934394 C889.750068,162.034394 885.650068,162.034394 880.050068,162.734394 C867.850068,164.434394 862.850068,165.534394 858.250068,167.334394 C851.450068,170.134394 841.150068,167.634394 823.250068,158.834394 C818.750068,156.634394 814.450068,154.834394 813.750068,154.834394 C813.050068,154.834394 812.050068,154.434394 811.550068,153.934394 C810.250068,152.734394 792.950068,145.534394 786.550068,143.534394 C780.150068,141.534394 769.150068,139.434394 768.550068,140.034394 C767.550068,141.034394 810.450068,174.134394 818.050068,178.234394 C820.750068,179.734394 826.250068,181.634394 830.150068,182.434394 C836.750068,183.834394 839.650068,183.734394 852.550068,182.234394 C861.650068,181.234394 880.050068,182.034394 887.550068,183.734394 C898.450068,186.334394 903.850068,186.234394 911.250068,183.434394 Z M778.550068,134.934394 C778.250068,134.334394 779.050068,133.434394 780.250068,132.734394 C781.550068,132.134394 784.350068,130.134394 786.550068,128.334394 C790.850068,124.934394 798.050068,121.034394 805.750068,117.934394 C810.350068,116.134394 821.150068,109.834394 831.350068,102.834394 C837.450068,98.7343936 855.250068,93.6343936 863.550068,93.6343936 C869.450068,93.6343936 882.850068,95.9343936 897.550068,99.3343936 C905.050068,101.134394 914.050068,105.334394 928.550068,113.934394 C942.250068,122.034394 958.550068,129.634394 963.050068,130.234394 C965.350068,130.434394 967.650068,131.134394 968.350068,131.634394 C969.450068,132.534394 974.050068,131.534394 974.050068,130.534394 C974.050068,130.334394 970.950068,127.834394 967.250068,125.034394 C963.550068,122.234394 958.550068,117.834394 956.150068,115.134394 C953.850068,112.534394 948.850068,106.934394 945.150068,102.834394 C941.350068,98.7343936 934.950068,91.2343936 930.750068,86.2343936 C926.650068,81.2343936 921.350068,75.5343936 919.150068,73.5343936 C911.650068,66.7343936 895.150068,59.8343936 886.650068,59.8343936 C884.350068,59.8343936 876.750068,58.8343936 869.650068,57.6343936 C859.150068,55.9343936 855.950068,55.7343936 852.150068,56.5343936 C845.750068,58.0343936 838.650068,60.6343936 831.550068,63.9343936 C828.250068,65.4343936 824.250068,67.0343936 822.750068,67.4343936 C816.750068,68.8343936 776.950068,108.134394 766.150068,123.234394 C759.050068,133.034394 759.150068,133.334394 767.050068,134.334394 C769.550068,134.734394 772.050068,135.134394 772.550068,135.334394 C774.750068,136.134394 779.150068,135.734394 778.550068,134.934394 Z" id="shape-a" fill="#000000" fill-rule="nonzero" transform="translate(868.025, 120.8758) scale(1, -1) translate(-868.025, -120.8758)"></path>
        <text id="ɪ" font-family="CharisSIL, SauceCodePro Nerd Font" font-size="24" font-weight="normal" fill="#000000">
            <tspan x="862" y="251">ɪ</tspan>
        </text>
        <text id="ɪ" font-family="CharisSIL, SauceCodePro Nerd Font" font-size="24" font-weight="normal" fill="#000000">
            <tspan x="862" y="501">ɪ</tspan>
        </text>
        <text id="ɪ" font-family="CharisSIL, SauceCodePro Nerd Font" font-size="24" font-weight="normal" fill="#000000">
            <tspan x="862" y="766">ɪ</tspan>
        </text>
        <path d="M341.850068,711.207321 C336.150068,707.907321 330.450068,702.507321 320.650068,691.507321 C315.350068,685.407321 306.550068,675.807321 301.150068,670.007321 C295.750068,664.307321 290.150068,657.807321 288.650068,655.707321 L286.050068,651.707321 L290.550068,647.507321 C293.050068,645.307321 300.450068,638.807321 307.050068,633.207321 C313.550068,627.507321 324.350068,617.907321 330.950068,611.807321 C343.950068,599.707321 349.150068,596.007321 369.450068,584.307321 C382.350068,576.807321 383.250068,576.507321 390.350068,576.107321 C400.050068,575.507321 419.950068,577.507321 430.450068,580.007321 C445.950068,583.707321 450.150068,586.307321 467.450068,603.807321 C475.950068,612.407321 488.550068,626.407321 495.450068,634.907321 C506.650068,648.707321 508.650068,650.707321 513.850068,653.207321 L519.750068,656.007321 L516.750068,657.907321 C515.050068,658.907321 505.850068,667.607321 496.250068,677.107321 C477.150068,696.307321 475.650068,697.307321 457.450068,703.007321 L446.950068,706.307321 L422.950068,706.507321 C399.750068,706.607321 398.650068,706.707321 389.950068,709.407321 C381.850068,711.907321 379.150068,712.207321 362.950068,712.507321 C347.150068,712.907321 344.550068,712.707321 341.850068,711.207321 Z M378.050068,707.607321 C381.850068,706.807321 389.450068,704.707321 394.850068,702.907321 C404.250068,699.707321 404.950068,699.607321 410.350068,700.807321 C413.450068,701.507321 420.750068,702.307321 426.550068,702.607321 C435.550068,703.107321 438.550068,702.807321 446.050068,700.907321 C471.450068,694.507321 479.050068,690.807321 488.750068,679.607321 C491.650068,676.407321 497.450068,670.007321 501.750068,665.407321 C510.750068,655.907321 510.650068,655.507321 498.550068,656.407321 C479.950068,657.807321 467.950068,660.407321 456.850068,665.307321 C450.150068,668.407321 450.350068,668.307321 441.050068,673.407321 C430.950068,678.907321 425.150068,679.807321 413.550068,677.707321 C403.450068,675.807321 400.350068,675.907321 393.650068,678.307321 C386.650068,680.807321 380.550068,681.207321 374.450068,679.407321 C371.450068,678.607321 368.550068,677.707321 367.950068,677.607321 C367.450068,677.507321 366.450068,677.007321 365.850068,676.707321 C365.250068,676.307321 358.950068,673.907321 351.850068,671.307321 C344.750068,668.807321 336.850068,665.607321 334.350068,664.307321 C331.750068,663.007321 329.450068,662.307321 329.050068,662.607321 C328.750068,663.007321 328.450068,662.707321 328.450068,662.107321 C328.450068,659.307321 305.250068,654.207321 296.650068,655.107321 L293.250068,655.407321 L305.750068,667.907321 C312.550068,674.807321 321.650068,684.907321 325.850068,690.307321 C333.350068,699.907321 339.750068,705.907321 344.650068,707.907321 C348.150068,709.307321 370.050068,709.107321 378.050068,707.607321 Z M341.050068,652.307321 C349.150068,648.707321 355.350068,645.607321 361.550068,642.207321 C371.450068,636.607321 394.750068,630.007321 405.350068,629.807321 C413.750068,629.607321 436.850068,637.007321 453.950068,645.407321 C471.850068,654.207321 471.850068,654.207321 479.850068,653.607321 C494.050068,652.507321 502.450068,651.607321 502.450068,651.207321 C502.450068,650.407321 493.250068,637.307321 490.550068,634.407321 C489.150068,632.807321 485.850068,628.707321 483.350068,625.407321 C478.550068,619.207321 456.550068,597.307321 450.450068,592.707321 C439.650068,584.607321 409.150068,578.307321 390.250068,580.307321 C384.950068,580.907321 382.150068,581.907321 375.850068,585.707321 C371.450068,588.207321 367.750068,590.607321 367.450068,590.907321 C367.150068,591.207321 363.750068,593.107321 359.750068,595.107321 C348.050068,601.107321 342.250068,605.207321 336.450068,612.007321 C327.650068,622.307321 321.250068,628.407321 311.350068,636.007321 C308.750068,637.907321 304.350068,641.607321 301.550068,644.107321 L296.350068,648.807321 L300.150068,649.407321 C308.550068,650.707321 320.250068,653.007321 324.950068,654.307321 C332.050068,656.307321 332.350068,656.307321 341.050068,652.307321 Z" id="shape-o" fill="#000000" fill-rule="nonzero" transform="translate(402.9001, 644.3435) scale(1, -1) translate(-402.9001, -644.3435)"></path>
        <path d="M428.050068,187.834394 C425.050068,187.334394 410.050068,187.034394 394.850068,186.934394 L367.150068,186.834394 L359.850068,183.034394 C351.150068,178.534394 342.550068,172.434394 322.850068,156.634394 C306.750068,143.934394 301.850068,140.634394 295.350068,138.734394 C292.950068,138.034394 291.050068,137.134394 291.050068,136.734394 C291.050068,135.834394 297.850068,127.534394 308.950068,114.834394 C332.650068,87.7343936 351.450068,69.7343936 361.250068,64.7343936 C374.550068,57.9343936 387.350068,53.5343936 395.150068,53.0343936 C410.550068,52.1343936 436.750068,56.5343936 448.550068,62.2343936 C458.050068,66.7343936 465.550068,73.3343936 481.950068,91.7343936 C500.050068,112.034394 511.550068,123.034394 518.250068,126.434394 C521.150068,127.834394 524.350068,129.734394 525.350068,130.634394 C527.850068,132.834394 527.450068,135.734394 524.550068,136.834394 C523.250068,137.334394 517.950068,141.534394 512.950068,146.034394 C490.050068,166.634394 481.650068,173.034394 463.450068,183.234394 L453.550068,188.834394 L443.550068,188.734394 C438.050068,188.634394 431.050068,188.234394 428.050068,187.834394 Z M452.250068,183.434394 C467.650068,177.634394 485.350068,166.434394 497.550068,154.734394 C501.450068,151.034394 507.050068,145.734394 510.050068,142.934394 C513.050068,140.234394 515.250068,137.634394 514.850068,137.334394 C513.750068,136.234394 503.850068,140.434394 497.150068,144.834394 C490.650068,149.134394 475.750068,156.434394 463.750068,161.234394 C455.950068,164.334394 449.450068,164.734394 437.050068,162.934394 C430.750068,162.034394 426.650068,162.034394 421.050068,162.734394 C408.850068,164.434394 403.850068,165.534394 399.250068,167.334394 C392.450068,170.134394 382.150068,167.634394 364.250068,158.834394 C359.750068,156.634394 355.450068,154.834394 354.750068,154.834394 C354.050068,154.834394 353.050068,154.434394 352.550068,153.934394 C351.250068,152.734394 333.950068,145.534394 327.550068,143.534394 C321.150068,141.534394 310.150068,139.434394 309.550068,140.034394 C308.550068,141.034394 351.450068,174.134394 359.050068,178.234394 C361.750068,179.734394 367.250068,181.634394 371.150068,182.434394 C377.750068,183.834394 380.650068,183.734394 393.550068,182.234394 C402.650068,181.234394 421.050068,182.034394 428.550068,183.734394 C439.450068,186.334394 444.850068,186.234394 452.250068,183.434394 Z M319.550068,134.934394 C319.250068,134.334394 320.050068,133.434394 321.250068,132.734394 C322.550068,132.134394 325.350068,130.134394 327.550068,128.334394 C331.850068,124.934394 339.050068,121.034394 346.750068,117.934394 C351.350068,116.134394 362.150068,109.834394 372.350068,102.834394 C378.450068,98.7343936 396.250068,93.6343936 404.550068,93.6343936 C410.450068,93.6343936 423.850068,95.9343936 438.550068,99.3343936 C446.050068,101.134394 455.050068,105.334394 469.550068,113.934394 C483.250068,122.034394 499.550068,129.634394 504.050068,130.234394 C506.350068,130.434394 508.650068,131.134394 509.350068,131.634394 C510.450068,132.534394 515.050068,131.534394 515.050068,130.534394 C515.050068,130.334394 511.950068,127.834394 508.250068,125.034394 C504.550068,122.234394 499.550068,117.834394 497.150068,115.134394 C494.850068,112.534394 489.850068,106.934394 486.150068,102.834394 C482.350068,98.7343936 475.950068,91.2343936 471.750068,86.2343936 C467.650068,81.2343936 462.350068,75.5343936 460.150068,73.5343936 C452.650068,66.7343936 436.150068,59.8343936 427.650068,59.8343936 C425.350068,59.8343936 417.750068,58.8343936 410.650068,57.6343936 C400.150068,55.9343936 396.950068,55.7343936 393.150068,56.5343936 C386.750068,58.0343936 379.650068,60.6343936 372.550068,63.9343936 C369.250068,65.4343936 365.250068,67.0343936 363.750068,67.4343936 C357.750068,68.8343936 317.950068,108.134394 307.150068,123.234394 C300.050068,133.034394 300.150068,133.334394 308.050068,134.334394 C310.550068,134.734394 313.050068,135.134394 313.550068,135.334394 C315.750068,136.134394 320.150068,135.734394 319.550068,134.934394 Z" id="shape-a" fill="#000000" fill-rule="nonzero" transform="translate(409.025, 120.8758) scale(1, -1) translate(-409.025, -120.8758)"></path>
        <text id="ɑ" font-family="CharisSIL, SauceCodePro Nerd Font" font-size="24" font-weight="normal" fill="#000000">
            <tspan x="403" y="251">ɑ</tspan>
        </text>
        <text id="e" font-family="CharisSIL, SauceCodePro Nerd Font" font-size="24" font-weight="normal" fill="#000000">
            <tspan x="403" y="501">e</tspan>
        </text>
        <text id="ɔ" font-family="CharisSIL, SauceCodePro Nerd Font" font-size="24" font-weight="normal" fill="#000000">
            <tspan x="403" y="766">ɔ</tspan>
        </text>
        <path id="Line-17" d="M679.640179,114.51306 L693.472652,121.838542 L679.312783,128.509231 L679.453,122.511 L593.476615,120.499727 L592.476888,120.476341 L592.523659,118.476888 L593.523385,118.500273 L679.499,120.511 L679.640179,114.51306 Z" transform="translate(643.4863, 120.6693) rotate(-1.34) translate(-643.4863, -120.6693)" fill="#656464" fill-rule="nonzero"></path>
        <path id="Line-17-Copy" d="M678.640179,375.51306 L692.472652,382.838542 L678.312783,389.509231 L678.453,383.511 L592.476615,381.499727 L591.476888,381.476341 L591.523659,379.476888 L592.523385,379.500273 L678.499,381.511 L678.640179,375.51306 Z" transform="translate(642.4863, 381.6693) rotate(-1.34) translate(-642.4863, -381.6693)" fill="#656464" fill-rule="nonzero"></path>
        <path id="Line-17-Copy-2" d="M679.640179,638.51306 L693.472652,645.838542 L679.312783,652.509231 L679.453,646.511 L593.476615,644.499727 L592.476888,644.476341 L592.523659,642.476888 L593.523385,642.500273 L679.499,644.511 L679.640179,638.51306 Z" transform="translate(643.4863, 644.6693) rotate(-1.34) translate(-643.4863, -644.6693)" fill="#656464" fill-rule="nonzero"></path>
        <path d="M355.01518,441.1 C345.91518,439.2 335.61518,433.1 322.41518,421.8 C314.91518,415.4 288.41518,391 288.01518,390.1 C287.81518,389.8 289.61518,388.5 292.01518,387.2 C299.01518,383.2 311.51518,373.9 325.71518,362 C347.11518,344.1 356.51518,337.2 366.31518,332.5 L375.51518,328 L397.31518,329.1 C429.31518,330.6 444.51518,332 450.41518,334.1 C458.01518,336.8 467.91518,344 489.21518,362.6 C509.11518,380 515.01518,384.1 523.11518,386.6 C528.51518,388.2 531.01518,389.9 530.11518,391.2 C529.81518,391.7 528.81518,392.1 527.71518,392.1 C526.71518,392.1 523.61518,394.8 520.71518,398.1 C517.91518,401.4 512.51518,406.4 508.91518,409.3 C505.21518,412.2 498.91518,417.6 494.91518,421.3 C474.61518,440 453.51518,445 413.81518,440.5 C401.91518,439.1 398.31518,439.1 392.31518,440.1 C383.11518,441.6 360.41518,442.3 355.01518,441.1 Z M457.71518,436.4 C465.61518,434.6 475.81518,430.7 481.21518,427.3 C483.41518,425.9 488.61518,421.4 492.71518,417.2 C496.91518,413 503.81518,406.9 508.21518,403.6 C517.11518,396.8 518.71518,395.3 518.71518,394 C518.71518,392.1 499.21518,393.8 497.91518,395.8 C497.51518,396.3 495.91518,396.8 494.21518,396.9 C490.41518,397 474.31518,402.8 465.21518,407.3 C461.41518,409.3 455.11518,412.1 451.21518,413.6 C443.71518,416.6 440.61518,416.8 414.21518,416.1 C407.11518,415.8 401.81518,416.2 399.41518,417 C397.31518,417.7 392.31518,418.3 388.31518,418.4 C382.61518,418.5 380.21518,418 376.71518,416.2 C371.11518,413.3 361.51518,409.6 360.31518,409.9 C359.81518,410.1 358.71518,409.5 357.71518,408.6 C354.51518,405.7 337.21518,397.3 329.01518,394.8 C322.11518,392.6 319.71518,392.3 312.11518,392.7 C300.21518,393.4 299.71518,393.5 299.71518,393.9 C299.71518,395.5 315.51518,410.8 325.71518,419.1 C340.31518,431 343.81518,433.2 353.11518,436.2 C359.11518,438.1 361.51518,438.3 370.61518,437.8 C376.51518,437.5 384.51518,436.5 388.51518,435.5 C395.11518,433.9 397.01518,433.9 408.01518,435 C414.71518,435.8 423.11518,436.9 426.71518,437.7 C434.21518,439.2 447.81518,438.7 457.71518,436.4 Z M498.31518,390.1 C500.51518,389.6 504.91518,389.1 508.01518,389 C511.21518,388.9 513.71518,388.5 513.71518,388.2 C513.71518,387.9 512.31518,387 510.71518,386.2 C509.01518,385.5 504.81518,382.3 501.41518,379.2 C494.51518,372.8 487.41518,366.5 473.81518,354.6 C453.21518,336.7 446.51518,334.1 421.61518,334.1 C412.61518,334.1 400.31518,333.6 394.11518,333 C372.91518,330.8 365.71518,333.9 337.11518,357 C332.81518,360.5 327.21518,365.1 324.71518,367.3 C322.21518,369.4 316.21518,374.4 311.41518,378.3 C305.21518,383.3 303.01518,385.7 303.91518,386.3 C304.61518,386.7 308.41518,387.1 312.21518,387.1 C320.21518,387.1 331.51518,384.3 348.71518,378.1 C370.51518,370.2 390.81518,368.2 414.21518,371.6 C419.71518,372.4 429.01518,373.1 434.91518,373.1 C455.81518,373.1 462.51518,375.1 486.71518,388.1 C492.91518,391.4 492.71518,391.4 498.31518,390.1 Z" id="shape-e" fill="#000000" fill-rule="nonzero" transform="translate(409.1475, 385.0234) scale(1, -1) translate(-409.1475, -385.0234)"></path>
    </g>
</svg>