<?xml version="1.0" encoding="UTF-8"?>
<svg width="1280px" height="275px" viewBox="0 0 1280 275" version="1.1" xmlns="http://www.w3.org/2000/svg" xmlns:xlink="http://www.w3.org/1999/xlink">
    <title>vowels-mouth-shape-ɒ-ɔ</title>
    <g id="vowels-mouth-shape-ɒ-ɔ" stroke="none" stroke-width="1" fill="none" fill-rule="evenodd">
        <text id="ɒ/ɔː" font-family="CharisSIL, SauceCodePro Nerd Font" font-size="24" font-weight="normal" fill="#000000">
            <tspan x="395" y="228">ɒ/ɔː</tspan>
        </text>
        <text id="ɑ/ɑː/ɑr/æ" font-family="CharisSIL, SauceCodePro Nerd Font" font-size="24" font-weight="normal" fill="#000000">
            <tspan x="800" y="228">ɑ/ɑː/ɑr/æ</tspan>
        </text>
        <path d="M359.850068,175.207321 C354.150068,171.907321 348.450068,166.507321 338.650068,155.507321 C333.350068,149.407321 324.550068,139.807321 319.150068,134.007321 C313.750068,128.307321 308.150068,121.807321 306.650068,119.707321 L304.050068,115.707321 L308.550068,111.507321 C311.050068,109.307321 318.450068,102.807321 325.050068,97.2073212 C331.550068,91.5073212 342.350068,81.9073212 348.950068,75.8073212 C361.950068,63.7073212 367.150068,60.0073212 387.450068,48.3073212 C400.350068,40.8073212 401.250068,40.5073212 408.350068,40.1073212 C418.050068,39.5073212 437.950068,41.5073212 448.450068,44.0073212 C463.950068,47.7073212 468.150068,50.3073212 485.450068,67.8073212 C493.950068,76.4073212 506.550068,90.4073212 513.450068,98.9073212 C524.650068,112.707321 526.650068,114.707321 531.850068,117.207321 L537.750068,120.007321 L534.750068,121.907321 C533.050068,122.907321 523.850068,131.607321 514.250068,141.107321 C495.150068,160.307321 493.650068,161.307321 475.450068,167.007321 L464.950068,170.307321 L440.950068,170.507321 C417.750068,170.607321 416.650068,170.707321 407.950068,173.407321 C399.850068,175.907321 397.150068,176.207321 380.950068,176.507321 C365.150068,176.907321 362.550068,176.707321 359.850068,175.207321 Z M396.050068,171.607321 C399.850068,170.807321 407.450068,168.707321 412.850068,166.907321 C422.250068,163.707321 422.950068,163.607321 428.350068,164.807321 C431.450068,165.507321 438.750068,166.307321 444.550068,166.607321 C453.550068,167.107321 456.550068,166.807321 464.050068,164.907321 C489.450068,158.507321 497.050068,154.807321 506.750068,143.607321 C509.650068,140.407321 515.450068,134.007321 519.750068,129.407321 C528.750068,119.907321 528.650068,119.507321 516.550068,120.407321 C497.950068,121.807321 485.950068,124.407321 474.850068,129.307321 C468.150068,132.407321 468.350068,132.307321 459.050068,137.407321 C448.950068,142.907321 443.150068,143.807321 431.550068,141.707321 C421.450068,139.807321 418.350068,139.907321 411.650068,142.307321 C404.650068,144.807321 398.550068,145.207321 392.450068,143.407321 C389.450068,142.607321 386.550068,141.707321 385.950068,141.607321 C385.450068,141.507321 384.450068,141.007321 383.850068,140.707321 C383.250068,140.307321 376.950068,137.907321 369.850068,135.307321 C362.750068,132.807321 354.850068,129.607321 352.350068,128.307321 C349.750068,127.007321 347.450068,126.307321 347.050068,126.607321 C346.750068,127.007321 346.450068,126.707321 346.450068,126.107321 C346.450068,123.307321 323.250068,118.207321 314.650068,119.107321 L311.250068,119.407321 L323.750068,131.907321 C330.550068,138.807321 339.650068,148.907321 343.850068,154.307321 C351.350068,163.907321 357.750068,169.907321 362.650068,171.907321 C366.150068,173.307321 388.050068,173.107321 396.050068,171.607321 Z M359.050068,116.307321 C367.150068,112.707321 373.350068,109.607321 379.550068,106.207321 C389.450068,100.607321 412.750068,94.0073212 423.350068,93.8073212 C431.750068,93.6073212 454.850068,101.007321 471.950068,109.407321 C489.850068,118.207321 489.850068,118.207321 497.850068,117.607321 C512.050068,116.507321 520.450068,115.607321 520.450068,115.207321 C520.450068,114.407321 511.250068,101.307321 508.550068,98.4073212 C507.150068,96.8073212 503.850068,92.7073212 501.350068,89.4073212 C496.550068,83.2073212 474.550068,61.3073212 468.450068,56.7073212 C457.650068,48.6073212 427.150068,42.3073212 408.250068,44.3073212 C402.950068,44.9073212 400.150068,45.9073212 393.850068,49.7073212 C389.450068,52.2073212 385.750068,54.6073212 385.450068,54.9073212 C385.150068,55.2073212 381.750068,57.1073212 377.750068,59.1073212 C366.050068,65.1073212 360.250068,69.2073212 354.450068,76.0073212 C345.650068,86.3073212 339.250068,92.4073212 329.350068,100.007321 C326.750068,101.907321 322.350068,105.607321 319.550068,108.107321 L314.350068,112.807321 L318.150068,113.407321 C326.550068,114.707321 338.250068,117.007321 342.950068,118.307321 C350.050068,120.307321 350.350068,120.307321 359.050068,116.307321 Z" id="shape-o" fill="#000000" fill-rule="nonzero" transform="translate(420.9001, 108.3435) scale(1, -1) translate(-420.9001, -108.3435)"></path>
        <path d="M876.050068,175.917197 C873.050068,175.417197 858.050068,175.117197 842.850068,175.017197 L815.150068,174.917197 L807.850068,171.117197 C799.150068,166.617197 790.550068,160.517197 770.850068,144.717197 C754.750068,132.017197 749.850068,128.717197 743.350068,126.817197 C740.950068,126.117197 739.050068,125.217197 739.050068,124.817197 C739.050068,123.917197 745.850068,115.617197 756.950068,102.917197 C780.650068,75.8171968 799.450068,57.8171968 809.250068,52.8171968 C822.550068,46.0171968 835.350068,41.6171968 843.150068,41.1171968 C858.550068,40.2171968 884.750068,44.6171968 896.550068,50.3171968 C906.050068,54.8171968 913.550068,61.4171968 929.950068,79.8171968 C948.050068,100.117197 959.550068,111.117197 966.250068,114.517197 C969.150068,115.917197 972.350068,117.817197 973.350068,118.717197 C975.850068,120.917197 975.450068,123.817197 972.550068,124.917197 C971.250068,125.417197 965.950068,129.617197 960.950068,134.117197 C938.050068,154.717197 929.650068,161.117197 911.450068,171.317197 L901.550068,176.917197 L891.550068,176.817197 C886.050068,176.717197 879.050068,176.317197 876.050068,175.917197 Z M900.250068,171.517197 C915.650068,165.717197 933.350068,154.517197 945.550068,142.817197 C949.450068,139.117197 955.050068,133.817197 958.050068,131.017197 C961.050068,128.317197 963.250068,125.717197 962.850068,125.417197 C961.750068,124.317197 951.850068,128.517197 945.150068,132.917197 C938.650068,137.217197 923.750068,144.517197 911.750068,149.317197 C903.950068,152.417197 897.450068,152.817197 885.050068,151.017197 C878.750068,150.117197 874.650068,150.117197 869.050068,150.817197 C856.850068,152.517197 851.850068,153.617197 847.250068,155.417197 C840.450068,158.217197 830.150068,155.717197 812.250068,146.917197 C807.750068,144.717197 803.450068,142.917197 802.750068,142.917197 C802.050068,142.917197 801.050068,142.517197 800.550068,142.017197 C799.250068,140.817197 781.950068,133.617197 775.550068,131.617197 C769.150068,129.617197 758.150068,127.517197 757.550068,128.117197 C756.550068,129.117197 799.450068,162.217197 807.050068,166.317197 C809.750068,167.817197 815.250068,169.717197 819.150068,170.517197 C825.750068,171.917197 828.650068,171.817197 841.550068,170.317197 C850.650068,169.317197 869.050068,170.117197 876.550068,171.817197 C887.450068,174.417197 892.850068,174.317197 900.250068,171.517197 Z M767.550068,123.017197 C767.250068,122.417197 768.050068,121.517197 769.250068,120.817197 C770.550068,120.217197 773.350068,118.217197 775.550068,116.417197 C779.850068,113.017197 787.050068,109.117197 794.750068,106.017197 C799.350068,104.217197 810.150068,97.9171968 820.350068,90.9171968 C826.450068,86.8171968 844.250068,81.7171968 852.550068,81.7171968 C858.450068,81.7171968 871.850068,84.0171968 886.550068,87.4171968 C894.050068,89.2171968 903.050068,93.4171968 917.550068,102.017197 C931.250068,110.117197 947.550068,117.717197 952.050068,118.317197 C954.350068,118.517197 956.650068,119.217197 957.350068,119.717197 C958.450068,120.617197 963.050068,119.617197 963.050068,118.617197 C963.050068,118.417197 959.950068,115.917197 956.250068,113.117197 C952.550068,110.317197 947.550068,105.917197 945.150068,103.217197 C942.850068,100.617197 937.850068,95.0171968 934.150068,90.9171968 C930.350068,86.8171968 923.950068,79.3171968 919.750068,74.3171968 C915.650068,69.3171968 910.350068,63.6171968 908.150068,61.6171968 C900.650068,54.8171968 884.150068,47.9171968 875.650068,47.9171968 C873.350068,47.9171968 865.750068,46.9171968 858.650068,45.7171968 C848.150068,44.0171968 844.950068,43.8171968 841.150068,44.6171968 C834.750068,46.1171968 827.650068,48.7171968 820.550068,52.0171968 C817.250068,53.5171968 813.250068,55.1171968 811.750068,55.5171968 C805.750068,56.9171968 765.950068,96.2171968 755.150068,111.317197 C748.050068,121.117197 748.150068,121.417197 756.050068,122.417197 C758.550068,122.817197 761.050068,123.217197 761.550068,123.417197 C763.750068,124.217197 768.150068,123.817197 767.550068,123.017197 Z" id="shape-a" fill="#000000" fill-rule="nonzero" transform="translate(857.025, 108.9586) scale(1, -1) translate(-857.025, -108.9586)"></path>
    </g>
</svg>