<?xml version="1.0" encoding="UTF-8"?>
<svg width="1280px" height="275px" viewBox="0 0 1280 275" version="1.1" xmlns="http://www.w3.org/2000/svg" xmlns:xlink="http://www.w3.org/1999/xlink">
    <title>vowels-mouth-ʌ-ɑ</title>
    <g id="vowels-mouth-ʌ-ɑ" stroke="none" stroke-width="1" fill="none" fill-rule="evenodd">
        <text id="ʌ/ə/ɪ" font-family="CharisSIL, SauceCodePro Nerd Font" font-size="24" font-weight="normal" fill="#000000">
            <tspan x="381" y="228">ʌ/ə/ɪ</tspan>
        </text>
        <text id="ɑ/ɑː/ɑr/æ" font-family="CharisSIL, SauceCodePro Nerd Font" font-size="24" font-weight="normal" fill="#000000">
            <tspan x="826" y="228">ɑ/ɑː/ɑr/æ</tspan>
        </text>
        <path d="M350.5,157.680546 C343.5,156.680546 339.3,154.380546 322.7,141.980546 C314.8,136.080546 305.3,129.080546 301.6,126.480546 C298,123.780546 295,121.280546 295,120.780546 C295,120.280546 296.1,119.980546 297.5,119.980546 C299.3,119.980546 302.6,117.380546 309.3,110.980546 C320,100.480546 323,97.8805465 336.5,87.0805465 C359.2,68.8805465 370,62.2805465 383.7,58.5805465 C390.8,56.5805465 393.1,56.4805465 411,56.9805465 C423.6,57.3805465 432.7,58.0805465 436.8,59.0805465 C453.7,63.2805465 487.9,84.8805465 510.4,105.480546 C519.1,113.480546 520.7,114.480546 526.6,115.980546 C529.2,116.680546 531.5,117.680546 531.7,118.380546 C532,118.980546 530.1,121.080546 527.7,122.880546 C525.3,124.680546 520.5,128.480546 517.1,131.380546 C513.8,134.280546 508.9,137.880546 506.2,139.380546 C503.6,140.880546 497.5,144.780546 492.5,147.880546 C482.5,154.380546 475,157.080546 464.2,158.180546 C456.3,158.980546 428.8,157.880546 429.4,156.780546 C430.3,155.380546 400.6,155.180546 389,156.480546 C376.6,157.980546 356.8,158.480546 350.5,157.680546 Z M385.5,152.080546 C390.1,150.680546 394.2,150.380546 403.5,150.580546 C414.2,150.780546 433.5,152.080546 441.5,153.080546 C454.1,154.780546 461.9,154.680546 470.1,152.880546 C480.2,150.580546 485.5,147.780546 494.1,139.780546 C497.6,136.580546 503.8,131.880546 507.8,129.180546 C511.8,126.580546 515,124.280546 514.7,124.080546 C514,123.280546 497.5,125.880546 494,127.380546 C484.9,131.180546 466.5,136.680546 463,136.680546 C460.8,136.680546 455.8,136.180546 451.8,135.580546 C445,134.580546 441.8,133.880546 424,130.080546 C415,128.180546 409.4,128.380546 395.5,131.280546 C376.1,135.380546 373,135.780546 362,136.180546 C351.1,136.480546 345.7,135.380546 335.4,130.680546 C333.1,129.580546 329.9,128.480546 328.4,128.080546 C326.8,127.680546 325.1,127.080546 324.5,126.680546 C322.2,124.980546 308.3,122.380546 306.6,123.380546 C305.1,124.180546 305.6,124.880546 310.2,127.780546 C313.1,129.680546 318.9,133.880546 323,137.280546 C335.8,147.580546 343.5,152.380546 350.5,154.080546 C355.3,155.280546 379.6,153.880546 385.5,152.080546 Z M509.8,116.080546 C511,115.780546 512,115.080546 512,114.580546 C512,113.280546 500.1,100.880546 495.9,97.8805465 C477.9,85.0805465 458.1,72.2805465 451.5,69.1805465 C447.1,67.0805465 442.7,64.9805465 441.7,64.4805465 C438.7,62.9805465 432,62.3805465 430.6,63.5805465 C429.7,64.3805465 426.9,64.1805465 420.4,62.7805465 C414.2,61.3805465 408.1,60.8805465 400,60.9805465 C387.6,61.1805465 389.2,60.6805465 369.5,70.1805465 C365.7,71.9805465 360.3,75.4805465 357.6,77.8805465 C352.8,82.1805465 345.1,87.9805465 331.5,97.5805465 C327.7,100.280546 321.4,105.480546 317.5,109.080546 L310.5,115.580546 L315.3,115.680546 C318,115.680546 324.7,114.680546 330.3,113.580546 C341.1,111.280546 348.2,110.880546 356.7,111.780546 C362.8,112.480546 372.5,110.780546 383,107.180546 C393.6,103.580546 403.4,102.680546 415.5,104.380546 C421,105.080546 428.2,105.880546 431.5,106.180546 C439.2,106.680546 443.9,107.280546 458,109.780546 C464.3,110.880546 473.8,112.480546 479,113.380546 C484.2,114.280546 490.8,115.580546 493.5,116.280546 C498.3,117.580546 505,117.480546 509.8,116.080546 Z" id="shape-i" fill="#000000" fill-rule="nonzero" transform="translate(413.3656, 107.5909) scale(1, -1) translate(-413.3656, -107.5909)"></path>
        <path d="M887.050068,174.917197 C884.050068,174.417197 869.050068,174.117197 853.850068,174.017197 L826.150068,173.917197 L818.850068,170.117197 C810.150068,165.617197 801.550068,159.517197 781.850068,143.717197 C765.750068,131.017197 760.850068,127.717197 754.350068,125.817197 C751.950068,125.117197 750.050068,124.217197 750.050068,123.817197 C750.050068,122.917197 756.850068,114.617197 767.950068,101.917197 C791.650068,74.8171968 810.450068,56.8171968 820.250068,51.8171968 C833.550068,45.0171968 846.350068,40.6171968 854.150068,40.1171968 C869.550068,39.2171968 895.750068,43.6171968 907.550068,49.3171968 C917.050068,53.8171968 924.550068,60.4171968 940.950068,78.8171968 C959.050068,99.1171968 970.550068,110.117197 977.250068,113.517197 C980.150068,114.917197 983.350068,116.817197 984.350068,117.717197 C986.850068,119.917197 986.450068,122.817197 983.550068,123.917197 C982.250068,124.417197 976.950068,128.617197 971.950068,133.117197 C949.050068,153.717197 940.650068,160.117197 922.450068,170.317197 L912.550068,175.917197 L902.550068,175.817197 C897.050068,175.717197 890.050068,175.317197 887.050068,174.917197 Z M911.250068,170.517197 C926.650068,164.717197 944.350068,153.517197 956.550068,141.817197 C960.450068,138.117197 966.050068,132.817197 969.050068,130.017197 C972.050068,127.317197 974.250068,124.717197 973.850068,124.417197 C972.750068,123.317197 962.850068,127.517197 956.150068,131.917197 C949.650068,136.217197 934.750068,143.517197 922.750068,148.317197 C914.950068,151.417197 908.450068,151.817197 896.050068,150.017197 C889.750068,149.117197 885.650068,149.117197 880.050068,149.817197 C867.850068,151.517197 862.850068,152.617197 858.250068,154.417197 C851.450068,157.217197 841.150068,154.717197 823.250068,145.917197 C818.750068,143.717197 814.450068,141.917197 813.750068,141.917197 C813.050068,141.917197 812.050068,141.517197 811.550068,141.017197 C810.250068,139.817197 792.950068,132.617197 786.550068,130.617197 C780.150068,128.617197 769.150068,126.517197 768.550068,127.117197 C767.550068,128.117197 810.450068,161.217197 818.050068,165.317197 C820.750068,166.817197 826.250068,168.717197 830.150068,169.517197 C836.750068,170.917197 839.650068,170.817197 852.550068,169.317197 C861.650068,168.317197 880.050068,169.117197 887.550068,170.817197 C898.450068,173.417197 903.850068,173.317197 911.250068,170.517197 Z M778.550068,122.017197 C778.250068,121.417197 779.050068,120.517197 780.250068,119.817197 C781.550068,119.217197 784.350068,117.217197 786.550068,115.417197 C790.850068,112.017197 798.050068,108.117197 805.750068,105.017197 C810.350068,103.217197 821.150068,96.9171968 831.350068,89.9171968 C837.450068,85.8171968 855.250068,80.7171968 863.550068,80.7171968 C869.450068,80.7171968 882.850068,83.0171968 897.550068,86.4171968 C905.050068,88.2171968 914.050068,92.4171968 928.550068,101.017197 C942.250068,109.117197 958.550068,116.717197 963.050068,117.317197 C965.350068,117.517197 967.650068,118.217197 968.350068,118.717197 C969.450068,119.617197 974.050068,118.617197 974.050068,117.617197 C974.050068,117.417197 970.950068,114.917197 967.250068,112.117197 C963.550068,109.317197 958.550068,104.917197 956.150068,102.217197 C953.850068,99.6171968 948.850068,94.0171968 945.150068,89.9171968 C941.350068,85.8171968 934.950068,78.3171968 930.750068,73.3171968 C926.650068,68.3171968 921.350068,62.6171968 919.150068,60.6171968 C911.650068,53.8171968 895.150068,46.9171968 886.650068,46.9171968 C884.350068,46.9171968 876.750068,45.9171968 869.650068,44.7171968 C859.150068,43.0171968 855.950068,42.8171968 852.150068,43.6171968 C845.750068,45.1171968 838.650068,47.7171968 831.550068,51.0171968 C828.250068,52.5171968 824.250068,54.1171968 822.750068,54.5171968 C816.750068,55.9171968 776.950068,95.2171968 766.150068,110.317197 C759.050068,120.117197 759.150068,120.417197 767.050068,121.417197 C769.550068,121.817197 772.050068,122.217197 772.550068,122.417197 C774.750068,123.217197 779.150068,122.817197 778.550068,122.017197 Z" id="shape-a" fill="#000000" fill-rule="nonzero" transform="translate(868.025, 107.9586) scale(1, -1) translate(-868.025, -107.9586)"></path>
    </g>
</svg>