<?xml version="1.0" encoding="UTF-8"?>
<svg width="1280px" height="825px" viewBox="0 0 1280 825" version="1.1" xmlns="http://www.w3.org/2000/svg" xmlns:xlink="http://www.w3.org/1999/xlink">
    <title>vowels-mouth-shape-eə</title>
    <g id="vowels-mouth-shape-eə" stroke="none" stroke-width="1" fill="none" fill-rule="evenodd">
        <text id="ə" font-family="CharisSIL, SauceCodePro Nerd Font" font-size="24" font-weight="normal" fill="#000000">
            <tspan x="862" y="246">ə</tspan>
        </text>
        <text id="ə" font-family="CharisSIL, SauceCodePro Nerd Font" font-size="24" font-weight="normal" fill="#000000">
            <tspan x="862" y="496">ə</tspan>
        </text>
        <text id="ə" font-family="CharisSIL, SauceCodePro Nerd Font" font-size="24" font-weight="normal" fill="#000000">
            <tspan x="862" y="761">ə</tspan>
        </text>
        <path d="M356.465248,171.459945 C347.365248,169.559945 337.065248,163.459945 323.865248,152.159945 C316.365248,145.759945 289.865248,121.359945 289.465248,120.459945 C289.265248,120.159945 291.065248,118.859945 293.465248,117.559945 C300.465248,113.559945 312.965248,104.259945 327.165248,92.3599448 C348.565248,74.4599448 357.965248,67.5599448 367.765248,62.8599448 L376.965248,58.3599448 L398.765248,59.4599448 C430.765248,60.9599448 445.965248,62.3599448 451.865248,64.4599448 C459.465248,67.1599448 469.365248,74.3599448 490.665248,92.9599448 C510.565248,110.359945 516.465248,114.459945 524.565248,116.959945 C529.965248,118.559945 532.465248,120.259945 531.565248,121.559945 C531.265248,122.059945 530.265248,122.459945 529.165248,122.459945 C528.165248,122.459945 525.065248,125.159945 522.165248,128.459945 C519.365248,131.759945 513.965248,136.759945 510.365248,139.659945 C506.665248,142.559945 500.365248,147.959945 496.365248,151.659945 C476.065248,170.359945 454.965248,175.359945 415.265248,170.859945 C403.365248,169.459945 399.765248,169.459945 393.765248,170.459945 C384.565248,171.959945 361.865248,172.659945 356.465248,171.459945 Z M459.165248,166.759945 C467.065248,164.959945 477.265248,161.059945 482.665248,157.659945 C484.865248,156.259945 490.065248,151.759945 494.165248,147.559945 C498.365248,143.359945 505.265248,137.259945 509.665248,133.959945 C518.565248,127.159945 520.165248,125.659945 520.165248,124.359945 C520.165248,122.459945 500.665248,124.159945 499.365248,126.159945 C498.965248,126.659945 497.365248,127.159945 495.665248,127.259945 C491.865248,127.359945 475.765248,133.159945 466.665248,137.659945 C462.865248,139.659945 456.565248,142.459945 452.665248,143.959945 C445.165248,146.959945 442.065248,147.159945 415.665248,146.459945 C408.565248,146.159945 403.265248,146.559945 400.865248,147.359945 C398.765248,148.059945 393.765248,148.659945 389.765248,148.759945 C384.065248,148.859945 381.665248,148.359945 378.165248,146.559945 C372.565248,143.659945 362.965248,139.959945 361.765248,140.259945 C361.265248,140.459945 360.165248,139.859945 359.165248,138.959945 C355.965248,136.059945 338.665248,127.659945 330.465248,125.159945 C323.565248,122.959945 321.165248,122.659945 313.565248,123.059945 C301.665248,123.759945 301.165248,123.859945 301.165248,124.259945 C301.165248,125.859945 316.965248,141.159945 327.165248,149.459945 C341.765248,161.359945 345.265248,163.559945 354.565248,166.559945 C360.565248,168.459945 362.965248,168.659945 372.065248,168.159945 C377.965248,167.859945 385.965248,166.859945 389.965248,165.859945 C396.565248,164.259945 398.465248,164.259945 409.465248,165.359945 C416.165248,166.159945 424.565248,167.259945 428.165248,168.059945 C435.665248,169.559945 449.265248,169.059945 459.165248,166.759945 Z M499.765248,120.459945 C501.965248,119.959945 506.365248,119.459945 509.465248,119.359945 C512.665248,119.259945 515.165248,118.859945 515.165248,118.559945 C515.165248,118.259945 513.765248,117.359945 512.165248,116.559945 C510.465248,115.859945 506.265248,112.659945 502.865248,109.559945 C495.965248,103.159945 488.865248,96.8599448 475.265248,84.9599448 C454.665248,67.0599448 447.965248,64.4599448 423.065248,64.4599448 C414.065248,64.4599448 401.765248,63.9599448 395.565248,63.3599448 C374.365248,61.1599448 367.165248,64.2599448 338.565248,87.3599448 C334.265248,90.8599448 328.665248,95.4599448 326.165248,97.6599448 C323.665248,99.7599448 317.665248,104.759945 312.865248,108.659945 C306.665248,113.659945 304.465248,116.059945 305.365248,116.659945 C306.065248,117.059945 309.865248,117.459945 313.665248,117.459945 C321.665248,117.459945 332.965248,114.659945 350.165248,108.459945 C371.965248,100.559945 392.265248,98.5599448 415.665248,101.959945 C421.165248,102.759945 430.465248,103.459945 436.365248,103.459945 C457.265248,103.459945 463.965248,105.459945 488.165248,118.459945 C494.365248,121.759945 494.165248,121.759945 499.765248,120.459945 Z" id="shape-e" fill="#000000" fill-rule="nonzero" transform="translate(410.5976, 115.3834) scale(1, -1) translate(-410.5976, -115.3834)"></path>
        <text id="e" font-family="CharisSIL, SauceCodePro Nerd Font" font-size="24" font-weight="normal" fill="#000000">
            <tspan x="404" y="246">e</tspan>
        </text>
        <text id="ɪ" font-family="CharisSIL, SauceCodePro Nerd Font" font-size="24" font-weight="normal" fill="#000000">
            <tspan x="404" y="496">ɪ</tspan>
        </text>
        <text id="u" font-family="CharisSIL, SauceCodePro Nerd Font" font-size="24" font-weight="normal" fill="#000000">
            <tspan x="404" y="761">u</tspan>
        </text>
        <path id="Line-17" d="M679.640179,109.51306 L693.472652,116.838542 L679.312783,123.509231 L679.453,117.511 L593.476615,115.499727 L592.476888,115.476341 L592.523659,113.476888 L593.523385,113.500273 L679.499,115.511 L679.640179,109.51306 Z" transform="translate(643.4863, 115.6693) rotate(-1.34) translate(-643.4863, -115.6693)" fill="#656464" fill-rule="nonzero"></path>
        <path id="Line-17-Copy" d="M678.640179,370.51306 L692.472652,377.838542 L678.312783,384.509231 L678.453,378.511 L592.476615,376.499727 L591.476888,376.476341 L591.523659,374.476888 L592.523385,374.500273 L678.499,376.511 L678.640179,370.51306 Z" transform="translate(642.4863, 376.6693) rotate(-1.34) translate(-642.4863, -376.6693)" fill="#656464" fill-rule="nonzero"></path>
        <path d="M807.550068,706.207321 C801.850068,702.907321 796.150068,697.507321 786.350068,686.507321 C781.050068,680.407321 772.250068,670.807321 766.850068,665.007321 C761.450068,659.307321 755.850068,652.807321 754.350068,650.707321 L751.750068,646.707321 L756.250068,642.507321 C758.750068,640.307321 766.150068,633.807321 772.750068,628.207321 C779.250068,622.507321 790.050068,612.907321 796.650068,606.807321 C809.650068,594.707321 814.850068,591.007321 835.150068,579.307321 C848.050068,571.807321 848.950068,571.507321 856.050068,571.107321 C865.750068,570.507321 885.650068,572.507321 896.150068,575.007321 C911.650068,578.707321 915.850068,581.307321 933.150068,598.807321 C941.650068,607.407321 954.250068,621.407321 961.150068,629.907321 C972.350068,643.707321 974.350068,645.707321 979.550068,648.207321 L985.450068,651.007321 L982.450068,652.907321 C980.750068,653.907321 971.550068,662.607321 961.950068,672.107321 C942.850068,691.307321 941.350068,692.307321 923.150068,698.007321 L912.650068,701.307321 L888.650068,701.507321 C865.450068,701.607321 864.350068,701.707321 855.650068,704.407321 C847.550068,706.907321 844.850068,707.207321 828.650068,707.507321 C812.850068,707.907321 810.250068,707.707321 807.550068,706.207321 Z M843.750068,702.607321 C847.550068,701.807321 855.150068,699.707321 860.550068,697.907321 C869.950068,694.707321 870.650068,694.607321 876.050068,695.807321 C879.150068,696.507321 886.450068,697.307321 892.250068,697.607321 C901.250068,698.107321 904.250068,697.807321 911.750068,695.907321 C937.150068,689.507321 944.750068,685.807321 954.450068,674.607321 C957.350068,671.407321 963.150068,665.007321 967.450068,660.407321 C976.450068,650.907321 976.350068,650.507321 964.250068,651.407321 C945.650068,652.807321 933.650068,655.407321 922.550068,660.307321 C915.850068,663.407321 916.050068,663.307321 906.750068,668.407321 C896.650068,673.907321 890.850068,674.807321 879.250068,672.707321 C869.150068,670.807321 866.050068,670.907321 859.350068,673.307321 C852.350068,675.807321 846.250068,676.207321 840.150068,674.407321 C837.150068,673.607321 834.250068,672.707321 833.650068,672.607321 C833.150068,672.507321 832.150068,672.007321 831.550068,671.707321 C830.950068,671.307321 824.650068,668.907321 817.550068,666.307321 C810.450068,663.807321 802.550068,660.607321 800.050068,659.307321 C797.450068,658.007321 795.150068,657.307321 794.750068,657.607321 C794.450068,658.007321 794.150068,657.707321 794.150068,657.107321 C794.150068,654.307321 770.950068,649.207321 762.350068,650.107321 L758.950068,650.407321 L771.450068,662.907321 C778.250068,669.807321 787.350068,679.907321 791.550068,685.307321 C799.050068,694.907321 805.450068,700.907321 810.350068,702.907321 C813.850068,704.307321 835.750068,704.107321 843.750068,702.607321 Z M806.750068,647.307321 C814.850068,643.707321 821.050068,640.607321 827.250068,637.207321 C837.150068,631.607321 860.450068,625.007321 871.050068,624.807321 C879.450068,624.607321 902.550068,632.007321 919.650068,640.407321 C937.550068,649.207321 937.550068,649.207321 945.550068,648.607321 C959.750068,647.507321 968.150068,646.607321 968.150068,646.207321 C968.150068,645.407321 958.950068,632.307321 956.250068,629.407321 C954.850068,627.807321 951.550068,623.707321 949.050068,620.407321 C944.250068,614.207321 922.250068,592.307321 916.150068,587.707321 C905.350068,579.607321 874.850068,573.307321 855.950068,575.307321 C850.650068,575.907321 847.850068,576.907321 841.550068,580.707321 C837.150068,583.207321 833.450068,585.607321 833.150068,585.907321 C832.850068,586.207321 829.450068,588.107321 825.450068,590.107321 C813.750068,596.107321 807.950068,600.207321 802.150068,607.007321 C793.350068,617.307321 786.950068,623.407321 777.050068,631.007321 C774.450068,632.907321 770.050068,636.607321 767.250068,639.107321 L762.050068,643.807321 L765.850068,644.407321 C774.250068,645.707321 785.950068,648.007321 790.650068,649.307321 C797.750068,651.307321 798.050068,651.307321 806.750068,647.307321 Z" id="shape-u" fill="#000000" fill-rule="nonzero" transform="translate(868.6001, 639.3435) scale(1, -1) translate(-868.6001, -639.3435)"></path>
        <path d="M814.465248,171.459945 C805.365248,169.559945 795.065248,163.459945 781.865248,152.159945 C774.365248,145.759945 747.865248,121.359945 747.465248,120.459945 C747.265248,120.159945 749.065248,118.859945 751.465248,117.559945 C758.465248,113.559945 770.965248,104.259945 785.165248,92.3599448 C806.565248,74.4599448 815.965248,67.5599448 825.765248,62.8599448 L834.965248,58.3599448 L856.765248,59.4599448 C888.765248,60.9599448 903.965248,62.3599448 909.865248,64.4599448 C917.465248,67.1599448 927.365248,74.3599448 948.665248,92.9599448 C968.565248,110.359945 974.465248,114.459945 982.565248,116.959945 C987.965248,118.559945 990.465248,120.259945 989.565248,121.559945 C989.265248,122.059945 988.265248,122.459945 987.165248,122.459945 C986.165248,122.459945 983.065248,125.159945 980.165248,128.459945 C977.365248,131.759945 971.965248,136.759945 968.365248,139.659945 C964.665248,142.559945 958.365248,147.959945 954.365248,151.659945 C934.065248,170.359945 912.965248,175.359945 873.265248,170.859945 C861.365248,169.459945 857.765248,169.459945 851.765248,170.459945 C842.565248,171.959945 819.865248,172.659945 814.465248,171.459945 Z M917.165248,166.759945 C925.065248,164.959945 935.265248,161.059945 940.665248,157.659945 C942.865248,156.259945 948.065248,151.759945 952.165248,147.559945 C956.365248,143.359945 963.265248,137.259945 967.665248,133.959945 C976.565248,127.159945 978.165248,125.659945 978.165248,124.359945 C978.165248,122.459945 958.665248,124.159945 957.365248,126.159945 C956.965248,126.659945 955.365248,127.159945 953.665248,127.259945 C949.865248,127.359945 933.765248,133.159945 924.665248,137.659945 C920.865248,139.659945 914.565248,142.459945 910.665248,143.959945 C903.165248,146.959945 900.065248,147.159945 873.665248,146.459945 C866.565248,146.159945 861.265248,146.559945 858.865248,147.359945 C856.765248,148.059945 851.765248,148.659945 847.765248,148.759945 C842.065248,148.859945 839.665248,148.359945 836.165248,146.559945 C830.565248,143.659945 820.965248,139.959945 819.765248,140.259945 C819.265248,140.459945 818.165248,139.859945 817.165248,138.959945 C813.965248,136.059945 796.665248,127.659945 788.465248,125.159945 C781.565248,122.959945 779.165248,122.659945 771.565248,123.059945 C759.665248,123.759945 759.165248,123.859945 759.165248,124.259945 C759.165248,125.859945 774.965248,141.159945 785.165248,149.459945 C799.765248,161.359945 803.265248,163.559945 812.565248,166.559945 C818.565248,168.459945 820.965248,168.659945 830.065248,168.159945 C835.965248,167.859945 843.965248,166.859945 847.965248,165.859945 C854.565248,164.259945 856.465248,164.259945 867.465248,165.359945 C874.165248,166.159945 882.565248,167.259945 886.165248,168.059945 C893.665248,169.559945 907.265248,169.059945 917.165248,166.759945 Z M957.765248,120.459945 C959.965248,119.959945 964.365248,119.459945 967.465248,119.359945 C970.665248,119.259945 973.165248,118.859945 973.165248,118.559945 C973.165248,118.259945 971.765248,117.359945 970.165248,116.559945 C968.465248,115.859945 964.265248,112.659945 960.865248,109.559945 C953.965248,103.159945 946.865248,96.8599448 933.265248,84.9599448 C912.665248,67.0599448 905.965248,64.4599448 881.065248,64.4599448 C872.065248,64.4599448 859.765248,63.9599448 853.565248,63.3599448 C832.365248,61.1599448 825.165248,64.2599448 796.565248,87.3599448 C792.265248,90.8599448 786.665248,95.4599448 784.165248,97.6599448 C781.665248,99.7599448 775.665248,104.759945 770.865248,108.659945 C764.665248,113.659945 762.465248,116.059945 763.365248,116.659945 C764.065248,117.059945 767.865248,117.459945 771.665248,117.459945 C779.665248,117.459945 790.965248,114.659945 808.165248,108.459945 C829.965248,100.559945 850.265248,98.5599448 873.665248,101.959945 C879.165248,102.759945 888.465248,103.459945 894.365248,103.459945 C915.265248,103.459945 921.965248,105.459945 946.165248,118.459945 C952.365248,121.759945 952.165248,121.759945 957.765248,120.459945 Z" id="shape-e" fill="#000000" fill-rule="nonzero" transform="translate(868.5976, 115.3834) scale(1, -1) translate(-868.5976, -115.3834)"></path>
        <path d="M805.5,437.953299 C798.5,436.953299 794.3,434.653299 777.7,422.253299 C769.8,416.353299 760.3,409.353299 756.6,406.753299 C753,404.053299 750,401.553299 750,401.053299 C750,400.553299 751.1,400.253299 752.5,400.253299 C754.3,400.253299 757.6,397.653299 764.3,391.253299 C775,380.753299 778,378.153299 791.5,367.353299 C814.2,349.153299 825,342.553299 838.7,338.853299 C845.8,336.853299 848.1,336.753299 866,337.253299 C878.6,337.653299 887.7,338.353299 891.8,339.353299 C908.7,343.553299 942.9,365.153299 965.4,385.753299 C974.1,393.753299 975.7,394.753299 981.6,396.253299 C984.2,396.953299 986.5,397.953299 986.7,398.653299 C987,399.253299 985.1,401.353299 982.7,403.153299 C980.3,404.953299 975.5,408.753299 972.1,411.653299 C968.8,414.553299 963.9,418.153299 961.2,419.653299 C958.6,421.153299 952.5,425.053299 947.5,428.153299 C937.5,434.653299 930,437.353299 919.2,438.453299 C911.3,439.253299 883.8,438.153299 884.4,437.053299 C885.3,435.653299 855.6,435.453299 844,436.753299 C831.6,438.253299 811.8,438.753299 805.5,437.953299 Z M840.5,432.353299 C845.1,430.953299 849.2,430.653299 858.5,430.853299 C869.2,431.053299 888.5,432.353299 896.5,433.353299 C909.1,435.053299 916.9,434.953299 925.1,433.153299 C935.2,430.853299 940.5,428.053299 949.1,420.053299 C952.6,416.853299 958.8,412.153299 962.8,409.453299 C966.8,406.853299 970,404.553299 969.7,404.353299 C969,403.553299 952.5,406.153299 949,407.653299 C939.9,411.453299 921.5,416.953299 918,416.953299 C915.8,416.953299 910.8,416.453299 906.8,415.853299 C900,414.853299 896.8,414.153299 879,410.353299 C870,408.453299 864.4,408.653299 850.5,411.553299 C831.1,415.653299 828,416.053299 817,416.453299 C806.1,416.753299 800.7,415.653299 790.4,410.953299 C788.1,409.853299 784.9,408.753299 783.4,408.353299 C781.8,407.953299 780.1,407.353299 779.5,406.953299 C777.2,405.253299 763.3,402.653299 761.6,403.653299 C760.1,404.453299 760.6,405.153299 765.2,408.053299 C768.1,409.953299 773.9,414.153299 778,417.553299 C790.8,427.853299 798.5,432.653299 805.5,434.353299 C810.3,435.553299 834.6,434.153299 840.5,432.353299 Z M964.8,396.353299 C966,396.053299 967,395.353299 967,394.853299 C967,393.553299 955.1,381.153299 950.9,378.153299 C932.9,365.353299 913.1,352.553299 906.5,349.453299 C902.1,347.353299 897.7,345.253299 896.7,344.753299 C893.7,343.253299 887,342.653299 885.6,343.853299 C884.7,344.653299 881.9,344.453299 875.4,343.053299 C869.2,341.653299 863.1,341.153299 855,341.253299 C842.6,341.453299 844.2,340.953299 824.5,350.453299 C820.7,352.253299 815.3,355.753299 812.6,358.153299 C807.8,362.453299 800.1,368.253299 786.5,377.853299 C782.7,380.553299 776.4,385.753299 772.5,389.353299 L765.5,395.853299 L770.3,395.953299 C773,395.953299 779.7,394.953299 785.3,393.853299 C796.1,391.553299 803.2,391.153299 811.7,392.053299 C817.8,392.753299 827.5,391.053299 838,387.453299 C848.6,383.853299 858.4,382.953299 870.5,384.653299 C876,385.353299 883.2,386.153299 886.5,386.453299 C894.2,386.953299 898.9,387.553299 913,390.053299 C919.3,391.153299 928.8,392.753299 934,393.653299 C939.2,394.553299 945.8,395.853299 948.5,396.553299 C953.3,397.853299 960,397.753299 964.8,396.353299 Z" id="shape-i" fill="#000000" fill-rule="nonzero" transform="translate(868.3656, 387.8636) scale(1, -1) translate(-868.3656, -387.8636)"></path>
        <path id="Line-17-Copy-2" d="M679.640179,633.51306 L693.472652,640.838542 L679.312783,647.509231 L679.453,641.511 L593.476615,639.499727 L592.476888,639.476341 L592.523659,637.476888 L593.523385,637.500273 L679.499,639.511 L679.640179,633.51306 Z" transform="translate(643.4863, 639.6693) rotate(-1.34) translate(-643.4863, -639.6693)" fill="#656464" fill-rule="nonzero"></path>
        <path d="M350.5,437.953299 C343.5,436.953299 339.3,434.653299 322.7,422.253299 C314.8,416.353299 305.3,409.353299 301.6,406.753299 C298,404.053299 295,401.553299 295,401.053299 C295,400.553299 296.1,400.253299 297.5,400.253299 C299.3,400.253299 302.6,397.653299 309.3,391.253299 C320,380.753299 323,378.153299 336.5,367.353299 C359.2,349.153299 370,342.553299 383.7,338.853299 C390.8,336.853299 393.1,336.753299 411,337.253299 C423.6,337.653299 432.7,338.353299 436.8,339.353299 C453.7,343.553299 487.9,365.153299 510.4,385.753299 C519.1,393.753299 520.7,394.753299 526.6,396.253299 C529.2,396.953299 531.5,397.953299 531.7,398.653299 C532,399.253299 530.1,401.353299 527.7,403.153299 C525.3,404.953299 520.5,408.753299 517.1,411.653299 C513.8,414.553299 508.9,418.153299 506.2,419.653299 C503.6,421.153299 497.5,425.053299 492.5,428.153299 C482.5,434.653299 475,437.353299 464.2,438.453299 C456.3,439.253299 428.8,438.153299 429.4,437.053299 C430.3,435.653299 400.6,435.453299 389,436.753299 C376.6,438.253299 356.8,438.753299 350.5,437.953299 Z M385.5,432.353299 C390.1,430.953299 394.2,430.653299 403.5,430.853299 C414.2,431.053299 433.5,432.353299 441.5,433.353299 C454.1,435.053299 461.9,434.953299 470.1,433.153299 C480.2,430.853299 485.5,428.053299 494.1,420.053299 C497.6,416.853299 503.8,412.153299 507.8,409.453299 C511.8,406.853299 515,404.553299 514.7,404.353299 C514,403.553299 497.5,406.153299 494,407.653299 C484.9,411.453299 466.5,416.953299 463,416.953299 C460.8,416.953299 455.8,416.453299 451.8,415.853299 C445,414.853299 441.8,414.153299 424,410.353299 C415,408.453299 409.4,408.653299 395.5,411.553299 C376.1,415.653299 373,416.053299 362,416.453299 C351.1,416.753299 345.7,415.653299 335.4,410.953299 C333.1,409.853299 329.9,408.753299 328.4,408.353299 C326.8,407.953299 325.1,407.353299 324.5,406.953299 C322.2,405.253299 308.3,402.653299 306.6,403.653299 C305.1,404.453299 305.6,405.153299 310.2,408.053299 C313.1,409.953299 318.9,414.153299 323,417.553299 C335.8,427.853299 343.5,432.653299 350.5,434.353299 C355.3,435.553299 379.6,434.153299 385.5,432.353299 Z M509.8,396.353299 C511,396.053299 512,395.353299 512,394.853299 C512,393.553299 500.1,381.153299 495.9,378.153299 C477.9,365.353299 458.1,352.553299 451.5,349.453299 C447.1,347.353299 442.7,345.253299 441.7,344.753299 C438.7,343.253299 432,342.653299 430.6,343.853299 C429.7,344.653299 426.9,344.453299 420.4,343.053299 C414.2,341.653299 408.1,341.153299 400,341.253299 C387.6,341.453299 389.2,340.953299 369.5,350.453299 C365.7,352.253299 360.3,355.753299 357.6,358.153299 C352.8,362.453299 345.1,368.253299 331.5,377.853299 C327.7,380.553299 321.4,385.753299 317.5,389.353299 L310.5,395.853299 L315.3,395.953299 C318,395.953299 324.7,394.953299 330.3,393.853299 C341.1,391.553299 348.2,391.153299 356.7,392.053299 C362.8,392.753299 372.5,391.053299 383,387.453299 C393.6,383.853299 403.4,382.953299 415.5,384.653299 C421,385.353299 428.2,386.153299 431.5,386.453299 C439.2,386.953299 443.9,387.553299 458,390.053299 C464.3,391.153299 473.8,392.753299 479,393.653299 C484.2,394.553299 490.8,395.853299 493.5,396.553299 C498.3,397.853299 505,397.753299 509.8,396.353299 Z" id="shape-i" fill="#000000" fill-rule="nonzero" transform="translate(413.3656, 387.8636) scale(1, -1) translate(-413.3656, -387.8636)"></path>
        <path d="M349.8,706.207321 C344.1,702.907321 338.4,697.507321 328.6,686.507321 C323.3,680.407321 314.5,670.807321 309.1,665.007321 C303.7,659.307321 298.1,652.807321 296.6,650.707321 L294,646.707321 L298.5,642.507321 C301,640.307321 308.4,633.807321 315,628.207321 C321.5,622.507321 332.3,612.907321 338.9,606.807321 C351.9,594.707321 357.1,591.007321 377.4,579.307321 C390.3,571.807321 391.2,571.507321 398.3,571.107321 C408,570.507321 427.9,572.507321 438.4,575.007321 C453.9,578.707321 458.1,581.307321 475.4,598.807321 C483.9,607.407321 496.5,621.407321 503.4,629.907321 C514.6,643.707321 516.6,645.707321 521.8,648.207321 L527.7,651.007321 L524.7,652.907321 C523,653.907321 513.8,662.607321 504.2,672.107321 C485.1,691.307321 483.6,692.307321 465.4,698.007321 L454.9,701.307321 L430.9,701.507321 C407.7,701.607321 406.6,701.707321 397.9,704.407321 C389.8,706.907321 387.1,707.207321 370.9,707.507321 C355.1,707.907321 352.5,707.707321 349.8,706.207321 Z M386,702.607321 C389.8,701.807321 397.4,699.707321 402.8,697.907321 C412.2,694.707321 412.9,694.607321 418.3,695.807321 C421.4,696.507321 428.7,697.307321 434.5,697.607321 C443.5,698.107321 446.5,697.807321 454,695.907321 C479.4,689.507321 487,685.807321 496.7,674.607321 C499.6,671.407321 505.4,665.007321 509.7,660.407321 C518.7,650.907321 518.6,650.507321 506.5,651.407321 C487.9,652.807321 475.9,655.407321 464.8,660.307321 C458.1,663.407321 458.3,663.307321 449,668.407321 C438.9,673.907321 433.1,674.807321 421.5,672.707321 C411.4,670.807321 408.3,670.907321 401.6,673.307321 C394.6,675.807321 388.5,676.207321 382.4,674.407321 C379.4,673.607321 376.5,672.707321 375.9,672.607321 C375.4,672.507321 374.4,672.007321 373.8,671.707321 C373.2,671.307321 366.9,668.907321 359.8,666.307321 C352.7,663.807321 344.8,660.607321 342.3,659.307321 C339.7,658.007321 337.4,657.307321 337,657.607321 C336.7,658.007321 336.4,657.707321 336.4,657.107321 C336.4,654.307321 313.2,649.207321 304.6,650.107321 L301.2,650.407321 L313.7,662.907321 C320.5,669.807321 329.6,679.907321 333.8,685.307321 C341.3,694.907321 347.7,700.907321 352.6,702.907321 C356.1,704.307321 378,704.107321 386,702.607321 Z M349,647.307321 C357.1,643.707321 363.3,640.607321 369.5,637.207321 C379.4,631.607321 402.7,625.007321 413.3,624.807321 C421.7,624.607321 444.8,632.007321 461.9,640.407321 C479.8,649.207321 479.8,649.207321 487.8,648.607321 C502,647.507321 510.4,646.607321 510.4,646.207321 C510.4,645.407321 501.2,632.307321 498.5,629.407321 C497.1,627.807321 493.8,623.707321 491.3,620.407321 C486.5,614.207321 464.5,592.307321 458.4,587.707321 C447.6,579.607321 417.1,573.307321 398.2,575.307321 C392.9,575.907321 390.1,576.907321 383.8,580.707321 C379.4,583.207321 375.7,585.607321 375.4,585.907321 C375.1,586.207321 371.7,588.107321 367.7,590.107321 C356,596.107321 350.2,600.207321 344.4,607.007321 C335.6,617.307321 329.2,623.407321 319.3,631.007321 C316.7,632.907321 312.3,636.607321 309.5,639.107321 L304.3,643.807321 L308.1,644.407321 C316.5,645.707321 328.2,648.007321 332.9,649.307321 C340,651.307321 340.3,651.307321 349,647.307321 Z" id="shape-u" fill="#000000" fill-rule="nonzero" transform="translate(410.85, 639.3435) scale(1, -1) translate(-410.85, -639.3435)"></path>
    </g>
</svg>