<?xml version="1.0" encoding="UTF-8"?>
<svg width="1280px" height="680px" viewBox="0 0 1280 680" version="1.1" xmlns="http://www.w3.org/2000/svg" xmlns:xlink="http://www.w3.org/1999/xlink">
    <title>vowels-mouth-shape-ə</title>
    <g id="vowels-mouth-shape-ə" stroke="none" stroke-width="1" fill="none" fill-rule="evenodd">
        <g id="vowels-mouth-shape" transform="translate(160, 81)" fill-rule="nonzero">
            <text id="ɔ" fill="#000000" font-family="SauceCodeProNF, SauceCodePro Nerd Font" font-size="21" font-weight="normal">
                <tspan x="688.050068" y="358.313087">ɔ</tspan>
            </text>
            <text id="ʊ" fill="#000000" font-family="SauceCodeProNF, SauceCodePro Nerd Font" font-size="21" font-weight="normal">
                <tspan x="837.050068" y="173.313087">ʊ</tspan>
            </text>
            <text id="e" fill="#000000" font-family="SauceCodeProNF, SauceCodePro Nerd Font" font-size="21" font-weight="normal">
                <tspan x="240.050068" y="348.313087">e</tspan>
            </text>
            <text id="ɑ" fill="#000000" font-family="SauceCodeProNF, SauceCodePro Nerd Font" font-size="21" font-weight="normal">
                <tspan x="467.050068" y="511.313087">ɑ</tspan>
            </text>
            <text id="i/ə" fill="#000000" font-family="SauceCodeProNF, SauceCodePro Nerd Font" font-size="21" font-weight="normal">
                <tspan x="112.050068" y="157.313087">i/ə</tspan>
            </text>
            <path d="M55.5,118.680546 C48.5,117.680546 44.3,115.380546 27.7,102.980546 C19.8,97.0805465 10.3,90.0805465 6.6,87.4805465 C3,84.7805465 0,82.2805465 0,81.7805465 C0,81.2805465 1.1,80.9805465 2.5,80.9805465 C4.3,80.9805465 7.6,78.3805465 14.3,71.9805465 C25,61.4805465 28,58.8805465 41.5,48.0805465 C64.2,29.8805465 75,23.2805465 88.7,19.5805465 C95.8,17.5805465 98.1,17.4805465 116,17.9805465 C128.6,18.3805465 137.7,19.0805465 141.8,20.0805465 C158.7,24.2805465 192.9,45.8805465 215.4,66.4805465 C224.1,74.4805465 225.7,75.4805465 231.6,76.9805465 C234.2,77.6805465 236.5,78.6805465 236.7,79.3805465 C237,79.9805465 235.1,82.0805465 232.7,83.8805465 C230.3,85.6805465 225.5,89.4805465 222.1,92.3805465 C218.8,95.2805465 213.9,98.8805465 211.2,100.380546 C208.6,101.880546 202.5,105.780546 197.5,108.880546 C187.5,115.380546 180,118.080546 169.2,119.180546 C161.3,119.980546 133.8,118.880546 134.4,117.780546 C135.3,116.380546 105.6,116.180546 94,117.480546 C81.6,118.980546 61.8,119.480546 55.5,118.680546 Z M90.5,113.080546 C95.1,111.680546 99.2,111.380546 108.5,111.580546 C119.2,111.780546 138.5,113.080546 146.5,114.080546 C159.1,115.780546 166.9,115.680546 175.1,113.880546 C185.2,111.580546 190.5,108.780546 199.1,100.780546 C202.6,97.5805465 208.8,92.8805465 212.8,90.1805465 C216.8,87.5805465 220,85.2805465 219.7,85.0805465 C219,84.2805465 202.5,86.8805465 199,88.3805465 C189.9,92.1805465 171.5,97.6805465 168,97.6805465 C165.8,97.6805465 160.8,97.1805465 156.8,96.5805465 C150,95.5805465 146.8,94.8805465 129,91.0805465 C120,89.1805465 114.4,89.3805465 100.5,92.2805465 C81.1,96.3805465 78,96.7805465 67,97.1805465 C56.1,97.4805465 50.7,96.3805465 40.4,91.6805465 C38.1,90.5805465 34.9,89.4805465 33.4,89.0805465 C31.8,88.6805465 30.1,88.0805465 29.5,87.6805465 C27.2,85.9805465 13.3,83.3805465 11.6,84.3805465 C10.1,85.1805465 10.6,85.8805465 15.2,88.7805465 C18.1,90.6805465 23.9,94.8805465 28,98.2805465 C40.8,108.580546 48.5,113.380546 55.5,115.080546 C60.3,116.280546 84.6,114.880546 90.5,113.080546 Z M214.8,77.0805465 C216,76.7805465 217,76.0805465 217,75.5805465 C217,74.2805465 205.1,61.8805465 200.9,58.8805465 C182.9,46.0805465 163.1,33.2805465 156.5,30.1805465 C152.1,28.0805465 147.7,25.9805465 146.7,25.4805465 C143.7,23.9805465 137,23.3805465 135.6,24.5805465 C134.7,25.3805465 131.9,25.1805465 125.4,23.7805465 C119.2,22.3805465 113.1,21.8805465 105,21.9805465 C92.6,22.1805465 94.2,21.6805465 74.5,31.1805465 C70.7,32.9805465 65.3,36.4805465 62.6,38.8805465 C57.8,43.1805465 50.1,48.9805465 36.5,58.5805465 C32.7,61.2805465 26.4,66.4805465 22.5,70.0805465 L15.5,76.5805465 L20.3,76.6805465 C23,76.6805465 29.7,75.6805465 35.3,74.5805465 C46.1,72.2805465 53.2,71.8805465 61.7,72.7805465 C67.8,73.4805465 77.5,71.7805465 88,68.1805465 C98.6,64.5805465 108.4,63.6805465 120.5,65.3805465 C126,66.0805465 133.2,66.8805465 136.5,67.1805465 C144.2,67.6805465 148.9,68.2805465 163,70.7805465 C169.3,71.8805465 178.8,73.4805465 184,74.3805465 C189.2,75.2805465 195.8,76.5805465 198.5,77.2805465 C203.3,78.5805465 210,78.4805465 214.8,77.0805465 Z" id="shape-i-ə" fill="#000000" transform="translate(118.3656, 68.5909) scale(1, -1) translate(-118.3656, -68.5909)"></path>
            <path d="M493.050068,470.834394 C490.050068,470.334394 475.050068,470.034394 459.850068,469.934394 L432.150068,469.834394 L424.850068,466.034394 C416.150068,461.534394 407.550068,455.434394 387.850068,439.634394 C371.750068,426.934394 366.850068,423.634394 360.350068,421.734394 C357.950068,421.034394 356.050068,420.134394 356.050068,419.734394 C356.050068,418.834394 362.850068,410.534394 373.950068,397.834394 C397.650068,370.734394 416.450068,352.734394 426.250068,347.734394 C439.550068,340.934394 452.350068,336.534394 460.150068,336.034394 C475.550068,335.134394 501.750068,339.534394 513.550068,345.234394 C523.050068,349.734394 530.550068,356.334394 546.950068,374.734394 C565.050068,395.034394 576.550068,406.034394 583.250068,409.434394 C586.150068,410.834394 589.350068,412.734394 590.350068,413.634394 C592.850068,415.834394 592.450068,418.734394 589.550068,419.834394 C588.250068,420.334394 582.950068,424.534394 577.950068,429.034394 C555.050068,449.634394 546.650068,456.034394 528.450068,466.234394 L518.550068,471.834394 L508.550068,471.734394 C503.050068,471.634394 496.050068,471.234394 493.050068,470.834394 Z M517.250068,466.434394 C532.650068,460.634394 550.350068,449.434394 562.550068,437.734394 C566.450068,434.034394 572.050068,428.734394 575.050068,425.934394 C578.050068,423.234394 580.250068,420.634394 579.850068,420.334394 C578.750068,419.234394 568.850068,423.434394 562.150068,427.834394 C555.650068,432.134394 540.750068,439.434394 528.750068,444.234394 C520.950068,447.334394 514.450068,447.734394 502.050068,445.934394 C495.750068,445.034394 491.650068,445.034394 486.050068,445.734394 C473.850068,447.434394 468.850068,448.534394 464.250068,450.334394 C457.450068,453.134394 447.150068,450.634394 429.250068,441.834394 C424.750068,439.634394 420.450068,437.834394 419.750068,437.834394 C419.050068,437.834394 418.050068,437.434394 417.550068,436.934394 C416.250068,435.734394 398.950068,428.534394 392.550068,426.534394 C386.150068,424.534394 375.150068,422.434394 374.550068,423.034394 C373.550068,424.034394 416.450068,457.134394 424.050068,461.234394 C426.750068,462.734394 432.250068,464.634394 436.150068,465.434394 C442.750068,466.834394 445.650068,466.734394 458.550068,465.234394 C467.650068,464.234394 486.050068,465.034394 493.550068,466.734394 C504.450068,469.334394 509.850068,469.234394 517.250068,466.434394 Z M384.550068,417.934394 C384.250068,417.334394 385.050068,416.434394 386.250068,415.734394 C387.550068,415.134394 390.350068,413.134394 392.550068,411.334394 C396.850068,407.934394 404.050068,404.034394 411.750068,400.934394 C416.350068,399.134394 427.150068,392.834394 437.350068,385.834394 C443.450068,381.734394 461.250068,376.634394 469.550068,376.634394 C475.450068,376.634394 488.850068,378.934394 503.550068,382.334394 C511.050068,384.134394 520.050068,388.334394 534.550068,396.934394 C548.250068,405.034394 564.550068,412.634394 569.050068,413.234394 C571.350068,413.434394 573.650068,414.134394 574.350068,414.634394 C575.450068,415.534394 580.050068,414.534394 580.050068,413.534394 C580.050068,413.334394 576.950068,410.834394 573.250068,408.034394 C569.550068,405.234394 564.550068,400.834394 562.150068,398.134394 C559.850068,395.534394 554.850068,389.934394 551.150068,385.834394 C547.350068,381.734394 540.950068,374.234394 536.750068,369.234394 C532.650068,364.234394 527.350068,358.534394 525.150068,356.534394 C517.650068,349.734394 501.150068,342.834394 492.650068,342.834394 C490.350068,342.834394 482.750068,341.834394 475.650068,340.634394 C465.150068,338.934394 461.950068,338.734394 458.150068,339.534394 C451.750068,341.034394 444.650068,343.634394 437.550068,346.934394 C434.250068,348.434394 430.250068,350.034394 428.750068,350.434394 C422.750068,351.834394 382.950068,391.134394 372.150068,406.234394 C365.050068,416.034394 365.150068,416.334394 373.050068,417.334394 C375.550068,417.734394 378.050068,418.134394 378.550068,418.334394 C380.750068,419.134394 385.150068,418.734394 384.550068,417.934394 Z" id="shape-a" fill="#DDDDDD" transform="translate(474.025, 403.8758) scale(1, -1) translate(-474.025, -403.8758)"></path>
            <path d="M192.465248,302.459945 C183.365248,300.559945 173.065248,294.459945 159.865248,283.159945 C152.365248,276.759945 125.865248,252.359945 125.465248,251.459945 C125.265248,251.159945 127.065248,249.859945 129.465248,248.559945 C136.465248,244.559945 148.965248,235.259945 163.165248,223.359945 C184.565248,205.459945 193.965248,198.559945 203.765248,193.859945 L212.965248,189.359945 L234.765248,190.459945 C266.765248,191.959945 281.965248,193.359945 287.865248,195.459945 C295.465248,198.159945 305.365248,205.359945 326.665248,223.959945 C346.565248,241.359945 352.465248,245.459945 360.565248,247.959945 C365.965248,249.559945 368.465248,251.259945 367.565248,252.559945 C367.265248,253.059945 366.265248,253.459945 365.165248,253.459945 C364.165248,253.459945 361.065248,256.159945 358.165248,259.459945 C355.365248,262.759945 349.965248,267.759945 346.365248,270.659945 C342.665248,273.559945 336.365248,278.959945 332.365248,282.659945 C312.065248,301.359945 290.965248,306.359945 251.265248,301.859945 C239.365248,300.459945 235.765248,300.459945 229.765248,301.459945 C220.565248,302.959945 197.865248,303.659945 192.465248,302.459945 Z M295.165248,297.759945 C303.065248,295.959945 313.265248,292.059945 318.665248,288.659945 C320.865248,287.259945 326.065248,282.759945 330.165248,278.559945 C334.365248,274.359945 341.265248,268.259945 345.665248,264.959945 C354.565248,258.159945 356.165248,256.659945 356.165248,255.359945 C356.165248,253.459945 336.665248,255.159945 335.365248,257.159945 C334.965248,257.659945 333.365248,258.159945 331.665248,258.259945 C327.865248,258.359945 311.765248,264.159945 302.665248,268.659945 C298.865248,270.659945 292.565248,273.459945 288.665248,274.959945 C281.165248,277.959945 278.065248,278.159945 251.665248,277.459945 C244.565248,277.159945 239.265248,277.559945 236.865248,278.359945 C234.765248,279.059945 229.765248,279.659945 225.765248,279.759945 C220.065248,279.859945 217.665248,279.359945 214.165248,277.559945 C208.565248,274.659945 198.965248,270.959945 197.765248,271.259945 C197.265248,271.459945 196.165248,270.859945 195.165248,269.959945 C191.965248,267.059945 174.665248,258.659945 166.465248,256.159945 C159.565248,253.959945 157.165248,253.659945 149.565248,254.059945 C137.665248,254.759945 137.165248,254.859945 137.165248,255.259945 C137.165248,256.859945 152.965248,272.159945 163.165248,280.459945 C177.765248,292.359945 181.265248,294.559945 190.565248,297.559945 C196.565248,299.459945 198.965248,299.659945 208.065248,299.159945 C213.965248,298.859945 221.965248,297.859945 225.965248,296.859945 C232.565248,295.259945 234.465248,295.259945 245.465248,296.359945 C252.165248,297.159945 260.565248,298.259945 264.165248,299.059945 C271.665248,300.559945 285.265248,300.059945 295.165248,297.759945 Z M335.765248,251.459945 C337.965248,250.959945 342.365248,250.459945 345.465248,250.359945 C348.665248,250.259945 351.165248,249.859945 351.165248,249.559945 C351.165248,249.259945 349.765248,248.359945 348.165248,247.559945 C346.465248,246.859945 342.265248,243.659945 338.865248,240.559945 C331.965248,234.159945 324.865248,227.859945 311.265248,215.959945 C290.665248,198.059945 283.965248,195.459945 259.065248,195.459945 C250.065248,195.459945 237.765248,194.959945 231.565248,194.359945 C210.365248,192.159945 203.165248,195.259945 174.565248,218.359945 C170.265248,221.859945 164.665248,226.459945 162.165248,228.659945 C159.665248,230.759945 153.665248,235.759945 148.865248,239.659945 C142.665248,244.659945 140.465248,247.059945 141.365248,247.659945 C142.065248,248.059945 145.865248,248.459945 149.665248,248.459945 C157.665248,248.459945 168.965248,245.659945 186.165248,239.459945 C207.965248,231.559945 228.265248,229.559945 251.665248,232.959945 C257.165248,233.759945 266.465248,234.459945 272.365248,234.459945 C293.265248,234.459945 299.965248,236.459945 324.165248,249.459945 C330.365248,252.759945 330.165248,252.759945 335.765248,251.459945 Z" id="shape-e" fill="#DDDDDD" transform="translate(246.5976, 246.3834) scale(1, -1) translate(-246.5976, -246.3834)"></path>
            <path d="M782.550068,135.207321 C776.850068,131.907321 771.150068,126.507321 761.350068,115.507321 C756.050068,109.407321 747.250068,99.8073212 741.850068,94.0073212 C736.450068,88.3073212 730.850068,81.8073212 729.350068,79.7073212 L726.750068,75.7073212 L731.250068,71.5073212 C733.750068,69.3073212 741.150068,62.8073212 747.750068,57.2073212 C754.250068,51.5073212 765.050068,41.9073212 771.650068,35.8073212 C784.650068,23.7073212 789.850068,20.0073212 810.150068,8.30732124 C823.050068,0.807321242 823.950068,0.507321242 831.050068,0.107321242 C840.750068,-0.492678758 860.650068,1.50732124 871.150068,4.00732124 C886.650068,7.70732124 890.850068,10.3073212 908.150068,27.8073212 C916.650068,36.4073212 929.250068,50.4073212 936.150068,58.9073212 C947.350068,72.7073212 949.350068,74.7073212 954.550068,77.2073212 L960.450068,80.0073212 L957.450068,81.9073212 C955.750068,82.9073212 946.550068,91.6073212 936.950068,101.107321 C917.850068,120.307321 916.350068,121.307321 898.150068,127.007321 L887.650068,130.307321 L863.650068,130.507321 C840.450068,130.607321 839.350068,130.707321 830.650068,133.407321 C822.550068,135.907321 819.850068,136.207321 803.650068,136.507321 C787.850068,136.907321 785.250068,136.707321 782.550068,135.207321 Z M818.750068,131.607321 C822.550068,130.807321 830.150068,128.707321 835.550068,126.907321 C844.950068,123.707321 845.650068,123.607321 851.050068,124.807321 C854.150068,125.507321 861.450068,126.307321 867.250068,126.607321 C876.250068,127.107321 879.250068,126.807321 886.750068,124.907321 C912.150068,118.507321 919.750068,114.807321 929.450068,103.607321 C932.350068,100.407321 938.150068,94.0073212 942.450068,89.4073212 C951.450068,79.9073212 951.350068,79.5073212 939.250068,80.4073212 C920.650068,81.8073212 908.650068,84.4073212 897.550068,89.3073212 C890.850068,92.4073212 891.050068,92.3073212 881.750068,97.4073212 C871.650068,102.907321 865.850068,103.807321 854.250068,101.707321 C844.150068,99.8073212 841.050068,99.9073212 834.350068,102.307321 C827.350068,104.807321 821.250068,105.207321 815.150068,103.407321 C812.150068,102.607321 809.250068,101.707321 808.650068,101.607321 C808.150068,101.507321 807.150068,101.007321 806.550068,100.707321 C805.950068,100.307321 799.650068,97.9073212 792.550068,95.3073212 C785.450068,92.8073212 777.550068,89.6073212 775.050068,88.3073212 C772.450068,87.0073212 770.150068,86.3073212 769.750068,86.6073212 C769.450068,87.0073212 769.150068,86.7073212 769.150068,86.1073212 C769.150068,83.3073212 745.950068,78.2073212 737.350068,79.1073212 L733.950068,79.4073212 L746.450068,91.9073212 C753.250068,98.8073212 762.350068,108.907321 766.550068,114.307321 C774.050068,123.907321 780.450068,129.907321 785.350068,131.907321 C788.850068,133.307321 810.750068,133.107321 818.750068,131.607321 Z M781.750068,76.3073212 C789.850068,72.7073212 796.050068,69.6073212 802.250068,66.2073212 C812.150068,60.6073212 835.450068,54.0073212 846.050068,53.8073212 C854.450068,53.6073212 877.550068,61.0073212 894.650068,69.4073212 C912.550068,78.2073212 912.550068,78.2073212 920.550068,77.6073212 C934.750068,76.5073212 943.150068,75.6073212 943.150068,75.2073212 C943.150068,74.4073212 933.950068,61.3073212 931.250068,58.4073212 C929.850068,56.8073212 926.550068,52.7073212 924.050068,49.4073212 C919.250068,43.2073212 897.250068,21.3073212 891.150068,16.7073212 C880.350068,8.60732124 849.850068,2.30732124 830.950068,4.30732124 C825.650068,4.90732124 822.850068,5.90732124 816.550068,9.70732124 C812.150068,12.2073212 808.450068,14.6073212 808.150068,14.9073212 C807.850068,15.2073212 804.450068,17.1073212 800.450068,19.1073212 C788.750068,25.1073212 782.950068,29.2073212 777.150068,36.0073212 C768.350068,46.3073212 761.950068,52.4073212 752.050068,60.0073212 C749.450068,61.9073212 745.050068,65.6073212 742.250068,68.1073212 L737.050068,72.8073212 L740.850068,73.4073212 C749.250068,74.7073212 760.950068,77.0073212 765.650068,78.3073212 C772.750068,80.3073212 773.050068,80.3073212 781.750068,76.3073212 Z" id="shape-u" fill="#DDDDDD" transform="translate(843.6001, 68.3435) scale(1, -1) translate(-843.6001, -68.3435)"></path>
            <path d="M633.850068,313.207321 C628.150068,309.907321 622.450068,304.507321 612.650068,293.507321 C607.350068,287.407321 598.550068,277.807321 593.150068,272.007321 C587.750068,266.307321 582.150068,259.807321 580.650068,257.707321 L578.050068,253.707321 L582.550068,249.507321 C585.050068,247.307321 592.450068,240.807321 599.050068,235.207321 C605.550068,229.507321 616.350068,219.907321 622.950068,213.807321 C635.950068,201.707321 641.150068,198.007321 661.450068,186.307321 C674.350068,178.807321 675.250068,178.507321 682.350068,178.107321 C692.050068,177.507321 711.950068,179.507321 722.450068,182.007321 C737.950068,185.707321 742.150068,188.307321 759.450068,205.807321 C767.950068,214.407321 780.550068,228.407321 787.450068,236.907321 C798.650068,250.707321 800.650068,252.707321 805.850068,255.207321 L811.750068,258.007321 L808.750068,259.907321 C807.050068,260.907321 797.850068,269.607321 788.250068,279.107321 C769.150068,298.307321 767.650068,299.307321 749.450068,305.007321 L738.950068,308.307321 L714.950068,308.507321 C691.750068,308.607321 690.650068,308.707321 681.950068,311.407321 C673.850068,313.907321 671.150068,314.207321 654.950068,314.507321 C639.150068,314.907321 636.550068,314.707321 633.850068,313.207321 Z M670.050068,309.607321 C673.850068,308.807321 681.450068,306.707321 686.850068,304.907321 C696.250068,301.707321 696.950068,301.607321 702.350068,302.807321 C705.450068,303.507321 712.750068,304.307321 718.550068,304.607321 C727.550068,305.107321 730.550068,304.807321 738.050068,302.907321 C763.450068,296.507321 771.050068,292.807321 780.750068,281.607321 C783.650068,278.407321 789.450068,272.007321 793.750068,267.407321 C802.750068,257.907321 802.650068,257.507321 790.550068,258.407321 C771.950068,259.807321 759.950068,262.407321 748.850068,267.307321 C742.150068,270.407321 742.350068,270.307321 733.050068,275.407321 C722.950068,280.907321 717.150068,281.807321 705.550068,279.707321 C695.450068,277.807321 692.350068,277.907321 685.650068,280.307321 C678.650068,282.807321 672.550068,283.207321 666.450068,281.407321 C663.450068,280.607321 660.550068,279.707321 659.950068,279.607321 C659.450068,279.507321 658.450068,279.007321 657.850068,278.707321 C657.250068,278.307321 650.950068,275.907321 643.850068,273.307321 C636.750068,270.807321 628.850068,267.607321 626.350068,266.307321 C623.750068,265.007321 621.450068,264.307321 621.050068,264.607321 C620.750068,265.007321 620.450068,264.707321 620.450068,264.107321 C620.450068,261.307321 597.250068,256.207321 588.650068,257.107321 L585.250068,257.407321 L597.750068,269.907321 C604.550068,276.807321 613.650068,286.907321 617.850068,292.307321 C625.350068,301.907321 631.750068,307.907321 636.650068,309.907321 C640.150068,311.307321 662.050068,311.107321 670.050068,309.607321 Z M633.050068,254.307321 C641.150068,250.707321 647.350068,247.607321 653.550068,244.207321 C663.450068,238.607321 686.750068,232.007321 697.350068,231.807321 C705.750068,231.607321 728.850068,239.007321 745.950068,247.407321 C763.850068,256.207321 763.850068,256.207321 771.850068,255.607321 C786.050068,254.507321 794.450068,253.607321 794.450068,253.207321 C794.450068,252.407321 785.250068,239.307321 782.550068,236.407321 C781.150068,234.807321 777.850068,230.707321 775.350068,227.407321 C770.550068,221.207321 748.550068,199.307321 742.450068,194.707321 C731.650068,186.607321 701.150068,180.307321 682.250068,182.307321 C676.950068,182.907321 674.150068,183.907321 667.850068,187.707321 C663.450068,190.207321 659.750068,192.607321 659.450068,192.907321 C659.150068,193.207321 655.750068,195.107321 651.750068,197.107321 C640.050068,203.107321 634.250068,207.207321 628.450068,214.007321 C619.650068,224.307321 613.250068,230.407321 603.350068,238.007321 C600.750068,239.907321 596.350068,243.607321 593.550068,246.107321 L588.350068,250.807321 L592.150068,251.407321 C600.550068,252.707321 612.250068,255.007321 616.950068,256.307321 C624.050068,258.307321 624.350068,258.307321 633.050068,254.307321 Z" id="shape-o" fill="#DDDDDD" transform="translate(694.9001, 246.3435) scale(1, -1) translate(-694.9001, -246.3435)"></path>
        </g>
    </g>
</svg>