<svg width="24" height="25" viewBox="0 0 24 25" fill="none" xmlns="http://www.w3.org/2000/svg">
  <path fill-rule="evenodd" clip-rule="evenodd"
    d="M12 2.5C6.47715 2.5 2 6.97715 2 12.5C2 18.0228 6.47715 22.5 12 22.5C17.5228 22.5 22 18.0228 22 12.5C22 6.97715 17.5228 2.5 12 2.5Z"
    fill="#E4F2FE" />
  <path fill-rule="evenodd" clip-rule="evenodd"
    d="M15.774 10.6333C16.1237 10.2058 16.0607 9.5758 15.6332 9.22607C15.2058 8.87635 14.5758 8.93935 14.226 9.36679L10.4258 14.0116L9.20711 12.7929C8.81658 12.4024 8.18342 12.4024 7.79289 12.7929C7.40237 13.1834 7.40237 13.8166 7.79289 14.2071L9.79289 16.2071C9.99267 16.4069 10.2676 16.5129 10.5498 16.4988C10.832 16.4847 11.095 16.3519 11.274 16.1333L15.774 10.6333Z"
    fill="#2F8EFF" />
</svg>