<svg width="24" height="16" viewBox="0 0 24 16" fill="none" xmlns="http://www.w3.org/2000/svg">
  <path fill-rule="evenodd" clip-rule="evenodd"
    d="M6.04792 9.90479C6.38107 9.90479 6.70624 9.87058 7.02009 9.80547C6.85026 10.0891 6.66523 10.3643 6.46706 10.6284C5.8679 11.427 5.18291 12.0759 4.51148 12.5155C3.82775 12.9632 3.23901 13.1429 2.80982 13.1429V15.8096C3.92555 15.8096 5.01984 15.3702 5.97233 14.7464C6.93713 14.1147 7.84156 13.2398 8.60009 12.2288C10.0999 10.2299 11.167 7.50477 10.7978 4.7738L10.7957 4.77407C10.6075 2.31649 8.55374 0.380981 6.04792 0.380981C3.41799 0.380981 1.28601 2.51296 1.28601 5.14289C1.28601 7.77281 3.41799 9.90479 6.04792 9.90479ZM18.2384 9.90479C18.5715 9.90479 18.8967 9.87058 19.2106 9.80547C19.0407 10.0891 18.8557 10.3643 18.6575 10.6284C18.0584 11.427 17.3734 12.0759 16.702 12.5155C16.0182 12.9632 15.4295 13.1429 15.0003 13.1429V15.8096C16.116 15.8096 17.2103 15.3702 18.1628 14.7464C19.1276 14.1147 20.032 13.2398 20.7906 12.2288C22.2904 10.2299 23.3575 7.50477 22.9883 4.7738L22.9862 4.77407C22.798 2.31649 20.7442 0.380981 18.2384 0.380981C15.6085 0.380981 13.4765 2.51296 13.4765 5.14289C13.4765 7.77281 15.6085 9.90479 18.2384 9.90479Z"
    fill="#CEDDEA" />
</svg>