<svg width="14" height="14" viewBox="0 0 14 14" fill="none" xmlns="http://www.w3.org/2000/svg">
  <g id="Frame 2053139512">
    <path id="&#226;&#128;&#156;" opacity="0.4"
      d="M5.576 2L6.12 2.896C3.912 3.952 2.952 5.648 2.856 6.736C4.36 7.152 5.768 7.856 5.768 9.616C5.768 10.8 4.84 11.696 3.496 11.696C2.024 11.696 1 10.64 1 8.688C1 6.384 2.152 3.44 5.576 2ZM12.488 2L13.064 2.896C10.856 3.952 9.896 5.648 9.768 6.736C11.304 7.152 12.712 7.856 12.712 9.616C12.712 10.8 11.784 11.696 10.408 11.696C8.968 11.696 7.944 10.64 7.944 8.688C7.944 6.384 9.096 3.44 12.488 2Z"
      fill="#212121" />
  </g>
</svg>