<?xml version="1.0" encoding="UTF-8"?>
<svg width="496px" height="225px" viewBox="0 0 496 225" version="1.1" xmlns="http://www.w3.org/2000/svg" xmlns:xlink="http://www.w3.org/1999/xlink">
    <title>nuclear-accented-words</title>
    <g id="Page-1" stroke="none" stroke-width="1" fill="none" fill-rule="evenodd">
        <g id="nuclear-accented-words">
            <g id="Marianna-made-the-ma" transform="translate(60, 100)" fill="#000000" fill-rule="nonzero" font-family="CourierNewPSMT, Courier New" font-size="20" font-weight="normal">
                <text>
                    <tspan x="0" y="17">Marianna made the marmalade…</tspan>
                </text>
            </g>
            <g id="这两个单词被-“强读”-了" fill="#000000" fill-rule="nonzero" font-family="STKaiti" font-size="18" font-weight="normal">
                <text>
                    <tspan x="0" y="19">这两个单词被 “强读” 了</tspan>
                </text>
            </g>
            <polygon id="Line" fill="#979797" fill-rule="nonzero" points="73.6570048 32.8105441 73.9232304 33.2337744 108.397 88.039 111.783239 85.9090536 112.766226 95.9232304 104.165092 90.7011136 107.551 88.571 73.0767696 33.7662256 72.8105441 33.3429952"></polygon>
            <polygon id="Line-Copy" fill="#979797" fill-rule="nonzero" points="73.2445122 32.868558 73.8145075 33.0196884 289.79633 90.2858981 291.300439 86.6197635 299.868558 93.4645078 287.916851 94.868558 289.42061 91.2017661 73.4385532 33.9362211 72.868558 33.7850908"></polygon>
            <polygon id="Line-Copy-4" fill="#979797" fill-rule="nonzero" transform="translate(196.5069, 163.0694) scale(-1, 1) rotate(-180) translate(-196.5069, -163.0694)" points="206.516928 129.019664 207.477631 129.297242 207.338842 129.777594 190.339 188.61142 194.182581 189.721932 187.361211 197.119156 185.536254 187.223726 189.379 188.33342 206.378139 129.500015"></polygon>
            <polygon id="Line-Copy-3" fill="#979797" fill-rule="nonzero" transform="translate(225.4613, 163.1225) scale(-1, 1) rotate(-180) translate(-225.4613, -163.1225)" points="207.049503 129.064084 207.294406 129.5 240.772 189.088903 244.259884 187.130209 244.744903 197.180819 236.413404 191.538468 239.9 189.578903 206.422575 129.989806 206.177672 129.553891"></polygon>
            <polygon id="Line-Copy-2" fill="#979797" fill-rule="nonzero" points="382.494251 32.7929166 383.207083 33.4942514 382.856416 33.8506674 327.817 89.791 330.66909 92.596934 321.149333 95.856416 324.253601 86.284921 327.105 89.089 382.143584 33.1493326"></polygon>
            <polygon id="Line-Copy-5" fill="#979797" fill-rule="nonzero" points="322.605634 168 322.605634 172 375 172 375 173 322.605634 173 322.605634 177 315 172.5"></polygon>
            <g id="这个词-“句内最强”" transform="translate(310, 0)" fill="#000000" fill-rule="nonzero" font-family="STKaiti" font-size="18" font-weight="normal">
                <text>
                    <tspan x="0" y="19">这个词 “句内最强”</tspan>
                </text>
            </g>
            <g id="这两个词没有被-“强读”" transform="translate(96, 202)" fill="#000000" fill-rule="nonzero" font-family="STKaiti" font-size="18" font-weight="normal">
                <text>
                    <tspan x="0" y="19">这两个词没有被 “强读”</tspan>
                </text>
            </g>
            <line x1="113.5" y1="130.5" x2="113.5" y2="155.5" id="Line-2" stroke="#979797" stroke-linecap="square"></line>
            <g id="H*" transform="translate(108, 163)" fill="#000000" fill-rule="nonzero" font-family="CourierNewPSMT, Courier New" font-size="18" font-weight="normal">
                <text>
                    <tspan x="0" y="15">H*</tspan>
                </text>
            </g>
            <line x1="291.5" y1="130.5" x2="291.5" y2="155.5" id="Line-2-Copy" stroke="#979797" stroke-linecap="square"></line>
            <g id="H*-Copy" transform="translate(288, 163)" fill="#000000" fill-rule="nonzero" font-family="CourierNewPSMT, Courier New" font-size="18" font-weight="normal">
                <text id="H*">
                    <tspan x="0" y="15">H*</tspan>
                </text>
            </g>
            <g id="这两个音节的-“音高”-更高" transform="translate(388, 151)" fill="#000000" fill-rule="nonzero" font-family="STKaiti" font-size="18" font-weight="normal">
                <text id="这两个音节的">
                    <tspan x="0" y="19">这两个音节的</tspan>
                </text>
                <text id="“音高”-更高">
                    <tspan x="0" y="41">“音高” 更高</tspan>
                </text>
            </g>
        </g>
    </g>
</svg>