<svg width="1024" height="1024" viewBox="0 0 1024 1024" fill="none" xmlns="http://www.w3.org/2000/svg">
<rect width="1024" height="1024" fill="none"/>
<path fill-rule="evenodd" clip-rule="evenodd" d="M410.456 269.791C400.334 292.501 394.708 317.655 394.708 344.123V596.017L394.667 596L272 684.144V436.231C272 353.277 331.686 284.263 410.456 269.791ZM256 695.641V436.231C256 341.306 327.404 263.058 419.431 252.269C451.099 197.898 510.02 161.354 577.477 161.354C678.417 161.354 760.246 243.183 760.246 344.123V748.2V752.299L756.919 754.694L626.462 848.566V848.603L623.858 850.405L608.092 843.953L418.422 764.884L405.632 759.552L416.645 751.142L535.699 660.225L539.375 657.418L543.643 659.204L610.462 687.174V436.231C610.462 342.767 534.694 267 441.231 267C437.24 267 433.282 267.138 429.36 267.41C417.442 290.375 410.708 316.463 410.708 344.123V602.841L497.433 639.828L360.5 740.5L255.5 696L256 695.641ZM541.732 675.749L610.462 704.52V827.606L437.368 755.448L541.732 675.749ZM729.818 754.483L626.462 711.217V828.854L729.818 754.483ZM626.462 693.872L744.246 743.177V344.123C744.246 252.019 669.581 177.354 577.477 177.354C519.855 177.354 469.059 206.578 439.101 251.012C439.81 251.004 440.52 251 441.231 251C543.531 251 626.462 333.931 626.462 436.231V693.872Z" fill="#C94A3D"/>
</svg>
