<?xml version="1.0" encoding="UTF-8"?>
<svg height="60.19" viewBox="0,0,224.443,60.1867" width="224.44" xmlns="http://www.w3.org/2000/svg" xmlns:xlink="http://www.w3.org/1999/xlink">
 <radialGradient id="a" cx="-122.39" cy="442.72" gradientTransform="matrix(1 0 0 -1 134.45 453.73)" gradientUnits="userSpaceOnUse" r="29.58">
  <stop offset="0" stop-color="#fff"/>
  <stop offset="1" stop-color="#007808"/>
 </radialGradient>
 <path d="m.511 12.364v-7.286l4.891 1.685v6.778z" fill="#0b4819"/>
 <path d="m4.455 42.317v-27.091l4.675.989v25.178z" fill="#0b4819"/>
 <path d="m27.321 5.066-12.015 13.78v5.864l17.82-20.093 28.225-2.185-41.517 43.274 5.527.291 30.155-30.843v29.151l-3.35 3.149 8.496.459v8.068l-26.65-2.064 13.585-13.179v-6.495l-19.422 19.222-23.256-1.798 37.303-40.117-6.139.332-26.953 29.511v-25.178l2.553-3.014-6.281.34v-6.778z" fill="#105c80"/>
 <path d="m4.455 15.226 2.704-3.255 4.524 1.23-2.553 3.014z" fill="#0b4819"/>
 <path d="m11.004 18.039 4.302.807v5.864l-4.302-.352z" fill="#084010"/>
 <path d="m15.82 47.006 4.014-1.3 5.527.291-3.647 1.349z" fill="#0c541e"/>
 <path d="m23.808 3.106 3.513 1.96-12.015 13.78-4.302-.807z" fill="#1a5c34"/>
 <path d="m11.004 24.358 19.018-21.778 3.104 2.037-17.82 20.093z" fill="#0b4819"/>
 <path d="m33.195 10.432 2.888 1.45-26.953 29.511-4.675.924z" fill="#1a5c34"/>
 <path d="m0 53.344 39.798-43.302 2.424 1.508-37.303 40.117z" fill="#0b4819"/>
 <path d="m45.597 34.677 2-.434-19.422 19.222-3.454 1.972z" fill="#1a5c34"/>
 <path d="m45.597 41.737v-7.06l2-.434v6.495z" fill="#0b4819"/>
 <path d="m30.973 55.965 14.624-14.228 2-.999-13.585 13.179z" fill="#0b4819"/>
 <path d="m54.168 45.648-3.63 3.411 1.628-1.605 3.35-3.149z" fill="#13802d"/>
 <path d="m21.714 47.346 32.454-33.446 1.348 1.254-30.155 30.843z" fill="#0b4819"/>
 <path d="m54.168 13.9 1.348 1.254v29.151l-1.348 1.343z" fill="#084010"/>
 <path d="m59.759 49.604.903-1.691v8.068l-.903 2.422z" fill="#084010"/>
 <path d="m60.507 0 .844 2.432-41.517 43.274-4.014 1.3z" fill="#1a5c34"/>
 <path d="m23.808 3.106-12.804 14.933v6.319l19.018-21.778 30.485-2.58-44.687 47.006 5.894.34 32.454-33.446v31.748l-3.63 3.411 9.221.545v8.799l-28.786-2.438 14.624-14.228v-7.06l-20.876 20.76-24.721-2.093 39.798-43.302-6.603.39-28.74 31.885v-27.091l2.704-3.255-6.648.393v-7.286z" fill="url(#a)"/>
 <g transform="matrix(2.61604 0 0 2.61604 70 -145)">
  <path d="m2.907 66.777h3.918v2.452h-3.918v5.458h-2.11v.001-13.184h7.421v2.461h-5.311z"/>
  <path d="m11.13 66.777h3.919v2.452h-3.919v5.458h-2.109v.001-13.184h7.421v2.461h-5.312z"/>
  <path d="m19.69 69.063v5.625h-2.461v-8.534l2.461-.264v.782c.551-.517 1.254-.773 2.109-.773 1.113 0 1.963.337 2.549 1.011.645-.674 1.611-1.011 2.9-1.011 1.113 0 1.963.337 2.549 1.011.586.675.879 1.45.879 2.329v5.449h-2.461v-4.834c0-.586-.132-1.04-.396-1.362-.264-.321-.691-.491-1.283-.51-.486.035-.908.357-1.266.967-.029.183-.044.366-.044.555v5.186h-2.461v-4.834c0-.586-.132-1.04-.396-1.362-.264-.321-.689-.492-1.281-.511-.539.034-1.005.394-1.398 1.08z"/>
  <path d="m31.913 78.379v-12.225l2.461-.264v.703c.656-.47 1.301-.703 1.934-.703 1.348 0 2.417.438 3.208 1.317.791.88 1.187 1.904 1.187 3.076s-.396 2.197-1.187 3.076-1.86 1.318-3.208 1.318c-.879-.06-1.523-.296-1.934-.712v4.421zm2.461-8.885v1.425c.117.983.732 1.562 1.846 1.73 1.406-.111 2.197-.841 2.373-2.188-.059-1.642-.85-2.49-2.373-2.55-1.114.176-1.729.704-1.846 1.583z"/>
  <path d="m41.094 70.293c0-1.289.41-2.345 1.23-3.164.82-.82 1.875-1.23 3.164-1.23s2.314.41 3.076 1.23c.762.819 1.143 1.875 1.143 3.164v.879h-6.064c.059.469.264.835.615 1.099s.762.396 1.23.396c.82 0 1.553-.233 2.197-.702l1.406 1.405c-.645.879-1.846 1.318-3.604 1.318-1.289 0-2.344-.41-3.164-1.23s-1.229-1.875-1.229-3.165zm5.625-1.977c-.352-.264-.762-.396-1.23-.396s-.879.132-1.23.396-.527.63-.527 1.099h3.516c-.002-.469-.178-.835-.529-1.099z"/>
  <path d="m59.037 66.163v7.822c0 1.23-.366 2.259-1.099 3.085s-1.655 1.263-2.769 1.311l-.527.053c-1.699-.035-3.018-.521-3.955-1.459l1.143-1.318c.645.47 1.427.732 2.347.791.938 0 1.572-.22 1.902-.659.332-.438.497-.923.497-1.449v-.439c-.656.527-1.418.791-2.285.791-1.348 0-2.358-.396-3.032-1.187s-1.011-1.86-1.011-3.208c0-1.289.366-2.345 1.099-3.164.733-.82 1.772-1.23 3.12-1.23.996.06 1.699.325 2.109.8v-.8zm-2.461 4.921v-1.424c-.117-.983-.732-1.562-1.846-1.73-1.465.053-2.256.782-2.373 2.188.059 1.642.85 2.49 2.373 2.55 1.114-.177 1.729-.705 1.846-1.584z"/>
 </g>
</svg>
